<?xml version="1.0" standalone="no"?>
<!DOCTYPE svg PUBLIC "-//W3C//DTD SVG 1.1//EN" "http://www.w3.org/Graphics/SVG/1.1/DTD/svg11.dtd" >
<svg>
<metadata>
Created by FontForge 20090914 at Fri Jun  5 10:52:33 2015
 By www-data
Copyright (c) 2011 by Vincenzo Vuono. All rights reserved.
</metadata>
<defs>
<font id="Gravity-Bold" horiz-adv-x="1448" >
  <font-face 
    font-family="Gravity"
    font-weight="700"
    font-stretch="normal"
    units-per-em="2048"
    panose-1="2 11 6 3 5 5 2 6 8 4"
    ascent="1638"
    descent="-410"
    x-height="1069"
    cap-height="1472"
    bbox="-110.386 -463.999 1976 1975"
    underline-thickness="92"
    underline-position="-174"
    unicode-range="U+0020-U+2122"
  />
<missing-glyph horiz-adv-x="1214" 
d="M90 1471h1024v-1472h-1024v1472zM910 1348h-616l308 -489zM1002 244v980l-306 -489zM910 119l-308 491l-308 -492zM199 244l310 491l-310 489v-980z" />
    <glyph glyph-name=".notdef" horiz-adv-x="1214" 
d="M90 1471h1024v-1472h-1024v1472zM910 1348h-616l308 -489zM1002 244v980l-306 -489zM910 119l-308 491l-308 -492zM199 244l310 491l-310 489v-980z" />
    <glyph glyph-name="space" unicode=" " horiz-adv-x="590" 
 />
    <glyph glyph-name="exclam" unicode="!" horiz-adv-x="568" 
d="M400 456c0 -10 -4 -19.667 -12 -29s-17.667 -14 -29 -14h-154c-11.333 0 -21.166 4.66699 -29.499 14s-12.5 19 -12.5 29l23 969c0 14.667 4.16699 26.167 12.5 34.5s19.166 12.5 32.499 12.5h102c11.333 0 21.5 -4.16699 30.5 -12.5s13.5 -18.833 13.5 -31.5zM423 41
c0 -11.333 -4.50098 -21 -13.501 -29s-18.833 -12 -29.5 -12h-199c-9.33301 0 -18.5 4 -27.5 12s-13.5 17.667 -13.5 29l2 150c0 10.667 4.33301 20.167 13 28.5s18.334 12.5 29.001 12.5h193c11.333 0 21 -4.16699 29 -12.5s12.667 -17.833 14 -28.5z" />
    <glyph glyph-name="quotedbl" unicode="&#x22;" horiz-adv-x="758" 
d="M315 1016c0 -12.667 -3.83398 -23 -11.501 -31s-17.5 -12 -29.5 -12h-102c-11.333 0 -21.166 4.16699 -29.499 12.5s-12.5 18.166 -12.5 29.499v410c0 11.333 3.5 22 10.5 32s17.167 15 30.5 15h107c11.333 0 20.333 -5.16699 27 -15.5s10 -21.166 10 -32.499v-408z
M622.999 1016c0 -12.667 -3.66797 -23 -11.001 -31s-17.333 -12 -30 -12h-101c-11.333 0 -21.333 4.16699 -30 12.5s-13 18.166 -13 29.499v410c0 11.333 3.66699 22 11 32s17.333 15 30 15h108c10.667 0 19.334 -5.16699 26.001 -15.5s10 -21.166 10 -32.499v-408z" />
    <glyph glyph-name="numbersign" unicode="#" horiz-adv-x="1305" 
d="M1204 922c-0.666992 -8 -4.33203 -14.834 -10.999 -20.501s-14 -8.5 -22 -8.5h-201c-11.333 0 -18 -5.66699 -20 -17l-31 -188c-1.33301 -7.33301 0.333984 -13.5 5.00098 -18.5s10.334 -7.5 17.001 -7.5h174c9.33301 0 18.666 -3.66699 27.999 -11s13 -15.333 11 -24
l-20 -121c-1.33301 -9.33301 -5.16602 -16.5 -11.499 -21.5s-13.833 -7.5 -22.5 -7.5h-193c-5.33301 0 -10.5 -1.66699 -15.5 -5s-8.16699 -8 -9.5 -14l-72 -429c-2 -9.33301 -6.83301 -16.5 -14.5 -21.5s-16.167 -7.5 -25.5 -7.5h-112c-8.66699 0 -16 2.66699 -22 8
s-8.33301 13 -7 23l71 423c1.33301 7.33301 -0.333984 13 -5.00098 17s-10.667 6 -18 6h-181c-13.333 -1.33301 -20 -7 -20 -17l-72 -433c-2 -10 -7.16699 -17 -15.5 -21s-17.833 -6 -28.5 -6h-102c-10.667 0 -19.667 2.66699 -27 8s-10 13.666 -8 24.999l69 416
c1.33301 9.33301 -0.333984 16.333 -5.00098 21s-10.667 7 -18 7h-162c-11.333 0 -20.833 4.66699 -28.5 14s-10.167 20 -7.5 32l20 109c2.66699 18.667 13.334 28.667 32.001 30h190c10.667 0 17 6.33301 19 19l34 188c1.33301 6 -0.166992 11.5 -4.5 16.5
s-9.83301 7.5 -16.5 7.5h-169c-9.33301 0 -18.333 3.83301 -27 11.5s-12 15.834 -10 24.501l20 117c1.33301 8.66699 5.16602 16.167 11.499 22.5s13.833 9.5 22.5 9.5h180c4 0 9.5 1.83301 16.5 5.5s11.167 10.5 12.5 20.5l62 340c1.33301 8 5.83301 14.667 13.5 20
s15.167 8 22.5 8h106c7.33301 0 14.666 -2.83301 21.999 -8.5s10.333 -13.167 9 -22.5l-57 -337c-1.33301 -6.66699 0 -12.667 4 -18s10 -8 18 -8h185c8.66699 0 15.667 5 21 15l62 347c1.33301 8.66699 5.5 16.167 12.5 22.5s15.167 9.5 24.5 9.5h102
c9.33301 0 17.333 -3.5 24 -10.5s9.33398 -16.167 8.00098 -27.5l-52 -329c0.666992 -7.33301 2.5 -13.666 5.5 -18.999s8.16699 -8 15.5 -8h183c9.33301 0 17.166 -3.83301 23.499 -11.5s8.83301 -16.167 7.5 -25.5zM772.002 870.999
c1.33301 5.33301 -0.833984 10.332 -6.50098 14.999s-11.5 7 -17.5 7h-181c-5.33301 0 -10.166 -1.66699 -14.499 -5s-6.5 -7.66602 -6.5 -12.999l-34 -192c-1.33301 -6 1 -11 7 -15s11.667 -6 17 -6h184c12 0 19 6.66699 21 20z" />
    <glyph glyph-name="dollar" unicode="$" horiz-adv-x="1319" 
d="M1238 399c-1.33301 -42 -9.16895 -80.6699 -23.502 -116.003s-33.5 -67.5 -57.5 -96.5s-51.833 -54.833 -83.5 -77.5s-65.334 -42 -101.001 -58s-72.167 -28.667 -109.5 -38s-73.666 -15 -108.999 -17c-5.33301 0 -10.333 -2.16699 -15 -6.5s-7 -9.5 -7 -15.5v-122
c0 -9.33301 -3 -17.833 -9 -25.5s-14 -11.5 -24 -11.5h-108c-9.33301 0 -17.166 3.83301 -23.499 11.5s-9.5 16.167 -9.5 25.5v125c0 5.33301 -2 10.166 -6 14.499s-8.66699 6.5 -14 6.5c-36 0.666992 -72.667 7.33398 -110 20.001s-73.333 29.5 -108 50.5
s-67.334 45.5 -98.001 73.5s-57.334 57.833 -80.001 89.5s-40.5 64.5 -53.5 98.5s-19.5 67.667 -19.5 101c0.666992 12 4.83398 22.333 12.501 31s18.167 13 31.5 13h121c7.33301 0 15.333 -3 24 -9s14 -12.667 16 -20c10.667 -40.667 28.834 -77.167 54.501 -109.5
s55.334 -59.666 89.001 -81.999s70 -39.5 109 -51.5s77.167 -18 114.5 -18c50 0 96.667 3.83301 140 11.5s81.333 20.334 114 38.001s58.834 40.5 78.501 68.5s30.834 62 33.501 102c1.33301 30 -4.5 56 -17.5 78s-30.667 41.167 -53 57.5s-47.833 30 -76.5 41
s-57.667 20.667 -87 29s-58 15.666 -86 21.999s-52 12.5 -72 18.5l-106.5 32.5c-37.667 11.667 -75 25.334 -112 41.001s-72.5 33.834 -106.5 54.501s-64 44.667 -90 72s-46.667 58.5 -62 93.5s-23 75.167 -23 120.5c0 61.333 11 116.333 33 165s52.167 90.167 90.5 124.5
s83.166 61.5 134.499 81.5s106 31.667 164 35c5.33301 -0.666992 10.166 1.33301 14.499 6s6.5 9.66699 6.5 15v112c0 9.33301 3 17.666 9 24.999s14.333 11 25 11h106c9.33301 0 17.333 -3.66699 24 -11s10 -15.666 10 -24.999v-118c0 -4.66699 1.83301 -9.16699 5.5 -13.5
s7.83398 -6.5 12.501 -6.5c44 -11.333 87.333 -29.166 130 -53.499s81.5 -53.333 116.5 -87s65 -71.334 90 -113.001s41.833 -84.834 50.5 -129.501c-0.666992 -12 -4.83398 -22.333 -12.501 -31s-18.167 -13 -31.5 -13h-122c-10.667 0 -19.334 4.5 -26.001 13.5
s-12.334 18.833 -17.001 29.5c-17.333 38 -38.5 70.5 -63.5 97.5s-52 49 -81 66s-58.5 29.5 -88.5 37.5s-58 12 -84 12c-30.667 0 -63 -3.66699 -97 -11s-65 -19.5 -93 -36.5s-51.167 -39.833 -69.5 -68.5s-27.5 -64.334 -27.5 -107.001
c0.666992 -28.667 8.33398 -53.5 23.001 -74.5s33.334 -38.833 56.001 -53.5s48 -27.167 76 -37.5s55.833 -19.166 83.5 -26.499l78.5 -20c24.667 -6 45 -12.333 61 -19l144.5 -42.5c46.333 -13 89.5 -27 129.5 -42s76.333 -32 109 -51s60.5 -42.333 83.5 -70
s40.5 -60.667 52.5 -99s17.667 -84.166 17 -137.499z" />
    <glyph glyph-name="percent" unicode="%" horiz-adv-x="1571" 
d="M334 1483c42.667 0 82.667 -8 120 -24s70 -37.833 98 -65.5s50 -60.334 66 -98.001s24 -78.167 24 -121.5c0 -42.667 -8 -82.667 -24 -120s-38 -70 -66 -98s-60.667 -50 -98 -66s-77.333 -24 -120 -24s-82.667 8 -120 24s-70 38 -98 66s-50.167 60.667 -66.5 98
s-24.5 77.333 -24.5 120c0 43.333 8.16699 83.833 24.5 121.5s38.5 70.334 66.5 98.001s60.667 49.5 98 65.5s77.333 24 120 24zM334 1029c21.333 0 41 3.66699 59 11s33.667 17.333 47 30s23.666 27.834 30.999 45.501s11 37.167 11 58.5c0 22 -3.66699 42 -11 60
s-17.666 33.5 -30.999 46.5s-29 23 -47 30s-37.667 10.5 -59 10.5s-41 -3.5 -59 -10.5s-33.5 -17 -46.5 -30s-23.167 -28.5 -30.5 -46.5s-11 -38 -11 -60c0 -21.333 3.66699 -40.833 11 -58.5s17.5 -32.834 30.5 -45.501s28.5 -22.667 46.5 -30s37.667 -11 59 -11zM1213 589
c42.667 0 82.667 -8.16699 120 -24.5s70 -38.5 98 -66.5s50 -61 66 -99s24 -78.667 24 -122c0 -42.667 -8 -82.334 -24 -119.001s-38 -68.667 -66 -96s-60.667 -48.833 -98 -64.5s-77.333 -23.5 -120 -23.5s-82.667 7.83301 -120 23.5s-70 37.167 -98 64.5
s-50.167 59.333 -66.5 96s-24.5 76.334 -24.5 119.001c0 43.333 8.16699 84 24.5 122s38.5 71 66.5 99s60.667 50.167 98 66.5s77.333 24.5 120 24.5zM1213 136c21.333 0 41 3.33594 59 10.0029s33.5 16.167 46.5 28.5s23.167 27.166 30.5 44.499s11 36.666 11 57.999
c0 22 -3.66699 42.167 -11 60.5s-17.5 34 -30.5 47s-28.5 23.167 -46.5 30.5s-37.667 11 -59 11s-40.833 -3.66699 -58.5 -11s-33 -17.5 -46 -30.5s-23.167 -28.667 -30.5 -47s-11 -38.5 -11 -60.5c0 -42.667 13.667 -76.834 41 -102.501s62.333 -38.5 105 -38.5zM1086 1472
c8 0 15.3271 -2.16797 21.9941 -6.50098s12 -9.66602 16 -15.999s6.5 -13.333 7.5 -21s-0.5 -14.834 -4.5 -21.501l-509 -1377c-3.33301 -9.33301 -8.66602 -16.666 -15.999 -21.999s-15.666 -8 -24.999 -8h-175c-9.33301 0 -17.166 2.16699 -23.499 6.5
s-11.166 9.83301 -14.499 16.5s-5.16602 14 -5.49902 22s0.5 15.333 2.5 22l581 1382c2.66699 6.66699 7.33398 12.167 14.001 16.5s14.667 6.5 24 6.5h106z" />
    <glyph glyph-name="ampersand" unicode="&#x26;" horiz-adv-x="1321" 
d="M1236 73c5.33301 -6.66699 7.83301 -14.1699 7.5 -22.5029s-2.66602 -16.333 -6.99902 -24s-10.166 -14 -17.499 -19s-15 -7.5 -23 -7.5h-199c-13.333 0 -23.333 5 -30 15l-20 25c-4.66699 5.33301 -9.16699 7.83301 -13.5 7.5s-10.166 -2.16602 -17.499 -5.49902
c-56.667 -24.667 -117 -42.334 -181 -53.001s-127.333 -14 -190 -10s-122.5 15.333 -179.5 34s-107.333 45.167 -151 79.5s-78.5 76.833 -104.5 127.5s-39 109.334 -39 176.001c0 54.667 8.33301 102.334 25 143.001s37.667 75.834 63 105.501s52.666 55 81.999 76
s56.666 39.5 81.999 55.5c6.66699 4 11.667 8.66699 15 14s2.33301 13.333 -3 24l-26 52c-9.33301 19.333 -18.166 41.166 -26.499 65.499s-15.333 51.5 -21 81.5s-9.16699 64 -10.5 102c0 50 8.83301 97.667 26.5 143s42.5 85.5 74.5 120.5s70.333 62.833 115 83.5
s94 31 148 31c48.667 0 95.667 -8.33301 141 -25s85.5 -40.5 120.5 -71.5s63 -68.5 84 -112.5s31.5 -93.333 31.5 -148c0 -44 -7.5 -86.667 -22.5 -128s-35.667 -79.333 -62 -114s-57.333 -65.167 -93 -91.5s-74.5 -46.5 -116.5 -60.5
c-5.33301 -0.666992 -9.33301 -2.66699 -12 -6s-4.33398 -7.33301 -5.00098 -12s-0.5 -9.16699 0.5 -13.5s2.83301 -7.83301 5.5 -10.5l256 -287c13.333 -12 25.666 -14 36.999 -6c6.66699 4.66699 13 11.334 19 20.001l13 19c3.33301 4.66699 8.5 10.334 15.5 17.001
s16.167 10 27.5 10h137c10.667 0 19.667 -4.33301 27 -13s11 -19.334 11 -32.001c-3.33301 -16 -8.5 -33.333 -15.5 -52s-15.167 -37 -24.5 -55s-19.5 -35.167 -30.5 -51.5s-21.833 -30.5 -32.5 -42.5c-2.66699 -4 -4.5 -9.16699 -5.5 -15.5s1.16699 -10.833 6.5 -13.5z
M440 1117c0 -27.333 4.16797 -54.8291 12.501 -82.4961s18.333 -53.334 30 -77.001s23.834 -44.334 36.501 -62.001s23.667 -30.167 33 -37.5c7.33301 -6 12.833 -8.66699 16.5 -8s6.5 1.66699 8.5 3l87.5 48c28.333 16 53.333 33.833 75 53.5s39 42 52 67
s19.5 54.167 19.5 87.5s-6.16699 61.666 -18.5 84.999s-27.833 42.5 -46.5 57.5s-38.834 26 -60.501 33s-41.834 10.5 -60.501 10.5c-16.667 0 -35.667 -2.83301 -57 -8.5s-41.5 -15.334 -60.5 -29.001s-35 -32 -48 -55s-19.5 -51.5 -19.5 -85.5zM765.001 225.001
c5.33301 2.66699 9.83301 8 13.5 16s2.83398 14.333 -2.49902 19l-310 386c-4.66699 6 -9.5 9.33301 -14.5 10s-9.83301 -0.333008 -14.5 -3c-36.667 -18 -66.667 -41.333 -90 -70s-40 -59.167 -50 -91.5s-12.833 -65.333 -8.5 -99s15.5 -64.5 33.5 -92.5
c21.333 -33.333 49.666 -59 84.999 -77s73.5 -29.5 114.5 -34.5s82.833 -4.16699 125.5 2.5s82 18 118 34z" />
    <glyph glyph-name="quotesingle" unicode="'" horiz-adv-x="470" 
d="M325 1016c0 -12.667 -3.83398 -23 -11.501 -31s-17.5 -12 -29.5 -12h-102c-11.333 0 -21.166 4.16699 -29.499 12.5s-12.5 18.166 -12.5 29.499v410c0 11.333 3.5 22 10.5 32s17.167 15 30.5 15h107c11.333 0 20.333 -5.16699 27 -15.5s10 -21.166 10 -32.499v-408z" />
    <glyph glyph-name="parenleft" unicode="(" horiz-adv-x="591" 
d="M554 -382c8.66699 -15.333 10.502 -29.3301 5.50195 -41.9971s-13.167 -22.5 -24.5 -29.5s-24.333 -10.5 -39 -10.5s-27.334 5.66699 -38.001 17c-60 62.667 -113 130.5 -159 203.5s-84.5 149.667 -115.5 230s-54.333 164.166 -70 251.499s-23.5 176.666 -23.5 267.999
c0 94 9.16699 186 27.5 276s44.666 176.333 78.999 259s76.166 161 125.499 235s105 142 167 204c8 8.66699 17 13 27 13s18.833 -2.66699 26.5 -8s13.334 -12.5 17.001 -21.5s3.5 -17.833 -0.5 -26.5c-38 -67.333 -71.167 -137.833 -99.5 -211.5
s-51.833 -149.334 -70.5 -227.001s-32.667 -156.667 -42 -237s-14 -160.833 -14 -241.5c0 -162.667 18.167 -320.167 54.5 -472.5s91.833 -295.5 166.5 -429.5z" />
    <glyph glyph-name="parenright" unicode=")" horiz-adv-x="591" 
d="M37.0342 -382c-8.66699 -15.333 -10.498 -29.3301 -5.49805 -41.9971c4.99902 -12.667 13.165 -22.5 24.498 -29.5s24.332 -10.5 38.998 -10.5s27.332 5.66699 37.998 17c59.9961 62.667 112.993 130.5 158.99 203.5s84.4941 149.667 115.492 230
c30.999 80.333 54.3311 164.166 69.9961 251.499c15.666 87.333 23.499 176.666 23.499 267.999c0 94 -9.16602 186 -27.499 276c-18.332 90 -44.6641 176.333 -78.9951 259s-76.1621 161 -125.493 235c-49.3301 74 -104.993 142 -166.989 204c-8 8.66699 -17 13 -26.999 13
s-18.832 -2.66699 -26.498 -8s-13.332 -12.5 -16.999 -21.5s-3.5 -17.833 0.5 -26.5c37.9971 -67.333 71.1621 -137.833 99.4941 -211.5c28.3311 -73.667 51.8291 -149.334 70.4941 -227.001c18.666 -77.667 32.665 -156.667 41.998 -237s13.999 -160.833 13.999 -241.5
c0 -162.667 -18.166 -320.167 -54.4971 -472.5s-91.8271 -295.5 -166.489 -429.5z" />
    <glyph glyph-name="asterisk" unicode="*" horiz-adv-x="853" 
d="M740 1180l-170.001 -65.001c-8 -2.66699 -12.667 -8.83398 -14 -18.501s0.666992 -17.167 6 -22.5l102 -133c5.33301 -5.33301 7.33301 -11.833 6 -19.5s-4.66602 -13.5 -9.99902 -17.5l-78 -63c-5.33301 -5.33301 -11.666 -7.16602 -18.999 -5.49902
s-12.666 5.16699 -15.999 10.5l-103 146c-6 8.66699 -13.167 13 -21.5 13s-15.166 -4 -20.499 -12l-104 -145c-4.66699 -5.33301 -11 -8.66602 -19 -9.99902s-14.667 0.666992 -20 6l-75 60c-7.33301 4.66699 -11 10.334 -11 17.001s2 13 6 19l101 133
c7.33301 6.66699 9.66602 14.5 6.99902 23.5s-7.66699 15.167 -15 18.5l-168 65c-8.66699 2 -13.834 5.33301 -15.501 10s-1.83398 10.667 -0.500977 18l37 100c6.66699 15.333 19 19.333 37 12l163 -79c6.66699 -3.33301 12.5 -3 17.5 1s7.5 9.33301 7.5 16l-9 186
c0 7.33301 2.33301 13.666 7 18.999s11 8.33301 19 9h103c9.33301 0 16 -2.83301 20 -8.5s6 -12.167 6 -19.5l-10 -186c0 -6.66699 2.83301 -12.167 8.5 -16.5s11.167 -4.5 16.5 -0.5l177 84c8.66699 2 15.5 1.16699 20.5 -2.5s8.16699 -8.16699 9.5 -13.5l37 -96
c5.33301 -16.667 0.333008 -27.667 -15 -33z" />
    <glyph glyph-name="plus" unicode="+" horiz-adv-x="1212" 
d="M1107 462c-0.666992 -8.66699 -4.16406 -16.667 -10.4971 -24s-14.166 -11.333 -23.499 -12h-359c-5.33301 0 -10 -2 -14 -6s-6 -8.66699 -6 -14v-357c0 -10 -3.5 -18.333 -10.5 -25s-15.167 -10 -24.5 -10h-112c-8 0 -15.333 3 -22 9s-10.667 13.667 -12 23v358
c0 6 -1.83301 11.167 -5.5 15.5s-8.83398 6.5 -15.501 6.5h-356c-10 0 -18.5 3.83301 -25.5 11.5s-10.5 15.834 -10.5 24.501v109c0 9.33301 3.66699 17.666 11 24.999s15.666 11 24.999 11h356c6 0 11 2 15 6s6 8.66699 6 14v358c0 10 3.33301 18.333 10 25
s14.667 10 24 10h111c9.33301 0 17.666 -3.33301 24.999 -10s11 -15 11 -25v-359c0 -5.33301 2 -9.83301 6 -13.5s8.66699 -5.5 14 -5.5h357c9.33301 0 17.666 -3.5 24.999 -10.5s11 -14.833 11 -23.5v-111z" />
    <glyph glyph-name="comma" unicode="," horiz-adv-x="603" 
d="M293 -271c-10 -8.66699 -19.832 -12.333 -29.499 -11s-17.334 5.16602 -23.001 11.499s-9 14.333 -10 24s1.83301 18.5 8.5 26.5c16 19.333 26.5 40.333 31.5 63s4.66699 44.667 -1 66s-16 40.666 -31 57.999s-34.5 30 -58.5 38c-12 4.66699 -18 15.334 -18 32.001l2 149
c0 10.667 4.33301 20.167 13 28.5s18.667 12.5 30 12.5h183c11.333 0 21 -4.16699 29 -12.5s12.333 -17.833 13 -28.5l3 -150c-1.33301 -27.333 -5.33301 -55.166 -12 -83.499s-16 -56 -28 -83s-26.5 -52.5 -43.5 -76.5s-36.5 -45.333 -58.5 -64z" />
    <glyph glyph-name="hyphen" unicode="-" horiz-adv-x="872" 
d="M767 499c-0.666992 -9.33301 -4.33203 -17.3311 -10.999 -23.998s-14.334 -10.334 -23.001 -11.001h-597c-9.33301 0 -17.666 3.5 -24.999 10.5s-11 15.167 -11 24.5v114c0 9.33301 3.66699 17.666 11 24.999s15.666 11 24.999 11h595c8.66699 0 16.5 -3.5 23.5 -10.5
s11.167 -14.833 12.5 -23.5v-116z" />
    <glyph glyph-name="period" unicode="." horiz-adv-x="625" 
d="M453 41c0 -11.333 -4.50098 -21 -13.501 -29s-18.833 -12 -29.5 -12h-199c-9.33301 0 -18.5 4 -27.5 12s-13.5 17.667 -13.5 29l2 150c0 10.667 4.33301 20.167 13 28.5s18.334 12.5 29.001 12.5h193c11.333 0 21 -4.16699 29 -12.5s12.667 -17.833 14 -28.5z" />
    <glyph glyph-name="slash" unicode="/" horiz-adv-x="744" 
d="M708 1472c8 0 15.3271 -2.16797 21.9941 -6.50098s12 -9.66602 16 -15.999s6.5 -13.333 7.5 -21s-0.5 -14.834 -4.5 -21.501l-509 -1377c-3.33301 -9.33301 -8.66602 -16.666 -15.999 -21.999s-15.666 -8 -24.999 -8h-175c-9.33301 0 -17.166 2.16699 -23.499 6.5
s-11.166 9.83301 -14.499 16.5s-5.16602 14 -5.49902 22s0.5 15.333 2.5 22l581 1382c2.66699 6.66699 7.33398 12.167 14.001 16.5s14.667 6.5 24 6.5h106z" />
    <glyph glyph-name="zero" unicode="0" horiz-adv-x="1226" 
d="M608 1472c70.667 0 133.503 -10.5 188.503 -31.5s102.667 -50.167 143 -87.5s74.333 -81.333 102 -132s50 -105.5 67 -164.5s29.167 -121.167 36.5 -186.5s11 -131 11 -197c0 -54.667 -4.33301 -109.834 -13 -165.501s-22.167 -109.167 -40.5 -160.5
s-41.833 -99.5 -70.5 -144.5s-63.334 -84.167 -104.001 -117.5s-87.334 -59.5 -140.001 -78.5s-112.334 -28.5 -179.001 -28.5c-67.333 0 -127.5 9.5 -180.5 28.5s-99.833 45.167 -140.5 78.5s-75.334 72.5 -104.001 117.5s-52.334 93.167 -71.001 144.5
s-32.167 104.833 -40.5 160.5s-12.5 110.834 -12.5 165.501c0 66 3.33301 131.667 10 197s18.167 127.5 34.5 186.5s38 113.833 65 164.5s60.833 94.667 101.5 132s88.834 66.5 144.501 87.5s119.834 31.5 192.501 31.5zM609.003 185c54 0 99.668 8.8291 137.001 26.4961
s68.166 41.334 92.499 71.001s43.333 63.834 57 102.501s23.834 78.834 30.501 120.501s10.667 83.5 12 125.5s2 81 2 117c0 40.667 -2.16699 82.334 -6.5 125.001s-11.666 84.334 -21.999 125.001s-23.833 79 -40.5 115s-37.334 67.5 -62.001 94.5s-53.5 48.333 -86.5 64
s-70.833 23.5 -113.5 23.5s-80.5 -7.83301 -113.5 -23.5s-61.667 -37 -86 -64s-44.833 -58.5 -61.5 -94.5s-30.167 -74.333 -40.5 -115s-17.666 -82.334 -21.999 -125.001s-6.5 -84.334 -6.5 -125.001c0 -36.667 1.83301 -76.167 5.5 -118.5s10 -84.333 19 -126
s21.5 -81.667 37.5 -120s36.167 -72.166 60.5 -101.499s53.666 -52.833 87.999 -70.5s74.166 -26.5 119.499 -26.5z" />
    <glyph glyph-name="one" unicode="1" horiz-adv-x="936" 
d="M680 41c0 -12.667 -4.33594 -22.667 -13.0029 -30s-17.667 -11 -27 -11h-154c-10 0 -19.333 3.5 -28 10.5s-13 17.167 -13 30.5l10 942c0 8.66699 -3 16 -9 22s-13.333 9 -22 9h-280c-11.333 0 -21.5 4.16699 -30.5 12.5s-13.5 19.166 -13.5 32.499l2 99
c0 12.667 4.66699 22.834 14 30.501s19 11.5 29 11.5h14c36.667 0 72.834 6.5 108.501 19.5s67.834 30.333 96.501 52s51.834 46.167 69.501 73.5s26.5 55.333 26.5 84c0 11.333 4.5 21.333 13.5 30s20.167 13 33.5 13h112c12.667 0 23.5 -4.33301 32.5 -13
s13.5 -18.667 13.5 -30z" />
    <glyph glyph-name="two" unicode="2" horiz-adv-x="1224" 
d="M1134 41c0 -10 -4.33105 -19.3311 -12.998 -27.998s-17.667 -13 -27 -13h-966c-8 0 -15 2.33301 -21 7s-10.333 10.5 -13 17.5s-3.66699 14.5 -3 22.5s3.66699 15 9 21l659 796c27.333 36 46.666 71.5 57.999 106.5s15.833 68.5 13.5 100.5s-10.333 61.667 -24 89
s-31.667 51 -54 71s-48 35.667 -77 47s-59.833 17 -92.5 17c-39.333 0 -74.666 -7.16699 -105.999 -21.5s-58.5 -32.333 -81.5 -54s-41.833 -44.667 -56.5 -69s-24.667 -46.5 -30 -66.5c-2.66699 -9.33301 -9.16699 -19.166 -19.5 -29.499s-22.5 -15.5 -36.5 -15.5h-121
c-14 1.33301 -25.5 6.66602 -34.5 15.999s-11.833 19.666 -8.5 30.999c16.667 64 41.834 120.167 75.501 168.5s73.167 88.5 118.5 120.5s95.333 56.167 150 72.5s112 24.5 172 24.5c62.667 0 119.5 -10.167 170.5 -30.5s95.167 -47.833 132.5 -82.5s67.166 -75 89.499 -121
s35.833 -94.333 40.5 -145s0.166992 -102.5 -13.5 -155.5s-38.167 -103.833 -73.5 -152.5l-408 -519c-2.66699 -3.33301 -4.5 -7.33301 -5.5 -12s-0.833008 -9.33398 0.5 -14.001s3.66602 -8.5 6.99902 -11.5s7.66602 -4.5 12.999 -4.5h523c12.667 0 24.167 -3.5 34.5 -10.5
s15.5 -17.167 15.5 -30.5z" />
    <glyph glyph-name="three" unicode="3" horiz-adv-x="1219" 
d="M886 750c36 -14.667 69.3301 -32.6641 99.9971 -53.9971s57.167 -46.166 79.5 -74.499s40 -60.5 53 -96.5s19.833 -76 20.5 -120c0 -75.333 -13.667 -140 -41 -194s-64.666 -98.167 -111.999 -132.5s-102.833 -59.666 -166.5 -75.999s-132.167 -24.5 -205.5 -24.5
c-63.333 0 -125.166 7 -185.499 21s-115.333 36.5 -165 67.5s-91.667 71 -126 120s-57.166 108.5 -68.499 178.5c1.33301 10.667 6.5 19.667 15.5 27s18.167 11 27.5 11h154c6.66699 0 12.834 -1.16699 18.501 -3.5s10.5 -6.83301 14.5 -13.5c8 -23.333 19 -46.833 33 -70.5
s33 -45.167 57 -64.5s54.5 -35.166 91.5 -47.499s82.833 -18.5 137.5 -18.5c53.333 0 98.166 7.66699 134.499 23s65.666 35.166 87.999 59.499s38.333 51.166 48 80.499s14.5 58 14.5 86c0 50 -11.5 90.667 -34.5 122s-52.333 55.666 -88 72.999
s-74.834 29.166 -117.501 35.499s-83.667 9.5 -123 9.5h-77c-10.667 0 -20.5 4 -29.5 12s-13.167 17.667 -12.5 29l3 123c0.666992 10 5 19.333 13 28s16.667 13 26 13h86c40 0 79.833 3.66699 119.5 11s75.5 19.166 107.5 35.499s58 38.166 78 65.499s30 61 30 101
c0 30 -6.5 57.5 -19.5 82.5s-31.5 46.5 -55.5 64.5s-53.167 31.833 -87.5 41.5s-72.833 14.5 -115.5 14.5c-29.333 0 -59 -5.16699 -89 -15.5s-57.5 -25 -82.5 -44s-46.333 -42.333 -64 -70s-28.5 -58.5 -32.5 -92.5c-1.33301 -9.33301 -5.66602 -17.333 -12.999 -24
s-15.666 -10 -24.999 -10h-138c-12 0 -22.5 3.83301 -31.5 11.5s-12.833 17.167 -11.5 28.5c6.66699 56.667 23.834 109 51.501 157s63.5 89.5 107.5 124.5s95 62.333 153 82s121 29.5 189 29.5c72 0 136.5 -9.66699 193.5 -29s105.167 -45.833 144.5 -79.5
s69.333 -73.5 90 -119.5s31 -96 31 -150c0 -26.667 -3.5 -54 -10.5 -82s-18.333 -55.333 -34 -82s-35.834 -51.834 -60.501 -75.501s-54.667 -44.167 -90 -61.5c-4 -2 -7 -5.16699 -9 -9.5s-2.66699 -8.66602 -2 -12.999s2 -8.5 4 -12.5s5 -6.66699 9 -8z" />
    <glyph glyph-name="four" unicode="4" horiz-adv-x="1243" 
d="M1153 402c-1.33301 -11.333 -6.1709 -20.667 -14.5039 -28s-18.166 -11 -29.499 -11h-141c-7.33301 0 -13.166 -2.66699 -17.499 -8s-6.5 -11.333 -6.5 -18l3 -296c0 -12.667 -4.33301 -22.667 -13 -30s-18 -11 -28 -11h-153c-10 0 -19.333 3.66699 -28 11
s-13 17.333 -13 30l3 303c0 5.33301 -2.33301 9.83301 -7 13.5s-9.66699 5.5 -15 5.5h-563c-10 0 -19.333 3.66699 -28 11s-13 17.333 -13 30l2 108c0 7.33301 2.33301 14.333 7 21l583 919c10 13.333 22.667 20 38 20h167c12.667 0 23.5 -4.33301 32.5 -13
s13.5 -18.667 13.5 -30l9 -840c0 -6 2 -11.667 6 -17s9.33301 -8 16 -8h147c8.66699 -0.666992 17.334 -5 26.001 -13s13.334 -18 14.001 -30zM723.995 1124c0 6 -1.66504 11 -4.99805 15s-7.33301 6.83301 -12 8.5s-9.33398 1.66699 -14.001 0
s-8.33398 -4.83398 -11.001 -9.50098l-309 -541c-1.33301 -7.33301 -0.5 -14.666 2.5 -21.999s9.16699 -11 18.5 -11h303c5.33301 0 10 2.33301 14 7s6 9.66699 6 15z" />
    <glyph glyph-name="five" unicode="5" horiz-adv-x="1247" 
d="M640 940c78.667 0 149.834 -11.8301 213.501 -35.4971s118 -57 163 -100s79.5 -94.833 103.5 -155.5s36 -128.334 36 -203.001c0 -56 -12 -112 -36 -168s-58.5 -106.167 -103.5 -150.5s-100 -80.333 -165 -108s-138.167 -41.5 -219.5 -41.5
c-72 0 -139.167 8.83301 -201.5 26.5s-117.666 43 -165.999 76s-88.333 73.167 -120 120.5s-53.167 101 -64.5 161c-1.33301 4.66699 -0.666016 9.5 2.00098 14.5s6.16699 9.5 10.5 13.5s9.16602 7.16699 14.499 9.5s10.666 3.5 15.999 3.5h152c8.66699 0 16.667 -3 24 -9
s12.666 -13.667 15.999 -23c10.667 -30.667 24.834 -57.667 42.501 -81s39.5 -42.833 65.5 -58.5s56.5 -27.5 91.5 -35.5s75.167 -12 120.5 -12c46.667 0 88 8 124 24s66 36.5 90 61.5s42.167 52.667 54.5 83s18.5 59.833 18.5 88.5c0 52.667 -8 98.334 -24 137.001
s-37.667 70.5 -65 95.5s-58.833 43.5 -94.5 55.5s-73.167 18 -112.5 18c-46.667 0 -85.167 -4.16699 -115.5 -12.5s-55.166 -18.833 -74.499 -31.5s-34.666 -26.5 -45.999 -41.5s-21 -28.833 -29 -41.5c-8.66699 -10.667 -18.334 -16.334 -29.001 -17.001h-134
c-10.667 0 -20.334 3.66699 -29.001 11s-13.334 17.333 -14.001 30l82 793c1.33301 9.33301 5.5 17.5 12.5 24.5s15.5 10.5 25.5 10.5h769c9.33301 0 18.166 -4.16699 26.499 -12.5s12.5 -17.833 12.5 -28.5v-123c0 -10.667 -3.5 -20.334 -10.5 -29.001
s-15.167 -13 -24.5 -13h-616c-5.33301 0 -10.166 -2.5 -14.499 -7.5s-6.83301 -10.167 -7.5 -15.5l-22 -338c0.666992 -8.66699 4.5 -15.5 11.5 -20.5s13.833 -5.5 20.5 -1.5c32 17.333 67.667 31.166 107 41.499s77 15.5 113 15.5z" />
    <glyph glyph-name="six" unicode="6" horiz-adv-x="1299" 
d="M705 945c75.333 -1.33301 144.997 -15.167 208.997 -41.5s119.333 -61.5 166 -105.5s83.167 -95.167 109.5 -153.5s39.5 -120.5 39.5 -186.5c0 -72.667 -14 -138.5 -42 -197.5s-66 -109.5 -114 -151.5s-104.167 -74.333 -168.5 -97s-132.833 -34 -205.5 -34
c-119.333 0 -218.833 18.667 -298.5 56s-143.167 88 -190.5 152s-80.833 138.5 -100.5 223.5s-29.5 175.167 -29.5 270.5c0 51.333 4 106.666 12 165.999s21.167 118.333 39.5 177s42.166 115 71.499 169s65.333 101.833 108 143.5s92.334 74.834 149.001 99.501
s121.334 37 194.001 37c76 0 142.833 -11.5 200.5 -34.5s106.5 -52.667 146.5 -89s71.5 -77.5 94.5 -123.5s37.5 -92 43.5 -138c2 -14.667 -0.666992 -26.334 -8 -35.001s-18.666 -13 -33.999 -13h-129c-9.33301 0 -17.5 2.83301 -24.5 8.5s-11.833 14.5 -14.5 26.5
c-9.33301 44 -24.333 80.333 -45 109s-43.667 51.334 -69 68.001s-51.5 28.167 -78.5 34.5s-51.167 9.5 -72.5 9.5c-61.333 0 -114.333 -14.167 -159 -42.5s-81.5 -64.333 -110.5 -108s-50.667 -91.667 -65 -144s-21.5 -102.833 -21.5 -151.5
c0 -3.33301 0.5 -6.83301 1.5 -10.5s2.5 -7 4.5 -10s4.16699 -5.16699 6.5 -6.5s4.83301 -1.33301 7.5 0c12 5.33301 27.833 14.833 47.5 28.5s44.5 27.5 74.5 41.5s65.833 26.333 107.5 37s90.834 16 147.501 16zM678.997 184.999c42.667 0 83.332 6.33496 121.999 19.002
s72.667 31 102 55s52.5 53.5 69.5 88.5s25.5 75.167 25.5 120.5c0 43.333 -8.33301 82.5 -25 117.5s-39.167 64.833 -67.5 89.5s-60.833 43.667 -97.5 57s-75 20 -115 20c-46 0 -91.333 -6.66699 -136 -20s-84 -33.333 -118 -60s-60.333 -60.167 -79 -100.5
s-24.667 -87.5 -18 -141.5c6.66699 -38 19.334 -72 38.001 -102s42.5 -55.333 71.5 -76s62.667 -36.834 101 -48.501s80.5 -17.834 126.5 -18.501z" />
    <glyph glyph-name="seven" unicode="7" horiz-adv-x="1112" 
d="M1042 1243c0 -8.66699 -1.33105 -15.334 -3.99805 -20.001l-76.5 -156.5l-88 -193l-92 -215.5l-90 -222.5l-82 -214.5c-25.667 -69.333 -47.834 -133 -66.501 -191c-2.66699 -9.33301 -7.66699 -16.666 -15 -21.999s-15.666 -8 -24.999 -8h-165
c-23.333 -0 -38 6.33301 -44 19s-6 26.667 0 42l110.5 273l122 283.5l137 300.5l156.5 324c3.33301 6 3.16602 11.5 -0.500977 16.5s-7.83398 7.5 -12.501 7.5h-707c-10.667 0 -20 4.33301 -28 13s-12 19 -12 31l2 115c0 11.333 3.5 22 10.5 32s17.5 15 31.5 15h894
c10.667 0 20.167 -4.83301 28.5 -14.5s12.5 -20.167 12.5 -31.5z" />
    <glyph glyph-name="eight" unicode="8" horiz-adv-x="1238" 
d="M857 759c40.667 -17.333 78.665 -38.4971 113.998 -63.4971s66 -53.167 92 -84.5s46.5 -65.166 61.5 -101.499s22.5 -74.5 22.5 -114.5c0 -61.333 -14.167 -117.5 -42.5 -168.5s-66.833 -95 -115.5 -132s-105.5 -65.667 -170.5 -86s-133.833 -30.5 -206.5 -30.5
c-40.667 0 -82 3.5 -124 10.5s-82.667 17.667 -122 32s-76.166 32.666 -110.499 54.999s-64.333 49 -90 80s-46 66.667 -61 107s-22.5 85.5 -22.5 135.5c0 39.333 7.33301 77.166 22 113.499s34.334 70 59.001 101s53.5 58.667 86.5 83s67.833 44.5 104.5 60.5
c13.333 6 22 12.667 26 20s-1.66699 14.666 -17 21.999c-30 16 -58.333 33.667 -85 53s-50 41 -70 65s-35.667 50.333 -47 79s-17 60.667 -17 96c0 62 13.333 116.667 40 164s62 87.166 106 119.499s94.167 56.666 150.5 72.999s113.833 24.5 172.5 24.5
c56 0 112.5 -7.5 169.5 -22.5s108.333 -38 154 -69s82.834 -70.5 111.501 -118.5s43 -104.667 43 -170c0 -35.333 -6.5 -67.5 -19.5 -96.5s-30.333 -55.5 -52 -79.5s-46.834 -45.667 -75.501 -65s-58.667 -37 -90 -53c-12 -6 -17 -13.167 -15 -21.5s8 -14.166 18 -17.499z
M357.998 1079c0 -29.333 6.50098 -55.8311 19.501 -79.498s31 -44 54 -61s50.167 -30 81.5 -39s65 -13.5 101 -13.5c35.333 0 69.166 4.66699 101.499 14s60.833 22.5 85.5 39.5s44.167 37.167 58.5 60.5s21.166 48.666 20.499 75.999
c0.666992 40.667 -7.16602 75 -23.499 103s-37.333 50.5 -63 67.5s-54.5 29.333 -86.5 37s-63.333 11.5 -94 11.5c-32.667 0 -64.5 -5 -95.5 -15s-58.5 -24.333 -82.5 -43s-43.167 -41.334 -57.5 -68.001s-20.833 -56.667 -19.5 -90zM611.999 185.005
c33.333 0 67.998 4.66602 103.998 13.999s68.833 23.166 98.5 41.499s54 41.333 73 69s28.5 59.834 28.5 96.501c0 34.667 -9 67.334 -27 98.001s-41.333 57.334 -70 80.001s-61 40.5 -97 53.5s-72 19.5 -108 19.5c-33.333 0 -67.666 -5.5 -102.999 -16.5
s-67.666 -27.167 -96.999 -48.5s-53.5 -47.666 -72.5 -78.999s-28.5 -67 -28.5 -107c0 -35.333 8.83301 -66.833 26.5 -94.5s40.667 -50.834 69 -69.501s60.333 -32.834 96 -42.501s71.5 -14.5 107.5 -14.5z" />
    <glyph glyph-name="nine" unicode="9" horiz-adv-x="1259" 
d="M594 1472c82.667 0 153.999 -12 213.999 -36s111.167 -56.5 153.5 -97.5s76.666 -88.667 102.999 -143s47 -112 62 -173s25.5 -123.667 31.5 -188s9.33301 -126.833 10 -187.5c0.666992 -97.333 -11.833 -187 -37.5 -269s-63 -152.667 -112 -212
s-108.833 -105.5 -179.5 -138.5s-150.667 -49.5 -240 -49.5c-62 0 -121.833 9.16699 -179.5 27.5s-110.167 44.333 -157.5 78s-88.166 73.834 -122.499 120.501s-59.166 98.667 -74.499 156c-1.33301 4.66699 -1.16602 9.5 0.500977 14.5s4.16699 9.66699 7.5 14
s7.66602 7.83301 12.999 10.5s10.666 4 15.999 4h145c15.333 0 27.333 -3.5 36 -10.5s15 -15.5 19 -25.5c12.667 -32.667 30.334 -60.5 53.001 -83.5s47.5 -41.833 74.5 -56.5s55 -25.334 84 -32.001s56.167 -10 81.5 -10c46 0 86.5 6.83301 121.5 20.5s65.333 31.5 91 53.5
s47 47 64 75s30.5 56 40.5 84s17 55 21 81s5.66699 48.333 5 67c0 7.33301 -2.16699 13.333 -6.5 18s-9.5 8 -15.5 10s-12.333 2.33301 -19 1s-12.667 -4.33301 -18 -9c-46 -38 -94.5 -64.833 -145.5 -80.5s-101.5 -23.5 -151.5 -23.5c-71.333 0 -137.5 13.833 -198.5 41.5
s-114 64.5 -159 110.5s-80.333 99.333 -106 160s-38.5 124 -38.5 190c0 66.667 12.833 129.5 38.5 188.5s61.5 110.667 107.5 155s100.333 79.5 163 105.5s131 39 205 39zM906.999 1012c-4 40 -15.165 77.166 -33.498 111.499s-41.5 64.333 -69.5 90s-60 45.667 -96 60
s-73.333 21.5 -112 21.5c-42.667 0 -83 -8 -121 -24s-71.333 -38.167 -100 -66.5s-51.334 -61.5 -68.001 -99.5s-25 -79 -25 -123c0 -42.667 8 -81.5 24 -116.5s37.833 -65.167 65.5 -90.5s59.667 -45 96 -59s75.166 -21 116.499 -21c40.667 0 81.5 4.83301 122.5 14.5
s77.5 26.5 109.5 50.5s56.667 56.333 74 97s23 92.334 17 155.001z" />
    <glyph glyph-name="colon" unicode=":" horiz-adv-x="608" 
d="M441 41c0 -11.333 -4.50098 -21 -13.501 -29s-18.833 -12 -29.5 -12h-192c-9.33301 0 -18.5 4 -27.5 12s-13.5 17.667 -13.5 29l2 145c0 10.667 4.33301 20.167 13 28.5s18.334 12.5 29.001 12.5h186c11.333 0 21 -4.16699 29 -12.5s12.667 -17.833 14 -28.5z
M440.999 889c0 -11.333 -4.50098 -21 -13.501 -29s-18.833 -12 -29.5 -12h-192c-9.33301 0 -18.5 4 -27.5 12s-13.5 17.667 -13.5 29l2 145c0 10.667 4.33301 20.167 13 28.5s18.334 12.5 29.001 12.5h186c11.333 0 21 -4.16699 29 -12.5s12.667 -17.833 14 -28.5z" />
    <glyph glyph-name="semicolon" unicode=";" horiz-adv-x="613" 
d="M298 -271c-10 -8.66699 -19.832 -12.333 -29.499 -11s-17.334 5.16602 -23.001 11.499s-9 14.333 -10 24s1.83301 18.5 8.5 26.5c16 19.333 26.5 40.333 31.5 63s4.66699 44.667 -1 66s-16 40.666 -31 57.999s-34.5 30 -58.5 38c-12 4.66699 -18 15.334 -18 32.001l2 149
c0 10.667 4.33301 20.167 13 28.5s18.667 12.5 30 12.5h183c11.333 0 21 -4.16699 29 -12.5s12.333 -17.833 13 -28.5l3 -150c-1.33301 -27.333 -5.33301 -55.166 -12 -83.499s-16 -56 -28 -83s-26.5 -52.5 -43.5 -76.5s-36.5 -45.333 -58.5 -64zM447.001 889.001
c0 -11.333 -4.50098 -21 -13.501 -29s-18.833 -12 -29.5 -12h-199c-9.33301 0 -18.5 4 -27.5 12s-13.5 17.667 -13.5 29l2 150c0 10.667 4.33301 20.167 13 28.5s18.334 12.5 29.001 12.5h193c11.333 0 21 -4.16699 29 -12.5s12.667 -17.833 14 -28.5z" />
    <glyph glyph-name="less" unicode="&#x3c;" horiz-adv-x="1232" 
d="M370 589c-5.33301 -2 -9.00098 -5.16504 -11.001 -9.49805s-3 -9 -3 -14s1.16699 -9.66699 3.5 -14s5.83301 -7.5 10.5 -9.5l739 -354c12 -7.33301 18 -18.666 18 -33.999v-117c0 -8 -2.33301 -15 -7 -21s-10.167 -10.833 -16.5 -14.5s-13.166 -5.83398 -20.499 -6.50098
s-13.666 0.666016 -18.999 3.99902l-944 485c-5.33301 2.66699 -10 6 -14 10s-6 9.33301 -6 16v113c0 6 2.33301 11.5 7 16.5s9.66699 8.83301 15 11.5l951 414c6.66699 4 13.667 5.16699 21 3.5s13.666 -4.83398 18.999 -9.50098s9.83301 -10.334 13.5 -17.001
s5.5 -13 5.5 -19v-118c0 -5.33301 -2.83301 -12.166 -8.5 -20.499s-12.5 -13.833 -20.5 -16.5z" />
    <glyph glyph-name="equal" unicode="=" horiz-adv-x="1237" 
d="M1127 675c-1.33301 -10 -5.16602 -18.333 -11.499 -25s-14.166 -10.667 -23.499 -12h-954c-10.667 0 -19.667 3.66699 -27 11s-11 16 -11 26v107c0 10 3.66699 18.667 11 26s16.333 11 27 11h951c9.33301 0 17.666 -3.33301 24.999 -10s11.666 -14.667 12.999 -24v-110z
M1127 252c-1.33301 -10 -5.16602 -18.333 -11.499 -25s-14.166 -10.667 -23.499 -12h-954c-10.667 0 -19.667 3.66699 -27 11s-11 16 -11 26v107c0 10 3.66699 18.667 11 26s16.333 11 27 11h951c9.33301 0 17.666 -3.33301 24.999 -10s11.666 -14.667 12.999 -24v-110z" />
    <glyph glyph-name="greater" unicode="&#x3e;" horiz-adv-x="1232" 
d="M123 868c-7.33301 2.66699 -13.8359 8.16504 -19.5029 16.498s-8.5 15.166 -8.5 20.499v118c0 6 1.66699 12.333 5 19s7.83301 12.334 13.5 17.001s11.834 7.83398 18.501 9.50098s13.667 0.5 21 -3.5l952 -414c5.33301 -2.66699 10.333 -6.5 15 -11.5s7 -10.5 7 -16.5
v-113c0 -6.66699 -2 -12 -6 -16s-8.66699 -7.33301 -14 -10l-944 -485c-5.33301 -3.33301 -11.666 -4.66602 -18.999 -3.99902s-14.166 2.83398 -20.499 6.50098s-11.833 8.5 -16.5 14.5s-7 13 -7 21v117c0 15.333 6 26.666 18 33.999l739 354
c4.66699 2 8.16699 5.16699 10.5 9.5s3.5 9 3.5 14s-1.16699 9.66699 -3.5 14s-5.83301 7.5 -10.5 9.5z" />
    <glyph glyph-name="question" unicode="?" horiz-adv-x="1188" 
d="M893 1047c0 47.333 -9.16504 86.9971 -27.498 118.997s-42 57.5 -71 76.5s-61.333 32.5 -97 40.5s-70.834 12 -105.501 12c-29.333 0 -59.166 -4.16699 -89.499 -12.5s-58.833 -21 -85.5 -38s-49.667 -38.167 -69 -63.5s-32.333 -55 -39 -89
c-2.66699 -10 -7.33398 -19.667 -14.001 -29s-14.667 -14 -24 -14h-148c-4.66699 0 -10 0.666992 -16 2s-11.167 3.66602 -15.5 6.99902s-7.66602 8.33301 -9.99902 15s-2.5 15.334 -0.5 26.001c14 66.667 38.333 124.667 73 174s76 90.333 124 123s101.167 57 159.5 73
s118.166 24 179.499 24c64 0 125 -10.167 183 -30.5s109.167 -49.666 153.5 -87.999s79.5 -85.666 105.5 -141.999s39 -120.5 39 -192.5c0 -60 -12 -114 -36 -162s-55 -91.5 -93 -130.5s-80.333 -74.167 -127 -105.5s-92.667 -60.666 -138 -87.999
c-6.66699 -4 -10 -9.66699 -10 -17l2 -72c0 -10.667 -4.33301 -20.167 -13 -28.5s-18.334 -12.833 -29.001 -13.5h-150c-12.667 0 -23.5 4.33301 -32.5 13s-13.5 18.334 -13.5 29.001l4 154c0 13.333 6 23.666 18 30.999l158 97.5c50 32.333 93.833 65 131.5 98
s67.667 66.167 90 99.5s33.5 67.333 33.5 102zM719.002 40.9971c0 -11.333 -4.50098 -21 -13.501 -29s-18.833 -12 -29.5 -12h-199c-9.33301 0 -18.5 4 -27.5 12s-13.5 17.667 -13.5 29l2 150c0 10.667 4.33301 20.167 13 28.5s18.334 12.5 29.001 12.5h193
c11.333 0 21 -4.16699 29 -12.5s12.667 -17.833 14 -28.5z" />
    <glyph glyph-name="at" unicode="@" horiz-adv-x="1551" 
d="M1481 787c0 -28 -1.99512 -57.832 -5.99512 -89.499s-10.333 -63.167 -19 -94.5s-20 -61.166 -34 -89.499s-31.333 -53.333 -52 -75s-44.834 -39 -72.501 -52s-59.167 -19.5 -94.5 -19.5c-19.333 0 -37.333 2.5 -54 7.5s-32.334 11.333 -47.001 19
s-28.5 16.167 -41.5 25.5l-37.5 28c-5.33301 6 -11.833 9.16699 -19.5 9.5s-14.167 -1.16699 -19.5 -4.5l-49.5 -31.5c-15.667 -9.66699 -31.834 -18 -48.501 -25s-34.334 -12.667 -53.001 -17s-40 -6.5 -64 -6.5c-50.667 -0.666992 -96.5 9.16602 -137.5 29.499
s-76 47.166 -105 80.499s-51.333 71 -67 113s-23.5 84.667 -23.5 128c0 42.667 7.5 85 22.5 127s36.333 79.833 64 113.5s61.167 60.834 100.5 81.501s83.666 31 132.999 31c18.667 0 36.167 -1.83301 52.5 -5.5s31.666 -8.16699 45.999 -13.5s28.333 -11.166 42 -17.499
s27.5 -12.166 41.5 -17.499c7.33301 -4.66699 15.833 -6.16699 25.5 -4.5s14.5 7.16699 14.5 16.5v-2c0 12 3.66699 22 11 30s17 12 29 12h51c11.333 0 20.5 -4 27.5 -12s11.167 -17 12.5 -27l20 -439c1.33301 -16 7.83301 -29.833 19.5 -41.5s25.667 -19 42 -22
s33.166 -0.166992 50.499 8.5s32.666 25.667 45.999 51c5.33301 11.333 9.83301 23.666 13.5 36.999s6.5 28.166 8.5 44.499s3.83301 34.666 5.5 54.999s3.16699 43.166 4.5 68.499c-1.33301 74 -15.166 143.667 -41.499 209s-63 122.166 -110 170.499
s-103.333 86.5 -169 114.5s-138.167 41.667 -217.5 41c-83.333 -0.666992 -159.5 -16.834 -228.5 -48.501s-128 -74.667 -177 -129s-87 -117.833 -114 -190.5s-40.5 -150 -40.5 -232c0 -46.667 6.16699 -93.5 18.5 -140.5s30.166 -92.333 53.499 -136
s51.666 -84.334 84.999 -122.001s70.666 -70.5 111.999 -98.5s86.333 -50 135 -66s100.334 -24 155.001 -24c28.667 0 57.5 2.33301 86.5 7s57.333 11.667 85 21s54 20.666 79 33.999s48.167 28.666 69.5 45.999c10.667 8 22.834 9.66699 36.501 5s23.167 -12.667 28.5 -24
l40 -88c4 -10 4.83301 -19 2.5 -27s-6.33301 -15.333 -12 -22s-12.5 -12.5 -20.5 -17.5s-15.667 -9.5 -23 -13.5c-52.667 -26 -108.834 -47.167 -168.501 -63.5s-127.5 -24.5 -203.5 -24.5c-68.667 0 -134 8.66699 -196 26s-119.667 42 -173 74
s-101.666 70.5 -144.999 115.5s-80.166 95.333 -110.499 151s-53.833 115.834 -70.5 180.501s-25 132.334 -25 203.001c0 69.333 7.83301 136.5 23.5 201.5s38.334 125.833 68.001 182.5s65.834 108.334 108.501 155.001s90.667 86.667 144 120s111.833 59.166 175.5 77.499
s131.167 27.5 202.5 27.5c68.667 0 133.667 -8.66699 195 -26s117.833 -41.666 169.5 -72.999s98.167 -68.666 139.5 -111.999s76.5 -91.166 105.5 -143.499s51.167 -108.166 66.5 -167.499s23 -120.333 23 -183zM949.005 726.001c0 32 -4.66895 60.5049 -14.002 85.5049
s-22.166 46.167 -38.499 63.5s-35.666 30.666 -57.999 39.999s-46.5 14 -72.5 14c-33.333 0 -61 -6.5 -83 -19.5s-39.667 -29.333 -53 -49s-22.833 -41.334 -28.5 -65.001s-8.5 -45.834 -8.5 -66.501c0 -22 3.16699 -44.833 9.5 -68.5s16.5 -45.334 30.5 -65.001
s32.167 -35.834 54.5 -48.501s49.5 -19 81.5 -19c25.333 0 49 5.16699 71 15.5s41 24.333 57 42s28.667 38.5 38 62.5s14 50 14 78z" />
    <glyph glyph-name="A" unicode="A" 
d="M1380 52c2.66699 -7.33301 2.99805 -14.166 0.998047 -20.499s-5.33301 -11.666 -10 -15.999s-10 -7.83301 -16 -10.5s-11.667 -4.33398 -17 -5.00098h-162c-8 0 -16 2.66699 -24 8s-12.667 11.666 -14 18.999l-122 362c-6.66699 18.667 -19 28 -37 28h-513
c-16.667 0 -28.667 -8.66699 -36 -26l-129 -368c-5.33301 -14 -16.666 -21.667 -33.999 -23h-160c-16.667 0 -29.667 5 -39 15s-10 24.667 -2 44l520 1388c6 16.667 18 25 36 25h195c18.667 0 32.334 -9.66699 41.001 -29zM912.998 669l-158.002 460.999
c-3.33301 9.33301 -8.16602 16.333 -14.499 21s-13 7.16699 -20 7.5s-13.667 -1.83398 -20 -6.50098s-11.166 -12 -14.499 -22l-156 -461c-4 -11.333 -2.16699 -20.166 5.5 -26.499s17.167 -9.5 28.5 -9.5h315c10.667 0 20 3.33301 28 10s10 15.334 6 26.001z" />
    <glyph glyph-name="B" unicode="B" horiz-adv-x="1405" 
d="M1296 433c0 -65.333 -11 -124.666 -33 -177.999s-51.667 -98.833 -89 -136.5s-80.5 -66.834 -129.5 -87.501s-100.167 -31 -153.5 -31h-743c-10 0 -19.333 3.66699 -28 11s-13 17.333 -13 30l15 1388c0 11.333 4.5 21.333 13.5 30s20.167 13 33.5 13h670
c58.667 0 111.167 -11.833 157.5 -35.5s85.5 -54.5 117.5 -92.5s56.5 -81.167 73.5 -129.5s25.5 -97.166 25.5 -146.499c0 -30.667 -3.5 -59.5 -10.5 -86.5s-15.667 -52 -26 -75s-22 -43.833 -35 -62.5s-25.5 -35 -37.5 -49c12 -6 28.667 -18.333 50 -37
s42.5 -43.334 63.5 -74.001s39.333 -67 55 -109s23.5 -89.333 23.5 -142zM333 915c0 -9.33301 3.5 -17.666 10.5 -24.999s15.167 -11 24.5 -11h442c32 0 60.167 5.33301 84.5 16s44.5 24.834 60.5 42.501s28.167 38.167 36.5 61.5s12.5 47.666 12.5 72.999
c0 24 -3.66699 47.667 -11 71s-18.333 44 -33 62s-32.667 32.667 -54 44s-46 17 -74 17h-463c-11.333 0 -20.833 -3.33301 -28.5 -10s-11.5 -16.334 -11.5 -29.001zM1059 431c0 30 -4.00098 59.5 -12.001 88.5s-20.5 54.833 -37.5 77.5s-38.833 41 -65.5 55
s-59 21.333 -97 22h-475c-11.333 0 -20.166 -4.16699 -26.499 -12.5s-9.5 -17.5 -9.5 -27.5l4 -377c0 -8 3.33301 -15.333 10 -22s14 -10.334 22 -11.001h504c32 0 59.5 6.83301 82.5 20.5s42 30.834 57 51.501s26 43 33 67s10.5 46.667 10.5 68z" />
    <glyph glyph-name="C" unicode="C" horiz-adv-x="1577" 
d="M1494 473c-22.667 -71.333 -55.8389 -137.164 -99.5059 -197.497s-95.5 -112.5 -155.5 -156.5s-127.167 -78.5 -201.5 -103.5s-153.5 -37.5 -237.5 -37.5c-73.333 0 -142.166 9.16699 -206.499 27.5s-123.5 44 -177.5 77s-102.333 72.5 -145 118.5s-79 96.5 -109 151.5
s-52.833 113.667 -68.5 176s-23.5 126.166 -23.5 191.499c0 106 17.667 206 53 300s85 176 149 246s140.833 125.333 230.5 166s188.834 61 297.501 61c76 0 149.333 -11.167 220 -33.5s135.334 -52.833 194.001 -91.5s110 -83.5 154 -134.5s77.667 -105.5 101 -163.5
c3.33301 -8 4.16602 -15.167 2.49902 -21.5s-5 -12 -10 -17s-11 -8.83301 -18 -11.5s-14.167 -4 -21.5 -4h-137c-9.33301 0 -17.166 2.33301 -23.499 7s-12.166 11 -17.499 19c-27.333 45.333 -58.166 84 -92.499 116s-70.666 58.167 -108.999 78.5
s-78.166 35.166 -119.499 44.499s-82.333 14 -123 14c-73.333 0 -140.833 -14.667 -202.5 -44s-115 -69.166 -160 -119.499s-80 -108.833 -105 -175.5s-37.5 -137 -37.5 -211c0 -81.333 14.167 -156.333 42.5 -225s66 -127.834 113 -177.501s100.833 -88.334 161.5 -116.001
s123.334 -41.5 188.001 -41.5c48.667 0 95.667 7.5 141 22.5s87.666 36.667 126.999 65s75.5 62.833 108.5 103.5s61.167 86.334 84.5 137.001c4 7.33301 9.33301 14.166 16 20.499s15.667 9.5 27 9.5h150c9.33301 0 17 -2.33301 23 -7s10.667 -10.5 14 -17.5
s5.16602 -14.667 5.49902 -23s-0.5 -15.833 -2.5 -22.5z" />
    <glyph glyph-name="D" unicode="D" horiz-adv-x="1459" 
d="M752 1472c102 0 191.667 -20.5 269 -61.5s141.666 -96.167 192.999 -165.5s90 -149.333 116 -240s39 -186 39 -286c0 -60 -5.16699 -119.5 -15.5 -178.5s-26.166 -115 -47.499 -168s-48.5 -102.333 -81.5 -148s-72 -85 -117 -118s-96.167 -59 -153.5 -78
s-121.333 -28.5 -192 -28.5h-619c-10 0 -19.333 3.66699 -28 11s-13 17.333 -13 30l15 1388c0 11.333 4.5 21.333 13.5 30s20.167 13 33.5 13h588zM767 225c44 0 83.666 6.83105 118.999 20.498s66.833 32.5 94.5 56.5s51.334 52 71.001 84s36 66.333 49 103
s22.5 74.667 28.5 114s9 78.333 9 117c0 34.667 -2.33301 72.334 -7 113.001s-12.5 81.334 -23.5 122.001s-25.5 79.667 -43.5 117s-40.667 70.333 -68 99s-59.666 51.667 -96.999 69s-80.333 26 -129 26h-411c-10.667 -0.666992 -19.167 -4.5 -25.5 -11.5
s-9.5 -15.833 -9.5 -26.5l11 -968c0 -10.667 3.66699 -19.167 11 -25.5s15.666 -9.5 24.999 -9.5h396z" />
    <glyph glyph-name="E" unicode="E" horiz-adv-x="1229" 
d="M1139 41c0 -10 -4.00098 -19.334 -12.001 -28.001s-17.667 -13 -29 -13h-955c-10 0 -19.333 3.66699 -28 11s-13 17.333 -13 30l15 1388c0 11.333 4.5 21.333 13.5 30s20.167 13 33.5 13h911c8.66699 0 17 -3.66699 25 -11s12 -15.666 12 -24.999l3 -131
c0 -12.667 -3.66699 -22.167 -11 -28.5s-15.666 -9.83301 -24.999 -10.5h-719c-10.667 -0.666992 -19.334 -4.5 -26.001 -11.5s-10 -16.167 -10 -27.5l4 -312c0 -9.33301 3.33301 -17.666 10 -24.999s15 -11 25 -11h652c10 0 18.5 -3.83301 25.5 -11.5
s10.5 -15.834 10.5 -24.501l3 -134c0 -8.66699 -3.66699 -16.667 -11 -24s-15.666 -11 -24.999 -11h-649c-10.667 0 -19.667 -3.5 -27 -10.5s-11 -16.5 -11 -28.5l4 -376c0 -8.66699 3.5 -16.5 10.5 -23.5s15.167 -10.5 24.5 -10.5h724c10 0 19.333 -2.83301 28 -8.5
s13.667 -15.167 15 -28.5z" />
    <glyph glyph-name="F" unicode="F" horiz-adv-x="1205" 
d="M1115 1300c0 -9.33301 -3.66504 -17.1699 -10.998 -23.5029s-15.333 -9.83301 -24 -10.5h-719c-10.667 -1.33301 -19.334 -5.66602 -26.001 -12.999s-10 -16 -10 -26l4 -312c0 -9.33301 3.33301 -17.666 10 -24.999s15 -11 25 -11h651c9.33301 0 17.666 -4 24.999 -12
s11 -17 11 -27l3 -129c0 -10 -3.83301 -18.667 -11.5 -26s-16.167 -11 -25.5 -11h-647c-10.667 0 -19.667 -3.33301 -27 -10s-11 -16 -11 -28l6 -595c0 -12.667 -4.33301 -22.667 -13 -30s-18 -11 -28 -11h-153c-11.333 0 -21 3.66699 -29 11s-12 17.333 -12 30l15 1388
c0 11.333 4.5 21.333 13.5 30s20.167 13 33.5 13h912c8.66699 0 16.667 -3.66699 24 -11s11 -15.666 11 -24.999z" />
    <glyph glyph-name="G" unicode="G" horiz-adv-x="1578" 
d="M1508 673c-6 -107.333 -28.6719 -203.835 -68.0049 -289.502s-91.166 -158.5 -155.499 -218.5s-139.166 -106.167 -224.499 -138.5s-177.333 -48.5 -276 -48.5c-72.667 0 -141 8.83301 -205 26.5s-122.833 42.834 -176.5 75.501s-101.667 72.167 -144 118.5
s-78.166 97.833 -107.499 154.5s-51.833 118.167 -67.5 184.5s-23.5 135.5 -23.5 207.5c0 102.667 17.167 199.334 51.5 290.001s83.166 170 146.499 238s139.5 121.667 228.5 161s188.167 59 297.5 59c80 0 154.667 -10.667 224 -32s132 -50.5 188 -87.5
s104.667 -81 146 -132s74.333 -105.833 99 -164.5c4 -8.66699 5.33301 -16.667 4 -24s-4.33301 -13.833 -9 -19.5s-10.667 -10 -18 -13s-15 -4.5 -23 -4.5h-137c-10.667 0 -19.167 2.83301 -25.5 8.5s-11.5 12.834 -15.5 21.501c-48 84 -109 146.5 -183 187.5
s-157.667 61.5 -251 61.5c-75.333 0 -143.5 -14.833 -204.5 -44.5s-113.333 -69.667 -157 -120s-77.167 -109.166 -100.5 -176.499s-35 -139 -35 -215c0 -80 12.833 -153.833 38.5 -221.5s60.834 -126.167 105.501 -175.5s97.334 -87.833 158.001 -115.5
s126 -41.5 196 -41.5c48 0 94.167 6.16699 138.5 18.5s85.333 29.833 123 52.5s71.5 49.667 101.5 81s54.333 65.666 73 102.999c2.66699 5.33301 4.83398 11.833 6.50098 19.5s2 15 1 22s-3.5 12.833 -7.5 17.5s-10 7 -18 7h-296c-11.333 0 -21.5 3.66699 -30.5 11
s-13.5 17.666 -13.5 30.999v123c0 13.333 4.5 23.833 13.5 31.5s19.167 11.5 30.5 11.5h561c11.333 0 21 -4.33301 29 -13s12 -18 12 -28z" />
    <glyph glyph-name="H" unicode="H" horiz-adv-x="1445" 
d="M1333 41c0 -12.667 -4.33398 -22.667 -13.001 -30s-18 -11 -28 -11h-153c-10 0 -19.333 3.66699 -28 11s-13 17.333 -13 30l6 597c0 10 -3.83301 18.5 -11.5 25.5s-16.5 10.5 -26.5 10.5h-700c-10 0 -18.5 -3.83301 -25.5 -11.5s-10.5 -16.5 -10.5 -26.5l6 -595
c0 -12.667 -4.33301 -22.667 -13 -30s-18 -11 -28 -11h-153c-9.33301 0 -18.5 3.66699 -27.5 11s-13.5 17.333 -13.5 30l15 1388c0 11.333 4.5 21.333 13.5 30s20.167 13 33.5 13h112c12.667 0 23.5 -4.33301 32.5 -13s13.5 -18.667 13.5 -30l6 -517
c0 -8 3.66699 -15.5 11 -22.5s16 -10.5 26 -10.5h707c8.66699 0 16.834 3.5 24.501 10.5s11.5 15.167 11.5 24.5l6 515c0 11.333 4.5 21.333 13.5 30s20.167 13 33.5 13h112c12.667 0 23.5 -4.33301 32.5 -13s13.5 -18.667 13.5 -30z" />
    <glyph glyph-name="I" unicode="I" horiz-adv-x="561" 
d="M160 41l15 1388c0 11.333 4.5 21.333 13.5 30s20.167 13 33.5 13h112c12.667 0 23.5 -4.33301 32.5 -13s13.5 -18.667 13.5 -30l15 -1388c0 -12.667 -4.33301 -22.667 -13 -30s-18 -11 -28 -11h-153c-10 0 -19.333 3.66699 -28 11s-13 17.333 -13 30z" />
    <glyph glyph-name="J" unicode="J" horiz-adv-x="1060" 
d="M956 406c0.666992 -67.333 -11.1689 -127.5 -35.502 -180.5s-57.333 -97.833 -99 -134.5s-89.667 -64.667 -144 -84s-111.166 -29 -170.499 -29c-61.333 0 -118.666 10 -171.999 30s-99.833 48.667 -139.5 86s-70.834 82.333 -93.501 135s-34 112 -34 178
c0 14.667 5 26.334 15 35.001s21.667 13 35 13h132c14.667 0 25.834 -4.66699 33.501 -14s11.5 -20.666 11.5 -33.999c0 -40 6.66699 -74.167 20 -102.5s30.333 -51.333 51 -69s43.5 -30.5 68.5 -38.5s49.167 -12 72.5 -12c22 0 45.833 4 71.5 12s49.5 20.667 71.5 38
s40.5 39.166 55.5 65.499s22.833 58.166 23.5 95.499l11 1033c0 11.333 4.5 21.333 13.5 30s20.167 13 33.5 13h112c12.667 0 23.5 -4.33301 32.5 -13s13.5 -18.667 13.5 -30z" />
    <glyph glyph-name="K" unicode="K" horiz-adv-x="1424" 
d="M1344 70c7.33301 -7.33301 10.668 -15 10.001 -23s-3.66699 -15.5 -9 -22.5s-12 -12.833 -20 -17.5s-15.667 -7 -23 -7h-194c-7.33301 0 -13.5 1.66699 -18.5 5s-9.5 7.66602 -13.5 12.999l-487 627c-2.66699 2.66699 -6.5 5 -11.5 7s-10 3.33301 -15 4
s-9.83301 0.5 -14.5 -0.5s-8.33398 -3.5 -11.001 -7.5l-189 -187c-5.33301 -5.33301 -8 -12.333 -8 -21l4 -399c0 -12.667 -4.33301 -22.667 -13 -30s-18 -11 -28 -11h-153c-10 0 -19.333 3.66699 -28 11s-13 17.333 -13 30l15 1388c0 11.333 4.66699 21.333 14 30
s20.333 13 33 13h112c12.667 0 23.5 -4.33301 32.5 -13s13.5 -18.667 13.5 -30l6 -577c0 -8 2 -15.167 6 -21.5s9 -11.166 15 -14.499s12.667 -5 20 -5s14.333 2.66699 21 8l707 636c12 11.333 28 17 48 17h104c11.333 0 20.5 -3 27.5 -9s11.833 -13.167 14.5 -21.5
s3.16699 -17 1.5 -26s-5.16699 -16.167 -10.5 -21.5l-546 -547c-6 -6 -9.66699 -14.167 -11 -24.5s0.666992 -19.5 6 -27.5z" />
    <glyph glyph-name="L" unicode="L" horiz-adv-x="1190" 
d="M1120 42c0 -11.333 -4 -21.167 -12 -29.5s-17 -12.5 -27 -12.5h-930c-10 0 -19.333 3.66699 -28 11s-13 17.333 -13 30l15 1388c0 11.333 4.5 21.333 13.5 30s20.167 13 33.5 13h112c12.667 0 23.5 -4.33301 32.5 -13s13.5 -18.667 13.5 -30l13 -1171
c0 -8.66699 3.66699 -16.5 11 -23.5s15.333 -10.5 24 -10.5h706c8.66699 0 16.5 -3.33301 23.5 -10s10.5 -14.667 10.5 -24z" />
    <glyph glyph-name="M" unicode="M" horiz-adv-x="1771" 
d="M1659 41c0 -12.667 -4.33496 -22.667 -13.002 -30s-18 -11 -28 -11h-153c-10 0 -19.333 3.66699 -28 11s-13 17.333 -13 30l11 1046c0 6.66699 -2.16699 11.834 -6.5 15.501s-9.33301 5.66699 -15 6s-11.167 -0.666992 -16.5 -3s-9 -5.83301 -11 -10.5l-383 -1072
c-3.33301 -6.66699 -7.83301 -12.167 -13.5 -16.5s-12.167 -6.5 -19.5 -6.5h-173c-16.667 0 -27.667 7.66699 -33 23l-388 1075c-2 5.33301 -5.66699 9 -11 11s-10.666 2.33301 -15.999 1s-10.166 -4 -14.499 -8s-6.5 -9 -6.5 -15l11 -1046
c0 -12 -4.33301 -21.833 -13 -29.5s-18 -11.5 -28 -11.5h-153c-10 0 -19.5 3.66699 -28.5 11s-13.167 17.333 -12.5 30l15 1388c0 11.333 4.5 21.333 13.5 30s19.833 13 32.5 13h213c8 0 15.833 -2.33301 23.5 -7s12.167 -10.334 13.5 -17.001l432 -1032
c2.66699 -6 7.16699 -10.667 13.5 -14s13 -5 20 -5s13.667 1.5 20 4.5s10.833 7.83301 13.5 14.5l434 1035c2.66699 6 7.5 11 14.5 15s14.167 6 21.5 6h214c12.667 0 23.5 -4.33301 32.5 -13s13.5 -18.667 13.5 -30z" />
    <glyph glyph-name="N" unicode="N" horiz-adv-x="1451" 
d="M1329 41c0 -12.667 -4.33496 -22.666 -13.002 -29.999s-18 -11 -28 -11h-203c-9.33301 0 -16.5 2.33301 -21.5 7s-10.5 11.667 -16.5 21l-668 1070c-3.33301 5.33301 -7.83301 9.16602 -13.5 11.499s-11.167 3 -16.5 2s-10 -3.5 -14 -7.5s-6 -9.66699 -6 -17l11 -1046
c0 -12 -4.33301 -21.833 -13 -29.5s-18 -11.5 -28 -11.5h-153c-10 0 -19.333 3.66699 -28 11s-13 17.333 -13 30l15 1388c0 11.333 4.5 21.333 13.5 30s20.167 13 33.5 13h172c10.667 0 19.334 -4.33301 26.001 -13l686 -1055c3.33301 -5.33301 7.66602 -9 12.999 -11
s10.5 -2.33301 15.5 -1s9.33301 4 13 8s5.5 9.33301 5.5 16l11 1013c0 11.333 4.5 21.333 13.5 30s20.167 13 33.5 13h112c12.667 0 23.334 -4.33301 32.001 -13s13.334 -18.667 14.001 -30z" />
    <glyph glyph-name="O" unicode="O" horiz-adv-x="1607" 
d="M801 1493c67.333 0 131.999 -8.83008 193.999 -26.4971s119.833 -42.667 173.5 -75s102.667 -71.333 147 -117s82.166 -96 113.499 -151s55.5 -114.333 72.5 -178s25.5 -129.834 25.5 -198.501c0 -107.333 -18.333 -207.833 -55 -301.5s-87.5 -175.167 -152.5 -244.5
s-142.167 -123.833 -231.5 -163.5s-186.666 -59.5 -291.999 -59.5c-103.333 0 -199.166 19.833 -287.499 59.5s-165 94.167 -230 163.5s-116 150.5 -153 243.5s-55.5 193.167 -55.5 300.5c0 69.333 8.5 136 25.5 200s41.333 123.667 73 179s69.5 105.666 113.5 150.999
s93.167 84.166 147.5 116.499s112.833 57.333 175.5 75s128 26.5 196 26.5zM798.999 184.003c50.667 0 98.334 8.16797 143.001 24.501s85.5 38.5 122.5 66.5s70 60.5 99 97.5s53.5 76.333 73.5 118s35.333 84.334 46 128.001s16 85.834 16 126.501c0 40 -5 81.5 -15 124.5
s-24.833 84.833 -44.5 125.5s-43.834 79.167 -72.501 115.5s-61.5 68.166 -98.5 95.499s-78 49 -123 65s-93.833 24 -146.5 24c-53.333 0 -102.833 -8 -148.5 -24s-87 -37.833 -124 -65.5s-69.833 -59.667 -98.5 -96s-52.667 -74.833 -72 -115.5s-34 -82.334 -44 -125.001
s-15 -84 -15 -124c0 -42.667 5.16699 -86 15.5 -130s25.5 -86.833 45.5 -128.5s44.333 -80.834 73 -117.501s61.667 -68.667 99 -96s78.5 -49 123.5 -65s93.5 -24 145.5 -24z" />
    <glyph glyph-name="P" unicode="P" horiz-adv-x="1288" 
d="M769 1472c62 0 120.666 -10.332 175.999 -30.999s103.833 -50 145.5 -88s74.834 -84 99.501 -138s37 -114.333 37 -181c0 -67.333 -12.333 -128.5 -37 -183.5s-58.5 -102.333 -101.5 -142s-94.167 -70.334 -153.5 -92.001s-123.333 -32.5 -192 -32.5h-375
c-10 0 -18.5 -3.5 -25.5 -10.5s-10.5 -15.5 -10.5 -25.5l5 -507c0 -12 -4.33301 -21.833 -13 -29.5s-18 -11.5 -28 -11.5h-153c-10 0 -19.333 3.66699 -28 11s-13 17.333 -13 30l15 1388c0 11.333 4.5 21.333 13.5 30s20.167 13 33.5 13h605zM763.999 788.001
c38 0 72.332 5.83203 102.999 17.499s56.834 28.334 78.501 50.001s38.334 47.5 50.001 77.5s17.5 63.333 17.5 100s-6 69.5 -18 98.5s-29 53.5 -51 73.5s-48.333 35.167 -79 45.5s-64.334 15.5 -101.001 15.5h-402c-11.333 0 -20.5 -3.5 -27.5 -10.5
s-10.5 -15.833 -10.5 -26.5l5 -406c0 -9.33301 3.16699 -17.5 9.5 -24.5s14.833 -10.5 25.5 -10.5h400z" />
    <glyph glyph-name="Q" unicode="Q" horiz-adv-x="1606" 
d="M1271 156c-7.33301 -6.66699 -10.502 -15.666 -9.50195 -26.999s3.83301 -19.333 8.5 -24l77 -77c6 -5.33301 8.66699 -13.333 8 -24s-4.66699 -18.667 -12 -24l-118 -100c-7.33301 -8.66699 -16.666 -12.167 -27.999 -10.5s-20 6.16699 -26 13.5l-105 128
c-3.33301 5.33301 -7 7.66602 -11 6.99902s-8.33301 -1.33398 -13 -2.00098c-38.667 -11.333 -76.5 -20.5 -113.5 -27.5s-79.5 -10.5 -127.5 -10.5c-74 0 -143.5 9.16699 -208.5 27.5s-124.667 44.333 -179 78s-102.666 73.834 -144.999 120.501s-78.333 98.5 -108 155.5
s-52.167 118 -67.5 183s-23 132.5 -23 202.5c0 67.333 8.33301 132.666 25 195.999s40.5 122.666 71.5 177.999s68.167 106 111.5 152s91.833 85.5 145.5 118.5s111.667 58.5 174 76.5s127.833 27 196.5 27c70 0 136.833 -9.16699 200.5 -27.5s122.5 -44 176.5 -77
s103 -72.5 147 -118.5s81.333 -96.667 112 -152s54.334 -114.666 71.001 -177.999s25 -128.666 25 -195.999c0 -131.333 -22.333 -245.333 -67 -342s-107.334 -178.667 -188.001 -246zM1130 338.001c50 47.333 90.6641 104.501 121.997 171.501s47 145.5 47 235.5
c0 66.667 -12.167 132.667 -36.5 198s-58.5 124 -102.5 176s-96.667 94.167 -158 126.5s-129 48.833 -203 49.5c-74 0 -141.833 -15.833 -203.5 -47.5s-114.667 -73.5 -159 -125.5s-78.666 -110.833 -102.999 -176.5s-36.5 -132.5 -36.5 -200.5c0 -72 13 -141.5 39 -208.5
s61.667 -126.5 107 -178.5s98.5 -93.667 159.5 -125s126.5 -47.333 196.5 -48c-1.33301 0 0.833984 0 6.50098 0s12.834 0.333008 21.501 1s18.167 1.83398 28.5 3.50098s19.166 4.16699 26.499 7.5s12.333 7.5 15 12.5s1 11.5 -5 19.5l-56 71
c-7.33301 8 -11 17.167 -11 27.5s4 19.166 12 26.499l93 77c6.66699 7.33301 15.334 10.666 26.001 9.99902s19 -4.66699 25 -12l99 -110c2 -6 5.66699 -8.5 11 -7.5s11 3.5 17 7.5s11.167 8.16699 15.5 12.5z" />
    <glyph glyph-name="R" unicode="R" horiz-adv-x="1406" 
d="M1303 78c7.33301 -7.33301 11.333 -15.5029 12 -24.5029s-1 -17.5 -5 -25.5s-9.66699 -14.667 -17 -20s-15.333 -8 -24 -8h-149c-14.667 0 -28.834 3.5 -42.501 10.5s-24.5 16.167 -32.5 27.5l-414 534c-7.33301 8 -15.333 12 -24 12h-243c-10 0 -18.5 -3.5 -25.5 -10.5
s-10.5 -15.5 -10.5 -25.5l5 -507c0 -12.667 -4.33301 -22.667 -13 -30s-18 -11 -28 -11h-153c-10 0 -19.333 3.66699 -28 11s-13 17.333 -13 30l15 1388c0 11.333 4.5 21.333 13.5 30s20.167 13 33.5 13h606c62 0 120.667 -10.333 176 -31s103.833 -50 145.5 -88
s74.667 -84 99 -138s36.5 -114.333 36.5 -181c0 -67.333 -11 -125.833 -33 -175.5s-49.167 -91.5 -81.5 -125.5s-67.166 -61.167 -104.499 -81.5s-71 -35.166 -101 -44.499c-8 -3.33301 -12.833 -9.16602 -14.5 -17.499s0.5 -16.166 6.5 -23.499zM761 787.997
c38 0 72.333 5.83105 103 17.498s56.667 28.334 78 50.001s37.833 47.5 49.5 77.5s17.5 63.667 17.5 101c0 36.667 -6 69.334 -18 98.001s-29 53 -51 73s-48.333 35.167 -79 45.5s-64.334 15.5 -101.001 15.5h-404c-9.33301 0 -17.666 -3.66699 -24.999 -11s-11 -16 -11 -26
l5 -406c0 -9.33301 3.16699 -17.5 9.5 -24.5s14.5 -10.5 24.5 -10.5h402z" />
    <glyph glyph-name="S" unicode="S" horiz-adv-x="1368" 
d="M1288 412c-0.666992 -58 -8.50391 -109.003 -23.5039 -153.003s-36 -82 -63 -114s-59 -58.833 -96 -80.5s-77.5 -38.834 -121.5 -51.501s-90.833 -21.667 -140.5 -27s-100.5 -8 -152.5 -8c-38.667 0 -79.667 3 -123 9s-86.666 16 -129.999 30s-85.5 32.167 -126.5 54.5
s-78.167 49.833 -111.5 82.5s-61.5 70.834 -84.5 114.501s-38.5 93.5 -46.5 149.5c-1.33301 12.667 1.16699 24.5 7.5 35.5s18.166 16.5 35.499 16.5h151c7.33301 0 15.333 -3 24 -9s14 -12.667 16 -20c10 -46 28.833 -85.333 56.5 -118s59.667 -59.167 96 -79.5
s74.833 -35.166 115.5 -44.499s79.334 -14 116.001 -14c22 0 45.833 1.33301 71.5 4s51.334 7 77.001 13s50.334 14.167 74.001 24.5s44.667 23.333 63 39s33 34.167 44 55.5s16.5 46 16.5 74c-0.666992 38.667 -11.167 70.834 -31.5 96.501s-48.166 47.5 -83.499 65.5
s-77 34.167 -125 48.5l-156 46.5c-32.667 12 -67.667 23.5 -105 34.5s-74.666 23.5 -111.999 37.5s-73 30.5 -107 49.5s-64.167 42.5 -90.5 70.5s-47.333 61.667 -63 101s-23.5 86 -23.5 140c0 68 13.833 127.5 41.5 178.5s65 93.5 112 127.5s101.333 59.5 163 76.5
s126.5 25.5 194.5 25.5c66 0 131.167 -8 195.5 -24s123.166 -40.833 176.499 -74.5s98.666 -76.5 135.999 -128.5s62 -113.667 74 -185c-1.33301 -10.667 -6 -20.334 -14 -29.001s-17.667 -13 -29 -13h-141c-11.333 0 -21 4.33301 -29 13s-14 18 -18 28
c-18 46 -41.667 83 -71 111s-60 49.833 -92 65.5s-63.333 26 -94 31s-56 7.5 -76 7.5c-34.667 0 -70.667 -2.66699 -108 -8s-71.5 -15.166 -102.5 -29.499s-56.333 -34.5 -76 -60.5s-29.167 -60 -28.5 -102c0.666992 -28.667 8.33398 -53.667 23.001 -75
s33.5 -40.166 56.5 -56.499s49 -30.333 78 -42s58.167 -21.834 87.5 -30.501s57.5 -16.167 84.5 -22.5s50.167 -12.5 69.5 -18.5c29.333 -10 63 -19.333 101 -28s77 -19.167 117 -31.5s79.333 -27.666 118 -45.999s73 -42 103 -71s54.167 -64.833 72.5 -107.5
s27.5 -94 27.5 -154z" />
    <glyph glyph-name="T" unicode="T" horiz-adv-x="1243" 
d="M1198 1303c0 -10 -3.50098 -18.501 -10.501 -25.501s-15.167 -10.833 -24.5 -11.5h-408c-11.333 0 -20.5 -3.33301 -27.5 -10s-10.5 -15 -10.5 -25l13 -1190c0 -12.667 -4.33301 -22.667 -13 -30s-18 -11 -28 -11h-153c-10 0 -19.333 3.66699 -28 11s-13 17.333 -13 30
l13 1189c0 8.66699 -3.16699 16.834 -9.5 24.501s-15.166 11.5 -26.499 11.5h-397c-8.66699 0 -16.667 3.33301 -24 10s-11 15.667 -11 27l2 135c0 10 4 18.167 12 24.5s16 9.5 24 9.5h1081c9.33301 0 17.833 -3.16699 25.5 -9.5s11.5 -14.5 11.5 -24.5z" />
    <glyph glyph-name="U" unicode="U" horiz-adv-x="1405" 
d="M319 567c0.666992 -56 9.33594 -107.329 26.0029 -153.996s40.834 -86.834 72.501 -120.501s70.834 -60 117.501 -79s100.667 -28.5 162 -28.5s115.166 9.5 161.499 28.5s85.166 45.833 116.499 80.5s55.166 76.167 71.499 124.5s24.833 101.833 25.5 160.5l11 850
c0 11.333 4.5 21.333 13.5 30s20.167 13 33.5 13h112c12.667 0 23.5 -4.33301 32.5 -13s13.5 -18.667 13.5 -30l9 -858c1.33301 -88.667 -11 -169.334 -37 -242.001s-64.667 -135 -116 -187s-114.5 -92.333 -189.5 -121s-160.833 -43 -257.5 -43
c-96 0 -181.5 14.333 -256.5 43s-138.333 69.167 -190 121.5s-90.834 115.166 -117.501 188.499s-39.334 154.666 -38.001 243.999l9 854c0 11.333 4.5 21.333 13.5 30s20.167 13 33.5 13h112c12.667 0 23.5 -4.33301 32.5 -13s13.5 -18.667 13.5 -30z" />
    <glyph glyph-name="V" unicode="V" horiz-adv-x="1426" 
d="M863 25c-5.33301 -16.667 -18.332 -25.002 -38.999 -25.002h-211c-21.333 0 -34.333 7 -39 21l-514 1398c-6.66699 18 -6.5 31.333 0.5 40s18.167 13 33.5 13h137c9.33301 0 17.333 -1.83301 24 -5.5s11.667 -10.167 15 -19.5l426 -1100
c4.66699 -9.33301 11.667 -13.666 21 -12.999s16 5 20 13l415 1098c2.66699 6.66699 7.66699 12.834 15 18.501s15.333 8.5 24 8.5h138c12 0 21.667 -5.5 29 -16.5s8.66602 -23.167 3.99902 -36.5z" />
    <glyph glyph-name="W" unicode="W" horiz-adv-x="2035" 
d="M1597 26c-2 -7.33301 -6.16504 -13.502 -12.498 -18.502s-13.5 -7.5 -21.5 -7.5h-248c-8 0 -15.167 2.33301 -21.5 7s-10.5 10.667 -12.5 18l-251 956c-3.33301 10.667 -10.5 16 -21.5 16s-18.167 -5.33301 -21.5 -16l-274 -955c-2 -7.33301 -6.16699 -13.5 -12.5 -18.5
s-13.833 -7.5 -22.5 -7.5h-247c-18.667 0 -30.334 8.33301 -35.001 25l-339 1394c-4.66699 17.333 -3.66699 30.5 3 39.5s17 13.5 31 13.5h137c8.66699 0 16.667 -2.33301 24 -7s12.333 -10.667 15 -18l278 -1092c1.33301 -5.33301 4.16602 -9.16602 8.49902 -11.499
s9 -3.5 14 -3.5s9.83301 1.16699 14.5 3.5s7.66699 6.16602 9 11.499l309 1093c2 8 6.5 14 13.5 18s14.833 6 23.5 6h156c8 0 15.333 -2.16699 22 -6.5s11 -10.166 13 -17.499l272 -1093c1.33301 -5.33301 4.16602 -9.33301 8.49902 -12s9 -4 14 -4s9.83301 1.33301 14.5 4
s7.66699 6.66699 9 12l314 1090c2 6.66699 6.83301 12.834 14.5 18.501s15.834 8.5 24.501 8.5h138c12 0 21.5 -5.16699 28.5 -15.5s8.5 -22.5 4.5 -36.5z" />
    <glyph glyph-name="X" unicode="X" horiz-adv-x="1323" 
d="M821 759c-2.66699 -6 -4.83301 -12.333 -6.5 -19s0.166016 -12.667 5.49902 -18l444 -650c5.33301 -7.33301 8.33301 -15.166 9 -23.499s-0.666016 -16 -3.99902 -23s-8.33301 -13 -15 -18s-14 -7.5 -22 -7.5h-185c-5.33301 0 -11 1 -17 3s-10.667 5.66699 -14 11
l-325 497c-10 12 -21.5 17.833 -34.5 17.5s-23.167 -6.16602 -30.5 -17.499l-308 -495c-4 -4.66699 -8.66699 -8.5 -14 -11.5s-11.333 -4.5 -18 -4.5h-176c-8.66699 0 -16.5 2.16699 -23.5 6.5s-12.5 10 -16.5 17s-6.16699 14.833 -6.5 23.5s2.16699 17 7.5 25l427 650
c2.66699 4.66699 3.83398 11.167 3.50098 19.5s-1.83301 14.166 -4.5 17.499l-392 641c-6 7.33301 -9 15.333 -9 24s2 16.5 6 23.5s9.16699 12.833 15.5 17.5s13.166 7 20.499 7h146c12.667 0 23.334 -6.33301 32.001 -19l311 -489c4 -5.33301 9 -9.33301 15 -12
s12.167 -3.83398 18.5 -3.50098s12.166 2 17.499 5s9.33301 7.5 12 13.5l310 485c8.66699 13.333 19 20 31 20h145c9.33301 0 17.333 -2.66699 24 -8s11.5 -11.833 14.5 -19.5s4.16699 -16 3.5 -25s-4 -17.5 -10 -25.5z" />
    <glyph glyph-name="Y" unicode="Y" horiz-adv-x="1215" 
d="M1123 1472c9.33301 0 17.3301 -2.66602 23.9971 -7.99902s11.5 -11.833 14.5 -19.5s4.16699 -16 3.5 -25s-3.66699 -17.167 -9 -24.5l-432 -711c-1.33301 -3.33301 -2.66602 -6.5 -3.99902 -9.5s-2 -6.16699 -2 -9.5l17 -624c0 -12.667 -4.33301 -22.667 -13 -30
s-18 -11 -28 -11h-174c-10 0 -19.333 3.66699 -28 11s-13 17.333 -13 30l17 624c0 7.33301 -1.66699 13.666 -5 18.999l-439 716c-6 8 -9 16.167 -9 24.5s1.83301 16 5.5 23s8.83398 12.833 15.501 17.5s13.667 7 21 7h146c6.66699 0 12.834 -1.83301 18.501 -5.5
s10.167 -8.16699 13.5 -13.5l311 -489c4 -5.33301 8.66699 -9.33301 14 -12s11 -3.66699 17 -3s11.833 2.5 17.5 5.5s10.5 7.16699 14.5 12.5l310 486c3.33301 5.33301 7.83301 9.83301 13.5 13.5s11.5 5.5 17.5 5.5h145z" />
    <glyph glyph-name="Z" unicode="Z" horiz-adv-x="1331" 
d="M1251 43c0 -12 -4.16797 -22.166 -12.501 -30.499s-17.833 -12.5 -28.5 -12.5h-1079c-10 0 -18.5 3.5 -25.5 10.5s-10.5 16.167 -10.5 27.5l4 162c0 8 2.66699 15.667 8 23l784 1003c6.66699 9.33301 7.33398 18.333 2.00098 27s-13 13 -23 13h-712
c-12 0 -22 4.33301 -30 13s-12 19.667 -12 33l2 118c0 11.333 4.33301 21.166 13 29.499s18 12.5 28 12.5h1023c10.667 0 20 -4.33301 28 -13s12.667 -18.667 14 -30l2 -116c0 -13.333 -3.33301 -23.333 -10 -30l-775 -1017c-4 -4 -6.16699 -8.5 -6.5 -13.5
s0.5 -9.66699 2.5 -14s5 -7.83301 9 -10.5s8.33301 -4 13 -4h745c12.667 0 23.167 -3.16699 31.5 -9.5s12.5 -15.5 12.5 -27.5z" />
    <glyph glyph-name="bracketleft" unicode="[" horiz-adv-x="617" 
d="M321 1288c-6 0 -10.834 -2.33203 -14.501 -6.99902s-5.5 -10.667 -5.5 -18v-1499c0 -7.33301 1.83301 -13.333 5.5 -18s8.5 -7 14.5 -7h206c12 0 22.5 -4 31.5 -12s13.5 -18 13.5 -30v-102c0 -12 -4.16699 -21.667 -12.5 -29s-19.166 -11 -32.499 -11h-371
c-10.667 0 -20.167 3.66699 -28.5 11s-12.5 16.333 -12.5 27v1840c0 11.333 4.16699 20.666 12.5 27.999s17.833 11 28.5 11h371c12 0 22.5 -3.83301 31.5 -11.5s13.5 -17.5 13.5 -29.5v-101c0 -12 -4.5 -22 -13.5 -30s-19.5 -12 -31.5 -12h-206z" />
    <glyph glyph-name="backslash" unicode="\" horiz-adv-x="750" 
d="M138 1472c9.33301 0 17.3291 -2.16602 23.9961 -6.49902s11.334 -9.83301 14.001 -16.5l580 -1382c2 -6.66699 2.83301 -14 2.5 -22s-2.16602 -15.333 -5.49902 -22s-8 -12.167 -14 -16.5s-13.667 -6.5 -23 -6.5h-181c-9.33301 0 -17.666 2.66699 -24.999 8
s-12.666 12.666 -15.999 21.999l-509 1377c-4 6.66699 -5.5 13.834 -4.5 21.501s3.5 14.667 7.5 21s9.33301 11.666 16 15.999s14 6.5 22 6.5h112z" />
    <glyph glyph-name="bracketright" unicode="]" horiz-adv-x="647" 
d="M104 1288c-12 0 -22.333 3.99902 -31 11.999s-13 18 -13 30v101c0 12 4.33301 21.833 13 29.5s19 11.5 31 11.5h371c11.333 0 21.166 -3.66699 29.499 -11s12.5 -16.666 12.5 -27.999v-1840c0 -10.667 -4.16699 -19.667 -12.5 -27s-18.166 -11 -29.499 -11h-371
c-13.333 0 -24 3.66699 -32 11s-12 17 -12 29v102c0 12 4.33301 22 13 30s19 12 31 12h206c6 0 10.833 2.33301 14.5 7s5.5 10.667 5.5 18v1499c0 7.33301 -1.83301 13.333 -5.5 18s-8.5 7 -14.5 7h-206z" />
    <glyph glyph-name="asciicircum" unicode="^" horiz-adv-x="1300" 
d="M291 468c-2.66699 -7.33301 -8.16406 -13.835 -16.4971 -19.502s-15.166 -9.16699 -20.499 -10.5h-118c-6 0 -12.333 1.83301 -19 5.5s-12.334 8.16699 -17.001 13.5s-7.83398 11.5 -9.50098 18.5s-0.5 14.167 3.5 21.5l449 953c2 5.33301 5.5 10.333 10.5 15
s10.5 7 16.5 7h113c6.66699 0 12 -2.16699 16 -6.5s7.33301 -8.83301 10 -13.5l486 -944c3.33301 -5.33301 4.66602 -11.666 3.99902 -18.999s-2.83398 -14.166 -6.50098 -20.499s-8.5 -11.833 -14.5 -16.5s-13 -7 -21 -7h-116c-16 0 -27.333 6 -34 18l-356 739
c-2 4.66699 -5.16699 8.16699 -9.5 10.5s-9 3.5 -14 3.5s-9.66699 -1.16699 -14 -3.5s-7.5 -5.83301 -9.5 -10.5z" />
    <glyph glyph-name="underscore" unicode="_" horiz-adv-x="1134" 
d="M1079 -279c-1.33301 -8.66699 -5.33301 -16.3311 -12 -22.998s-14 -10.334 -22 -11.001h-957c-9.33301 0 -18 2.83301 -26 8.5s-12 14.167 -12 25.5v111c0 11.333 3.83301 20.166 11.5 26.499s16.5 9.5 26.5 9.5h955c8.66699 0 16.5 -3.33301 23.5 -10
s11.167 -14.667 12.5 -24v-113z" />
    <glyph glyph-name="grave" unicode="`" horiz-adv-x="424" 
d="M81 1400c-6 6 -9.33203 13.168 -9.99902 21.501s0.666016 16.333 3.99902 24s8.16602 14 14.499 19s13.5 7.5 21.5 7.5h96c16.667 -2.66699 28 -9.33398 34 -20.001l135 -240c7.33301 -12.667 9.33301 -24.167 6 -34.5s-9.16602 -18.333 -17.499 -24
s-18 -8.16699 -29 -7.5s-20.167 5.66699 -27.5 15z" />
    <glyph glyph-name="a" unicode="a" horiz-adv-x="1086" 
d="M787 780c0 20 -6.00098 37.502 -18.001 52.502s-28 27.667 -48 38s-42.667 18 -68 23s-51 7.5 -77 7.5c-22 0 -44.667 -1.5 -68 -4.5s-45.833 -9.33301 -67.5 -19s-41.5 -23.167 -59.5 -40.5s-32.667 -40 -44 -68c-6.66699 -16 -15.5 -27.333 -26.5 -34
s-25.167 -10 -42.5 -10l-87 -1c-21.333 0 -37.166 4.66699 -47.499 14s-11.833 28.666 -4.5 57.999c12 46 33.333 87 64 123s67 66.5 109 91.5s87.667 44 137 57s99 19.5 149 19.5c55.333 0 107.333 -7.66699 156 -23s91.334 -37.166 128.001 -65.499
s65.667 -62.5 87 -102.5s32.333 -84.667 33 -134l8 -720c0 -10.667 -3.83301 -20.334 -11.5 -29.001s-17.167 -13 -28.5 -13h-135c-12.667 0 -23.334 3.83301 -32.001 11.5s-13 17.834 -13 30.501v46c0 13.333 -5.66699 21 -17 23s-22.666 -1.66699 -33.999 -11
c-30 -26.667 -59.667 -48 -89 -64s-58.333 -28.333 -87 -37s-57 -14.334 -85 -17.001s-55.667 -4 -83 -4c-55.333 0 -103 8.16699 -143 24.5s-73 38.833 -99 67.5s-45.333 62.167 -58 100.5s-18.667 79.166 -18 122.499c0.666992 42.667 7 80.167 19 112.5
s27.833 60.5 47.5 84.5s42.167 44.167 67.5 60.5s51.666 29.5 78.999 39.5c35.333 13.333 73 23.5 113 30.5s79.5 12.833 118.5 17.5s76 9.5 111 14.5s65.167 12.5 90.5 22.5c28 13.333 47.167 28.833 57.5 46.5s15.833 37.167 16.5 58.5zM279.999 300.002
c0 -29.333 7.5 -52.5 22.5 -69.5s34.667 -29.167 59 -36.5s51.666 -10.833 81.999 -10.5s60.5 3.5 90.5 9.5s58.167 13.833 84.5 23.5s47.833 20.167 64.5 31.5c24.667 16 43.834 34.833 57.501 56.5s23.667 43.167 30 64.5s10.166 41 11.499 59s2 31.667 2 41
c0 13.333 -3.83301 22.5 -11.5 27.5s-16.834 5.83301 -27.501 2.5c-35.333 -10.667 -71.166 -19.167 -107.499 -25.5l-106 -18c-34.333 -5.66699 -66.666 -11.667 -96.999 -18s-57 -15 -80 -26s-41.167 -25.333 -54.5 -43s-20 -40.5 -20 -68.5z" />
    <glyph glyph-name="b" unicode="b" horiz-adv-x="1252" 
d="M645 1087c68.667 0 134.502 -12.168 197.502 -36.501s118.5 -60.333 166.5 -108s86.167 -106.167 114.5 -175.5s42.5 -149 42.5 -239c0 -74.667 -13 -145.334 -39 -212.001s-62.5 -125.167 -109.5 -175.5s-103.333 -90.166 -169 -119.499s-138.167 -44 -217.5 -44
c-24 0 -48.5 2.16699 -73.5 6.5s-49.833 10.666 -74.5 18.999s-48.334 18.5 -71.001 30.5s-43.667 25.667 -63 41c-10 8 -19.667 10.833 -29 8.5s-14 -9.16602 -14 -20.499v-20c0 -10.667 -3.83301 -20.334 -11.5 -29.001s-17.167 -13 -28.5 -13h-135
c-12.667 0 -23.334 3.83301 -32.001 11.5s-13 17.834 -13 30.501l15 1388c0 12.667 4.5 22.834 13.5 30.501s18.833 11.5 29.5 11.5h107c10.667 0 20.167 -4.33301 28.5 -13s12.5 -19 12.5 -31l5 -453c0 -9.33301 4.5 -16 13.5 -20s17.833 -1.66699 26.5 7
c38 38.667 81.833 69.167 131.5 91.5s108.5 33.5 176.5 33.5zM623.002 184.999c48 0 91.8311 9.66602 131.498 28.999s73.667 45.5 102 78.5s50.333 71.333 66 115s23.5 89.834 23.5 138.501c0 46 -6.16699 90.5 -18.5 133.5s-31.166 80.833 -56.499 113.5
s-57.166 58.834 -95.499 78.501s-83.5 29.5 -135.5 29.5c-50 0 -96.333 -9.5 -139 -28.5s-79.334 -44.167 -110.001 -75.5s-54.667 -67.5 -72 -108.5s-25.666 -83.833 -24.999 -128.5c0.666992 -45.333 6 -90.333 16 -135s27.333 -84.834 52 -120.501
s58.167 -64.5 100.5 -86.5s95.833 -33 160.5 -33z" />
    <glyph glyph-name="c" unicode="c" horiz-adv-x="1175" 
d="M1107 341c-18.667 -56 -43.8311 -106.331 -75.498 -150.998s-68.834 -82.667 -111.501 -114s-90.334 -55.5 -143.001 -72.5s-109.334 -25.5 -170.001 -25.5c-78 0 -150 13.667 -216 41s-122.833 65.333 -170.5 114s-84.834 106.667 -111.501 174s-40 141 -40 221
c0 76 12 148 36 216s59 127.333 105 178s102.667 90.834 170 120.501s144.666 44.5 231.999 44.5c58.667 0 112.834 -8.66699 162.501 -26s94 -40.166 133 -68.499s72.333 -61.166 100 -98.499s48.834 -76 63.501 -116c6 -17.333 4.16699 -31.833 -5.5 -43.5
s-21.5 -17.5 -35.5 -17.5h-132c-7.33301 0 -14.333 1.66699 -21 5s-11.334 8.66602 -14.001 15.999c-14.667 28.667 -32 53.167 -52 73.5s-41.167 37.166 -63.5 50.499s-45.166 23.166 -68.499 29.499s-45.666 9.5 -66.999 9.5c-52 0 -98.167 -9.83301 -138.5 -29.5
s-74.166 -46.167 -101.499 -79.5s-48 -72 -62 -116s-21 -90.333 -21 -139c0 -61.333 7.66699 -114.166 23 -158.499s37 -80.833 65 -109.5s61.833 -49.834 101.5 -63.501s84.167 -20.5 133.5 -20.5c26.667 0 53.5 3.83301 80.5 11.5s52.833 19.5 77.5 35.5
s47.834 36 69.501 60s40.5 52.333 56.5 85c5.33301 14 18 22 38 24h131c10 -0.666992 18.167 -3.33398 24.5 -8.00098s11.166 -10 14.499 -16s5.16602 -12.333 5.49902 -19s-0.5 -12.334 -2.5 -17.001z" />
    <glyph glyph-name="d" unicode="d" horiz-adv-x="1260" 
d="M85 528c0 88 13.001 166.665 39.001 235.998s62 127.833 108 175.5s100.5 84.167 163.5 109.5s131.5 38 205.5 38c26.667 0 53.834 -2.66699 81.501 -8s54.834 -13.333 81.501 -24s51.667 -23.834 75 -39.501s44 -33.5 62 -53.5c4 -4.66699 8.33301 -7.33398 13 -8.00098
s9 -0.333984 13 0.999023s7.33301 3.83301 10 7.5s4 7.83398 4 12.501l5 455c0 12.667 4.5 22.834 13.5 30.501s19.167 11.5 30.5 11.5h106c10.667 0 20.167 -4.33301 28.5 -13s12.5 -19 12.5 -31l15 -1386c0 -10.667 -3.83301 -20.334 -11.5 -29.001s-17.167 -13 -28.5 -13
h-135c-12.667 0 -23.334 3.83301 -32.001 11.5s-13 17.834 -13 30.501v21c0 6 -1.5 10.667 -4.5 14s-6.66699 5.33301 -11 6s-8.83301 0.333984 -13.5 -0.999023s-8.33398 -3.66602 -11.001 -6.99902c-15.333 -16 -33.333 -30.167 -54 -42.5s-43.167 -22.5 -67.5 -30.5
s-49.833 -14 -76.5 -18s-53.334 -6 -80.001 -6c-80 0 -152.667 14.667 -218 44s-121 69 -167 119s-81.5 108.333 -106.5 175s-37.5 137.334 -37.5 212.001zM305.001 540.998c0 -54 8.66895 -102.833 26.002 -146.5s40.333 -81 69 -112s61.5 -55 98.5 -72
s75.5 -25.5 115.5 -25.5c47.333 0 91.166 9 131.499 27s75.166 42.5 104.499 73.5s52.333 67.5 69 109.5s25 86.667 25 134c0 48 -7.33301 94.333 -22 139s-36.5 84.167 -65.5 118.5s-64.833 62 -107.5 83s-91.667 31.5 -147 31.5c-50 0 -93.667 -9.83301 -131 -29.5
s-68.333 -46 -93 -79s-43 -71.167 -55 -114.5s-18 -89 -18 -137z" />
    <glyph glyph-name="e" unicode="e" horiz-adv-x="1176" 
d="M1117 537c-0.666992 -12 -4.50293 -22.1729 -11.5029 -30.5059s-16.5 -12.5 -28.5 -12.5h-791c-12.667 -0.666992 -19 -8 -19 -22c6.66699 -52.667 19.667 -97.167 39 -133.5s43.166 -66 71.499 -89s60.5 -39.5 96.5 -49.5s73.667 -15 113 -15
c20.667 0 42.334 2.33301 65.001 7s45.334 12.334 68.001 23.001s44.5 24.834 65.5 42.501s39.833 39.834 56.5 66.501c8.66699 12 19.667 18 33 18h142c8.66699 0 16.334 -2.33301 23.001 -7s11.834 -10.5 15.501 -17.5s5.66699 -14.5 6 -22.5s-1.5 -15.333 -5.5 -22
c-20 -42 -45.5 -81 -76.5 -117s-66.5 -67.167 -106.5 -93.5s-84.167 -47 -132.5 -62s-100.5 -22.5 -156.5 -22.5c-78 0 -150 13.833 -216 41.5s-122.667 65.834 -170 114.501s-84.333 106.167 -111 172.5s-40 138.5 -40 216.5c0 80 12 154.333 36 223
s59 128.334 105 179.001s102.5 90.334 169.5 119.001s143.167 43 228.5 43c74.667 0 143.5 -13.333 206.5 -40s117.667 -64.334 164 -113.001s83.333 -106.667 111 -174s44.167 -141.666 49.5 -222.999zM850.997 664.994c9.33301 0 16.168 3.16797 20.501 9.50098
s4.83301 14.166 1.5 23.499c-34 68.667 -76.5 119.667 -127.5 153s-104.5 50 -160.5 50c-34 0 -65.5 -4.83301 -94.5 -14.5s-55.667 -23.5 -80 -41.5s-46.333 -39.5 -66 -64.5s-36.834 -52.833 -51.501 -83.5c-4 -10.667 -3.5 -18.667 1.5 -24s12.5 -8 22.5 -8h534z" />
    <glyph glyph-name="f" unicode="f" horiz-adv-x="647" 
d="M587 940c0 -12 -4.16797 -22.334 -12.501 -31.001s-18.5 -13.667 -30.5 -15h-115c-5.33301 0 -10 -2 -14 -6s-6 -8.66699 -6 -14l9 -832c0 -10.667 -3.83301 -20.334 -11.5 -29.001s-17.167 -13 -28.5 -13h-135c-12.667 0 -23.334 3.83301 -32.001 11.5
s-13 17.834 -13 30.501l8 832c0 5.33301 -2 10 -6 14s-8.66699 6 -14 6h-92c-13.333 0 -24 4.5 -32 13.5s-12 20.167 -12 33.5l2 82c0 12.667 4.33301 23.5 13 32.5s19 13.5 31 13.5h92c5.33301 0 10 2 14 6s6 9 6 15l2 126c0.666992 34 7.83398 66.5 21.501 97.5
s32.667 58.167 57 81.5s53.333 42 87 56s70.5 21 110.5 21h53c12.667 0 23.5 -4.5 32.5 -13.5s13.5 -20.167 13.5 -33.5l1 -77c0 -15.333 -4 -27.666 -12 -36.999s-19 -14 -33 -14h-63c-22 0 -39.833 -7.66699 -53.5 -23s-20.167 -39.333 -19.5 -72l2 -112c0 -6 2 -11 6 -15
s9 -6 15 -6h113c12.667 0 23.334 -4.33301 32.001 -13s13 -19 13 -31z" />
    <glyph glyph-name="g" unicode="g" horiz-adv-x="1271" 
d="M1165 19c0.666992 -64.667 -12.667 -126.167 -40 -184.5s-64.666 -109.666 -111.999 -153.999s-102.666 -79.5 -165.999 -105.5s-131 -39 -203 -39c-44.667 0 -88.167 5 -130.5 15s-82.666 25 -120.999 45s-74 45.167 -107 75.5s-62.5 66.166 -88.5 107.499
c-4.66699 7.33301 -6.83398 15.166 -6.50098 23.499s2.5 16 6.5 23s9.33301 12.833 16 17.5s14.667 7 24 7h149c6.66699 0 13 -1.33301 19 -4s10.667 -6.66699 14 -12c29.333 -34 62.666 -59.333 99.999 -76s80.333 -25 129 -25c41.333 0 79.833 7.83301 115.5 23.5
s66.834 36.5 93.501 62.5s47.667 55.833 63 89.5s23.333 68.5 24 104.5l1 67c0 12.667 -5 20.5 -15 23.5s-18.333 -0.166992 -25 -9.5c-17.333 -18.667 -38.333 -35.334 -63 -50.001s-50 -27 -76 -37s-51.5 -17.5 -76.5 -22.5s-46.5 -7.5 -64.5 -7.5
c-80 0 -152.5 14.667 -217.5 44s-120.667 69.166 -167 119.499s-82 108.833 -107 175.5s-37.5 137.334 -37.5 212.001c0 90 14.167 169.667 42.5 239s66.666 127.833 114.999 175.5s104.5 83.667 168.5 108s131.667 36.5 203 36.5c50.667 0 101.167 -11 151.5 -33
s95.5 -56.333 135.5 -103c2.66699 -4 6.5 -6.16699 11.5 -6.5s9.66699 0.333984 14 2.00098s8.16602 4.33398 11.499 8.00098s5 7.5 5 11.5l1 63c0 10 5 19.167 15 27.5s19.667 12.5 29 12.5h112c10.667 0 20.5 -4.16699 29.5 -12.5s13.5 -17.5 13.5 -27.5zM621.999 185
c42 0 82.835 8.5 122.502 25.5s74.667 40.667 105 71s54.666 66.5 72.999 108.5s27.5 88 27.5 138s-7.16699 97.5 -21.5 142.5s-35.5 84.667 -63.5 119s-62.833 61.5 -104.5 81.5s-89.834 30 -144.501 30c-52 0 -96.833 -10 -134.5 -30s-68.667 -46.833 -93 -80.5
s-42.5 -72.167 -54.5 -115.5s-18 -88 -18 -134c0 -54 8.5 -102.833 25.5 -146.5s39.667 -81 68 -112s60.833 -55 97.5 -72s75 -25.5 115 -25.5z" />
    <glyph glyph-name="h" unicode="h" horiz-adv-x="1130" 
d="M1021 42c0 -10.667 -3.82617 -20.333 -11.4932 -29s-17.167 -13 -28.5 -13h-135c-12.667 -0 -23.334 3.83301 -32.001 11.5s-13 17.834 -13 30.501l7 637c0 31.333 -3.83301 60.5 -11.5 87.5s-19.5 50.5 -35.5 70.5s-35.833 35.667 -59.5 47s-51.167 17 -82.5 17
c-37.333 0 -73.333 -7.66699 -108 -23s-65.334 -36.833 -92.001 -64.5s-48 -60.834 -64 -99.501s-23.667 -81.334 -23 -128.001l6 -544c0 -10.667 -3.83301 -20.334 -11.5 -29.001s-17.167 -13 -28.5 -13h-135c-12.667 0 -23.334 3.83301 -32.001 11.5
s-13 17.834 -13 30.501l14 1388c0 12.667 4.5 22.834 13.5 30.501s18.833 11.5 29.5 11.5h107c10.667 0 20.167 -4.33301 28.5 -13s12.5 -19 12.5 -31l5 -461c0 -4.66699 1.5 -8.66699 4.5 -12s6.66699 -5.83301 11 -7.5s8.66602 -2.5 12.999 -2.5s8.16602 1.66699 11.499 5
c38 46.667 82.333 81.167 133 103.5s111 33.5 181 33.5c48.667 0 93.167 -8.66699 133.5 -26s75.166 -41.333 104.499 -72s52.166 -67 68.499 -109s24.833 -87.333 25.5 -136z" />
    <glyph glyph-name="i" unicode="i" horiz-adv-x="520" 
d="M366 42c0 -10.667 -3.83203 -20.335 -11.499 -29.002s-17.167 -13 -28.5 -13h-135c-12.667 0 -23.334 3.83301 -32.001 11.5s-13 17.834 -13 30.501l10 985c0 10.667 4.33301 20.334 13 29.001s18.667 13 30 13h111c11.333 0 21.333 -4.16699 30 -12.5
s13.667 -18.833 15 -31.5zM206.001 1231c-12.667 0 -23.166 4.50098 -31.499 13.501s-12.5 19.833 -12.5 32.5l2 151c0 12.667 4.5 23.167 13.5 31.5s19.5 12.5 31.5 12.5h92c12 0 22.667 -4.33301 32 -13s14 -19.334 14 -32.001l3 -150c0 -12.667 -4.33301 -23.5 -13 -32.5
s-19.334 -13.5 -32.001 -13.5h-99z" />
    <glyph glyph-name="j" unicode="j" horiz-adv-x="560" 
d="M411 -178c0 -33.333 -4.83398 -65.833 -14.501 -97.5s-24.167 -60.167 -43.5 -85.5s-43.833 -45.666 -73.5 -60.999s-64.167 -23 -103.5 -23h-105c-10 0 -19.333 4.33301 -28 13s-13 18 -13 28v122c0 10 4.33301 19.333 13 28s18 13 28 13c39.333 0 68.333 8.5 87 25.5
s28.334 43.5 29.001 79.5l12 1163c0 11.333 4.5 21.166 13.5 29.499s18.5 12.5 28.5 12.5h115c10 0 19.667 -4.16699 29 -12.5s14 -18.5 14 -30.5zM248.999 1231c-12.667 0 -23.166 4.50098 -31.499 13.501s-12.5 19.833 -12.5 32.5l2 151c0 12.667 4.5 23.167 13.5 31.5
s19.5 12.5 31.5 12.5h92c12 0 22.667 -4.33301 32 -13s14 -19.334 14 -32.001l3 -150c0 -12.667 -4.33301 -23.5 -13 -32.5s-19.334 -13.5 -32.001 -13.5h-99z" />
    <glyph glyph-name="k" unicode="k" horiz-adv-x="1098" 
d="M1040 70c4 -6 6.16992 -13.001 6.50293 -21.001s-1 -15.667 -4 -23s-7.66699 -13.5 -14 -18.5s-13.833 -7.5 -22.5 -7.5h-165c-13.333 0 -23.666 5.66699 -30.999 17l-330 437c-4 5.33301 -9.33301 8.5 -16 9.5s-12.334 -0.833008 -17.001 -5.5l-103 -105
c-4 -4 -6 -8.66699 -6 -14l3 -297c0 -10.667 -3.83301 -20.334 -11.5 -29.001s-17.167 -13 -28.5 -13h-135c-12.667 0 -23.334 3.83301 -32.001 11.5s-13 17.834 -13 30.501l14 1388c0 12.667 4.5 22.834 13.5 30.501s18.833 11.5 29.5 11.5h107
c10.667 0 20.167 -4.33301 28.5 -13s12.5 -19 12.5 -31l9 -745c0 -5.33301 1.5 -9.33301 4.5 -12s6.83301 -4.5 11.5 -5.5s9.16699 -1 13.5 0s8.16602 2.5 11.499 4.5l433 390c6 6 13.667 9 23 9h125c10.667 0 19.5 -3 26.5 -9s11.667 -13.167 14 -21.5
s2.66602 -17 0.999023 -26s-5.5 -16.833 -11.5 -23.5l-374 -372c-6.66699 -8.66699 -7 -18 -1 -28z" />
    <glyph glyph-name="l" unicode="l" horiz-adv-x="495" 
d="M360 42c0 -10.667 -3.83203 -20.335 -11.499 -29.002s-17.167 -13 -28.5 -13h-135c-12.667 0 -23.334 3.83301 -32.001 11.5s-13 17.834 -13 30.501l14 1388c0 12.667 4.5 22.834 13.5 30.501s18.833 11.5 29.5 11.5h107c10.667 0 20.167 -4.33301 28.5 -13
s12.5 -19 12.5 -31z" />
    <glyph glyph-name="m" unicode="m" horiz-adv-x="1782" 
d="M1016 42c0 -10.667 -3.8252 -20.334 -11.4922 -29.001s-17.167 -13 -28.5 -13h-135c-12.667 0 -23.334 3.83301 -32.001 11.5s-13 17.834 -13 30.501l6 669c0 24.667 -4.5 48.5 -13.5 71.5s-21.833 43.167 -38.5 60.5s-36.667 31.333 -60 42s-48.666 16 -75.999 16
c-38 0 -74.667 -7.83301 -110 -23.5s-66.333 -37.5 -93 -65.5s-48 -61.333 -64 -100s-23.667 -80.667 -23 -126l6 -544c0 -10.667 -3.83301 -20.334 -11.5 -29.001s-17.167 -13 -28.5 -13h-135c-12.667 0 -23.334 3.83301 -32.001 11.5s-13 17.834 -13 30.501l10 983
c0 12.667 4.5 23.167 13.5 31.5s19.5 12.5 31.5 12.5h110c11.333 0 21.666 -4.5 30.999 -13.5s14 -19.167 14 -30.5v-58c0 -4.66699 1.5 -8.66699 4.5 -12s6.66699 -5.83301 11 -7.5s8.66602 -2.5 12.999 -2.5s8.16602 1.66699 11.499 5
c37.333 46.667 81.666 81.167 132.999 103.5s114.333 33.5 189 33.5c54.667 0 107.334 -10.5 158.001 -31.5s93 -54.5 127 -100.5c5.33301 -5.33301 11 -8.33301 17 -9s13.667 1.66602 23 6.99902c44 46 91.667 79.833 143 101.5s110.666 32.5 177.999 32.5
c49.333 0 94.333 -8.66699 135 -26s75.334 -40.666 104.001 -69.999s51 -63.5 67 -102.5s24.333 -80.5 25 -124.5l8 -722c0 -10.667 -3.83301 -20.334 -11.5 -29.001s-17.167 -13 -28.5 -13h-135c-12.667 0 -23.334 3.83301 -32.001 11.5s-13 17.834 -13 30.501l7 657
c0.666992 26.667 -3.33301 52.167 -12 76.5s-21.334 45.833 -38.001 64.5s-36.834 33.5 -60.501 44.5s-49.834 16.5 -78.501 16.5c-22 0 -47.833 -5.16699 -77.5 -15.5s-57.834 -26.833 -84.501 -49.5s-49.167 -52 -67.5 -88s-27.166 -79.667 -26.499 -131z" />
    <glyph glyph-name="n" unicode="n" horiz-adv-x="1130" 
d="M1011 42c0 -10.667 -3.83008 -20.335 -11.4971 -29.002s-17.167 -13 -28.5 -13h-135c-12.667 0 -23.334 3.83301 -32.001 11.5s-13 17.834 -13 30.501l7 657c0 28 -3.83301 54.333 -11.5 79s-19.5 46 -35.5 64s-35.833 32.333 -59.5 43s-51.167 16 -82.5 16
c-34.667 0 -69 -8 -103 -24s-64.5 -38.167 -91.5 -66.5s-48.833 -61.666 -65.5 -99.999s-24.667 -79.833 -24 -124.5l6 -544c0 -10.667 -3.83301 -20.334 -11.5 -29.001s-17.167 -13 -28.5 -13h-135c-12.667 0 -23.334 3.83301 -32.001 11.5s-13 17.834 -13 30.501l10 983
c0 12.667 4.5 23.167 13.5 31.5s19.5 12.5 31.5 12.5h109c12 0 22.333 -4.5 31 -13.5s13.334 -19.167 14.001 -30.5l1 -58c0 -4.66699 1.66699 -8.66699 5 -12s7.16602 -5.83301 11.499 -7.5s8.83301 -2.33398 13.5 -2.00098s8.33398 1.83301 11.001 4.5
c38 46.667 81.667 81.167 131 103.5s109 33.5 179 33.5c48.667 0 93.167 -8.66699 133.5 -26s75.166 -40.666 104.499 -69.999s52.166 -63.5 68.499 -102.5s24.833 -80.5 25.5 -124.5z" />
    <glyph glyph-name="o" unicode="o" horiz-adv-x="1206" 
d="M599 -22c-72 0 -140.503 13.668 -205.503 41.001s-122.167 65.333 -171.5 114s-88.666 106.667 -117.999 174s-44 141 -44 221c0 76.667 13.667 149 41 217s65 127.333 113 178s104.833 90.667 170.5 120s137.167 44 214.5 44c76 0 146.833 -14.667 212.5 -44
s122.5 -69.333 170.5 -120s85.667 -110 113 -178s41 -140.333 41 -217c0 -53.333 -6.66699 -104 -20 -152s-32.166 -92.333 -56.499 -133s-53.166 -77.334 -86.499 -110.001s-69.833 -60.5 -109.5 -83.5s-82 -40.667 -127 -53s-90.833 -18.5 -137.5 -18.5zM915.997 528.001
c0 51.333 -8.83301 99.666 -26.5 144.999s-41.167 84.833 -70.5 118.5s-63.166 60.334 -101.499 80.001s-77.833 29.5 -118.5 29.5c-44.667 0 -86.5 -9.33301 -125.5 -28s-72.833 -44.334 -101.5 -77.001s-51.167 -71.167 -67.5 -115.5s-24.5 -92.166 -24.5 -143.499
c0 -56 9.16699 -105.833 27.5 -149.5s42.5 -80.5 72.5 -110.5s64.167 -52.833 102.5 -68.5s77.166 -23.5 116.499 -23.5c36 0 72.5 7.33301 109.5 22s70.667 36.5 101 65.5s55.333 64.833 75 107.5s30.167 92 31.5 148z" />
    <glyph glyph-name="p" unicode="p" horiz-adv-x="1271" 
d="M117 1029c0 9.33301 4.32617 18.332 12.9932 26.999s18.334 13 29.001 13h115c10 0 19.5 -4.33301 28.5 -13s13.5 -17.667 13.5 -27l1 -64c0 -5.33301 1.66699 -9.5 5 -12.5s7.33301 -5 12 -6s9.33398 -1.16699 14.001 -0.5s8.33398 2.66699 11.001 6
c22.667 26.667 46.834 48.834 72.501 66.501s51.834 31.5 78.501 41.5s53.5 17 80.5 21s53.5 6 79.5 6c72 0 139.167 -12.167 201.5 -36.5s116.833 -60.333 163.5 -108s83.334 -106.167 110.001 -175.5s40 -149 40 -239c0 -74.667 -12.667 -145.334 -38 -212.001
s-61.166 -125.167 -107.499 -175.5s-102 -90.166 -167 -119.499s-137.167 -44 -216.5 -44c-26 0 -52.167 2 -78.5 6s-52 10.5 -77 19.5s-49 21 -72 36s-43.833 33.5 -62.5 55.5c-8.66699 10 -17.5 13 -26.5 9s-13.5 -11.667 -13.5 -23l3 -486c0 -10 -4.33301 -19 -13 -27
s-18 -12 -28 -12h-148c-10 0 -19 4 -27 12s-12 17 -12 27zM319.993 526.999c0 -54 9.33301 -102.333 28 -145s43.5 -78.5 74.5 -107.5s66.833 -51.167 107.5 -66.5s83.334 -23 128.001 -23c37.333 0 74.333 8.5 111 25.5s69.5 41 98.5 72s52.5 68.333 70.5 112
s27 92.5 27 146.5c0 46 -6 90.667 -18 134s-30.333 81.833 -55 115.5s-55.834 60.5 -93.501 80.5s-82.5 30 -134.5 30c-57.333 0 -107.333 -10.167 -150 -30.5s-78.5 -47.5 -107.5 -81.5s-50.667 -73.667 -65 -119s-21.5 -93 -21.5 -143z" />
    <glyph glyph-name="q" unicode="q" horiz-adv-x="1261" 
d="M1160 -406c0 -10 -4.00391 -18.999 -12.0039 -26.999s-17 -12 -27 -12h-148c-10 0 -19.333 4 -28 12s-13 17 -13 27l3 486c0 11.333 -4.66699 19.166 -14 23.499s-18 1.16602 -26 -9.50098c-33.333 -38 -73.666 -66.833 -120.999 -86.5s-100.333 -29.5 -159 -29.5
c-79.333 0 -151.5 14.667 -216.5 44s-120.667 69 -167 119s-82.166 108.333 -107.499 175s-38 137.334 -38 212.001c0 90 13.333 169.667 40 239s63.167 127.833 109.5 175.5s100.666 83.667 162.999 108s129.5 36.5 201.5 36.5c26 0 52.667 -2.66699 80 -8
s54.333 -13.5 81 -24.5s52 -25 76 -42s45.667 -37.167 65 -60.5c2.66699 -3.33301 6.33398 -5.5 11.001 -6.5s9.33398 -0.833008 14.001 0.5s8.66699 3.5 12 6.5s5 7.16699 5 12.5l1 64c0 9.33301 4.5 18.333 13.5 27s18.5 13 28.5 13h115
c10.667 0 20.334 -4.33301 29.001 -13s13 -17.667 13 -27zM940.996 527.001c0 50 -7.5 97.667 -22.5 143s-36.667 85 -65 119s-63.333 61.167 -105 81.5s-89.167 30.5 -142.5 30.5c-52 0 -96.833 -10 -134.5 -30s-68.667 -46.833 -93 -80.5s-42.5 -72.167 -54.5 -115.5
s-18 -88 -18 -134c0 -54 9 -102.833 27 -146.5s41.5 -81 70.5 -112s61.833 -55 98.5 -72s73.667 -25.5 111 -25.5c42 0 82.667 7.66699 122 23s74.333 37.5 105 66.5s55.167 64.833 73.5 107.5s27.5 91 27.5 145z" />
    <glyph glyph-name="r" unicode="r" horiz-adv-x="797" 
d="M707 897c0 -11.333 -4.49805 -21.1641 -13.498 -29.4971s-19.5 -12.5 -31.5 -12.5c-45.333 0 -88 -3.5 -128 -10.5s-74.833 -20.333 -104.5 -40s-52.834 -47.334 -69.501 -83.001s-24.667 -82.167 -24 -139.5l6 -540c0 -10.667 -3.83301 -20.334 -11.5 -29.001
s-17.167 -13 -28.5 -13h-135c-12.667 0 -23.334 3.83301 -32.001 11.5s-13 17.834 -13 30.501l10 983c0 12.667 4.5 23.167 13.5 31.5s19.5 12.5 31.5 12.5h109c12 0 22.167 -4.5 30.5 -13.5s13.166 -19.167 14.499 -30.5l1 -57c0 -4.66699 1.5 -8.66699 4.5 -12
s6.83301 -5.83301 11.5 -7.5s9.33398 -2.33398 14.001 -2.00098s8.66699 2.16602 12 5.49902c36 42 79 75 129 99s101.667 36 155 36c13.333 0 24.833 -3.83301 34.5 -11.5s14.5 -18.167 14.5 -31.5v-147z" />
    <glyph glyph-name="s" unicode="s" horiz-adv-x="1101" 
d="M116 778c0 49.333 11.502 92.833 34.502 130.5s53.833 69.5 92.5 95.5s83.167 46 133.5 60s102.5 21.667 156.5 23c46.667 0 92.334 -5 137.001 -15s85.834 -26.333 123.501 -49s70.834 -52.167 99.501 -88.5s50.334 -80.5 65.001 -132.5
c2.66699 -10.667 2.66699 -19.167 0 -25.5s-6.66699 -11.166 -12 -14.499s-11.333 -5.5 -18 -6.5s-12.334 -1.5 -17.001 -1.5h-122c-16.667 0 -28.667 7 -36 21c-8 24.667 -20.167 45.167 -36.5 61.5s-34.833 29.166 -55.5 38.499s-42.834 16 -66.501 20s-47.167 6 -70.5 6
c-12 0 -29 -1.16699 -51 -3.5s-43.833 -7.5 -65.5 -15.5s-40.334 -19.833 -56.001 -35.5s-23.5 -36.834 -23.5 -63.501c0 -24 9.66699 -44.167 29 -60.5s44.666 -30.666 75.999 -42.999s67.166 -23.833 107.499 -34.5s81.333 -22.5 123 -35.5s82.667 -27.667 123 -44
s76.166 -36.666 107.499 -60.999s56.666 -53.5 75.999 -87.5s29 -74.667 29 -122c0 -100 -37.667 -177.833 -113 -233.5s-184.333 -83.5 -327 -83.5c-47.333 0 -95 5.5 -143 16.5s-93.333 28.833 -136 53.5s-81 56.834 -115 96.501s-60.333 88.5 -79 146.5
c-3.33301 9.33301 -4.16602 17.166 -2.49902 23.499s4.33398 11.5 8.00098 15.5s8 7 13 9s9.83301 3 14.5 3h143c6.66699 0 13.5 -2.5 20.5 -7.5s12.833 -12.167 17.5 -21.5c12.667 -24.667 28 -45.167 46 -61.5s37.833 -29.5 59.5 -39.5s44.667 -17 69 -21s48.5 -6 72.5 -6
c30 0 58.833 2.16699 86.5 6.5s52.334 11.166 74.001 20.499s39 21 52 35s19.5 31 19.5 51c0 24 -9.5 44 -28.5 60s-44 30 -75 42s-66.333 23 -106 33s-80.334 21 -122.001 33s-82.334 26 -122.001 42s-75 36 -106 60s-56 53 -75 87s-28.5 75 -28.5 123z" />
    <glyph glyph-name="t" unicode="t" horiz-adv-x="647" 
d="M587 940c0 -12 -4 -22.668 -12 -32.001s-18.333 -14 -31 -14h-113c-5.33301 0 -10 -2 -14 -6s-6 -8.66699 -6 -14l9 -832c0 -10.667 -3.83301 -20.334 -11.5 -29.001s-17.167 -13 -28.5 -13h-135c-12.667 0 -23.334 3.83301 -32.001 11.5s-13 17.834 -13 30.501l8 832
c0 5.33301 -2 10 -6 14s-8.66699 6 -14 6h-94c-13.333 0 -24 4.5 -32 13.5s-12 20.167 -12 33.5l1 84c0 12.667 4.5 23.167 13.5 31.5s19.5 12.5 31.5 12.5h92c6.66699 0 12 2 16 6s6 9 6 15l4 340c0 12.667 4.5 22.834 13.5 30.501s18.833 11.5 29.5 11.5h107
c10.667 0 20.167 -4.33301 28.5 -13s12.5 -19 12.5 -31l4 -338c0 -6 2 -11 6 -15s9 -6 15 -6h111c12.667 0 23.334 -4.33301 32.001 -13s13 -19 13 -31z" />
    <glyph glyph-name="u" unicode="u" horiz-adv-x="1144" 
d="M1010 42c0 -10.667 -3.99512 -20.3369 -11.9951 -29.0039s-17.667 -13 -29 -13h-134c-12.667 0 -23.334 3.83301 -32.001 11.5s-13 17.834 -13 30.501v37c0 7.33301 -1.66699 13.333 -5 18s-7.5 7.66699 -12.5 9s-10.333 1.16602 -16 -0.500977
s-10.5 -4.83398 -14.5 -9.50098c-66.667 -78.667 -152.334 -118 -257.001 -118c-59.333 0 -112 9.16699 -158 27.5s-84.5 44 -115.5 77s-54.167 72.833 -69.5 119.5s-22.333 98.334 -21 155.001l7 670c0 10.667 4.33301 20.334 13 29.001s18.667 13 30 13h112
c11.333 0 21.666 -4.16699 30.999 -12.5s14 -18.833 14 -31.5l7 -658c0.666992 -41.333 7.33398 -74.166 20.001 -98.499s28 -42.666 46 -54.999s36.833 -20.166 56.5 -23.499s37.167 -5 52.5 -5c30 0 61.5 4.66699 94.5 14s63.333 26 91 50s50.667 56.5 69 97.5
s28.166 93.5 29.499 157.5l6 525c0 9.33301 4.66699 18.333 14 27s18.666 13 27.999 13h116c9.33301 0 18.666 -4.33301 27.999 -13s14 -18 14 -28z" />
    <glyph glyph-name="v" unicode="v" horiz-adv-x="1081" 
d="M980 1069c8 0 15.166 -1.83301 21.499 -5.5s11.5 -8.5 15.5 -14.5s6.66699 -12.5 8 -19.5s1 -13.833 -1 -20.5l-360 -981c-6 -18.667 -19.667 -28 -41 -28h-179c-22 -0 -37 9.33301 -45 28l-347 979c-3.33301 15.333 -1 29.5 7 42.5s20.667 19.5 38 19.5h109
c8 0 16.333 -2.83301 25 -8.5s13.667 -11.5 15 -17.5l263 -742c4.66699 -10.667 12.5 -15.167 23.5 -13.5s18.833 6.16699 23.5 13.5l273 742c2.66699 8 7.83398 14.333 15.501 19s16.167 7 25.5 7h110z" />
    <glyph glyph-name="w" unicode="w" horiz-adv-x="1586" 
d="M1485 1069c8.66699 0 16.1592 -1.83301 22.4922 -5.5s11.333 -8.5 15 -14.5s6 -12.5 7 -19.5s0.833008 -13.833 -0.5 -20.5l-281 -986c-2 -7.33301 -7 -13 -15 -17s-15.667 -6 -23 -6h-186c-9.33301 0 -17.666 2 -24.999 6s-12.666 9.66699 -15.999 17l-169 645
c-1.33301 5.33301 -4.33301 9.16602 -9 11.499s-9.5 3.33301 -14.5 3s-9.66699 -1.66602 -14 -3.99902s-7.16602 -5.83301 -8.49902 -10.5l-161 -645c-2.66699 -7.33301 -7.5 -13 -14.5 -17s-14.833 -6 -23.5 -6h-186c-9.33301 0 -17.666 2 -24.999 6
s-12.666 9.66699 -15.999 17l-290 984c-3.33301 15.333 -1.16602 29.5 6.50098 42.5s20.167 19.5 37.5 19.5h111c7.33301 0 15.166 -2.5 23.499 -7.5s13.5 -11.167 15.5 -18.5l202 -741c5.33301 -9.33301 13.5 -14 24.5 -14s18.833 4.66699 23.5 14l198 733
c1.33301 8 6 15.667 14 23s16 11 24 11h116c8.66699 0 16.334 -3.5 23.001 -10.5s11.334 -14.5 14.001 -22.5l204 -734c5.33301 -9.33301 13.5 -14.333 24.5 -15s18.5 4.33301 22.5 15l198 741c2.66699 8 7.83398 14.333 15.501 19s16.167 7 25.5 7h110z" />
    <glyph glyph-name="x" unicode="x" horiz-adv-x="1109" 
d="M1046 72c5.33301 -7.33301 8.00195 -15.3311 8.00195 -23.998s-2 -16.5 -6 -23.5s-9.5 -12.833 -16.5 -17.5s-15.167 -7 -24.5 -7h-158c-15.333 0 -26.333 6 -33 18l-244 309c-5.33301 5.33301 -12.166 7.83301 -20.499 7.5s-14.833 -2.83301 -19.5 -7.5l-244 -311
c-8.66699 -10.667 -19.334 -16 -32.001 -16h-157c-10.667 0 -19.834 2.5 -27.501 7.5s-13.334 11.333 -17.001 19s-5.16699 15.834 -4.5 24.501s4 16.667 10 24l356 434c4 4 5.66699 9.33301 5 16s-2 12 -4 16l-300 454c-6 8 -9 16.5 -9 25.5s2 17 6 24
s9.5 12.833 16.5 17.5s14.833 7 23.5 7h109c13.333 0 25 -6.33301 35 -19l234 -361c5.33301 -6 12 -8.83301 20 -8.5s14.333 3.16602 19 8.49902l236 363c9.33301 11.333 20.666 17 33.999 17h108c10.667 0 19.5 -2.66699 26.5 -8s12 -11.833 15 -19.5s4 -15.834 3 -24.501
s-3.83301 -16.334 -8.5 -23.001l-298 -454c-3.33301 -4 -4.66602 -9.33301 -3.99902 -16s2.66699 -11.667 6 -15z" />
    <glyph glyph-name="y" unicode="y" horiz-adv-x="1081" 
d="M980 1069c8 0 15.166 -1.83203 21.499 -5.49902s11.5 -8.5 15.5 -14.5s6.66699 -12.5 8 -19.5s1 -13.833 -1 -20.5l-500 -1427c-2.66699 -7.33301 -7.5 -13.666 -14.5 -18.999s-15.5 -8 -25.5 -8h-159c-9.33301 0 -17.333 2.16699 -24 6.5
s-11.834 9.66602 -15.501 15.999s-5.66699 13.333 -6 21s0.833984 14.5 3.50098 20.5l138 325c2 5.33301 2.33301 10.666 1 15.999l-370 1047c-3.33301 15.333 -1 29.5 7 42.5s20.667 19.5 38 19.5h109c8 0 16.333 -2.66699 25 -8s13.667 -11.333 15 -18l263 -742
c4.66699 -10.667 12.5 -15.167 23.5 -13.5s18.833 6.16699 23.5 13.5l273 742c2.66699 8 7.83398 14.333 15.501 19s16.167 7 25.5 7h110z" />
    <glyph glyph-name="z" unicode="z" horiz-adv-x="1011" 
d="M956 40c0 -11.333 -4.83496 -20.8359 -14.502 -28.5029s-20.167 -11.5 -31.5 -11.5h-819c-11.333 0 -21 4 -29 12s-12 17.667 -12 29l2 111c0 8.66699 3 16.667 9 24l578 682c2.66699 4 3.83398 8.16699 3.50098 12.5s-1.5 8.33301 -3.5 12
s-4.83301 6.83398 -8.5 9.50098s-7.16699 4 -10.5 4h-508c-11.333 0 -21.666 4.16699 -30.999 12.5s-14 18.833 -14 31.5l1 83c0 12.667 4.66699 23.5 14 32.5s19.666 13.5 30.999 13.5h779c10.667 0 20.5 -4.16699 29.5 -12.5s13.5 -18.833 13.5 -31.5l2 -77
c0 -7.33301 -2.66699 -14.666 -8 -21.999l-549 -706c-4.66699 -7.33301 -4.66699 -15.166 0 -23.499s12 -12.5 22 -12.5h507c12.667 0 23.334 -4.5 32.001 -13.5s13 -19.5 13 -31.5z" />
    <glyph glyph-name="braceleft" unicode="{" horiz-adv-x="723" 
d="M663 -413c0 -9.33301 -4.00684 -17.8291 -12.0068 -25.4961s-17.667 -11.5 -29 -11.5h-102c-44.667 0 -84.667 8.5 -120 25.5s-65.5 39.333 -90.5 67s-44 58.667 -57 93s-19.5 68.5 -19.5 102.5l-2 521c0 18.667 -3.66699 35 -11 49s-16.666 25.833 -27.999 35.5
s-23.666 17.334 -36.999 23.001s-25.666 10.167 -36.999 13.5c-4.66699 2 -8.83398 5.16699 -12.501 9.5s-5.5 9.16602 -5.5 14.499v110c0 14.667 7.33301 23.667 22 27c14 2 27.5 6.66699 40.5 14s24.5 16.5 34.5 27.5s18.167 23.333 24.5 37s9.5 28.5 9.5 44.5v432
c0 37.333 8.16699 72.666 24.5 105.999s37.833 62.666 64.5 87.999s57.334 45.333 92.001 60s70.667 22 108 22h102c9.33301 0 18.5 -3.83301 27.5 -11.5s13.5 -16.167 13.5 -25.5v-109c-1.33301 -10 -5.66602 -18.5 -12.999 -25.5s-16.666 -11.167 -27.999 -12.5h-90
c-11.333 -3.33301 -23.666 -8.16602 -36.999 -14.499s-25.666 -14.333 -36.999 -24s-20.833 -21.334 -28.5 -35.001s-11.5 -28.834 -11.5 -45.501v-459c0 -30 -7 -55.667 -21 -77s-32 -38.666 -54 -51.999c-11.333 -4.66699 -16.166 -11.834 -14.499 -21.501
s6.5 -16.834 14.5 -21.501c22.667 -12 40.834 -29.167 54.501 -51.5s20.5 -47.5 20.5 -75.5v-558c0 -18 3.83301 -33.667 11.5 -47s17.167 -24.833 28.5 -34.5s23.666 -17.667 36.999 -24s25.666 -10.833 36.999 -13.5h93c7.33301 0 15.5 -4 24.5 -12s13.5 -16.667 13.5 -26
v-109z" />
    <glyph glyph-name="bar" unicode="|" horiz-adv-x="464" 
d="M324 -405c0 -12 -4.66797 -22.501 -14.001 -31.501s-20.666 -13.5 -33.999 -13.5h-99c-12.667 0 -23.667 4.33301 -33 13s-14 19.334 -14 32.001v1964c0 12.667 4.5 23.5 13.5 32.5s19.833 13.5 32.5 13.5h101c12.667 0 23.667 -4.5 33 -13.5s14 -19.833 14 -32.5v-1964z
" />
    <glyph glyph-name="braceright" unicode="}" horiz-adv-x="723" 
d="M60.04 -413c0 -9.33301 3.99512 -17.8291 11.9951 -25.4961c7.99902 -7.66699 17.665 -11.5 28.998 -11.5h101.993c44.6641 0 84.6621 8.5 119.993 25.5s65.4961 39.333 90.4941 67c24.999 27.667 43.998 58.667 56.9971 93s19.499 68.5 19.499 102.5l1.99902 521
c0 18.667 3.66699 35 11 49s16.666 25.833 27.999 35.5s23.666 17.334 36.999 23.001c13.332 5.66699 25.6641 10.167 36.9971 13.5c4.66699 2 8.83398 5.16699 12.501 9.5c3.66602 4.33301 5.49902 9.16602 5.49902 14.499v110c0 14.667 -7.33301 23.667 -21.998 27
c-13.999 2 -27.498 6.66699 -40.4971 14s-24.498 16.5 -34.4971 27.5s-18.165 23.333 -24.498 37s-9.5 28.5 -9.5 44.5v432c0 37.333 -8.16602 72.666 -24.498 105.999s-37.8311 62.666 -64.4961 87.999s-57.3301 45.333 -91.9941 60
c-34.665 14.667 -70.6631 22 -107.994 22h-101.993c-9.33301 0 -18.499 -3.83301 -27.498 -11.5c-9 -7.66699 -13.5 -16.167 -13.5 -25.5v-109c1.33301 -10 5.66602 -18.5 12.999 -25.5s16.666 -11.167 27.999 -12.5h89.9941
c11.333 -3.33301 23.666 -8.16602 36.999 -14.499s25.666 -14.333 36.999 -24s20.832 -21.334 28.498 -35.001s11.499 -28.834 11.499 -45.501v-459c0 -30 7 -55.667 20.999 -77s31.998 -38.666 53.9961 -51.999c11.333 -4.66699 16.166 -11.834 14.5 -21.501
c-1.66699 -9.66699 -6.5 -16.834 -14.5 -21.501c-22.665 -12 -40.8301 -29.167 -54.4961 -51.5s-20.499 -47.5 -20.499 -75.5v-558c0 -18 -3.83301 -33.667 -11.499 -47s-17.165 -24.833 -28.498 -34.5s-23.666 -17.667 -36.999 -24s-25.666 -10.833 -36.999 -13.5h-92.9941
c-7.33301 0 -15.499 -4 -24.498 -12c-9 -8 -13.5 -16.667 -13.5 -26v-109z" />
    <glyph glyph-name="exclamdown" unicode="&#xa1;" horiz-adv-x="568" 
d="M377 -370c0 -12 -4.5 -22.167 -13.5 -30.5s-19.167 -12.5 -30.5 -12.5h-102c-13.333 0 -24.166 4 -32.499 12s-12.5 19.333 -12.5 34l-23 980c0 10 4.16699 19.667 12.5 29s18.166 14 29.499 14h154c11.333 0 21 -4.66699 29 -14s12 -19 12 -29zM420 878
c-1.33301 -10.667 -5.99902 -20.167 -13.999 -28.5s-17.667 -12.5 -29 -12.5h-193c-10.667 0 -20.334 4.16699 -29.001 12.5s-13 17.833 -13 28.5l-2 150c0 11.333 4.5 21 13.5 29s18.167 12 27.5 12h199c10.667 0 20.5 -4 29.5 -12s13.5 -17.667 13.5 -29z" />
    <glyph glyph-name="sterling" unicode="&#xa3;" horiz-adv-x="1200" 
d="M1110 41c0 -10.667 -4.33984 -20.1641 -13.0068 -28.4971s-18.334 -12.5 -29.001 -12.5h-943c-7.33301 0.666992 -15 4.66699 -23 12s-12 15.666 -12 24.999l5 226c0 10.667 2.83301 19.667 8.5 27s11.167 12.666 16.5 15.999c32 16 60.5 35.833 85.5 59.5
s45.333 48.667 61 75s25.834 52.833 30.501 79.5s2.66699 50.667 -6 72c-2 10 -8.66699 15 -20 15h-133c-9.33301 0 -17.666 3.66699 -24.999 11s-11 16.333 -11 27v108c0 9.33301 3.83301 17.333 11.5 24s16.167 10 25.5 10h18c4 0 7.5 1.5 10.5 4.5s5.33301 6.5 7 10.5
s2.33398 8.16699 2.00098 12.5s-1.83301 7.83301 -4.5 10.5c-22.667 34 -38.667 72.167 -48 114.5s-12.333 91.833 -9 148.5c4 62 19.333 117 46 165s61.834 88.333 105.501 121s94 57.334 151 74.001s118.167 25 183.5 25c58 0 113.667 -8.16699 167 -24.5s102 -41 146 -74
s81.833 -74.167 113.5 -123.5s54.167 -107.333 67.5 -174c2 -5.33301 1.66699 -10.333 -1 -15s-6.5 -8.66699 -11.5 -12s-10.667 -6 -17 -8s-12.5 -3 -18.5 -3h-132c-13.333 0 -23.166 4.5 -29.499 13.5s-10.166 16.833 -11.499 23.5c-14 71.333 -46.667 126.833 -98 166.5
s-120.666 60.167 -207.999 61.5c-29.333 0 -58.333 -5.33301 -87 -16s-54.667 -26 -78 -46s-42.166 -44.333 -56.499 -73s-21.5 -60.334 -21.5 -95.001c0 -50 8.16699 -97.833 24.5 -143.5s38.833 -90.5 67.5 -134.5c4 -4.66699 9.66699 -7.66699 17 -9h282
c8.66699 0 16.667 -3 24 -9s11 -14.333 11 -25l1 -113c0 -8 -3.33301 -15.333 -10 -22s-14 -10.334 -22 -11.001h-182c-11.333 0 -18 -8.66699 -20 -26c2 -20 1.83301 -43.333 -0.5 -70s-8.5 -54.334 -18.5 -83.001s-24.167 -57.167 -42.5 -85.5
s-42.166 -54.166 -71.499 -77.499c-6 -8 -6.83301 -16.5 -2.5 -25.5s10.833 -14.167 19.5 -15.5h664c9.33301 0 18.666 -3.83301 27.999 -11.5s14 -17.167 14 -28.5z" />
    <glyph glyph-name="yen" unicode="&#xa5;" horiz-adv-x="1215" 
d="M939 597c0 -9.33301 -3.50098 -17.3271 -10.501 -23.9941s-14.833 -10.334 -23.5 -11.001h-183l1 -77h180c8.66699 0 16.834 -3.5 24.501 -10.5s11.5 -14.833 11.5 -23.5v-86c-0.666992 -9.33301 -4.33398 -17.333 -11.001 -24s-14.334 -10.334 -23.001 -11.001h-178
l8 -289c0 -12.667 -4.33301 -22.667 -13 -30s-18 -11 -28 -11h-174c-10 0 -19.333 3.66699 -28 11s-13 17.333 -13 30l8 289h-179c-9.33301 0 -17.666 3.5 -24.999 10.5s-11 15.167 -11 24.5v84c0 9.33301 3.66699 17.666 11 24.999s15.666 11 24.999 11h183l1 77h-184
c-9.33301 0 -17.666 3.5 -24.999 10.5s-11 15.167 -11 24.5v84c0 9.33301 3.66699 17.666 11 24.999s15.666 11 24.999 11h188c0 6 -1.66699 11.667 -5 17l-427 666c-5.33301 6.66699 -8 14.334 -8 23.001s1.83301 16.667 5.5 24s8.66699 13.5 15 18.5
s13.166 7.16699 20.499 6.5h123c12 0 22.667 -5.66699 32 -17l323 -491c8.66699 -10.667 18.834 -15.834 30.501 -15.501s20.5 5.16602 26.5 14.499l326 490c3.33301 5.33301 7.83301 9.5 13.5 12.5s11.5 5.16699 17.5 6.5h123c9.33301 0 17.333 -2.66699 24 -8
s11.5 -11.833 14.5 -19.5s4.16699 -16 3.5 -25s-3.66699 -17.167 -9 -24.5l-421 -661c-1.33301 -3.33301 -2.66602 -6.33301 -3.99902 -9s-2 -5.33398 -2 -8.00098h185c8.66699 0 16.834 -3.5 24.501 -10.5s11.5 -14.833 11.5 -23.5v-86z" />
    <glyph glyph-name="dieresis" unicode="&#xa8;" horiz-adv-x="604" 
d="M94 1231c-12.667 0 -23.166 4.50098 -31.499 13.501s-12.5 19.833 -12.5 32.5l2 151c0 12.667 4.5 23.167 13.5 31.5s19.5 12.5 31.5 12.5h92c12 0 22.667 -4.33301 32 -13s14 -19.334 14 -32.001l3 -150c0 -12.667 -4.33301 -23.5 -13 -32.5
s-19.334 -13.5 -32.001 -13.5h-99zM405.001 1231c-12.667 0 -23.166 4.50098 -31.499 13.501s-12.5 19.833 -12.5 32.5l2 151c0 12.667 4.5 23.167 13.5 31.5s19.5 12.5 31.5 12.5h92c12 0 22.667 -4.33301 32 -13s14 -19.334 14 -32.001l3 -150
c0 -12.667 -4.33301 -23.5 -13 -32.5s-19.334 -13.5 -32.001 -13.5h-99z" />
    <glyph glyph-name="copyright" unicode="&#xa9;" horiz-adv-x="1641" 
d="M815 1492c69.333 0 136.166 -9.16699 200.499 -27.5s124.5 -44 180.5 -77s107 -72.667 153 -119s85.5 -97.666 118.5 -153.999s58.5 -116.833 76.5 -181.5s27 -131.667 27 -201c0 -70 -9 -137 -27 -201s-43.5 -124 -76.5 -180s-72.5 -106.833 -118.5 -152.5
s-97 -84.834 -153 -117.501s-116.167 -57.834 -180.5 -75.501s-131.166 -26.5 -200.499 -26.5c-70 0 -137.167 8.83301 -201.5 26.5s-124.333 42.834 -180 75.501s-106.5 71.834 -152.5 117.501s-85.333 96.5 -118 152.5s-58 116 -76 180s-27 131 -27 201
c0 69.333 9 136.333 27 201s43.333 125.167 76 181.5s72 107.666 118 153.999s96.833 86 152.5 119s115.667 58.667 180 77s131.5 27.5 201.5 27.5zM815 146c80.667 0 156.669 15.333 228.002 46s133.5 72.5 186.5 125.5s94.833 115.167 125.5 186.5s46 147.333 46 228
c0 54 -7 106 -21 156s-33.667 96.833 -59 140.5s-55.833 83.5 -91.5 119.5s-75.334 66.833 -119.001 92.5s-90.334 45.667 -140.001 60s-101.5 21.5 -155.5 21.5c-80.667 0 -156.5 -15.667 -227.5 -47s-133 -73.666 -186 -126.999s-94.833 -115.833 -125.5 -187.5
s-46 -147.834 -46 -228.501s15.333 -156.667 46 -228s72.5 -133.5 125.5 -186.5s115 -94.833 186 -125.5s146.833 -46 227.5 -46zM1244 582c-16 -48.667 -37.667 -92 -65 -130s-59.166 -70 -95.499 -96s-76.333 -45.833 -120 -59.5s-89.167 -20.5 -136.5 -20.5
c-67.333 0 -127.666 11.833 -180.999 35.5s-98.5 56.167 -135.5 97.5s-65.5 89.5 -85.5 144.5s-30 114.167 -30 177.5s10 122.666 30 177.999s48.833 103.5 86.5 144.5s83.167 73.333 136.5 97s113 35.5 179 35.5c41.333 0 81.333 -5.83301 120 -17.5
s74.834 -28.5 108.501 -50.5s64.334 -48.667 92.001 -80s51.167 -66.666 70.5 -105.999c2.66699 -5.33301 3.5 -10.833 2.5 -16.5s-3.16699 -10.667 -6.5 -15s-7.33301 -8 -12 -11s-9.33398 -4.5 -14.001 -4.5h-118c-12.667 0 -21 5 -25 15
c-22.667 44 -53.834 78.167 -93.501 102.5s-81.167 36.5 -124.5 36.5c-40.667 0 -77.334 -8 -110.001 -24s-60.5 -37.833 -83.5 -65.5s-40.667 -59.667 -53 -96s-18.5 -74.833 -18.5 -115.5c0 -47.333 6.5 -89.333 19.5 -126s31.333 -67.5 55 -92.5s51.667 -44 84 -57
s67.833 -19.5 106.5 -19.5c56 0 104.667 14.833 146 44.5s74.333 70.167 99 121.5c5.33301 12 14.666 18 27.999 18h113c6 0 11.167 -1.5 15.5 -4.5s8 -6.83301 11 -11.5s5 -9.5 6 -14.5s0.5 -9.83301 -1.5 -14.5z" />
    <glyph glyph-name="guillemotleft" unicode="&#xab;" horiz-adv-x="1038" 
d="M319 588c-7.33301 -6 -11.333 -13.8311 -12 -23.498s3.33301 -17.167 12 -22.5l175 -113c6.66699 -2.66699 12 -7.16699 16 -13.5s6 -13.166 6 -20.499v-84c0 -7.33301 -2.16699 -14 -6.5 -20s-9.5 -10.667 -15.5 -14s-12.667 -5.16602 -20 -5.49902s-14 1.16699 -20 4.5
l-319 205c-6 3.33301 -11.667 7.66602 -17 12.999s-8 14.333 -8 27v96c0 9.33301 2.66699 17.166 8 23.499s11 11.166 17 14.499l319 176c6.66699 4.66699 13.667 6.5 21 5.5s14 -3.66699 20 -8s11 -9.83301 15 -16.5s6 -13.334 6 -20.001v-73c0 -7.33301 -2 -14 -6 -20
s-9.33301 -10.667 -16 -14zM726 588.002c-7.33301 -6 -11.333 -13.8311 -12 -23.498s3.33301 -17.167 12 -22.5l175 -113c6.66699 -2.66699 12 -7.16699 16 -13.5s6 -13.166 6 -20.499v-84c0 -7.33301 -2.16699 -14 -6.5 -20s-9.5 -10.667 -15.5 -14
s-12.667 -5.16602 -20 -5.49902s-14 1.16699 -20 4.5l-319 205c-6 3.33301 -11.667 7.66602 -17 12.999s-8 14.333 -8 27v96c0 9.33301 2.66699 17.166 8 23.499s11 11.166 17 14.499l319 176c6.66699 4.66699 13.667 6.5 21 5.5s14 -3.66699 20 -8s11 -9.83301 15 -16.5
s6 -13.334 6 -20.001v-73c0 -7.33301 -2 -14 -6 -20s-9.33301 -10.667 -16 -14z" />
    <glyph glyph-name="registered" unicode="&#xae;" horiz-adv-x="825" 
d="M408 1472c44 0 85.167 -8.16699 123.5 -24.5s71.833 -38.833 100.5 -67.5s51.334 -62.5 68.001 -101.5s25 -80.833 25 -125.5c0 -44 -8.33301 -85 -25 -123s-39.334 -71.333 -68.001 -100s-62.167 -51.167 -100.5 -67.5s-79.5 -24.5 -123.5 -24.5
s-85.167 8.16699 -123.5 24.5s-72 38.833 -101 67.5s-51.833 62 -68.5 100s-25 79 -25 123c0 44.667 8.33301 86.5 25 125.5s39.5 72.833 68.5 101.5s62.667 51.167 101 67.5s79.5 24.5 123.5 24.5zM408 939c29.333 0 57.166 5.66699 83.499 17s49.333 26.666 69 45.999
s35.167 42 46.5 68s17 53.667 17 83c0 30 -5.66699 58.333 -17 85s-26.833 49.667 -46.5 69s-42.667 34.666 -69 45.999s-54.166 17 -83.499 17s-57 -5.66699 -83 -17s-48.833 -26.666 -68.5 -45.999s-35.167 -42.333 -46.5 -69s-17 -55 -17 -85
c0 -29.333 5.66699 -57 17 -83s26.833 -48.667 46.5 -68s42.5 -34.666 68.5 -45.999s53.667 -17 83 -17zM541 1031c2.66699 -2.66699 2.66992 -5.49902 0.00292969 -8.49902s-5.33398 -4.5 -8.00098 -4.5h-46c-2.66699 0 -4.33398 0.333008 -5.00098 1l-86 104
c-0.666992 0 -1.33398 0.333008 -2.00098 1s-2.66699 1 -6 1h-31c-3.33301 0 -5 -2.33301 -5 -7l3 -92c0 -3.33301 -1.16699 -5.5 -3.5 -6.5s-4.16602 -1.5 -5.49902 -1.5h-43c-1.33301 0 -3 0.5 -5 1.5s-3 3.16699 -3 6.5l5 270c0 1.33301 1 3 3 5s4.66699 3 8 3h127
c11.333 0 22.333 -2.66699 33 -8s20 -12.333 28 -21s14.5 -18.334 19.5 -29.001s7.5 -21.334 7.5 -32.001c0 -17.333 -6.33301 -33.666 -19 -48.999s-27.334 -25.666 -44.001 -30.999c-2.66699 -2.66699 -2.66699 -5.33398 0 -8.00098zM421.003 1174
c12.667 0 23.998 3.33301 33.998 10s15 16.667 15 30s-4.66699 24.333 -14 33s-21 13 -35 13h-67c-1.33301 0 -2.66602 -0.5 -3.99902 -1.5s-2 -2.5 -2 -4.5l1 -74c0 -2 0.833008 -3.5 2.5 -4.5s2.83398 -1.5 3.50098 -1.5h66z" />
    <glyph glyph-name="degree" unicode="&#xb0;" horiz-adv-x="825" 
d="M408 1472c44 0 85.167 -8.16699 123.5 -24.5s71.833 -38.833 100.5 -67.5s51.334 -62.5 68.001 -101.5s25 -80.833 25 -125.5c0 -44 -8.33301 -85 -25 -123s-39.334 -71.333 -68.001 -100s-62.167 -51.167 -100.5 -67.5s-79.5 -24.5 -123.5 -24.5
s-85.167 8.16699 -123.5 24.5s-72 38.833 -101 67.5s-51.833 62 -68.5 100s-25 79 -25 123c0 44.667 8.33301 86.5 25 125.5s39.5 72.833 68.5 101.5s62.667 51.167 101 67.5s79.5 24.5 123.5 24.5zM408 985c23.333 0 45.166 4.5 65.499 13.5s38.166 21 53.499 36
s27.5 32.667 36.5 53s13.5 42.166 13.5 65.499c0 24 -4.5 46.333 -13.5 67s-21.167 38.667 -36.5 54s-33.166 27.333 -53.499 36s-42.166 13 -65.499 13s-45.166 -4.33301 -65.499 -13s-38 -20.667 -53 -36s-27 -33.333 -36 -54s-13.5 -43 -13.5 -67
c0 -23.333 4.5 -45.166 13.5 -65.499s21 -38 36 -53s32.667 -27 53 -36s42.166 -13.5 65.499 -13.5z" />
    <glyph glyph-name="acute" unicode="&#xb4;" horiz-adv-x="420" 
d="M125 1161c-8 -10 -17.5 -15.332 -28.5 -15.999s-20.5 1.66602 -28.5 6.99902s-13.667 13.333 -17 24s-1.33301 22.667 6 36l135 240c6 10 17.667 16.667 35 20h97c10 0 18.333 -2.66699 25 -8s11.167 -11.833 13.5 -19.5s2.83301 -15.5 1.5 -23.5s-5 -15 -11 -21z" />
    <glyph glyph-name="paragraph" unicode="&#xb6;" horiz-adv-x="1198" 
d="M608 -440v869c-66 0 -129.5 12.167 -190.5 36.5s-115 57.5 -162 99.5s-84.667 90.833 -113 146.5s-42.5 115.167 -42.5 178.5c0 44 3.83301 89 11.5 135s21 90.5 40 133.5s44.333 83.5 76 121.5s71.5 71.333 119.5 100s104.833 51.167 170.5 67.5
s142.167 24.5 229.5 24.5h341v-1912h-151v1740h-184v-1740h-145z" />
    <glyph glyph-name="cedilla" unicode="&#xb8;" horiz-adv-x="563" 
d="M370 -24c-6.66699 -0.666992 -12.834 -2.16895 -18.501 -4.50195s-8.5 -6.83301 -8.5 -13.5l1 -33c0 -7.33301 4.66699 -13.666 14 -18.999l30 -26c11.333 -10 21.666 -21.833 30.999 -35.5s17.333 -29.167 24 -46.5s10 -37 10 -59
c0 -30.667 -4.83301 -57.834 -14.5 -81.501s-22.667 -43.667 -39 -60s-35.333 -28.666 -57 -36.999s-44.5 -12.5 -68.5 -12.5c-19.333 0 -38.666 3.16699 -57.999 9.5s-37 15.833 -53 28.5s-29.667 28.334 -41 47.001s-19 40.667 -23 66
c1.33301 5.33301 3.83301 10.833 7.5 16.5s9.16699 8.5 16.5 8.5h73c5.33301 0 10 -1.66699 14 -5s6.66699 -7.33301 8 -12c3.33301 -11.333 9.83301 -21.333 19.5 -30s21.834 -13 36.501 -13c20 0 34.5 7.16699 43.5 21.5s13.5 32.166 13.5 53.499
s-5.66699 39.833 -17 55.5s-27 22.834 -47 21.501c-11.333 -0.666992 -20.333 -2.66699 -27 -6s-13.334 -5 -20.001 -5c-5.33301 0 -10.666 2.33301 -15.999 7s-8 9.66699 -8 15l4 141c0 6 -3.33301 10.5 -10 13.5s-12.667 5.16699 -18 6.5l15 30h169z" />
    <glyph glyph-name="guillemotright" unicode="&#xbb;" horiz-adv-x="1038" 
d="M714.02 588c7.33301 -6 11.332 -13.8311 11.999 -23.498s-3.33301 -17.167 -11.999 -22.5l-174.989 -113c-6.66602 -2.66699 -11.999 -7.16699 -15.999 -13.5s-6 -13.166 -6 -20.499v-84c0 -7.33301 2.16699 -14 6.5 -20s9.49902 -10.667 15.499 -14
c5.99902 -3.33301 12.665 -5.16602 19.998 -5.49902s13.999 1.16699 19.998 4.5l318.98 205c6 3.33301 11.666 7.66602 16.999 12.999s8 14.333 8 27v96c0 9.33301 -2.66699 17.166 -8 23.499s-10.999 11.166 -16.999 14.499l-318.98 176
c-6.66602 4.66699 -13.665 6.5 -20.998 5.5s-13.999 -3.66699 -19.998 -8s-10.999 -9.83301 -14.999 -16.5s-6 -13.334 -6 -20.001v-73c0 -7.33301 2 -14 6 -20s9.33301 -10.667 15.999 -14zM307.043 588.002c7.33301 -6 11.335 -13.8311 12.002 -23.498
s-3.33301 -17.167 -12 -22.5l-174.989 -113c-6.66602 -2.66699 -11.999 -7.16699 -15.999 -13.5c-3.99902 -6.33301 -5.99902 -13.166 -5.99902 -20.499v-84c0 -7.33301 2.16602 -14 6.49902 -20s9.49902 -10.667 15.498 -14c6 -3.33301 12.666 -5.16602 19.999 -5.49902
s13.999 1.16699 19.999 4.5l318.98 205c5.99902 3.33301 11.665 7.66602 16.998 12.999s7.99902 14.333 7.99902 27v96c0 9.33301 -2.66602 17.166 -7.99902 23.499s-10.999 11.166 -16.998 14.499l-318.98 176c-6.66699 4.66699 -13.667 6.5 -21 5.5
s-13.999 -3.66699 -19.999 -8c-5.99902 -4.33301 -10.999 -9.83301 -14.999 -16.5c-3.99902 -6.66699 -5.99902 -13.334 -5.99902 -20.001v-73c0 -7.33301 2 -14 5.99902 -20c4 -6 9.33301 -10.667 15.999 -14z" />
    <glyph glyph-name="questiondown" unicode="&#xbf;" horiz-adv-x="1188" 
d="M285 22c0 -47.333 9.16406 -86.9961 27.4971 -118.996s42 -57.5 71 -76.5s61.333 -32.5 97 -40.5s70.834 -12 105.501 -12c28.667 0 58.334 4.16699 89.001 12.5s59.167 21 85.5 38s49.333 38.167 69 63.5s32.834 55 39.501 89c2 10 6.33301 19.667 13 29s15 14 25 14
h148c4.66699 0 10 -0.666992 16 -2s11.167 -3.83301 15.5 -7.5s7.66602 -8.66699 9.99902 -15s2.5 -14.833 0.5 -25.5c-14 -66.667 -38.333 -124.667 -73 -174s-76 -90.166 -124 -122.499s-101.167 -56.333 -159.5 -72s-118.166 -23.5 -179.499 -23.5
c-64 0 -125.167 10 -183.5 30s-109.5 49 -153.5 87s-79 85 -105 141s-39 120 -39 192c0 60 12 114 36 162s55 91.5 93 130.5s80.333 74.333 127 106s92.667 61.167 138 88.5c3.33301 1.33301 5.83301 3.66602 7.5 6.99902s2.5 6.66602 2.5 9.99902l-2 77
c0 10.667 4.33301 20.167 13 28.5s18 12.833 28 13.5h151c12 0 22.5 -4.33301 31.5 -13s13.5 -18.334 13.5 -29.001l-3 -159c0 -14 -6 -24.333 -18 -31c-55.333 -32.667 -108 -65.334 -158 -98.001s-93.833 -65.334 -131.5 -98.001s-67.667 -65.667 -90 -99
s-33.5 -67.333 -33.5 -102zM741.997 878.004c-1.33301 -10.667 -5.99902 -20.167 -13.999 -28.5s-17.667 -12.5 -29 -12.5h-193c-10.667 0 -20.334 4.16699 -29.001 12.5s-13 17.833 -13 28.5l-2 150c0 11.333 4.5 21 13.5 29s18.167 12 27.5 12h199
c10.667 0 20.5 -4 29.5 -12s13.5 -17.667 13.5 -29z" />
    <glyph glyph-name="Agrave" unicode="&#xc0;" 
d="M1380 52c2.66699 -7.33301 2.99805 -14.166 0.998047 -20.499s-5.33301 -11.666 -10 -15.999s-10 -7.83301 -16 -10.5s-11.667 -4.33398 -17 -5.00098h-162c-8 0 -16 2.66699 -24 8s-12.667 11.666 -14 18.999l-122 362c-6.66699 18.667 -19 28 -37 28h-513
c-16.667 0 -28.667 -8.66699 -36 -26l-129 -368c-5.33301 -14 -16.666 -21.667 -33.999 -23h-160c-16.667 0 -29.667 5 -39 15s-10 24.667 -2 44l520 1388c6 16.667 18 25 36 25h195c18.667 0 32.334 -9.66699 41.001 -29zM912.998 669l-158.002 460.999
c-3.33301 9.33301 -8.16602 16.333 -14.499 21s-13 7.16699 -20 7.5s-13.667 -1.83398 -20 -6.50098s-11.166 -12 -14.499 -22l-156 -461c-4 -11.333 -2.16699 -20.166 5.5 -26.499s17.167 -9.5 28.5 -9.5h315c10.667 0 20 3.33301 28 10s10 15.334 6 26.001zM513.996 1806
c-6 6 -9.33203 13.168 -9.99902 21.501s0.666016 16.333 3.99902 24s8.16602 14 14.499 19s13.5 7.5 21.5 7.5h96c16.667 -2.66699 28 -9.33398 34 -20.001l135 -240c7.33301 -12.667 9.33301 -24.167 6 -34.5s-9.16602 -18.333 -17.499 -24s-18 -8.16699 -29 -7.5
s-20.167 5.66699 -27.5 15z" />
    <glyph glyph-name="Aacute" unicode="&#xc1;" 
d="M1380 52c2.66699 -7.33301 2.99805 -14.166 0.998047 -20.499s-5.33301 -11.666 -10 -15.999s-10 -7.83301 -16 -10.5s-11.667 -4.33398 -17 -5.00098h-162c-8 0 -16 2.66699 -24 8s-12.667 11.666 -14 18.999l-122 362c-6.66699 18.667 -19 28 -37 28h-513
c-16.667 0 -28.667 -8.66699 -36 -26l-129 -368c-5.33301 -14 -16.666 -21.667 -33.999 -23h-160c-16.667 0 -29.667 5 -39 15s-10 24.667 -2 44l520 1388c6 16.667 18 25 36 25h195c18.667 0 32.334 -9.66699 41.001 -29zM912.998 669l-158.002 460.999
c-3.33301 9.33301 -8.16602 16.333 -14.499 21s-13 7.16699 -20 7.5s-13.667 -1.83398 -20 -6.50098s-11.166 -12 -14.499 -22l-156 -461c-4 -11.333 -2.16699 -20.166 5.5 -26.499s17.167 -9.5 28.5 -9.5h315c10.667 0 20 3.33301 28 10s10 15.334 6 26.001zM702.996 1568
c-8 -10 -17.5 -15.332 -28.5 -15.999s-20.5 1.66602 -28.5 6.99902s-13.667 13.333 -17 24s-1.33301 22.667 6 36l135 240c6 10 17.667 16.667 35 20h97c10 0 18.333 -2.66699 25 -8s11.167 -11.833 13.5 -19.5s2.83301 -15.5 1.5 -23.5s-5 -15 -11 -21z" />
    <glyph glyph-name="Acircumflex" unicode="&#xc2;" 
d="M1380 52c2.66699 -7.33301 2.99805 -14.166 0.998047 -20.499s-5.33301 -11.666 -10 -15.999s-10 -7.83301 -16 -10.5s-11.667 -4.33398 -17 -5.00098h-162c-8 0 -16 2.66699 -24 8s-12.667 11.666 -14 18.999l-122 362c-6.66699 18.667 -19 28 -37 28h-513
c-16.667 0 -28.667 -8.66699 -36 -26l-129 -368c-5.33301 -14 -16.666 -21.667 -33.999 -23h-160c-16.667 0 -29.667 5 -39 15s-10 24.667 -2 44l520 1388c6 16.667 18 25 36 25h195c18.667 0 32.334 -9.66699 41.001 -29zM912.998 669l-158.002 460.999
c-3.33301 9.33301 -8.16602 16.333 -14.499 21s-13 7.16699 -20 7.5s-13.667 -1.83398 -20 -6.50098s-11.166 -12 -14.499 -22l-156 -461c-4 -11.333 -2.16699 -20.166 5.5 -26.499s17.167 -9.5 28.5 -9.5h315c10.667 0 20 3.33301 28 10s10 15.334 6 26.001zM1030 1615
c6 -6 9.33203 -12.667 9.99902 -20s-0.833008 -14.333 -4.5 -21s-9 -12.167 -16 -16.5s-14.5 -6.5 -22.5 -6.5h-100c-12.667 0 -22.334 5.33301 -29.001 16l-130 234c-3.33301 6.66699 -8.16602 10 -14.499 10s-11.166 -3.33301 -14.499 -10l-130 -234
c-6.66699 -10.667 -17.334 -16 -32.001 -16h-100c-9.33301 0 -17.166 2.33301 -23.499 7s-11 10.334 -14 17.001s-4.16699 13.667 -3.5 21s3.66699 13.666 9 18.999l235 247c4.66699 4.66699 9.16699 8.5 13.5 11.5s10.166 4.5 17.499 4.5h87
c6.66699 0 11.834 -1.66699 15.501 -5s7.16699 -7 10.5 -11z" />
    <glyph glyph-name="Atilde" unicode="&#xc3;" 
d="M1380 52c2.66699 -7.33301 2.99805 -14.166 0.998047 -20.499s-5.33301 -11.666 -10 -15.999s-10 -7.83301 -16 -10.5s-11.667 -4.33398 -17 -5.00098h-162c-8 0 -16 2.66699 -24 8s-12.667 11.666 -14 18.999l-122 362c-6.66699 18.667 -19 28 -37 28h-513
c-16.667 0 -28.667 -8.66699 -36 -26l-129 -368c-5.33301 -14 -16.666 -21.667 -33.999 -23h-160c-16.667 0 -29.667 5 -39 15s-10 24.667 -2 44l520 1388c6 16.667 18 25 36 25h195c18.667 0 32.334 -9.66699 41.001 -29zM912.998 669l-158.002 460.999
c-3.33301 9.33301 -8.16602 16.333 -14.499 21s-13 7.16699 -20 7.5s-13.667 -1.83398 -20 -6.50098s-11.166 -12 -14.499 -22l-156 -461c-4 -11.333 -2.16699 -20.166 5.5 -26.499s17.167 -9.5 28.5 -9.5h315c10.667 0 20 3.33301 28 10s10 15.334 6 26.001zM1026 1748
c1.33301 -24.667 -2.66504 -48.333 -11.998 -71s-22.166 -42.667 -38.499 -60s-35.166 -31.166 -56.499 -41.499s-43.333 -15.5 -66 -15.5c-30.667 0 -55.834 4.83301 -75.501 14.5s-37.834 20.167 -54.501 31.5s-33.834 21.833 -51.501 31.5s-39.5 14.5 -65.5 14.5
c-15.333 0 -30 -2.33301 -44 -7s-27.167 -10.834 -39.5 -18.501s-23.666 -16 -33.999 -25s-18.833 -17.833 -25.5 -26.5c-3.33301 -2.66699 -7.33301 -4.16699 -12 -4.5s-9.16699 0 -13.5 1s-8 3 -11 6s-4.5 6.5 -4.5 10.5c-0.666992 28.667 3.5 55 12.5 79
s21.667 44.833 38 62.5s35.833 31.334 58.5 41.001s47 14.5 73 14.5c18.667 0 34.5 -2.16699 47.5 -6.5s24.667 -9.83301 35 -16.5s20.333 -13.667 30 -21s20.667 -14.333 33 -21s26.666 -12.167 42.999 -16.5s36.166 -6.5 59.499 -6.5c24.667 0 48 5.66699 70 17
s43 25.666 63 42.999c6 7.33301 14.167 10 24.5 8s15.833 -7.66699 16.5 -17z" />
    <glyph glyph-name="Adieresis" unicode="&#xc4;" 
d="M1380 52c2.66699 -7.33301 2.99805 -14.166 0.998047 -20.499s-5.33301 -11.666 -10 -15.999s-10 -7.83301 -16 -10.5s-11.667 -4.33398 -17 -5.00098h-162c-8 0 -16 2.66699 -24 8s-12.667 11.666 -14 18.999l-122 362c-6.66699 18.667 -19 28 -37 28h-513
c-16.667 0 -28.667 -8.66699 -36 -26l-129 -368c-5.33301 -14 -16.666 -21.667 -33.999 -23h-160c-16.667 0 -29.667 5 -39 15s-10 24.667 -2 44l520 1388c6 16.667 18 25 36 25h195c18.667 0 32.334 -9.66699 41.001 -29zM912.998 669l-158.002 460.999
c-3.33301 9.33301 -8.16602 16.333 -14.499 21s-13 7.16699 -20 7.5s-13.667 -1.83398 -20 -6.50098s-11.166 -12 -14.499 -22l-156 -461c-4 -11.333 -2.16699 -20.166 5.5 -26.499s17.167 -9.5 28.5 -9.5h315c10.667 0 20 3.33301 28 10s10 15.334 6 26.001zM518.996 1565
c-12.667 0 -23.166 4.50098 -31.499 13.501s-12.5 19.833 -12.5 32.5l2 151c0 12.667 4.5 23.167 13.5 31.5s19.5 12.5 31.5 12.5h92c12 0 22.667 -4.33301 32 -13s14 -19.334 14 -32.001l3 -150c0 -12.667 -4.33301 -23.5 -13 -32.5s-19.334 -13.5 -32.001 -13.5h-99z
M829.997 1565c-12.667 0 -23.166 4.50098 -31.499 13.501s-12.5 19.833 -12.5 32.5l2 151c0 12.667 4.5 23.167 13.5 31.5s19.5 12.5 31.5 12.5h92c12 0 22.667 -4.33301 32 -13s14 -19.334 14 -32.001l3 -150c0 -12.667 -4.33301 -23.5 -13 -32.5
s-19.334 -13.5 -32.001 -13.5h-99z" />
    <glyph glyph-name="Aring" unicode="&#xc5;" 
d="M1380 52c2.66699 -7.33301 2.99805 -14.166 0.998047 -20.499s-5.33301 -11.666 -10 -15.999s-10 -7.83301 -16 -10.5s-11.667 -4.33398 -17 -5.00098h-162c-8 0 -16 2.66699 -24 8s-12.667 11.666 -14 18.999l-122 362c-6.66699 18.667 -19 28 -37 28h-513
c-16.667 0 -28.667 -8.66699 -36 -26l-129 -368c-5.33301 -14 -16.666 -21.667 -33.999 -23h-160c-16.667 0 -29.667 5 -39 15s-10 24.667 -2 44l520 1388c6 16.667 18 25 36 25h195c18.667 0 32.334 -9.66699 41.001 -29zM912.998 669l-158.002 460.999
c-3.33301 9.33301 -8.16602 16.333 -14.499 21s-13 7.16699 -20 7.5s-13.667 -1.83398 -20 -6.50098s-11.166 -12 -14.499 -22l-156 -461c-4 -11.333 -2.16699 -20.166 5.5 -26.499s17.167 -9.5 28.5 -9.5h315c10.667 0 20 3.33301 28 10s10 15.334 6 26.001zM721.996 1975
c29.333 0 56.666 -5.5 81.999 -16.5s47.166 -25.833 65.499 -44.5s32.833 -40.5 43.5 -65.5s16 -51.833 16 -80.5s-5.33301 -55.334 -16 -80.001s-25.167 -46.167 -43.5 -64.5s-40.166 -32.833 -65.499 -43.5s-52.666 -16 -81.999 -16c-28 0 -54.5 5.33301 -79.5 16
s-46.667 25.167 -65 43.5s-33 39.833 -44 64.5s-16.5 51.334 -16.5 80.001s5.5 55.5 16.5 80.5s25.667 46.833 44 65.5s40 33.5 65 44.5s51.5 16.5 79.5 16.5zM721.996 1669c32.667 0 58 8.66699 76 26s27 41.666 27 72.999c0 32.667 -9 57.5 -27 74.5
s-43.333 25.5 -76 25.5c-30.667 0 -54.834 -8.5 -72.501 -25.5s-26.5 -41.833 -26.5 -74.5c0 -31.333 8.83301 -55.666 26.5 -72.999s41.834 -26 72.501 -26z" />
    <glyph glyph-name="AE" unicode="&#xc6;" horiz-adv-x="1712" 
d="M1647 42c0 -10 -3.99707 -19.5 -11.9971 -28.5s-17.667 -13.5 -29 -13.5h-708c-10.667 0 -18.834 2.66699 -24.501 8s-9.16699 11.666 -10.5 18.999l-73 364c-1.33301 10 -5.5 16.833 -12.5 20.5s-15.833 5.5 -26.5 5.5h-281c-8.66699 0 -16.834 -2.5 -24.501 -7.5
s-13.167 -12.167 -16.5 -21.5l-126 -362c-1.33301 -8 -6.16602 -14.333 -14.499 -19s-15.833 -7 -22.5 -7h-160c-16.667 0 -29.334 5.83301 -38.001 17.5s-9.33398 27.167 -2.00098 46.5l503 1383c6 16.667 18 25 36 25h958c10.667 0 19.334 -3.83301 26.001 -11.5
s10 -16.167 10 -25.5l5 -129c0.666992 -16 -2.5 -26.667 -9.5 -32s-16.833 -8 -29.5 -8h-653c-16.667 0 -27.334 -3.66699 -32.001 -11s-6.33398 -15.666 -5.00098 -24.999l64 -324c0.666992 -7.33301 3.33398 -13.666 8.00098 -18.999s15.334 -8 32.001 -8h519
c9.33301 0 17.833 -3.83301 25.5 -11.5s11.5 -16.167 11.5 -25.5l1 -131c0 -9.33301 -3.5 -17.833 -10.5 -25.5s-15.167 -11.5 -24.5 -11.5h-471c-4.66699 0 -9.5 -0.666992 -14.5 -2s-9.5 -3.33301 -13.5 -6s-7 -6.33398 -9 -11.001s-2.33301 -10 -1 -16l72 -379
c1.33301 -13.333 5.16602 -22.5 11.499 -27.5s14.5 -7.5 24.5 -7.5h501c11.333 0 22 -3 32 -9s14.667 -16 14 -30v-144zM731.003 626c7.33301 0 12.501 1.16699 15.501 3.5s5 5.5 6 9.5s1.16699 8.33301 0.5 13l-2 14l-43 425c-1.33301 8.66699 -4.83301 15.5 -10.5 20.5
s-12 7.66699 -19 8s-13.833 -1.66699 -20.5 -6s-12 -11.5 -16 -21.5l-106 -425c-4 -13.333 -4.83301 -23.5 -2.5 -30.5s10.166 -10.5 23.499 -10.5h174z" />
    <glyph glyph-name="Ccedilla" unicode="&#xc7;" horiz-adv-x="1553" 
d="M827 -19c-3.33301 0.666992 -8.6709 -0.166016 -16.0039 -2.49902s-11.333 -7.83301 -12 -16.5c0 -2.66699 -0.166992 -4.83398 -0.5 -6.50098s-0.5 -7.5 -0.5 -17.5c0 -8.66699 0.666992 -15.167 2 -19.5s5.66602 -8.5 12.999 -12.5c9.33301 -7.33301 19.5 -16 30.5 -26
s21.333 -21.667 31 -35s17.667 -28.833 24 -46.5s9.5 -37.5 9.5 -59.5c0 -30.667 -4.83301 -57.834 -14.5 -81.501s-22.834 -43.667 -39.501 -60s-35.667 -28.666 -57 -36.999s-44 -12.5 -68 -12.5c-19.333 0 -38.666 3.16699 -57.999 9.5s-37 15.833 -53 28.5
s-29.667 28.334 -41 47.001s-19 40.667 -23 66c0.666992 5.33301 2.83398 10.833 6.50098 16.5s9.16699 8.5 16.5 8.5h74c5.33301 0 9.83301 -1.66699 13.5 -5s6.5 -7.33301 8.5 -12c3.33301 -11.333 9.83301 -21.333 19.5 -30s21.834 -13 36.501 -13
c20 0 34.5 7.16699 43.5 21.5s13.5 32.166 13.5 53.499s-5.66699 39.833 -17 55.5s-27.333 22.834 -48 21.501c-11.333 -0.666992 -20.333 -2.66699 -27 -6s-13.334 -5 -20.001 -5c-5.33301 0 -10.5 2.33301 -15.5 7s-7.5 9.66699 -7.5 15l4 126
c1.33301 13.333 -1.5 22.333 -8.5 27s-15.5 8 -25.5 10c-84.667 20 -161.5 53.333 -230.5 100s-128 102.5 -177 167.5s-86.833 137 -113.5 216s-40 161.167 -40 246.5c0 106 17.667 206 53 300s85 176 149 246s140.833 125.333 230.5 166s188.834 61 297.501 61
c76 0 149.333 -11.667 220 -35s135.334 -54.833 194.001 -94.5s110 -85.667 154 -138s77.667 -107.5 101 -165.5c2.66699 -8 3.16699 -15.167 1.5 -21.5s-4.83398 -12 -9.50098 -17s-10.5 -8.83301 -17.5 -11.5s-14.167 -4 -21.5 -4h-137
c-9.33301 0 -17.166 2.33301 -23.499 7s-12.166 11 -17.499 19c-27.333 45.333 -58.166 84.5 -92.499 117.5s-70.666 60.333 -108.999 82s-78.166 37.667 -119.499 48s-82.333 15.5 -123 15.5c-73.333 0 -140.833 -14.667 -202.5 -44s-115 -69.166 -160 -119.499
s-80 -108.833 -105 -175.5s-37.5 -137 -37.5 -211c0 -81.333 14.167 -156.333 42.5 -225s66 -127.834 113 -177.501s100.833 -88.334 161.5 -116.001s123.334 -41.5 188.001 -41.5c48.667 0 95.667 7.5 141 22.5s87.666 36.667 126.999 65s75.333 62.833 108 103.5
s61 86.334 85 137.001c3.33301 7.33301 8.5 14.166 15.5 20.499s16.167 9.5 27.5 9.5h150c9.33301 0 17 -2.33301 23 -7s10.667 -10.5 14 -17.5s5.16602 -14.667 5.49902 -23s-0.5 -15.833 -2.5 -22.5c-22.667 -64 -49.834 -120.833 -81.501 -170.5
s-66.334 -93.167 -104.001 -130.5s-77.167 -68.5 -118.5 -93.5s-82.5 -45.167 -123.5 -60.5s-81.167 -25.833 -120.5 -31.5s-75.666 -7.5 -108.999 -5.5z" />
    <glyph glyph-name="Egrave" unicode="&#xc8;" horiz-adv-x="1229" 
d="M1139 41c0 -10 -4.00098 -19.334 -12.001 -28.001s-17.667 -13 -29 -13h-955c-10 0 -19.333 3.66699 -28 11s-13 17.333 -13 30l15 1388c0 11.333 4.5 21.333 13.5 30s20.167 13 33.5 13h911c8.66699 0 17 -3.66699 25 -11s12 -15.666 12 -24.999l3 -131
c0 -12.667 -3.66699 -22.167 -11 -28.5s-15.666 -9.83301 -24.999 -10.5h-719c-10.667 -0.666992 -19.334 -4.5 -26.001 -11.5s-10 -16.167 -10 -27.5l4 -312c0 -9.33301 3.33301 -17.666 10 -24.999s15 -11 25 -11h652c10 0 18.5 -3.83301 25.5 -11.5
s10.5 -15.834 10.5 -24.501l3 -134c0 -8.66699 -3.66699 -16.667 -11 -24s-15.666 -11 -24.999 -11h-649c-10.667 0 -19.667 -3.5 -27 -10.5s-11 -16.5 -11 -28.5l4 -376c0 -8.66699 3.5 -16.5 10.5 -23.5s15.167 -10.5 24.5 -10.5h724c10 0 19.333 -2.83301 28 -8.5
s13.667 -15.167 15 -28.5zM426.999 1806c-6 6 -9.33203 13.168 -9.99902 21.501s0.666016 16.333 3.99902 24s8.16602 14 14.499 19s13.5 7.5 21.5 7.5h96c16.667 -2.66699 28 -9.33398 34 -20.001l135 -240c7.33301 -12.667 9.33301 -24.167 6 -34.5
s-9.16602 -18.333 -17.499 -24s-18 -8.16699 -29 -7.5s-20.167 5.66699 -27.5 15z" />
    <glyph glyph-name="Eacute" unicode="&#xc9;" horiz-adv-x="1229" 
d="M1139 41c0 -10 -4.00098 -19.334 -12.001 -28.001s-17.667 -13 -29 -13h-955c-10 0 -19.333 3.66699 -28 11s-13 17.333 -13 30l15 1388c0 11.333 4.5 21.333 13.5 30s20.167 13 33.5 13h911c8.66699 0 17 -3.66699 25 -11s12 -15.666 12 -24.999l3 -131
c0 -12.667 -3.66699 -22.167 -11 -28.5s-15.666 -9.83301 -24.999 -10.5h-719c-10.667 -0.666992 -19.334 -4.5 -26.001 -11.5s-10 -16.167 -10 -27.5l4 -312c0 -9.33301 3.33301 -17.666 10 -24.999s15 -11 25 -11h652c10 0 18.5 -3.83301 25.5 -11.5
s10.5 -15.834 10.5 -24.501l3 -134c0 -8.66699 -3.66699 -16.667 -11 -24s-15.666 -11 -24.999 -11h-649c-10.667 0 -19.667 -3.5 -27 -10.5s-11 -16.5 -11 -28.5l4 -376c0 -8.66699 3.5 -16.5 10.5 -23.5s15.167 -10.5 24.5 -10.5h724c10 0 19.333 -2.83301 28 -8.5
s13.667 -15.167 15 -28.5zM629.999 1568c-8 -10 -17.5 -15.332 -28.5 -15.999s-20.5 1.66602 -28.5 6.99902s-13.667 13.333 -17 24s-1.33301 22.667 6 36l135 240c6 10 17.667 16.667 35 20h97c10 0 18.333 -2.66699 25 -8s11.167 -11.833 13.5 -19.5
s2.83301 -15.5 1.5 -23.5s-5 -15 -11 -21z" />
    <glyph glyph-name="Ecircumflex" unicode="&#xca;" horiz-adv-x="1229" 
d="M1139 41c0 -10 -4.00098 -19.334 -12.001 -28.001s-17.667 -13 -29 -13h-955c-10 0 -19.333 3.66699 -28 11s-13 17.333 -13 30l15 1388c0 11.333 4.5 21.333 13.5 30s20.167 13 33.5 13h911c8.66699 0 17 -3.66699 25 -11s12 -15.666 12 -24.999l3 -131
c0 -12.667 -3.66699 -22.167 -11 -28.5s-15.666 -9.83301 -24.999 -10.5h-719c-10.667 -0.666992 -19.334 -4.5 -26.001 -11.5s-10 -16.167 -10 -27.5l4 -312c0 -9.33301 3.33301 -17.666 10 -24.999s15 -11 25 -11h652c10 0 18.5 -3.83301 25.5 -11.5
s10.5 -15.834 10.5 -24.501l3 -134c0 -8.66699 -3.66699 -16.667 -11 -24s-15.666 -11 -24.999 -11h-649c-10.667 0 -19.667 -3.5 -27 -10.5s-11 -16.5 -11 -28.5l4 -376c0 -8.66699 3.5 -16.5 10.5 -23.5s15.167 -10.5 24.5 -10.5h724c10 0 19.333 -2.83301 28 -8.5
s13.667 -15.167 15 -28.5zM929.999 1615c6 -6 9.33203 -12.667 9.99902 -20s-0.833008 -14.333 -4.5 -21s-9 -12.167 -16 -16.5s-14.5 -6.5 -22.5 -6.5h-100c-12.667 0 -22.334 5.33301 -29.001 16l-130 234c-3.33301 6.66699 -8.16602 10 -14.499 10
s-11.166 -3.33301 -14.499 -10l-130 -234c-6.66699 -10.667 -17.334 -16 -32.001 -16h-100c-9.33301 0 -17.166 2.33301 -23.499 7s-11 10.334 -14 17.001s-4.16699 13.667 -3.5 21s3.66699 13.666 9 18.999l235 247c4.66699 4.66699 9.16699 8.5 13.5 11.5
s10.166 4.5 17.499 4.5h87c6.66699 0 11.834 -1.66699 15.501 -5s7.16699 -7 10.5 -11z" />
    <glyph glyph-name="Edieresis" unicode="&#xcb;" horiz-adv-x="1229" 
d="M1139 41c0 -10 -4.00098 -19.334 -12.001 -28.001s-17.667 -13 -29 -13h-955c-10 0 -19.333 3.66699 -28 11s-13 17.333 -13 30l15 1388c0 11.333 4.5 21.333 13.5 30s20.167 13 33.5 13h911c8.66699 0 17 -3.66699 25 -11s12 -15.666 12 -24.999l3 -131
c0 -12.667 -3.66699 -22.167 -11 -28.5s-15.666 -9.83301 -24.999 -10.5h-719c-10.667 -0.666992 -19.334 -4.5 -26.001 -11.5s-10 -16.167 -10 -27.5l4 -312c0 -9.33301 3.33301 -17.666 10 -24.999s15 -11 25 -11h652c10 0 18.5 -3.83301 25.5 -11.5
s10.5 -15.834 10.5 -24.501l3 -134c0 -8.66699 -3.66699 -16.667 -11 -24s-15.666 -11 -24.999 -11h-649c-10.667 0 -19.667 -3.5 -27 -10.5s-11 -16.5 -11 -28.5l4 -376c0 -8.66699 3.5 -16.5 10.5 -23.5s15.167 -10.5 24.5 -10.5h724c10 0 19.333 -2.83301 28 -8.5
s13.667 -15.167 15 -28.5zM413.999 1565c-12.667 0 -23.166 4.50098 -31.499 13.501s-12.5 19.833 -12.5 32.5l2 151c0 12.667 4.5 23.167 13.5 31.5s19.5 12.5 31.5 12.5h92c12 0 22.667 -4.33301 32 -13s14 -19.334 14 -32.001l3 -150c0 -12.667 -4.33301 -23.5 -13 -32.5
s-19.334 -13.5 -32.001 -13.5h-99zM725 1565c-12.667 0 -23.166 4.50098 -31.499 13.501s-12.5 19.833 -12.5 32.5l2 151c0 12.667 4.5 23.167 13.5 31.5s19.5 12.5 31.5 12.5h92c12 0 22.667 -4.33301 32 -13s14 -19.334 14 -32.001l3 -150
c0 -12.667 -4.33301 -23.5 -13 -32.5s-19.334 -13.5 -32.001 -13.5h-99z" />
    <glyph glyph-name="Igrave" unicode="&#xcc;" horiz-adv-x="619" 
d="M218 41l15 1388c0 11.333 4.5 21.333 13.5 30s20.167 13 33.5 13h112c12.667 0 23.5 -4.33301 32.5 -13s13.5 -18.667 13.5 -30l15 -1388c0 -12.667 -4.33301 -22.667 -13 -30s-18 -11 -28 -11h-153c-10 0 -19.333 3.66699 -28 11s-13 17.333 -13 30zM130 1806
c-6 6 -9.33203 13.168 -9.99902 21.501s0.666016 16.333 3.99902 24s8.16602 14 14.499 19s13.5 7.5 21.5 7.5h96c16.667 -2.66699 28 -9.33398 34 -20.001l135 -240c7.33301 -12.667 9.33301 -24.167 6 -34.5s-9.16602 -18.333 -17.499 -24s-18 -8.16699 -29 -7.5
s-20.167 5.66699 -27.5 15z" />
    <glyph glyph-name="Iacute" unicode="&#xcd;" horiz-adv-x="656" 
d="M160 41l15 1388c0 11.333 4.5 21.333 13.5 30s20.167 13 33.5 13h112c12.667 0 23.5 -4.33301 32.5 -13s13.5 -18.667 13.5 -30l15 -1388c0 -12.667 -4.33301 -22.667 -13 -30s-18 -11 -28 -11h-153c-10 0 -19.333 3.66699 -28 11s-13 17.333 -13 30zM270 1568
c-8 -10 -17.5 -15.332 -28.5 -15.999s-20.5 1.66602 -28.5 6.99902s-13.667 13.333 -17 24s-1.33301 22.667 6 36l135 240c6 10 17.667 16.667 35 20h97c10 0 18.333 -2.66699 25 -8s11.167 -11.833 13.5 -19.5s2.83301 -15.5 1.5 -23.5s-5 -15 -11 -21z" />
    <glyph glyph-name="Icircumflex" unicode="&#xce;" horiz-adv-x="939" 
d="M348 41l15 1388c0 11.333 4.5 21.333 13.5 30s20.167 13 33.5 13h112c12.667 0 23.5 -4.33301 32.5 -13s13.5 -18.667 13.5 -30l15 -1388c0 -12.667 -4.33301 -22.667 -13 -30s-18 -11 -28 -11h-153c-10 0 -19.333 3.66699 -28 11s-13 17.333 -13 30zM773 1615
c6 -6 9.33203 -12.667 9.99902 -20s-0.833008 -14.333 -4.5 -21s-9 -12.167 -16 -16.5s-14.5 -6.5 -22.5 -6.5h-100c-12.667 0 -22.334 5.33301 -29.001 16l-130 234c-3.33301 6.66699 -8.16602 10 -14.499 10s-11.166 -3.33301 -14.499 -10l-130 -234
c-6.66699 -10.667 -17.334 -16 -32.001 -16h-100c-9.33301 0 -17.166 2.33301 -23.499 7s-11 10.334 -14 17.001s-4.16699 13.667 -3.5 21s3.66699 13.666 9 18.999l235 247c4.66699 4.66699 9.16699 8.5 13.5 11.5s10.166 4.5 17.499 4.5h87
c6.66699 0 11.834 -1.66699 15.501 -5s7.16699 -7 10.5 -11z" />
    <glyph glyph-name="Idieresis" unicode="&#xcf;" horiz-adv-x="804" 
d="M271 41l15 1388c0 11.333 4.5 21.333 13.5 30s20.167 13 33.5 13h112c12.667 0 23.5 -4.33301 32.5 -13s13.5 -18.667 13.5 -30l15 -1388c0 -12.667 -4.33301 -22.667 -13 -30s-18 -11 -28 -11h-153c-10 0 -19.333 3.66699 -28 11s-13 17.333 -13 30zM183 1565
c-12.667 0 -23.166 4.50098 -31.499 13.501s-12.5 19.833 -12.5 32.5l2 151c0 12.667 4.5 23.167 13.5 31.5s19.5 12.5 31.5 12.5h92c12 0 22.667 -4.33301 32 -13s14 -19.334 14 -32.001l3 -150c0 -12.667 -4.33301 -23.5 -13 -32.5s-19.334 -13.5 -32.001 -13.5h-99z
M494.001 1565c-12.667 0 -23.166 4.50098 -31.499 13.501s-12.5 19.833 -12.5 32.5l2 151c0 12.667 4.5 23.167 13.5 31.5s19.5 12.5 31.5 12.5h92c12 0 22.667 -4.33301 32 -13s14 -19.334 14 -32.001l3 -150c0 -12.667 -4.33301 -23.5 -13 -32.5
s-19.334 -13.5 -32.001 -13.5h-99z" />
    <glyph glyph-name="Ntilde" unicode="&#xd1;" horiz-adv-x="1451" 
d="M1329 41c0 -12.667 -4.33496 -22.666 -13.002 -29.999s-18 -11 -28 -11h-203c-9.33301 0 -16.5 2.33301 -21.5 7s-10.5 11.667 -16.5 21l-668 1070c-3.33301 5.33301 -7.83301 9.16602 -13.5 11.499s-11.167 3 -16.5 2s-10 -3.5 -14 -7.5s-6 -9.66699 -6 -17l11 -1046
c0 -12 -4.33301 -21.833 -13 -29.5s-18 -11.5 -28 -11.5h-153c-10 0 -19.333 3.66699 -28 11s-13 17.333 -13 30l15 1388c0 11.333 4.5 21.333 13.5 30s20.167 13 33.5 13h172c10.667 0 19.334 -4.33301 26.001 -13l686 -1055c3.33301 -5.33301 7.66602 -9 12.999 -11
s10.5 -2.33301 15.5 -1s9.33301 4 13 8s5.5 9.33301 5.5 16l11 1013c0 11.333 4.5 21.333 13.5 30s20.167 13 33.5 13h112c12.667 0 23.334 -4.33301 32.001 -13s13.334 -18.667 14.001 -30zM1055 1746c1.33301 -24.667 -2.66504 -48.333 -11.998 -71
s-22.166 -42.667 -38.499 -60s-35.166 -31.166 -56.499 -41.499s-43.333 -15.5 -66 -15.5c-30.667 0 -55.834 4.83301 -75.501 14.5s-37.834 20.167 -54.501 31.5s-33.834 21.833 -51.501 31.5s-39.5 14.5 -65.5 14.5c-15.333 0 -30 -2.33301 -44 -7
s-27.167 -10.834 -39.5 -18.501s-23.666 -16 -33.999 -25s-18.833 -17.833 -25.5 -26.5c-3.33301 -2.66699 -7.33301 -4.16699 -12 -4.5s-9.16699 0 -13.5 1s-8 3 -11 6s-4.5 6.5 -4.5 10.5c-0.666992 28.667 3.5 55 12.5 79s21.667 44.833 38 62.5
s35.833 31.334 58.5 41.001s47 14.5 73 14.5c18.667 0 34.5 -2.16699 47.5 -6.5s24.667 -9.83301 35 -16.5s20.333 -13.667 30 -21s20.667 -14.333 33 -21s26.666 -12.167 42.999 -16.5s36.166 -6.5 59.499 -6.5c24.667 0 48 5.66699 70 17s43 25.666 63 42.999
c6 7.33301 14.167 10 24.5 8s15.833 -7.66699 16.5 -17z" />
    <glyph glyph-name="Ograve" unicode="&#xd2;" horiz-adv-x="1607" 
d="M801 1493c67.333 0 131.999 -8.83008 193.999 -26.4971s119.833 -42.667 173.5 -75s102.667 -71.333 147 -117s82.166 -96 113.499 -151s55.5 -114.333 72.5 -178s25.5 -129.834 25.5 -198.501c0 -107.333 -18.333 -207.833 -55 -301.5s-87.5 -175.167 -152.5 -244.5
s-142.167 -123.833 -231.5 -163.5s-186.666 -59.5 -291.999 -59.5c-103.333 0 -199.166 19.833 -287.499 59.5s-165 94.167 -230 163.5s-116 150.5 -153 243.5s-55.5 193.167 -55.5 300.5c0 69.333 8.5 136 25.5 200s41.333 123.667 73 179s69.5 105.666 113.5 150.999
s93.167 84.166 147.5 116.499s112.833 57.333 175.5 75s128 26.5 196 26.5zM798.999 184.003c50.667 0 98.334 8.16797 143.001 24.501s85.5 38.5 122.5 66.5s70 60.5 99 97.5s53.5 76.333 73.5 118s35.333 84.334 46 128.001s16 85.834 16 126.501c0 40 -5 81.5 -15 124.5
s-24.833 84.833 -44.5 125.5s-43.834 79.167 -72.501 115.5s-61.5 68.166 -98.5 95.499s-78 49 -123 65s-93.833 24 -146.5 24c-53.333 0 -102.833 -8 -148.5 -24s-87 -37.833 -124 -65.5s-69.833 -59.667 -98.5 -96s-52.667 -74.833 -72 -115.5s-34 -82.334 -44 -125.001
s-15 -84 -15 -124c0 -42.667 5.16699 -86 15.5 -130s25.5 -86.833 45.5 -128.5s44.333 -80.834 73 -117.501s61.667 -68.667 99 -96s78.5 -49 123.5 -65s93.5 -24 145.5 -24zM626.999 1806c-6 6 -9.33203 13.168 -9.99902 21.501s0.666016 16.333 3.99902 24
s8.16602 14 14.499 19s13.5 7.5 21.5 7.5h96c16.667 -2.66699 28 -9.33398 34 -20.001l135 -240c7.33301 -12.667 9.33301 -24.167 6 -34.5s-9.16602 -18.333 -17.499 -24s-18 -8.16699 -29 -7.5s-20.167 5.66699 -27.5 15z" />
    <glyph glyph-name="Oacute" unicode="&#xd3;" horiz-adv-x="1607" 
d="M801 1493c67.333 0 131.999 -8.83008 193.999 -26.4971s119.833 -42.667 173.5 -75s102.667 -71.333 147 -117s82.166 -96 113.499 -151s55.5 -114.333 72.5 -178s25.5 -129.834 25.5 -198.501c0 -107.333 -18.333 -207.833 -55 -301.5s-87.5 -175.167 -152.5 -244.5
s-142.167 -123.833 -231.5 -163.5s-186.666 -59.5 -291.999 -59.5c-103.333 0 -199.166 19.833 -287.499 59.5s-165 94.167 -230 163.5s-116 150.5 -153 243.5s-55.5 193.167 -55.5 300.5c0 69.333 8.5 136 25.5 200s41.333 123.667 73 179s69.5 105.666 113.5 150.999
s93.167 84.166 147.5 116.499s112.833 57.333 175.5 75s128 26.5 196 26.5zM798.999 184.003c50.667 0 98.334 8.16797 143.001 24.501s85.5 38.5 122.5 66.5s70 60.5 99 97.5s53.5 76.333 73.5 118s35.333 84.334 46 128.001s16 85.834 16 126.501c0 40 -5 81.5 -15 124.5
s-24.833 84.833 -44.5 125.5s-43.834 79.167 -72.501 115.5s-61.5 68.166 -98.5 95.499s-78 49 -123 65s-93.833 24 -146.5 24c-53.333 0 -102.833 -8 -148.5 -24s-87 -37.833 -124 -65.5s-69.833 -59.667 -98.5 -96s-52.667 -74.833 -72 -115.5s-34 -82.334 -44 -125.001
s-15 -84 -15 -124c0 -42.667 5.16699 -86 15.5 -130s25.5 -86.833 45.5 -128.5s44.333 -80.834 73 -117.501s61.667 -68.667 99 -96s78.5 -49 123.5 -65s93.5 -24 145.5 -24zM720.999 1568c-8 -10 -17.5 -15.332 -28.5 -15.999s-20.5 1.66602 -28.5 6.99902
s-13.667 13.333 -17 24s-1.33301 22.667 6 36l135 240c6 10 17.667 16.667 35 20h97c10 0 18.333 -2.66699 25 -8s11.167 -11.833 13.5 -19.5s2.83301 -15.5 1.5 -23.5s-5 -15 -11 -21z" />
    <glyph glyph-name="Ocircumflex" unicode="&#xd4;" horiz-adv-x="1607" 
d="M801 1493c67.333 0 131.999 -8.83008 193.999 -26.4971s119.833 -42.667 173.5 -75s102.667 -71.333 147 -117s82.166 -96 113.499 -151s55.5 -114.333 72.5 -178s25.5 -129.834 25.5 -198.501c0 -107.333 -18.333 -207.833 -55 -301.5s-87.5 -175.167 -152.5 -244.5
s-142.167 -123.833 -231.5 -163.5s-186.666 -59.5 -291.999 -59.5c-103.333 0 -199.166 19.833 -287.499 59.5s-165 94.167 -230 163.5s-116 150.5 -153 243.5s-55.5 193.167 -55.5 300.5c0 69.333 8.5 136 25.5 200s41.333 123.667 73 179s69.5 105.666 113.5 150.999
s93.167 84.166 147.5 116.499s112.833 57.333 175.5 75s128 26.5 196 26.5zM798.999 184.003c50.667 0 98.334 8.16797 143.001 24.501s85.5 38.5 122.5 66.5s70 60.5 99 97.5s53.5 76.333 73.5 118s35.333 84.334 46 128.001s16 85.834 16 126.501c0 40 -5 81.5 -15 124.5
s-24.833 84.833 -44.5 125.5s-43.834 79.167 -72.501 115.5s-61.5 68.166 -98.5 95.499s-78 49 -123 65s-93.833 24 -146.5 24c-53.333 0 -102.833 -8 -148.5 -24s-87 -37.833 -124 -65.5s-69.833 -59.667 -98.5 -96s-52.667 -74.833 -72 -115.5s-34 -82.334 -44 -125.001
s-15 -84 -15 -124c0 -42.667 5.16699 -86 15.5 -130s25.5 -86.833 45.5 -128.5s44.333 -80.834 73 -117.501s61.667 -68.667 99 -96s78.5 -49 123.5 -65s93.5 -24 145.5 -24zM1101 1615c6 -6 9.33203 -12.667 9.99902 -20s-0.833008 -14.333 -4.5 -21s-9 -12.167 -16 -16.5
s-14.5 -6.5 -22.5 -6.5h-100c-12.667 0 -22.334 5.33301 -29.001 16l-130 234c-3.33301 6.66699 -8.16602 10 -14.499 10s-11.166 -3.33301 -14.499 -10l-130 -234c-6.66699 -10.667 -17.334 -16 -32.001 -16h-100c-9.33301 0 -17.166 2.33301 -23.499 7
s-11 10.334 -14 17.001s-4.16699 13.667 -3.5 21s3.66699 13.666 9 18.999l235 247c4.66699 4.66699 9.16699 8.5 13.5 11.5s10.166 4.5 17.499 4.5h87c6.66699 0 11.834 -1.66699 15.501 -5s7.16699 -7 10.5 -11z" />
    <glyph glyph-name="Otilde" unicode="&#xd5;" horiz-adv-x="1607" 
d="M801 1493c67.333 0 131.999 -8.83008 193.999 -26.4971s119.833 -42.667 173.5 -75s102.667 -71.333 147 -117s82.166 -96 113.499 -151s55.5 -114.333 72.5 -178s25.5 -129.834 25.5 -198.501c0 -107.333 -18.333 -207.833 -55 -301.5s-87.5 -175.167 -152.5 -244.5
s-142.167 -123.833 -231.5 -163.5s-186.666 -59.5 -291.999 -59.5c-103.333 0 -199.166 19.833 -287.499 59.5s-165 94.167 -230 163.5s-116 150.5 -153 243.5s-55.5 193.167 -55.5 300.5c0 69.333 8.5 136 25.5 200s41.333 123.667 73 179s69.5 105.666 113.5 150.999
s93.167 84.166 147.5 116.499s112.833 57.333 175.5 75s128 26.5 196 26.5zM798.999 184.003c50.667 0 98.334 8.16797 143.001 24.501s85.5 38.5 122.5 66.5s70 60.5 99 97.5s53.5 76.333 73.5 118s35.333 84.334 46 128.001s16 85.834 16 126.501c0 40 -5 81.5 -15 124.5
s-24.833 84.833 -44.5 125.5s-43.834 79.167 -72.501 115.5s-61.5 68.166 -98.5 95.499s-78 49 -123 65s-93.833 24 -146.5 24c-53.333 0 -102.833 -8 -148.5 -24s-87 -37.833 -124 -65.5s-69.833 -59.667 -98.5 -96s-52.667 -74.833 -72 -115.5s-34 -82.334 -44 -125.001
s-15 -84 -15 -124c0 -42.667 5.16699 -86 15.5 -130s25.5 -86.833 45.5 -128.5s44.333 -80.834 73 -117.501s61.667 -68.667 99 -96s78.5 -49 123.5 -65s93.5 -24 145.5 -24zM1106 1747c1.33301 -24.667 -2.66504 -48.333 -11.998 -71s-22.166 -42.667 -38.499 -60
s-35.166 -31.166 -56.499 -41.499s-43.333 -15.5 -66 -15.5c-30.667 0 -55.834 4.83301 -75.501 14.5s-37.834 20.167 -54.501 31.5s-33.834 21.833 -51.501 31.5s-39.5 14.5 -65.5 14.5c-15.333 0 -30 -2.33301 -44 -7s-27.167 -10.834 -39.5 -18.501
s-23.666 -16 -33.999 -25s-18.833 -17.833 -25.5 -26.5c-3.33301 -2.66699 -7.33301 -4.16699 -12 -4.5s-9.16699 0 -13.5 1s-8 3 -11 6s-4.5 6.5 -4.5 10.5c-0.666992 28.667 3.5 55 12.5 79s21.667 44.833 38 62.5s35.833 31.334 58.5 41.001s47 14.5 73 14.5
c18.667 0 34.5 -2.16699 47.5 -6.5s24.667 -9.83301 35 -16.5s20.333 -13.667 30 -21s20.667 -14.333 33 -21s26.666 -12.167 42.999 -16.5s36.166 -6.5 59.499 -6.5c24.667 0 48 5.66699 70 17s43 25.666 63 42.999c6 7.33301 14.167 10 24.5 8s15.833 -7.66699 16.5 -17z
" />
    <glyph glyph-name="Odieresis" unicode="&#xd6;" horiz-adv-x="1607" 
d="M801 1493c67.333 0 131.999 -8.83008 193.999 -26.4971s119.833 -42.667 173.5 -75s102.667 -71.333 147 -117s82.166 -96 113.499 -151s55.5 -114.333 72.5 -178s25.5 -129.834 25.5 -198.501c0 -107.333 -18.333 -207.833 -55 -301.5s-87.5 -175.167 -152.5 -244.5
s-142.167 -123.833 -231.5 -163.5s-186.666 -59.5 -291.999 -59.5c-103.333 0 -199.166 19.833 -287.499 59.5s-165 94.167 -230 163.5s-116 150.5 -153 243.5s-55.5 193.167 -55.5 300.5c0 69.333 8.5 136 25.5 200s41.333 123.667 73 179s69.5 105.666 113.5 150.999
s93.167 84.166 147.5 116.499s112.833 57.333 175.5 75s128 26.5 196 26.5zM798.999 184.003c50.667 0 98.334 8.16797 143.001 24.501s85.5 38.5 122.5 66.5s70 60.5 99 97.5s53.5 76.333 73.5 118s35.333 84.334 46 128.001s16 85.834 16 126.501c0 40 -5 81.5 -15 124.5
s-24.833 84.833 -44.5 125.5s-43.834 79.167 -72.501 115.5s-61.5 68.166 -98.5 95.499s-78 49 -123 65s-93.833 24 -146.5 24c-53.333 0 -102.833 -8 -148.5 -24s-87 -37.833 -124 -65.5s-69.833 -59.667 -98.5 -96s-52.667 -74.833 -72 -115.5s-34 -82.334 -44 -125.001
s-15 -84 -15 -124c0 -42.667 5.16699 -86 15.5 -130s25.5 -86.833 45.5 -128.5s44.333 -80.834 73 -117.501s61.667 -68.667 99 -96s78.5 -49 123.5 -65s93.5 -24 145.5 -24zM590.999 1565c-12.667 0 -23.166 4.50098 -31.499 13.501s-12.5 19.833 -12.5 32.5l2 151
c0 12.667 4.5 23.167 13.5 31.5s19.5 12.5 31.5 12.5h92c12 0 22.667 -4.33301 32 -13s14 -19.334 14 -32.001l3 -150c0 -12.667 -4.33301 -23.5 -13 -32.5s-19.334 -13.5 -32.001 -13.5h-99zM902 1565c-12.667 0 -23.166 4.50098 -31.499 13.501s-12.5 19.833 -12.5 32.5
l2 151c0 12.667 4.5 23.167 13.5 31.5s19.5 12.5 31.5 12.5h92c12 0 22.667 -4.33301 32 -13s14 -19.334 14 -32.001l3 -150c0 -12.667 -4.33301 -23.5 -13 -32.5s-19.334 -13.5 -32.001 -13.5h-99z" />
    <glyph glyph-name="Oslash" unicode="&#xd8;" horiz-adv-x="1607" 
d="M801 1493c68.667 0 134.669 -8.99707 198.002 -26.9971s123 -43.667 179 -77l69 83c7.33301 8.66699 17.166 13 29.499 13s23.166 -4 32.499 -12l73 -61c9.33301 -7.33301 15 -16.833 17 -28.5s-0.333008 -22.167 -7 -31.5l-71 -84c64 -67.333 114.333 -145.5 151 -234.5
s55 -184.5 55 -286.5c0 -72 -8.33301 -140.833 -25 -206.5s-40.334 -127.167 -71.001 -184.5s-67.834 -109.333 -111.501 -156s-92.667 -86.667 -147 -120s-113.166 -59 -176.499 -77s-130 -27 -200 -27c-83.333 0 -161.5 13 -234.5 39s-139.833 62.333 -200.5 109l-94 -112
c-7.33301 -8 -17 -12 -29 -12s-22.667 4.33301 -32 13l-72 59c-9.33301 8 -15.166 18 -17.499 30s0.166992 22 7.5 30l106 126c-50 66.667 -89.167 141.167 -117.5 223.5s-42.5 170.166 -42.5 263.499c0 69.333 8.5 136 25.5 200s41.333 123.667 73 179
s69.5 105.666 113.5 150.999s93.167 84.166 147.5 116.499s112.833 57.333 175.5 75s128 26.5 196 26.5zM799.002 185.003c51.333 2.66699 99.5 12.666 144.5 29.999s86 40 123 68s70 60.167 99 96.5s53.333 74.666 73 114.999s34.667 82 45 125s15.5 84.833 15.5 125.5
c0 58.667 -10.333 118.834 -31 180.501s-50.667 118.834 -90 171.501l-671 -799c40 -32 84.167 -58 132.5 -78s101.5 -31.667 159.5 -35zM799.002 1295c-53.333 0 -102.833 -8 -148.5 -24s-87 -37.833 -124 -65.5s-69.833 -59.667 -98.5 -96s-52.667 -74.833 -72 -115.5
s-34 -82.334 -44 -125.001s-15 -84 -15 -124c0 -50 7.16699 -101.167 21.5 -153.5s35.833 -102.833 64.5 -151.5l659 786c-35.333 20.667 -73 37.334 -113 50.001s-83.333 19 -130 19z" />
    <glyph glyph-name="Ugrave" unicode="&#xd9;" horiz-adv-x="1405" 
d="M319 567c0.666992 -56 9.33594 -107.329 26.0029 -153.996s40.834 -86.834 72.501 -120.501s70.834 -60 117.501 -79s100.667 -28.5 162 -28.5s115.166 9.5 161.499 28.5s85.166 45.833 116.499 80.5s55.166 76.167 71.499 124.5s24.833 101.833 25.5 160.5l11 850
c0 11.333 4.5 21.333 13.5 30s20.167 13 33.5 13h112c12.667 0 23.5 -4.33301 32.5 -13s13.5 -18.667 13.5 -30l9 -858c1.33301 -88.667 -11 -169.334 -37 -242.001s-64.667 -135 -116 -187s-114.5 -92.333 -189.5 -121s-160.833 -43 -257.5 -43
c-96 0 -181.5 14.333 -256.5 43s-138.333 69.167 -190 121.5s-90.834 115.166 -117.501 188.499s-39.334 154.666 -38.001 243.999l9 854c0 11.333 4.5 21.333 13.5 30s20.167 13 33.5 13h112c12.667 0 23.5 -4.33301 32.5 -13s13.5 -18.667 13.5 -30zM548.002 1806
c-6 6 -9.33203 13.168 -9.99902 21.501s0.666016 16.333 3.99902 24s8.16602 14 14.499 19s13.5 7.5 21.5 7.5h96c16.667 -2.66699 28 -9.33398 34 -20.001l135 -240c7.33301 -12.667 9.33301 -24.167 6 -34.5s-9.16602 -18.333 -17.499 -24s-18 -8.16699 -29 -7.5
s-20.167 5.66699 -27.5 15z" />
    <glyph glyph-name="Uacute" unicode="&#xda;" horiz-adv-x="1405" 
d="M319 567c0.666992 -56 9.33594 -107.329 26.0029 -153.996s40.834 -86.834 72.501 -120.501s70.834 -60 117.501 -79s100.667 -28.5 162 -28.5s115.166 9.5 161.499 28.5s85.166 45.833 116.499 80.5s55.166 76.167 71.499 124.5s24.833 101.833 25.5 160.5l11 850
c0 11.333 4.5 21.333 13.5 30s20.167 13 33.5 13h112c12.667 0 23.5 -4.33301 32.5 -13s13.5 -18.667 13.5 -30l9 -858c1.33301 -88.667 -11 -169.334 -37 -242.001s-64.667 -135 -116 -187s-114.5 -92.333 -189.5 -121s-160.833 -43 -257.5 -43
c-96 0 -181.5 14.333 -256.5 43s-138.333 69.167 -190 121.5s-90.834 115.166 -117.501 188.499s-39.334 154.666 -38.001 243.999l9 854c0 11.333 4.5 21.333 13.5 30s20.167 13 33.5 13h112c12.667 0 23.5 -4.33301 32.5 -13s13.5 -18.667 13.5 -30zM619.002 1568
c-8 -10 -17.5 -15.332 -28.5 -15.999s-20.5 1.66602 -28.5 6.99902s-13.667 13.333 -17 24s-1.33301 22.667 6 36l135 240c6 10 17.667 16.667 35 20h97c10 0 18.333 -2.66699 25 -8s11.167 -11.833 13.5 -19.5s2.83301 -15.5 1.5 -23.5s-5 -15 -11 -21z" />
    <glyph glyph-name="Ucircumflex" unicode="&#xdb;" horiz-adv-x="1405" 
d="M319 567c0.666992 -56 9.33594 -107.329 26.0029 -153.996s40.834 -86.834 72.501 -120.501s70.834 -60 117.501 -79s100.667 -28.5 162 -28.5s115.166 9.5 161.499 28.5s85.166 45.833 116.499 80.5s55.166 76.167 71.499 124.5s24.833 101.833 25.5 160.5l11 850
c0 11.333 4.5 21.333 13.5 30s20.167 13 33.5 13h112c12.667 0 23.5 -4.33301 32.5 -13s13.5 -18.667 13.5 -30l9 -858c1.33301 -88.667 -11 -169.334 -37 -242.001s-64.667 -135 -116 -187s-114.5 -92.333 -189.5 -121s-160.833 -43 -257.5 -43
c-96 0 -181.5 14.333 -256.5 43s-138.333 69.167 -190 121.5s-90.834 115.166 -117.501 188.499s-39.334 154.666 -38.001 243.999l9 854c0 11.333 4.5 21.333 13.5 30s20.167 13 33.5 13h112c12.667 0 23.5 -4.33301 32.5 -13s13.5 -18.667 13.5 -30zM1003 1615
c6 -6 9.33203 -12.667 9.99902 -20s-0.833008 -14.333 -4.5 -21s-9 -12.167 -16 -16.5s-14.5 -6.5 -22.5 -6.5h-100c-12.667 0 -22.334 5.33301 -29.001 16l-130 234c-3.33301 6.66699 -8.16602 10 -14.499 10s-11.166 -3.33301 -14.499 -10l-130 -234
c-6.66699 -10.667 -17.334 -16 -32.001 -16h-100c-9.33301 0 -17.166 2.33301 -23.499 7s-11 10.334 -14 17.001s-4.16699 13.667 -3.5 21s3.66699 13.666 9 18.999l235 247c4.66699 4.66699 9.16699 8.5 13.5 11.5s10.166 4.5 17.499 4.5h87
c6.66699 0 11.834 -1.66699 15.501 -5s7.16699 -7 10.5 -11z" />
    <glyph glyph-name="Udieresis" unicode="&#xdc;" horiz-adv-x="1405" 
d="M319 567c0.666992 -56 9.33594 -107.329 26.0029 -153.996s40.834 -86.834 72.501 -120.501s70.834 -60 117.501 -79s100.667 -28.5 162 -28.5s115.166 9.5 161.499 28.5s85.166 45.833 116.499 80.5s55.166 76.167 71.499 124.5s24.833 101.833 25.5 160.5l11 850
c0 11.333 4.5 21.333 13.5 30s20.167 13 33.5 13h112c12.667 0 23.5 -4.33301 32.5 -13s13.5 -18.667 13.5 -30l9 -858c1.33301 -88.667 -11 -169.334 -37 -242.001s-64.667 -135 -116 -187s-114.5 -92.333 -189.5 -121s-160.833 -43 -257.5 -43
c-96 0 -181.5 14.333 -256.5 43s-138.333 69.167 -190 121.5s-90.834 115.166 -117.501 188.499s-39.334 154.666 -38.001 243.999l9 854c0 11.333 4.5 21.333 13.5 30s20.167 13 33.5 13h112c12.667 0 23.5 -4.33301 32.5 -13s13.5 -18.667 13.5 -30zM490.002 1565
c-12.667 0 -23.166 4.50098 -31.499 13.501s-12.5 19.833 -12.5 32.5l2 151c0 12.667 4.5 23.167 13.5 31.5s19.5 12.5 31.5 12.5h92c12 0 22.667 -4.33301 32 -13s14 -19.334 14 -32.001l3 -150c0 -12.667 -4.33301 -23.5 -13 -32.5s-19.334 -13.5 -32.001 -13.5h-99z
M801.003 1565c-12.667 0 -23.166 4.50098 -31.499 13.501s-12.5 19.833 -12.5 32.5l2 151c0 12.667 4.5 23.167 13.5 31.5s19.5 12.5 31.5 12.5h92c12 0 22.667 -4.33301 32 -13s14 -19.334 14 -32.001l3 -150c0 -12.667 -4.33301 -23.5 -13 -32.5
s-19.334 -13.5 -32.001 -13.5h-99z" />
    <glyph glyph-name="Yacute" unicode="&#xdd;" horiz-adv-x="1215" 
d="M1123 1472c9.33301 0 17.3301 -2.66602 23.9971 -7.99902s11.5 -11.833 14.5 -19.5s4.16699 -16 3.5 -25s-3.66699 -17.167 -9 -24.5l-432 -711c-1.33301 -3.33301 -2.66602 -6.5 -3.99902 -9.5s-2 -6.16699 -2 -9.5l17 -624c0 -12.667 -4.33301 -22.667 -13 -30
s-18 -11 -28 -11h-174c-10 0 -19.333 3.66699 -28 11s-13 17.333 -13 30l17 624c0 7.33301 -1.66699 13.666 -5 18.999l-439 716c-6 8 -9 16.167 -9 24.5s1.83301 16 5.5 23s8.83398 12.833 15.501 17.5s13.667 7 21 7h146c6.66699 0 12.834 -1.83301 18.501 -5.5
s10.167 -8.16699 13.5 -13.5l311 -489c4 -5.33301 8.66699 -9.33301 14 -12s11 -3.66699 17 -3s11.833 2.5 17.5 5.5s10.5 7.16699 14.5 12.5l310 486c3.33301 5.33301 7.83301 9.83301 13.5 13.5s11.5 5.5 17.5 5.5h145zM604.997 1574c-8 -10 -17.5 -15.332 -28.5 -15.999
s-20.5 1.66602 -28.5 6.99902s-13.667 13.333 -17 24s-1.33301 22.667 6 36l135 240c6 10 17.667 16.667 35 20h97c10 0 18.333 -2.66699 25 -8s11.167 -11.833 13.5 -19.5s2.83301 -15.5 1.5 -23.5s-5 -15 -11 -21z" />
    <glyph glyph-name="germandbls" unicode="&#xdf;" horiz-adv-x="1174" 
d="M97 1026c0 12.667 0.166992 32.333 0.5 59s3.83301 56.667 10.5 90s18.167 67.5 34.5 102.5s40.666 66.833 72.999 95.5s74 52.334 125 71.001s114.5 28 190.5 28c62 0 121.333 -7.5 178 -22.5s106.334 -37.5 149.001 -67.5s76.667 -67.5 102 -112.5s38 -97.5 38 -157.5
c0 -40 -5.83301 -75 -17.5 -105s-27.334 -56.5 -47.001 -79.5s-42.167 -43 -67.5 -60s-52 -32.833 -80 -47.5c-6.66699 -2.66699 -11.167 -6 -13.5 -10s-3.16602 -8.16699 -2.49902 -12.5s2.66699 -8.33301 6 -12s7.66602 -6.5 12.999 -8.5
c40.667 -19.333 78.334 -43 113.001 -71s64.834 -58.5 90.501 -91.5s45.667 -68.167 60 -105.5s21.5 -75.333 21.5 -114c0 -82.667 -13.333 -150.834 -40 -204.501s-63.667 -96.334 -111 -128.001s-103.333 -53.667 -168 -66s-134.667 -18.5 -210 -18.5
c-11.333 0 -19.333 3.5 -24 10.5s-7 16.167 -7 27.5v135c0 22.667 9 34 27 34c34 0 68.167 1.5 102.5 4.5s65.5 11.833 93.5 26.5s50.833 36.667 68.5 66s26.5 70.666 26.5 123.999c0 36 -8.16699 70.5 -24.5 103.5s-37.833 61.833 -64.5 86.5s-57.167 44.334 -91.5 59.001
s-69.5 22 -105.5 22c-13.333 0 -22 3.33301 -26 10s-6 14.334 -6 23.001v159c0 9.33301 2 17.833 6 25.5s12.667 11.5 26 11.5c34.667 0 67.334 3.5 98.001 10.5s57.334 18 80.001 33s40.5 34.667 53.5 59s19.5 53.833 19.5 88.5c0.666992 68 -22.5 118 -69.5 150
s-111.167 48 -192.5 48c-40 0 -73.333 -4.66699 -100 -14s-48.334 -21.5 -65.001 -36.5s-29.334 -31.833 -38.001 -50.5s-14.667 -37.167 -18 -55.5s-5 -35.5 -5 -51.5s0.333008 -29 1 -39l11 -1006c0 -12.667 -4.33301 -22.834 -13 -30.501s-18.334 -11.5 -29.001 -11.5
h-152c-10 0 -19.333 3.83301 -28 11.5s-13 17.834 -13 30.501z" />
    <glyph glyph-name="agrave" unicode="&#xe0;" horiz-adv-x="1086" 
d="M787 780c0 20 -6.00098 37.502 -18.001 52.502s-28 27.667 -48 38s-42.667 18 -68 23s-51 7.5 -77 7.5c-22 0 -44.667 -1.5 -68 -4.5s-45.833 -9.33301 -67.5 -19s-41.5 -23.167 -59.5 -40.5s-32.667 -40 -44 -68c-6.66699 -16 -15.5 -27.333 -26.5 -34
s-25.167 -10 -42.5 -10l-87 -1c-21.333 0 -37.166 4.66699 -47.499 14s-11.833 28.666 -4.5 57.999c12 46 33.333 87 64 123s67 66.5 109 91.5s87.667 44 137 57s99 19.5 149 19.5c55.333 0 107.333 -7.66699 156 -23s91.334 -37.166 128.001 -65.499
s65.667 -62.5 87 -102.5s32.333 -84.667 33 -134l8 -720c0 -10.667 -3.83301 -20.334 -11.5 -29.001s-17.167 -13 -28.5 -13h-135c-12.667 0 -23.334 3.83301 -32.001 11.5s-13 17.834 -13 30.501v46c0 13.333 -5.66699 21 -17 23s-22.666 -1.66699 -33.999 -11
c-30 -26.667 -59.667 -48 -89 -64s-58.333 -28.333 -87 -37s-57 -14.334 -85 -17.001s-55.667 -4 -83 -4c-55.333 0 -103 8.16699 -143 24.5s-73 38.833 -99 67.5s-45.333 62.167 -58 100.5s-18.667 79.166 -18 122.499c0.666992 42.667 7 80.167 19 112.5
s27.833 60.5 47.5 84.5s42.167 44.167 67.5 60.5s51.666 29.5 78.999 39.5c35.333 13.333 73 23.5 113 30.5s79.5 12.833 118.5 17.5s76 9.5 111 14.5s65.167 12.5 90.5 22.5c28 13.333 47.167 28.833 57.5 46.5s15.833 37.167 16.5 58.5zM279.999 300.002
c0 -29.333 7.5 -52.5 22.5 -69.5s34.667 -29.167 59 -36.5s51.666 -10.833 81.999 -10.5s60.5 3.5 90.5 9.5s58.167 13.833 84.5 23.5s47.833 20.167 64.5 31.5c24.667 16 43.834 34.833 57.501 56.5s23.667 43.167 30 64.5s10.166 41 11.499 59s2 31.667 2 41
c0 13.333 -3.83301 22.5 -11.5 27.5s-16.834 5.83301 -27.501 2.5c-35.333 -10.667 -71.166 -19.167 -107.499 -25.5l-106 -18c-34.333 -5.66699 -66.666 -11.667 -96.999 -18s-57 -15 -80 -26s-41.167 -25.333 -54.5 -43s-20 -40.5 -20 -68.5zM447.999 1400
c-6 6 -9.33203 13.168 -9.99902 21.501s0.666016 16.333 3.99902 24s8.16602 14 14.499 19s13.5 7.5 21.5 7.5h96c16.667 -2.66699 28 -9.33398 34 -20.001l135 -240c7.33301 -12.667 9.33301 -24.167 6 -34.5s-9.16602 -18.333 -17.499 -24s-18 -8.16699 -29 -7.5
s-20.167 5.66699 -27.5 15z" />
    <glyph glyph-name="aacute" unicode="&#xe1;" horiz-adv-x="1086" 
d="M787 780c0 20 -6.00098 37.502 -18.001 52.502s-28 27.667 -48 38s-42.667 18 -68 23s-51 7.5 -77 7.5c-22 0 -44.667 -1.5 -68 -4.5s-45.833 -9.33301 -67.5 -19s-41.5 -23.167 -59.5 -40.5s-32.667 -40 -44 -68c-6.66699 -16 -15.5 -27.333 -26.5 -34
s-25.167 -10 -42.5 -10l-87 -1c-21.333 0 -37.166 4.66699 -47.499 14s-11.833 28.666 -4.5 57.999c12 46 33.333 87 64 123s67 66.5 109 91.5s87.667 44 137 57s99 19.5 149 19.5c55.333 0 107.333 -7.66699 156 -23s91.334 -37.166 128.001 -65.499
s65.667 -62.5 87 -102.5s32.333 -84.667 33 -134l8 -720c0 -10.667 -3.83301 -20.334 -11.5 -29.001s-17.167 -13 -28.5 -13h-135c-12.667 0 -23.334 3.83301 -32.001 11.5s-13 17.834 -13 30.501v46c0 13.333 -5.66699 21 -17 23s-22.666 -1.66699 -33.999 -11
c-30 -26.667 -59.667 -48 -89 -64s-58.333 -28.333 -87 -37s-57 -14.334 -85 -17.001s-55.667 -4 -83 -4c-55.333 0 -103 8.16699 -143 24.5s-73 38.833 -99 67.5s-45.333 62.167 -58 100.5s-18.667 79.166 -18 122.499c0.666992 42.667 7 80.167 19 112.5
s27.833 60.5 47.5 84.5s42.167 44.167 67.5 60.5s51.666 29.5 78.999 39.5c35.333 13.333 73 23.5 113 30.5s79.5 12.833 118.5 17.5s76 9.5 111 14.5s65.167 12.5 90.5 22.5c28 13.333 47.167 28.833 57.5 46.5s15.833 37.167 16.5 58.5zM279.999 300.002
c0 -29.333 7.5 -52.5 22.5 -69.5s34.667 -29.167 59 -36.5s51.666 -10.833 81.999 -10.5s60.5 3.5 90.5 9.5s58.167 13.833 84.5 23.5s47.833 20.167 64.5 31.5c24.667 16 43.834 34.833 57.501 56.5s23.667 43.167 30 64.5s10.166 41 11.499 59s2 31.667 2 41
c0 13.333 -3.83301 22.5 -11.5 27.5s-16.834 5.83301 -27.501 2.5c-35.333 -10.667 -71.166 -19.167 -107.499 -25.5l-106 -18c-34.333 -5.66699 -66.666 -11.667 -96.999 -18s-57 -15 -80 -26s-41.167 -25.333 -54.5 -43s-20 -40.5 -20 -68.5zM538.999 1161
c-8 -10 -17.5 -15.332 -28.5 -15.999s-20.5 1.66602 -28.5 6.99902s-13.667 13.333 -17 24s-1.33301 22.667 6 36l135 240c6 10 17.667 16.667 35 20h97c10 0 18.333 -2.66699 25 -8s11.167 -11.833 13.5 -19.5s2.83301 -15.5 1.5 -23.5s-5 -15 -11 -21z" />
    <glyph glyph-name="acircumflex" unicode="&#xe2;" horiz-adv-x="1086" 
d="M787 780c0 20 -6.00098 37.502 -18.001 52.502s-28 27.667 -48 38s-42.667 18 -68 23s-51 7.5 -77 7.5c-22 0 -44.667 -1.5 -68 -4.5s-45.833 -9.33301 -67.5 -19s-41.5 -23.167 -59.5 -40.5s-32.667 -40 -44 -68c-6.66699 -16 -15.5 -27.333 -26.5 -34
s-25.167 -10 -42.5 -10l-87 -1c-21.333 0 -37.166 4.66699 -47.499 14s-11.833 28.666 -4.5 57.999c12 46 33.333 87 64 123s67 66.5 109 91.5s87.667 44 137 57s99 19.5 149 19.5c55.333 0 107.333 -7.66699 156 -23s91.334 -37.166 128.001 -65.499
s65.667 -62.5 87 -102.5s32.333 -84.667 33 -134l8 -720c0 -10.667 -3.83301 -20.334 -11.5 -29.001s-17.167 -13 -28.5 -13h-135c-12.667 0 -23.334 3.83301 -32.001 11.5s-13 17.834 -13 30.501v46c0 13.333 -5.66699 21 -17 23s-22.666 -1.66699 -33.999 -11
c-30 -26.667 -59.667 -48 -89 -64s-58.333 -28.333 -87 -37s-57 -14.334 -85 -17.001s-55.667 -4 -83 -4c-55.333 0 -103 8.16699 -143 24.5s-73 38.833 -99 67.5s-45.333 62.167 -58 100.5s-18.667 79.166 -18 122.499c0.666992 42.667 7 80.167 19 112.5
s27.833 60.5 47.5 84.5s42.167 44.167 67.5 60.5s51.666 29.5 78.999 39.5c35.333 13.333 73 23.5 113 30.5s79.5 12.833 118.5 17.5s76 9.5 111 14.5s65.167 12.5 90.5 22.5c28 13.333 47.167 28.833 57.5 46.5s15.833 37.167 16.5 58.5zM279.999 300.002
c0 -29.333 7.5 -52.5 22.5 -69.5s34.667 -29.167 59 -36.5s51.666 -10.833 81.999 -10.5s60.5 3.5 90.5 9.5s58.167 13.833 84.5 23.5s47.833 20.167 64.5 31.5c24.667 16 43.834 34.833 57.501 56.5s23.667 43.167 30 64.5s10.166 41 11.499 59s2 31.667 2 41
c0 13.333 -3.83301 22.5 -11.5 27.5s-16.834 5.83301 -27.501 2.5c-35.333 -10.667 -71.166 -19.167 -107.499 -25.5l-106 -18c-34.333 -5.66699 -66.666 -11.667 -96.999 -18s-57 -15 -80 -26s-41.167 -25.333 -54.5 -43s-20 -40.5 -20 -68.5zM893.999 1210
c6 -6 9.33203 -12.667 9.99902 -20s-0.833008 -14.333 -4.5 -21s-9 -12.167 -16 -16.5s-14.5 -6.5 -22.5 -6.5h-100c-12.667 0 -22.334 5.33301 -29.001 16l-130 234c-3.33301 6.66699 -8.16602 10 -14.499 10s-11.166 -3.33301 -14.499 -10l-130 -234
c-6.66699 -10.667 -17.334 -16 -32.001 -16h-100c-9.33301 0 -17.166 2.33301 -23.499 7s-11 10.334 -14 17.001s-4.16699 13.667 -3.5 21s3.66699 13.666 9 18.999l235 247c4.66699 4.66699 9.16699 8.5 13.5 11.5s10.166 4.5 17.499 4.5h87
c6.66699 0 11.834 -1.66699 15.501 -5s7.16699 -7 10.5 -11z" />
    <glyph glyph-name="atilde" unicode="&#xe3;" horiz-adv-x="1086" 
d="M787 780c0 20 -6.00098 37.502 -18.001 52.502s-28 27.667 -48 38s-42.667 18 -68 23s-51 7.5 -77 7.5c-22 0 -44.667 -1.5 -68 -4.5s-45.833 -9.33301 -67.5 -19s-41.5 -23.167 -59.5 -40.5s-32.667 -40 -44 -68c-6.66699 -16 -15.5 -27.333 -26.5 -34
s-25.167 -10 -42.5 -10l-87 -1c-21.333 0 -37.166 4.66699 -47.499 14s-11.833 28.666 -4.5 57.999c12 46 33.333 87 64 123s67 66.5 109 91.5s87.667 44 137 57s99 19.5 149 19.5c55.333 0 107.333 -7.66699 156 -23s91.334 -37.166 128.001 -65.499
s65.667 -62.5 87 -102.5s32.333 -84.667 33 -134l8 -720c0 -10.667 -3.83301 -20.334 -11.5 -29.001s-17.167 -13 -28.5 -13h-135c-12.667 0 -23.334 3.83301 -32.001 11.5s-13 17.834 -13 30.501v46c0 13.333 -5.66699 21 -17 23s-22.666 -1.66699 -33.999 -11
c-30 -26.667 -59.667 -48 -89 -64s-58.333 -28.333 -87 -37s-57 -14.334 -85 -17.001s-55.667 -4 -83 -4c-55.333 0 -103 8.16699 -143 24.5s-73 38.833 -99 67.5s-45.333 62.167 -58 100.5s-18.667 79.166 -18 122.499c0.666992 42.667 7 80.167 19 112.5
s27.833 60.5 47.5 84.5s42.167 44.167 67.5 60.5s51.666 29.5 78.999 39.5c35.333 13.333 73 23.5 113 30.5s79.5 12.833 118.5 17.5s76 9.5 111 14.5s65.167 12.5 90.5 22.5c28 13.333 47.167 28.833 57.5 46.5s15.833 37.167 16.5 58.5zM279.999 300.002
c0 -29.333 7.5 -52.5 22.5 -69.5s34.667 -29.167 59 -36.5s51.666 -10.833 81.999 -10.5s60.5 3.5 90.5 9.5s58.167 13.833 84.5 23.5s47.833 20.167 64.5 31.5c24.667 16 43.834 34.833 57.501 56.5s23.667 43.167 30 64.5s10.166 41 11.499 59s2 31.667 2 41
c0 13.333 -3.83301 22.5 -11.5 27.5s-16.834 5.83301 -27.501 2.5c-35.333 -10.667 -71.166 -19.167 -107.499 -25.5l-106 -18c-34.333 -5.66699 -66.666 -11.667 -96.999 -18s-57 -15 -80 -26s-41.167 -25.333 -54.5 -43s-20 -40.5 -20 -68.5zM867.999 1454
c1.33301 -24.667 -2.66504 -48.333 -11.998 -71s-22.166 -42.667 -38.499 -60s-35.166 -31.166 -56.499 -41.499s-43.333 -15.5 -66 -15.5c-30.667 0 -55.834 4.83301 -75.501 14.5s-37.834 20.167 -54.501 31.5s-33.834 21.833 -51.501 31.5s-39.5 14.5 -65.5 14.5
c-15.333 0 -30 -2.33301 -44 -7s-27.167 -10.834 -39.5 -18.501s-23.666 -16 -33.999 -25s-18.833 -17.833 -25.5 -26.5c-3.33301 -2.66699 -7.33301 -4.16699 -12 -4.5s-9.16699 0 -13.5 1s-8 3 -11 6s-4.5 6.5 -4.5 10.5c-0.666992 28.667 3.5 55 12.5 79
s21.667 44.833 38 62.5s35.833 31.334 58.5 41.001s47 14.5 73 14.5c18.667 0 34.5 -2.16699 47.5 -6.5s24.667 -9.83301 35 -16.5s20.333 -13.667 30 -21s20.667 -14.333 33 -21s26.666 -12.167 42.999 -16.5s36.166 -6.5 59.499 -6.5c24.667 0 48 5.66699 70 17
s43 25.666 63 42.999c6 7.33301 14.167 10 24.5 8s15.833 -7.66699 16.5 -17z" />
    <glyph glyph-name="adieresis" unicode="&#xe4;" horiz-adv-x="1086" 
d="M787 780c0 20 -6.00098 37.502 -18.001 52.502s-28 27.667 -48 38s-42.667 18 -68 23s-51 7.5 -77 7.5c-22 0 -44.667 -1.5 -68 -4.5s-45.833 -9.33301 -67.5 -19s-41.5 -23.167 -59.5 -40.5s-32.667 -40 -44 -68c-6.66699 -16 -15.5 -27.333 -26.5 -34
s-25.167 -10 -42.5 -10l-87 -1c-21.333 0 -37.166 4.66699 -47.499 14s-11.833 28.666 -4.5 57.999c12 46 33.333 87 64 123s67 66.5 109 91.5s87.667 44 137 57s99 19.5 149 19.5c55.333 0 107.333 -7.66699 156 -23s91.334 -37.166 128.001 -65.499
s65.667 -62.5 87 -102.5s32.333 -84.667 33 -134l8 -720c0 -10.667 -3.83301 -20.334 -11.5 -29.001s-17.167 -13 -28.5 -13h-135c-12.667 0 -23.334 3.83301 -32.001 11.5s-13 17.834 -13 30.501v46c0 13.333 -5.66699 21 -17 23s-22.666 -1.66699 -33.999 -11
c-30 -26.667 -59.667 -48 -89 -64s-58.333 -28.333 -87 -37s-57 -14.334 -85 -17.001s-55.667 -4 -83 -4c-55.333 0 -103 8.16699 -143 24.5s-73 38.833 -99 67.5s-45.333 62.167 -58 100.5s-18.667 79.166 -18 122.499c0.666992 42.667 7 80.167 19 112.5
s27.833 60.5 47.5 84.5s42.167 44.167 67.5 60.5s51.666 29.5 78.999 39.5c35.333 13.333 73 23.5 113 30.5s79.5 12.833 118.5 17.5s76 9.5 111 14.5s65.167 12.5 90.5 22.5c28 13.333 47.167 28.833 57.5 46.5s15.833 37.167 16.5 58.5zM279.999 300.002
c0 -29.333 7.5 -52.5 22.5 -69.5s34.667 -29.167 59 -36.5s51.666 -10.833 81.999 -10.5s60.5 3.5 90.5 9.5s58.167 13.833 84.5 23.5s47.833 20.167 64.5 31.5c24.667 16 43.834 34.833 57.501 56.5s23.667 43.167 30 64.5s10.166 41 11.499 59s2 31.667 2 41
c0 13.333 -3.83301 22.5 -11.5 27.5s-16.834 5.83301 -27.501 2.5c-35.333 -10.667 -71.166 -19.167 -107.499 -25.5l-106 -18c-34.333 -5.66699 -66.666 -11.667 -96.999 -18s-57 -15 -80 -26s-41.167 -25.333 -54.5 -43s-20 -40.5 -20 -68.5zM694.999 1231
c-12.667 0 -23.166 4.50098 -31.499 13.501s-12.5 19.833 -12.5 32.5l2 151c0 12.667 4.5 23.167 13.5 31.5s19.5 12.5 31.5 12.5h92c12 0 22.667 -4.33301 32 -13s14 -19.334 14 -32.001l3 -150c0 -12.667 -4.33301 -23.5 -13 -32.5s-19.334 -13.5 -32.001 -13.5h-99z
M384 1231c-12.667 0 -23.166 4.50098 -31.499 13.501s-12.5 19.833 -12.5 32.5l2 151c0 12.667 4.5 23.167 13.5 31.5s19.5 12.5 31.5 12.5h92c12 0 22.667 -4.33301 32 -13s14 -19.334 14 -32.001l3 -150c0 -12.667 -4.33301 -23.5 -13 -32.5s-19.334 -13.5 -32.001 -13.5
h-99z" />
    <glyph glyph-name="agrave.001" unicode="&#xe5;" horiz-adv-x="1086" 
d="M787 780c0 20 -6.00098 37.502 -18.001 52.502s-28 27.667 -48 38s-42.667 18 -68 23s-51 7.5 -77 7.5c-22 0 -44.667 -1.5 -68 -4.5s-45.833 -9.33301 -67.5 -19s-41.5 -23.167 -59.5 -40.5s-32.667 -40 -44 -68c-6.66699 -16 -15.5 -27.333 -26.5 -34
s-25.167 -10 -42.5 -10l-87 -1c-21.333 0 -37.166 4.66699 -47.499 14s-11.833 28.666 -4.5 57.999c12 46 33.333 87 64 123s67 66.5 109 91.5s87.667 44 137 57s99 19.5 149 19.5c55.333 0 107.333 -7.66699 156 -23s91.334 -37.166 128.001 -65.499
s65.667 -62.5 87 -102.5s32.333 -84.667 33 -134l8 -720c0 -10.667 -3.83301 -20.334 -11.5 -29.001s-17.167 -13 -28.5 -13h-135c-12.667 0 -23.334 3.83301 -32.001 11.5s-13 17.834 -13 30.501v46c0 13.333 -5.66699 21 -17 23s-22.666 -1.66699 -33.999 -11
c-30 -26.667 -59.667 -48 -89 -64s-58.333 -28.333 -87 -37s-57 -14.334 -85 -17.001s-55.667 -4 -83 -4c-55.333 0 -103 8.16699 -143 24.5s-73 38.833 -99 67.5s-45.333 62.167 -58 100.5s-18.667 79.166 -18 122.499c0.666992 42.667 7 80.167 19 112.5
s27.833 60.5 47.5 84.5s42.167 44.167 67.5 60.5s51.666 29.5 78.999 39.5c35.333 13.333 73 23.5 113 30.5s79.5 12.833 118.5 17.5s76 9.5 111 14.5s65.167 12.5 90.5 22.5c28 13.333 47.167 28.833 57.5 46.5s15.833 37.167 16.5 58.5zM279.999 300.002
c0 -29.333 7.5 -52.5 22.5 -69.5s34.667 -29.167 59 -36.5s51.666 -10.833 81.999 -10.5s60.5 3.5 90.5 9.5s58.167 13.833 84.5 23.5s47.833 20.167 64.5 31.5c24.667 16 43.834 34.833 57.501 56.5s23.667 43.167 30 64.5s10.166 41 11.499 59s2 31.667 2 41
c0 13.333 -3.83301 22.5 -11.5 27.5s-16.834 5.83301 -27.501 2.5c-35.333 -10.667 -71.166 -19.167 -107.499 -25.5l-106 -18c-34.333 -5.66699 -66.666 -11.667 -96.999 -18s-57 -15 -80 -26s-41.167 -25.333 -54.5 -43s-20 -40.5 -20 -68.5zM567.999 1596
c29.333 0 56.666 -5.5 81.999 -16.5s47.166 -25.833 65.499 -44.5s32.833 -40.5 43.5 -65.5s16 -51.833 16 -80.5s-5.33301 -55.334 -16 -80.001s-25.167 -46.167 -43.5 -64.5s-40.166 -32.833 -65.499 -43.5s-52.666 -16 -81.999 -16c-28 0 -54.5 5.33301 -79.5 16
s-46.667 25.167 -65 43.5s-33 39.833 -44 64.5s-16.5 51.334 -16.5 80.001s5.5 55.5 16.5 80.5s25.667 46.833 44 65.5s40 33.5 65 44.5s51.5 16.5 79.5 16.5zM567.999 1290c32.667 0 58 8.66699 76 26s27 41.666 27 72.999c0 32.667 -9 57.5 -27 74.5
s-43.333 25.5 -76 25.5c-30.667 0 -54.834 -8.5 -72.501 -25.5s-26.5 -41.833 -26.5 -74.5c0 -31.333 8.83301 -55.666 26.5 -72.999s41.834 -26 72.501 -26z" />
    <glyph glyph-name="ae" unicode="&#xe6;" horiz-adv-x="1939" 
d="M1323 1087c74.667 0 143.838 -13.3369 207.505 -40.0039s119 -64 166 -112s84.667 -105.5 113 -172.5s44.833 -141.167 49.5 -222.5c0 -11.333 -4.33301 -21.333 -13 -30s-17.667 -13 -27 -13h-791c-12.667 -0.666992 -19 -8 -19 -22
c6.66699 -52.667 19.334 -97.5 38.001 -134.5s42 -67 70 -90s59.667 -39.667 95 -50s72.666 -15.5 111.999 -15.5c20.667 0 42.667 2 66 6s46.666 11.167 69.999 21.5s45.666 24.666 66.999 42.999s40 41.833 56 70.5c3.33301 6.66699 8 11.334 14 14.001s12 4 18 4h142
c8.66699 0 16.334 -2.16699 23.001 -6.5s12 -10 16 -17s6 -14.5 6 -22.5s-2 -15.667 -6 -23c-20 -42 -45.5 -81.167 -76.5 -117.5s-66.833 -67.666 -107.5 -93.999s-85.334 -47.166 -134.001 -62.499s-101 -23 -157 -23c-50 0 -94.833 6.33301 -134.5 19
s-75.834 29.5 -108.501 50.5s-62.667 44.833 -90 71.5s-53.333 54 -78 82c-2 4.66699 -6.16699 7.16699 -12.5 7.5s-10.833 -2.16699 -13.5 -7.5c-22 -26 -47.5 -52.167 -76.5 -78.5s-62.167 -50.333 -99.5 -72s-79 -39.167 -125 -52.5s-96.667 -20 -152 -20
s-105.5 9.66699 -150.5 29s-83.167 44.5 -114.5 75.5s-55.333 65.833 -72 104.5s-24.334 77.334 -23.001 116.001c1.33301 73.333 20.666 134.5 57.999 183.5s85.666 85.5 144.999 109.5c46 18.667 89.5 30.334 130.5 35.001s79.5 7.33398 115.5 8.00098s69.667 1.5 101 2.5
s60 6.83301 86 17.5c25.333 12 45 27.667 59 47s21 40.666 21 63.999c0 20 -4.16699 37.167 -12.5 51.5s-19.333 26.333 -33 36s-28.667 17.5 -45 23.5s-32.5 10.5 -48.5 13.5s-30.833 4.83301 -44.5 5.5s-24.5 1 -32.5 1c-28.667 0 -55.167 -1.83301 -79.5 -5.5
s-46.666 -10.334 -66.999 -20.001s-38.333 -22.667 -54 -39s-28.834 -37.166 -39.501 -62.499c-5.33301 -13.333 -9.66602 -22.666 -12.999 -27.999s-11.333 -9 -24 -11h-128c-19.333 0 -33.333 6.16699 -42 18.5s-8.66699 30.833 0 55.5c18 50.667 43.167 93.667 75.5 129
s69.5 64 111.5 86s87 38 135 48s96.333 15 145 15c35.333 0 69 -3.83301 101 -11.5s62.333 -17.834 91 -30.501s55.667 -27.167 81 -43.5s48.666 -32.833 69.999 -49.5c2.66699 -4 6.5 -6 11.5 -6s9.5 1.66699 13.5 5c22.667 19.333 47.334 37.333 74.001 54s55 31 85 43
s62 21.5 96 28.5s70.333 10.5 109 10.5zM688.004 258.996c24 20.667 42.5029 41.3359 55.5029 62.0029s22.333 40.667 28 60s8.5 37.833 8.5 55.5s-0.666992 34.167 -2 49.5c-0.666992 5.33301 -1.66699 9.16602 -3 11.499s-4.33301 2.83301 -9 1.5
c-35.333 -9.33301 -70 -16 -104 -20s-66.5 -7.33301 -97.5 -10s-60.333 -5.33398 -88 -8.00098s-52.834 -7.33398 -75.501 -14.001c-12.667 -4 -25.834 -8.5 -39.501 -13.5s-26.334 -12.5 -38.001 -22.5s-21 -23 -28 -39s-10.5 -36.333 -10.5 -61
c0.666992 -29.333 8.83398 -53 24.501 -71s35.667 -31.333 60 -40s51.666 -13 81.999 -13s60.333 3 90 9s57.5 14.5 83.5 25.5s47 23.5 63 37.5zM1594.01 667.998c8 0 14.499 3.50098 19.499 10.501s5.5 14.5 1.5 22.5c-16.667 34 -36.167 63.5 -58.5 88.5
s-46.166 45.667 -71.499 62s-51.833 28.666 -79.5 36.999s-55.167 12.5 -82.5 12.5c-68 0 -127.333 -18.167 -178 -54.5s-90.667 -85.5 -120 -147.5c-3.33301 -8.66699 -3 -16 1 -22s10.667 -9 20 -9h548z" />
    <glyph glyph-name="ccedilla" unicode="&#xe7;" horiz-adv-x="1181" 
d="M675 -21c-7.33301 -0.666992 -14.4961 -2.33496 -21.4961 -5.00195s-10.5 -8.66699 -10.5 -18v-27.5c0 -5.66699 0.5 -9.66699 1.5 -12s2.66699 -4 5 -5s5.83301 -3.16699 10.5 -6.5l29.5 -26c11 -10 21.167 -21.667 30.5 -35s17.166 -28.666 23.499 -45.999
s9.5 -37 9.5 -59c0 -30.667 -4.83301 -57.834 -14.5 -81.501s-22.834 -43.667 -39.501 -60s-35.667 -28.666 -57 -36.999s-44 -12.5 -68 -12.5c-19.333 0 -38.666 3.16699 -57.999 9.5s-37 15.833 -53 28.5s-29.667 28.334 -41 47.001s-19 40.667 -23 66
c0.666992 5.33301 2.83398 10.833 6.50098 16.5s9.16699 8.5 16.5 8.5h74c5.33301 0 9.83301 -1.66699 13.5 -5s6.5 -7.33301 8.5 -12c3.33301 -11.333 9.83301 -21.333 19.5 -30s21.834 -13 36.501 -13c20 0 34.5 7.16699 43.5 21.5s13.5 32.166 13.5 53.499
s-5.66699 39.833 -17 55.5s-27.333 22.834 -48 21.501c-11.333 -0.666992 -20.333 -2.66699 -27 -6s-13.334 -5 -20.001 -5c-5.33301 0 -10.5 2.33301 -15.5 7s-7.5 9.66699 -7.5 15l5 141c0 4.66699 -1.33301 8.33398 -4 11.001s-5.66699 4.66699 -9 6s-7 2.33301 -11 3
s-7.33301 1.33398 -10 2.00098c-60 14 -114.5 37 -163.5 69s-90.833 71.333 -125.5 118s-61.334 99.667 -80.001 159s-28 123.333 -28 192c0 76 11.333 148 34 216s56.5 127.333 101.5 178s100.5 90.834 166.5 120.501s142.667 44.5 230 44.5
c58.667 0 113.334 -8.66699 164.001 -26s96.167 -40.166 136.5 -68.499s74.833 -61.166 103.5 -98.499s50.334 -76 65.001 -116c4 -7.33301 5.5 -14.666 4.5 -21.999s-3.83301 -13.833 -8.5 -19.5s-10.334 -10.334 -17.001 -14.001s-13.334 -5.5 -20.001 -5.5h-142
c-17.333 0 -29 7 -35 21c-14 28.667 -31 53.167 -51 73.5s-41.333 37.166 -64 50.499s-45.834 23.166 -69.501 29.499s-45.834 9.5 -66.501 9.5c-50 0 -94.833 -10.333 -134.5 -31s-73.5 -48 -101.5 -82s-49.5 -72.833 -64.5 -116.5s-22.5 -88.5 -22.5 -134.5
c0 -58.667 8.16699 -110 24.5 -154s38.833 -80.667 67.5 -110s62.667 -51.333 102 -66s82.333 -22 129 -22c26 0 52.5 4 79.5 12s53.167 20 78.5 36s48.833 36 70.5 60s40.167 52 55.5 84c3.33301 6 8 11.5 14 16.5s14 7.5 24 7.5h132
c10 -0.666992 18.167 -3.33398 24.5 -8.00098s11.166 -10 14.499 -16s5.16602 -12.333 5.49902 -19s-0.5 -12.334 -2.5 -17.001c-16 -46 -36.667 -89.333 -62 -130s-55.666 -76.834 -90.999 -108.501s-75.5 -58.167 -120.5 -79.5s-94.833 -36 -149.5 -44z" />
    <glyph glyph-name="egrave" unicode="&#xe8;" horiz-adv-x="1176" 
d="M1117 537c-0.666992 -12 -4.50293 -22.1729 -11.5029 -30.5059s-16.5 -12.5 -28.5 -12.5h-791c-12.667 -0.666992 -19 -8 -19 -22c6.66699 -52.667 19.667 -97.167 39 -133.5s43.166 -66 71.499 -89s60.5 -39.5 96.5 -49.5s73.667 -15 113 -15
c20.667 0 42.334 2.33301 65.001 7s45.334 12.334 68.001 23.001s44.5 24.834 65.5 42.501s39.833 39.834 56.5 66.501c8.66699 12 19.667 18 33 18h142c8.66699 0 16.334 -2.33301 23.001 -7s11.834 -10.5 15.501 -17.5s5.66699 -14.5 6 -22.5s-1.5 -15.333 -5.5 -22
c-20 -42 -45.5 -81 -76.5 -117s-66.5 -67.167 -106.5 -93.5s-84.167 -47 -132.5 -62s-100.5 -22.5 -156.5 -22.5c-78 0 -150 13.833 -216 41.5s-122.667 65.834 -170 114.501s-84.333 106.167 -111 172.5s-40 138.5 -40 216.5c0 80 12 154.333 36 223
s59 128.334 105 179.001s102.5 90.334 169.5 119.001s143.167 43 228.5 43c74.667 0 143.5 -13.333 206.5 -40s117.667 -64.334 164 -113.001s83.333 -106.667 111 -174s44.167 -141.666 49.5 -222.999zM850.997 664.994c9.33301 0 16.168 3.16797 20.501 9.50098
s4.83301 14.166 1.5 23.499c-34 68.667 -76.5 119.667 -127.5 153s-104.5 50 -160.5 50c-34 0 -65.5 -4.83301 -94.5 -14.5s-55.667 -23.5 -80 -41.5s-46.333 -39.5 -66 -64.5s-36.834 -52.833 -51.501 -83.5c-4 -10.667 -3.5 -18.667 1.5 -24s12.5 -8 22.5 -8h534z
M430.999 1400c-6 6 -9.33203 13.168 -9.99902 21.501s0.666016 16.333 3.99902 24s8.16602 14 14.499 19s13.5 7.5 21.5 7.5h96c16.667 -2.66699 28 -9.33398 34 -20.001l135 -240c7.33301 -12.667 9.33301 -24.167 6 -34.5s-9.16602 -18.333 -17.499 -24
s-18 -8.16699 -29 -7.5s-20.167 5.66699 -27.5 15z" />
    <glyph glyph-name="eacute" unicode="&#xe9;" horiz-adv-x="1176" 
d="M1117 537c-0.666992 -12 -4.50293 -22.1729 -11.5029 -30.5059s-16.5 -12.5 -28.5 -12.5h-791c-12.667 -0.666992 -19 -8 -19 -22c6.66699 -52.667 19.667 -97.167 39 -133.5s43.166 -66 71.499 -89s60.5 -39.5 96.5 -49.5s73.667 -15 113 -15
c20.667 0 42.334 2.33301 65.001 7s45.334 12.334 68.001 23.001s44.5 24.834 65.5 42.501s39.833 39.834 56.5 66.501c8.66699 12 19.667 18 33 18h142c8.66699 0 16.334 -2.33301 23.001 -7s11.834 -10.5 15.501 -17.5s5.66699 -14.5 6 -22.5s-1.5 -15.333 -5.5 -22
c-20 -42 -45.5 -81 -76.5 -117s-66.5 -67.167 -106.5 -93.5s-84.167 -47 -132.5 -62s-100.5 -22.5 -156.5 -22.5c-78 0 -150 13.833 -216 41.5s-122.667 65.834 -170 114.501s-84.333 106.167 -111 172.5s-40 138.5 -40 216.5c0 80 12 154.333 36 223
s59 128.334 105 179.001s102.5 90.334 169.5 119.001s143.167 43 228.5 43c74.667 0 143.5 -13.333 206.5 -40s117.667 -64.334 164 -113.001s83.333 -106.667 111 -174s44.167 -141.666 49.5 -222.999zM850.997 664.994c9.33301 0 16.168 3.16797 20.501 9.50098
s4.83301 14.166 1.5 23.499c-34 68.667 -76.5 119.667 -127.5 153s-104.5 50 -160.5 50c-34 0 -65.5 -4.83301 -94.5 -14.5s-55.667 -23.5 -80 -41.5s-46.333 -39.5 -66 -64.5s-36.834 -52.833 -51.501 -83.5c-4 -10.667 -3.5 -18.667 1.5 -24s12.5 -8 22.5 -8h534z
M521.999 1161c-8 -10 -17.5 -15.332 -28.5 -15.999s-20.5 1.66602 -28.5 6.99902s-13.667 13.333 -17 24s-1.33301 22.667 6 36l135 240c6 10 17.667 16.667 35 20h97c10 0 18.333 -2.66699 25 -8s11.167 -11.833 13.5 -19.5s2.83301 -15.5 1.5 -23.5s-5 -15 -11 -21z" />
    <glyph glyph-name="ecircumflex" unicode="&#xea;" horiz-adv-x="1176" 
d="M1117 537c-0.666992 -12 -4.50293 -22.1729 -11.5029 -30.5059s-16.5 -12.5 -28.5 -12.5h-791c-12.667 -0.666992 -19 -8 -19 -22c6.66699 -52.667 19.667 -97.167 39 -133.5s43.166 -66 71.499 -89s60.5 -39.5 96.5 -49.5s73.667 -15 113 -15
c20.667 0 42.334 2.33301 65.001 7s45.334 12.334 68.001 23.001s44.5 24.834 65.5 42.501s39.833 39.834 56.5 66.501c8.66699 12 19.667 18 33 18h142c8.66699 0 16.334 -2.33301 23.001 -7s11.834 -10.5 15.501 -17.5s5.66699 -14.5 6 -22.5s-1.5 -15.333 -5.5 -22
c-20 -42 -45.5 -81 -76.5 -117s-66.5 -67.167 -106.5 -93.5s-84.167 -47 -132.5 -62s-100.5 -22.5 -156.5 -22.5c-78 0 -150 13.833 -216 41.5s-122.667 65.834 -170 114.501s-84.333 106.167 -111 172.5s-40 138.5 -40 216.5c0 80 12 154.333 36 223
s59 128.334 105 179.001s102.5 90.334 169.5 119.001s143.167 43 228.5 43c74.667 0 143.5 -13.333 206.5 -40s117.667 -64.334 164 -113.001s83.333 -106.667 111 -174s44.167 -141.666 49.5 -222.999zM850.997 664.994c9.33301 0 16.168 3.16797 20.501 9.50098
s4.83301 14.166 1.5 23.499c-34 68.667 -76.5 119.667 -127.5 153s-104.5 50 -160.5 50c-34 0 -65.5 -4.83301 -94.5 -14.5s-55.667 -23.5 -80 -41.5s-46.333 -39.5 -66 -64.5s-36.834 -52.833 -51.501 -83.5c-4 -10.667 -3.5 -18.667 1.5 -24s12.5 -8 22.5 -8h534z
M909.999 1210c6 -6 9.33203 -12.667 9.99902 -20s-0.833008 -14.333 -4.5 -21s-9 -12.167 -16 -16.5s-14.5 -6.5 -22.5 -6.5h-100c-12.667 0 -22.334 5.33301 -29.001 16l-130 234c-3.33301 6.66699 -8.16602 10 -14.499 10s-11.166 -3.33301 -14.499 -10l-130 -234
c-6.66699 -10.667 -17.334 -16 -32.001 -16h-100c-9.33301 0 -17.166 2.33301 -23.499 7s-11 10.334 -14 17.001s-4.16699 13.667 -3.5 21s3.66699 13.666 9 18.999l235 247c4.66699 4.66699 9.16699 8.5 13.5 11.5s10.166 4.5 17.499 4.5h87
c6.66699 0 11.834 -1.66699 15.501 -5s7.16699 -7 10.5 -11z" />
    <glyph glyph-name="edieresis" unicode="&#xeb;" horiz-adv-x="1176" 
d="M1117 537c-0.666992 -12 -4.50293 -22.1729 -11.5029 -30.5059s-16.5 -12.5 -28.5 -12.5h-791c-12.667 -0.666992 -19 -8 -19 -22c6.66699 -52.667 19.667 -97.167 39 -133.5s43.166 -66 71.499 -89s60.5 -39.5 96.5 -49.5s73.667 -15 113 -15
c20.667 0 42.334 2.33301 65.001 7s45.334 12.334 68.001 23.001s44.5 24.834 65.5 42.501s39.833 39.834 56.5 66.501c8.66699 12 19.667 18 33 18h142c8.66699 0 16.334 -2.33301 23.001 -7s11.834 -10.5 15.501 -17.5s5.66699 -14.5 6 -22.5s-1.5 -15.333 -5.5 -22
c-20 -42 -45.5 -81 -76.5 -117s-66.5 -67.167 -106.5 -93.5s-84.167 -47 -132.5 -62s-100.5 -22.5 -156.5 -22.5c-78 0 -150 13.833 -216 41.5s-122.667 65.834 -170 114.501s-84.333 106.167 -111 172.5s-40 138.5 -40 216.5c0 80 12 154.333 36 223
s59 128.334 105 179.001s102.5 90.334 169.5 119.001s143.167 43 228.5 43c74.667 0 143.5 -13.333 206.5 -40s117.667 -64.334 164 -113.001s83.333 -106.667 111 -174s44.167 -141.666 49.5 -222.999zM850.997 664.994c9.33301 0 16.168 3.16797 20.501 9.50098
s4.83301 14.166 1.5 23.499c-34 68.667 -76.5 119.667 -127.5 153s-104.5 50 -160.5 50c-34 0 -65.5 -4.83301 -94.5 -14.5s-55.667 -23.5 -80 -41.5s-46.333 -39.5 -66 -64.5s-36.834 -52.833 -51.501 -83.5c-4 -10.667 -3.5 -18.667 1.5 -24s12.5 -8 22.5 -8h534z
M701.999 1231c-12.667 0 -23.166 4.50098 -31.499 13.501s-12.5 19.833 -12.5 32.5l2 151c0 12.667 4.5 23.167 13.5 31.5s19.5 12.5 31.5 12.5h92c12 0 22.667 -4.33301 32 -13s14 -19.334 14 -32.001l3 -150c0 -12.667 -4.33301 -23.5 -13 -32.5
s-19.334 -13.5 -32.001 -13.5h-99zM391 1231c-12.667 0 -23.166 4.50098 -31.499 13.501s-12.5 19.833 -12.5 32.5l2 151c0 12.667 4.5 23.167 13.5 31.5s19.5 12.5 31.5 12.5h92c12 0 22.667 -4.33301 32 -13s14 -19.334 14 -32.001l3 -150
c0 -12.667 -4.33301 -23.5 -13 -32.5s-19.334 -13.5 -32.001 -13.5h-99z" />
    <glyph glyph-name="igrave" unicode="&#xec;" horiz-adv-x="533" 
d="M403 40c0 -10.667 -4.16797 -19.501 -12.501 -26.501s-18.166 -11.5 -29.499 -13.5h-165c-11.333 0 -21.333 4.5 -30 13.5s-13 18.5 -13 28.5l25 985c0 10.667 4.33301 20.334 13 29.001s18.667 13 30 13h113c11.333 0 21.333 -4.16699 30 -12.5s13.667 -18.833 15 -31.5
zM80.999 1400c-6 6 -9.33203 13.168 -9.99902 21.501s0.666016 16.333 3.99902 24s8.16602 14 14.499 19s13.5 7.5 21.5 7.5h96c16.667 -2.66699 28 -9.33398 34 -20.001l135 -240c7.33301 -12.667 9.33301 -24.167 6 -34.5s-9.16602 -18.333 -17.499 -24
s-18 -8.16699 -29 -7.5s-20.167 5.66699 -27.5 15z" />
    <glyph glyph-name="iacute" unicode="&#xed;" horiz-adv-x="549" 
d="M380 40c0 -10.667 -4.16797 -19.501 -12.501 -26.501s-18.166 -11.5 -29.499 -13.5h-165c-11.333 0 -21.333 4.5 -30 13.5s-13 18.5 -13 28.5l25 985c0 10.667 4.33301 20.334 13 29.001s18.667 13 30 13h113c11.333 0 21.333 -4.16699 30 -12.5s13.667 -18.833 15 -31.5
zM233.999 1161c-8 -10 -17.5 -15.332 -28.5 -15.999s-20.5 1.66602 -28.5 6.99902s-13.667 13.333 -17 24s-1.33301 22.667 6 36l135 240c6 10 17.667 16.667 35 20h97c10 0 18.333 -2.66699 25 -8s11.167 -11.833 13.5 -19.5s2.83301 -15.5 1.5 -23.5s-5 -15 -11 -21z" />
    <glyph glyph-name="icircumflex" unicode="&#xee;" horiz-adv-x="756" 
d="M505 40c0 -10.667 -4.16797 -19.501 -12.501 -26.501s-18.166 -11.5 -29.499 -13.5h-165c-11.333 0 -21.333 4.5 -30 13.5s-13 18.5 -13 28.5l25 985c0 10.667 4.33301 20.334 13 29.001s18.667 13 30 13h113c11.333 0 21.333 -4.16699 30 -12.5s13.667 -18.833 15 -31.5
zM684.999 1209c6 -6 9.33203 -12.667 9.99902 -20s-0.833008 -14.333 -4.5 -21s-9 -12.167 -16 -16.5s-14.5 -6.5 -22.5 -6.5h-100c-12.667 0 -22.334 5.33301 -29.001 16l-130 234c-3.33301 6.66699 -8.16602 10 -14.499 10s-11.166 -3.33301 -14.499 -10l-130 -234
c-6.66699 -10.667 -17.334 -16 -32.001 -16h-100c-9.33301 0 -17.166 2.33301 -23.499 7s-11 10.334 -14 17.001s-4.16699 13.667 -3.5 21s3.66699 13.666 9 18.999l235 247c4.66699 4.66699 9.16699 8.5 13.5 11.5s10.166 4.5 17.499 4.5h87
c6.66699 0 11.834 -1.66699 15.501 -5s7.16699 -7 10.5 -11z" />
    <glyph glyph-name="idieresis" unicode="&#xef;" horiz-adv-x="599" 
d="M428 40c0 -10.667 -4.16797 -19.501 -12.501 -26.501s-18.166 -11.5 -29.499 -13.5h-165c-11.333 0 -21.333 4.5 -30 13.5s-13 18.5 -13 28.5l25 985c0 10.667 4.5 20.334 13.5 29.001s19.167 13 30.5 13h112c11.333 0 21.5 -4.16699 30.5 -12.5
s13.833 -18.833 14.5 -31.5zM103.999 1231c-12.667 0 -23.166 4.50098 -31.499 13.501s-12.5 19.833 -12.5 32.5l2 151c0 12.667 4.5 23.167 13.5 31.5s19.5 12.5 31.5 12.5h92c12 0 22.667 -4.33301 32 -13s14 -19.334 14 -32.001l3 -150
c0 -12.667 -4.33301 -23.5 -13 -32.5s-19.334 -13.5 -32.001 -13.5h-99zM395 1231c-12.667 0 -23.166 4.50098 -31.499 13.501s-12.5 19.833 -12.5 32.5l2 151c0 12.667 4.5 23.167 13.5 31.5s19.5 12.5 31.5 12.5h92c12 0 22.667 -4.33301 32 -13s14 -19.334 14 -32.001
l3 -150c0 -12.667 -4.33301 -23.5 -13 -32.5s-19.334 -13.5 -32.001 -13.5h-99z" />
    <glyph glyph-name="ntilde" unicode="&#xf1;" horiz-adv-x="1150" 
d="M1023 42c0 -10.667 -3.83008 -20.335 -11.4971 -29.002s-17.167 -13 -28.5 -13h-135c-12.667 0 -23.334 3.83301 -32.001 11.5s-13 17.834 -13 30.501l7 657c0 28 -3.83301 54.333 -11.5 79s-19.5 46 -35.5 64s-35.833 32.333 -59.5 43s-51.167 16 -82.5 16
c-34.667 0 -69 -8 -103 -24s-64.5 -38.167 -91.5 -66.5s-48.833 -61.666 -65.5 -99.999s-24.667 -79.833 -24 -124.5l6 -544c0 -10.667 -3.83301 -20.334 -11.5 -29.001s-17.167 -13 -28.5 -13h-135c-12.667 0 -23.334 3.83301 -32.001 11.5s-13 17.834 -13 30.501l10 983
c0 12.667 4.5 23.167 13.5 31.5s19.5 12.5 31.5 12.5h109c12 0 22.333 -4.5 31 -13.5s13.334 -19.167 14.001 -30.5l1 -58c0 -4.66699 1.66699 -8.66699 5 -12s7.16602 -5.83301 11.499 -7.5s8.83301 -2.33398 13.5 -2.00098s8.33398 1.83301 11.001 4.5
c38 46.667 81.667 81.167 131 103.5s109 33.5 179 33.5c48.667 0 93.167 -8.66699 133.5 -26s75.166 -40.666 104.499 -69.999s52.166 -63.5 68.499 -102.5s24.833 -80.5 25.5 -124.5zM872.003 1454c1.33301 -24.667 -2.66504 -48.333 -11.998 -71
s-22.166 -42.667 -38.499 -60s-35.166 -31.166 -56.499 -41.499s-43.333 -15.5 -66 -15.5c-30.667 0 -55.834 4.83301 -75.501 14.5s-37.834 20.167 -54.501 31.5s-33.834 21.833 -51.501 31.5s-39.5 14.5 -65.5 14.5c-15.333 0 -30 -2.33301 -44 -7
s-27.167 -10.834 -39.5 -18.501s-23.666 -16 -33.999 -25s-18.833 -17.833 -25.5 -26.5c-3.33301 -2.66699 -7.33301 -4.16699 -12 -4.5s-9.16699 0 -13.5 1s-8 3 -11 6s-4.5 6.5 -4.5 10.5c-0.666992 28.667 3.5 55 12.5 79s21.667 44.833 38 62.5
s35.833 31.334 58.5 41.001s47 14.5 73 14.5c18.667 0 34.5 -2.16699 47.5 -6.5s24.667 -9.83301 35 -16.5s20.333 -13.667 30 -21s20.667 -14.333 33 -21s26.666 -12.167 42.999 -16.5s36.166 -6.5 59.499 -6.5c24.667 0 48 5.66699 70 17s43 25.666 63 42.999
c6 7.33301 14.167 10 24.5 8s15.833 -7.66699 16.5 -17z" />
    <glyph glyph-name="ograve" unicode="&#xf2;" horiz-adv-x="1206" 
d="M599 -22c-72 0 -140.503 13.668 -205.503 41.001s-122.167 65.333 -171.5 114s-88.666 106.667 -117.999 174s-44 141 -44 221c0 76.667 13.667 149 41 217s65 127.333 113 178s104.833 90.667 170.5 120s137.167 44 214.5 44c76 0 146.833 -14.667 212.5 -44
s122.5 -69.333 170.5 -120s85.667 -110 113 -178s41 -140.333 41 -217c0 -53.333 -6.66699 -104 -20 -152s-32.166 -92.333 -56.499 -133s-53.166 -77.334 -86.499 -110.001s-69.833 -60.5 -109.5 -83.5s-82 -40.667 -127 -53s-90.833 -18.5 -137.5 -18.5zM915.997 528.001
c0 51.333 -8.83301 99.666 -26.5 144.999s-41.167 84.833 -70.5 118.5s-63.166 60.334 -101.499 80.001s-77.833 29.5 -118.5 29.5c-44.667 0 -86.5 -9.33301 -125.5 -28s-72.833 -44.334 -101.5 -77.001s-51.167 -71.167 -67.5 -115.5s-24.5 -92.166 -24.5 -143.499
c0 -56 9.16699 -105.833 27.5 -149.5s42.5 -80.5 72.5 -110.5s64.167 -52.833 102.5 -68.5s77.166 -23.5 116.499 -23.5c36 0 72.5 7.33301 109.5 22s70.667 36.5 101 65.5s55.333 64.833 75 107.5s30.167 92 31.5 148zM450.997 1400c-6 6 -9.33203 13.168 -9.99902 21.501
s0.666016 16.333 3.99902 24s8.16602 14 14.499 19s13.5 7.5 21.5 7.5h96c16.667 -2.66699 28 -9.33398 34 -20.001l135 -240c7.33301 -12.667 9.33301 -24.167 6 -34.5s-9.16602 -18.333 -17.499 -24s-18 -8.16699 -29 -7.5s-20.167 5.66699 -27.5 15z" />
    <glyph glyph-name="oacute" unicode="&#xf3;" horiz-adv-x="1206" 
d="M599 -22c-72 0 -140.503 13.668 -205.503 41.001s-122.167 65.333 -171.5 114s-88.666 106.667 -117.999 174s-44 141 -44 221c0 76.667 13.667 149 41 217s65 127.333 113 178s104.833 90.667 170.5 120s137.167 44 214.5 44c76 0 146.833 -14.667 212.5 -44
s122.5 -69.333 170.5 -120s85.667 -110 113 -178s41 -140.333 41 -217c0 -53.333 -6.66699 -104 -20 -152s-32.166 -92.333 -56.499 -133s-53.166 -77.334 -86.499 -110.001s-69.833 -60.5 -109.5 -83.5s-82 -40.667 -127 -53s-90.833 -18.5 -137.5 -18.5zM915.997 528.001
c0 51.333 -8.83301 99.666 -26.5 144.999s-41.167 84.833 -70.5 118.5s-63.166 60.334 -101.499 80.001s-77.833 29.5 -118.5 29.5c-44.667 0 -86.5 -9.33301 -125.5 -28s-72.833 -44.334 -101.5 -77.001s-51.167 -71.167 -67.5 -115.5s-24.5 -92.166 -24.5 -143.499
c0 -56 9.16699 -105.833 27.5 -149.5s42.5 -80.5 72.5 -110.5s64.167 -52.833 102.5 -68.5s77.166 -23.5 116.499 -23.5c36 0 72.5 7.33301 109.5 22s70.667 36.5 101 65.5s55.333 64.833 75 107.5s30.167 92 31.5 148zM517.997 1161c-8 -10 -17.5 -15.332 -28.5 -15.999
s-20.5 1.66602 -28.5 6.99902s-13.667 13.333 -17 24s-1.33301 22.667 6 36l135 240c6 10 17.667 16.667 35 20h97c10 0 18.333 -2.66699 25 -8s11.167 -11.833 13.5 -19.5s2.83301 -15.5 1.5 -23.5s-5 -15 -11 -21z" />
    <glyph glyph-name="ocircumflex" unicode="&#xf4;" horiz-adv-x="1206" 
d="M599 -22c-72 0 -140.503 13.668 -205.503 41.001s-122.167 65.333 -171.5 114s-88.666 106.667 -117.999 174s-44 141 -44 221c0 76.667 13.667 149 41 217s65 127.333 113 178s104.833 90.667 170.5 120s137.167 44 214.5 44c76 0 146.833 -14.667 212.5 -44
s122.5 -69.333 170.5 -120s85.667 -110 113 -178s41 -140.333 41 -217c0 -53.333 -6.66699 -104 -20 -152s-32.166 -92.333 -56.499 -133s-53.166 -77.334 -86.499 -110.001s-69.833 -60.5 -109.5 -83.5s-82 -40.667 -127 -53s-90.833 -18.5 -137.5 -18.5zM915.997 528.001
c0 51.333 -8.83301 99.666 -26.5 144.999s-41.167 84.833 -70.5 118.5s-63.166 60.334 -101.499 80.001s-77.833 29.5 -118.5 29.5c-44.667 0 -86.5 -9.33301 -125.5 -28s-72.833 -44.334 -101.5 -77.001s-51.167 -71.167 -67.5 -115.5s-24.5 -92.166 -24.5 -143.499
c0 -56 9.16699 -105.833 27.5 -149.5s42.5 -80.5 72.5 -110.5s64.167 -52.833 102.5 -68.5s77.166 -23.5 116.499 -23.5c36 0 72.5 7.33301 109.5 22s70.667 36.5 101 65.5s55.333 64.833 75 107.5s30.167 92 31.5 148zM900.997 1210c6 -6 9.33203 -12.667 9.99902 -20
s-0.833008 -14.333 -4.5 -21s-9 -12.167 -16 -16.5s-14.5 -6.5 -22.5 -6.5h-100c-12.667 0 -22.334 5.33301 -29.001 16l-130 234c-3.33301 6.66699 -8.16602 10 -14.499 10s-11.166 -3.33301 -14.499 -10l-130 -234c-6.66699 -10.667 -17.334 -16 -32.001 -16h-100
c-9.33301 0 -17.166 2.33301 -23.499 7s-11 10.334 -14 17.001s-4.16699 13.667 -3.5 21s3.66699 13.666 9 18.999l235 247c4.66699 4.66699 9.16699 8.5 13.5 11.5s10.166 4.5 17.499 4.5h87c6.66699 0 11.834 -1.66699 15.501 -5s7.16699 -7 10.5 -11z" />
    <glyph glyph-name="otilde" unicode="&#xf5;" horiz-adv-x="1206" 
d="M599 -22c-72 0 -140.503 13.668 -205.503 41.001s-122.167 65.333 -171.5 114s-88.666 106.667 -117.999 174s-44 141 -44 221c0 76.667 13.667 149 41 217s65 127.333 113 178s104.833 90.667 170.5 120s137.167 44 214.5 44c76 0 146.833 -14.667 212.5 -44
s122.5 -69.333 170.5 -120s85.667 -110 113 -178s41 -140.333 41 -217c0 -53.333 -6.66699 -104 -20 -152s-32.166 -92.333 -56.499 -133s-53.166 -77.334 -86.499 -110.001s-69.833 -60.5 -109.5 -83.5s-82 -40.667 -127 -53s-90.833 -18.5 -137.5 -18.5zM915.997 528.001
c0 51.333 -8.83301 99.666 -26.5 144.999s-41.167 84.833 -70.5 118.5s-63.166 60.334 -101.499 80.001s-77.833 29.5 -118.5 29.5c-44.667 0 -86.5 -9.33301 -125.5 -28s-72.833 -44.334 -101.5 -77.001s-51.167 -71.167 -67.5 -115.5s-24.5 -92.166 -24.5 -143.499
c0 -56 9.16699 -105.833 27.5 -149.5s42.5 -80.5 72.5 -110.5s64.167 -52.833 102.5 -68.5s77.166 -23.5 116.499 -23.5c36 0 72.5 7.33301 109.5 22s70.667 36.5 101 65.5s55.333 64.833 75 107.5s30.167 92 31.5 148zM901.997 1454
c1.33301 -24.667 -2.66504 -48.333 -11.998 -71s-22.166 -42.667 -38.499 -60s-35.166 -31.166 -56.499 -41.499s-43.333 -15.5 -66 -15.5c-30.667 0 -55.834 4.83301 -75.501 14.5s-37.834 20.167 -54.501 31.5s-33.834 21.833 -51.501 31.5s-39.5 14.5 -65.5 14.5
c-15.333 0 -30 -2.33301 -44 -7s-27.167 -10.834 -39.5 -18.501s-23.666 -16 -33.999 -25s-18.833 -17.833 -25.5 -26.5c-3.33301 -2.66699 -7.33301 -4.16699 -12 -4.5s-9.16699 0 -13.5 1s-8 3 -11 6s-4.5 6.5 -4.5 10.5c-0.666992 28.667 3.5 55 12.5 79
s21.667 44.833 38 62.5s35.833 31.334 58.5 41.001s47 14.5 73 14.5c18.667 0 34.5 -2.16699 47.5 -6.5s24.667 -9.83301 35 -16.5s20.333 -13.667 30 -21s20.667 -14.333 33 -21s26.666 -12.167 42.999 -16.5s36.166 -6.5 59.499 -6.5c24.667 0 48 5.66699 70 17
s43 25.666 63 42.999c6 7.33301 14.167 10 24.5 8s15.833 -7.66699 16.5 -17z" />
    <glyph glyph-name="odieresis" unicode="&#xf6;" horiz-adv-x="1206" 
d="M599 -22c-72 0 -140.503 13.668 -205.503 41.001s-122.167 65.333 -171.5 114s-88.666 106.667 -117.999 174s-44 141 -44 221c0 76.667 13.667 149 41 217s65 127.333 113 178s104.833 90.667 170.5 120s137.167 44 214.5 44c76 0 146.833 -14.667 212.5 -44
s122.5 -69.333 170.5 -120s85.667 -110 113 -178s41 -140.333 41 -217c0 -53.333 -6.66699 -104 -20 -152s-32.166 -92.333 -56.499 -133s-53.166 -77.334 -86.499 -110.001s-69.833 -60.5 -109.5 -83.5s-82 -40.667 -127 -53s-90.833 -18.5 -137.5 -18.5zM915.997 528.001
c0 51.333 -8.83301 99.666 -26.5 144.999s-41.167 84.833 -70.5 118.5s-63.166 60.334 -101.499 80.001s-77.833 29.5 -118.5 29.5c-44.667 0 -86.5 -9.33301 -125.5 -28s-72.833 -44.334 -101.5 -77.001s-51.167 -71.167 -67.5 -115.5s-24.5 -92.166 -24.5 -143.499
c0 -56 9.16699 -105.833 27.5 -149.5s42.5 -80.5 72.5 -110.5s64.167 -52.833 102.5 -68.5s77.166 -23.5 116.499 -23.5c36 0 72.5 7.33301 109.5 22s70.667 36.5 101 65.5s55.333 64.833 75 107.5s30.167 92 31.5 148zM701.997 1231
c-12.667 0 -23.166 4.50098 -31.499 13.501s-12.5 19.833 -12.5 32.5l2 151c0 12.667 4.5 23.167 13.5 31.5s19.5 12.5 31.5 12.5h92c12 0 22.667 -4.33301 32 -13s14 -19.334 14 -32.001l3 -150c0 -12.667 -4.33301 -23.5 -13 -32.5s-19.334 -13.5 -32.001 -13.5h-99z
M390.998 1231c-12.667 0 -23.166 4.50098 -31.499 13.501s-12.5 19.833 -12.5 32.5l2 151c0 12.667 4.5 23.167 13.5 31.5s19.5 12.5 31.5 12.5h92c12 0 22.667 -4.33301 32 -13s14 -19.334 14 -32.001l3 -150c0 -12.667 -4.33301 -23.5 -13 -32.5
s-19.334 -13.5 -32.001 -13.5h-99z" />
    <glyph glyph-name="oslash" unicode="&#xf8;" horiz-adv-x="1206" 
d="M599 -23c-54 0 -105.668 7.66797 -155.001 23.001s-95 37 -137 65l-47 -53c-7.33301 -8 -17 -12 -29 -12s-23 4.33301 -33 13l-72 59c-9.33301 8 -15 18 -17 30s0.666992 22 8 30l57 63c-32 46 -57.333 96.667 -76 152s-28 115.666 -28 180.999c0 76.667 13 149 39 217
s62.5 127.333 109.5 178s102.833 90.667 167.5 120s135.667 44 213 44c54.667 0 106.334 -7.33301 155.001 -22s93.667 -36 135 -64l51 56c7.33301 8.66699 17 13 29 13s22.667 -4 32 -12l74 -61c9.33301 -7.33301 15 -16.833 17 -28.5s-0.666992 -22.167 -8 -31.5l-62 -70
c32.667 -48 58.167 -100.5 76.5 -157.5s27.5 -117.5 27.5 -181.5c0 -80 -14.167 -153.667 -42.5 -221s-66.666 -125.5 -114.999 -174.5s-104.333 -87.167 -168 -114.5s-130.834 -41 -201.501 -41zM598.999 901.001c-44.667 0 -86.5029 -9.33203 -125.503 -27.999
s-72.833 -44.334 -101.5 -77.001s-51.167 -71.167 -67.5 -115.5s-24.5 -92.166 -24.5 -143.499c0 -34.667 3.33301 -66.834 10 -96.501s15.334 -57.167 26.001 -82.5l441 493c-25.333 16 -51.166 28.333 -77.499 37s-53.166 13 -80.499 13zM915.996 528.002
c0 32.667 -3.5 63.667 -10.5 93s-16.167 57 -27.5 83l-431 -481c23.333 -13.333 48 -23 74 -29s52 -9 78 -9c36 0 72.5 7.33301 109.5 22s70.667 36.5 101 65.5s55.333 64.833 75 107.5s30.167 92 31.5 148z" />
    <glyph glyph-name="ugrave" unicode="&#xf9;" horiz-adv-x="1144" 
d="M1010 42c0 -10.667 -3.99512 -20.3369 -11.9951 -29.0039s-17.667 -13 -29 -13h-134c-12.667 0 -23.334 3.83301 -32.001 11.5s-13 17.834 -13 30.501v37c0 7.33301 -1.66699 13.333 -5 18s-7.5 7.66699 -12.5 9s-10.333 1.16602 -16 -0.500977
s-10.5 -4.83398 -14.5 -9.50098c-66.667 -78.667 -152.334 -118 -257.001 -118c-59.333 0 -112 9.16699 -158 27.5s-84.5 44 -115.5 77s-54.167 72.833 -69.5 119.5s-22.333 98.334 -21 155.001l7 670c0 10.667 4.33301 20.334 13 29.001s18.667 13 30 13h112
c11.333 0 21.666 -4.16699 30.999 -12.5s14 -18.833 14 -31.5l7 -658c0.666992 -41.333 7.33398 -74.166 20.001 -98.499s28 -42.666 46 -54.999s36.833 -20.166 56.5 -23.499s37.167 -5 52.5 -5c30 0 61.5 4.66699 94.5 14s63.333 26 91 50s50.667 56.5 69 97.5
s28.166 93.5 29.499 157.5l6 525c0 9.33301 4.66699 18.333 14 27s18.666 13 27.999 13h116c9.33301 0 18.666 -4.33301 27.999 -13s14 -18 14 -28zM437.005 1400c-6 6 -9.33203 13.168 -9.99902 21.501s0.666016 16.333 3.99902 24s8.16602 14 14.499 19s13.5 7.5 21.5 7.5
h96c16.667 -2.66699 28 -9.33398 34 -20.001l135 -240c7.33301 -12.667 9.33301 -24.167 6 -34.5s-9.16602 -18.333 -17.499 -24s-18 -8.16699 -29 -7.5s-20.167 5.66699 -27.5 15z" />
    <glyph glyph-name="uacute" unicode="&#xfa;" horiz-adv-x="1144" 
d="M1010 42c0 -10.667 -3.99512 -20.3369 -11.9951 -29.0039s-17.667 -13 -29 -13h-134c-12.667 0 -23.334 3.83301 -32.001 11.5s-13 17.834 -13 30.501v37c0 7.33301 -1.66699 13.333 -5 18s-7.5 7.66699 -12.5 9s-10.333 1.16602 -16 -0.500977
s-10.5 -4.83398 -14.5 -9.50098c-66.667 -78.667 -152.334 -118 -257.001 -118c-59.333 0 -112 9.16699 -158 27.5s-84.5 44 -115.5 77s-54.167 72.833 -69.5 119.5s-22.333 98.334 -21 155.001l7 670c0 10.667 4.33301 20.334 13 29.001s18.667 13 30 13h112
c11.333 0 21.666 -4.16699 30.999 -12.5s14 -18.833 14 -31.5l7 -658c0.666992 -41.333 7.33398 -74.166 20.001 -98.499s28 -42.666 46 -54.999s36.833 -20.166 56.5 -23.499s37.167 -5 52.5 -5c30 0 61.5 4.66699 94.5 14s63.333 26 91 50s50.667 56.5 69 97.5
s28.166 93.5 29.499 157.5l6 525c0 9.33301 4.66699 18.333 14 27s18.666 13 27.999 13h116c9.33301 0 18.666 -4.33301 27.999 -13s14 -18 14 -28zM523.005 1161c-8 -10 -17.5 -15.332 -28.5 -15.999s-20.5 1.66602 -28.5 6.99902s-13.667 13.333 -17 24
s-1.33301 22.667 6 36l135 240c6 10 17.667 16.667 35 20h97c10 0 18.333 -2.66699 25 -8s11.167 -11.833 13.5 -19.5s2.83301 -15.5 1.5 -23.5s-5 -15 -11 -21z" />
    <glyph glyph-name="ucircumflex" unicode="&#xfb;" horiz-adv-x="1144" 
d="M1010 42c0 -10.667 -3.99512 -20.3369 -11.9951 -29.0039s-17.667 -13 -29 -13h-134c-12.667 0 -23.334 3.83301 -32.001 11.5s-13 17.834 -13 30.501v37c0 7.33301 -1.66699 13.333 -5 18s-7.5 7.66699 -12.5 9s-10.333 1.16602 -16 -0.500977
s-10.5 -4.83398 -14.5 -9.50098c-66.667 -78.667 -152.334 -118 -257.001 -118c-59.333 0 -112 9.16699 -158 27.5s-84.5 44 -115.5 77s-54.167 72.833 -69.5 119.5s-22.333 98.334 -21 155.001l7 670c0 10.667 4.33301 20.334 13 29.001s18.667 13 30 13h112
c11.333 0 21.666 -4.16699 30.999 -12.5s14 -18.833 14 -31.5l7 -658c0.666992 -41.333 7.33398 -74.166 20.001 -98.499s28 -42.666 46 -54.999s36.833 -20.166 56.5 -23.499s37.167 -5 52.5 -5c30 0 61.5 4.66699 94.5 14s63.333 26 91 50s50.667 56.5 69 97.5
s28.166 93.5 29.499 157.5l6 525c0 9.33301 4.66699 18.333 14 27s18.666 13 27.999 13h116c9.33301 0 18.666 -4.33301 27.999 -13s14 -18 14 -28zM871.005 1210c6 -6 9.33203 -12.667 9.99902 -20s-0.833008 -14.333 -4.5 -21s-9 -12.167 -16 -16.5s-14.5 -6.5 -22.5 -6.5
h-100c-12.667 0 -22.334 5.33301 -29.001 16l-130 234c-3.33301 6.66699 -8.16602 10 -14.499 10s-11.166 -3.33301 -14.499 -10l-130 -234c-6.66699 -10.667 -17.334 -16 -32.001 -16h-100c-9.33301 0 -17.166 2.33301 -23.499 7s-11 10.334 -14 17.001
s-4.16699 13.667 -3.5 21s3.66699 13.666 9 18.999l235 247c4.66699 4.66699 9.16699 8.5 13.5 11.5s10.166 4.5 17.499 4.5h87c6.66699 0 11.834 -1.66699 15.501 -5s7.16699 -7 10.5 -11z" />
    <glyph glyph-name="udieresis" unicode="&#xfc;" horiz-adv-x="1144" 
d="M1010 42c0 -10.667 -3.99512 -20.3369 -11.9951 -29.0039s-17.667 -13 -29 -13h-134c-12.667 0 -23.334 3.83301 -32.001 11.5s-13 17.834 -13 30.501v37c0 7.33301 -1.66699 13.333 -5 18s-7.5 7.66699 -12.5 9s-10.333 1.16602 -16 -0.500977
s-10.5 -4.83398 -14.5 -9.50098c-66.667 -78.667 -152.334 -118 -257.001 -118c-59.333 0 -112 9.16699 -158 27.5s-84.5 44 -115.5 77s-54.167 72.833 -69.5 119.5s-22.333 98.334 -21 155.001l7 670c0 10.667 4.33301 20.334 13 29.001s18.667 13 30 13h112
c11.333 0 21.666 -4.16699 30.999 -12.5s14 -18.833 14 -31.5l7 -658c0.666992 -41.333 7.33398 -74.166 20.001 -98.499s28 -42.666 46 -54.999s36.833 -20.166 56.5 -23.499s37.167 -5 52.5 -5c30 0 61.5 4.66699 94.5 14s63.333 26 91 50s50.667 56.5 69 97.5
s28.166 93.5 29.499 157.5l6 525c0 9.33301 4.66699 18.333 14 27s18.666 13 27.999 13h116c9.33301 0 18.666 -4.33301 27.999 -13s14 -18 14 -28zM360.005 1231c-12.667 0 -23.166 4.50098 -31.499 13.501s-12.5 19.833 -12.5 32.5l2 151c0 12.667 4.5 23.167 13.5 31.5
s19.5 12.5 31.5 12.5h92c12 0 22.667 -4.33301 32 -13s14 -19.334 14 -32.001l3 -150c0 -12.667 -4.33301 -23.5 -13 -32.5s-19.334 -13.5 -32.001 -13.5h-99zM671.006 1231c-12.667 0 -23.166 4.50098 -31.499 13.501s-12.5 19.833 -12.5 32.5l2 151
c0 12.667 4.5 23.167 13.5 31.5s19.5 12.5 31.5 12.5h92c12 0 22.667 -4.33301 32 -13s14 -19.334 14 -32.001l3 -150c0 -12.667 -4.33301 -23.5 -13 -32.5s-19.334 -13.5 -32.001 -13.5h-99z" />
    <glyph glyph-name="yacute" unicode="&#xfd;" horiz-adv-x="1081" 
d="M532 1161c-8 -10 -17.5 -15.332 -28.5 -15.999s-20.5 1.66602 -28.5 6.99902s-13.667 13.333 -17 24s-1.33301 22.667 6 36l135 240c6 10 17.667 16.667 35 20h97c10 0 18.333 -2.66699 25 -8s11.167 -11.833 13.5 -19.5s2.83301 -15.5 1.5 -23.5s-5 -15 -11 -21z
M980 1069c8 0 15.166 -1.83203 21.499 -5.49902s11.5 -8.5 15.5 -14.5s6.66699 -12.5 8 -19.5s1 -13.833 -1 -20.5l-500 -1427c-2.66699 -7.33301 -7.5 -13.666 -14.5 -18.999s-15.5 -8 -25.5 -8h-159c-9.33301 0 -17.333 2.16699 -24 6.5s-11.834 9.66602 -15.501 15.999
s-5.66699 13.333 -6 21s0.833984 14.5 3.50098 20.5l138 325c2 5.33301 2.33301 10.666 1 15.999l-370 1047c-3.33301 15.333 -1 29.5 7 42.5s20.667 19.5 38 19.5h109c8 0 16.333 -2.66699 25 -8s13.667 -11.333 15 -18l263 -742c4.66699 -10.667 12.5 -15.167 23.5 -13.5
s18.833 6.16699 23.5 13.5l273 742c2.66699 8 7.83398 14.333 15.501 19s16.167 7 25.5 7h110z" />
    <glyph glyph-name="ydieresis" unicode="&#xff;" horiz-adv-x="1081" 
d="M980 1069c8 0 15.166 -1.83203 21.499 -5.49902s11.5 -8.5 15.5 -14.5s6.66699 -12.5 8 -19.5s1 -13.833 -1 -20.5l-500 -1427c-2.66699 -7.33301 -7.5 -13.666 -14.5 -18.999s-15.5 -8 -25.5 -8h-159c-9.33301 0 -17.333 2.16699 -24 6.5
s-11.834 9.66602 -15.501 15.999s-5.66699 13.333 -6 21s0.833984 14.5 3.50098 20.5l138 325c2 5.33301 2.33301 10.666 1 15.999l-370 1047c-3.33301 15.333 -1 29.5 7 42.5s20.667 19.5 38 19.5h109c8 0 16.333 -2.66699 25 -8s13.667 -11.333 15 -18l263 -742
c4.66699 -10.667 12.5 -15.167 23.5 -13.5s18.833 6.16699 23.5 13.5l273 742c2.66699 8 7.83398 14.333 15.501 19s16.167 7 25.5 7h110zM363.999 1231c-12.667 0 -23.166 4.50098 -31.499 13.501s-12.5 19.833 -12.5 32.5l2 151c0 12.667 4.5 23.167 13.5 31.5
s19.5 12.5 31.5 12.5h92c12 0 22.667 -4.33301 32 -13s14 -19.334 14 -32.001l3 -150c0 -12.667 -4.33301 -23.5 -13 -32.5s-19.334 -13.5 -32.001 -13.5h-99zM675 1231c-12.667 0 -23.166 4.50098 -31.499 13.501s-12.5 19.833 -12.5 32.5l2 151
c0 12.667 4.5 23.167 13.5 31.5s19.5 12.5 31.5 12.5h92c12 0 22.667 -4.33301 32 -13s14 -19.334 14 -32.001l3 -150c0 -12.667 -4.33301 -23.5 -13 -32.5s-19.334 -13.5 -32.001 -13.5h-99z" />
    <glyph glyph-name="Gbreve" unicode="&#x11e;" horiz-adv-x="1578" 
d="M1508 673c-6 -107.333 -28.6719 -203.835 -68.0049 -289.502s-91.166 -158.5 -155.499 -218.5s-139.166 -106.167 -224.499 -138.5s-177.333 -48.5 -276 -48.5c-72.667 0 -141 8.83301 -205 26.5s-122.833 42.834 -176.5 75.501s-101.667 72.167 -144 118.5
s-78.166 97.833 -107.499 154.5s-51.833 118.167 -67.5 184.5s-23.5 135.5 -23.5 207.5c0 102.667 17.167 199.334 51.5 290.001s83.166 170 146.499 238s139.5 121.667 228.5 161s188.167 59 297.5 59c80 0 154.667 -10.667 224 -32s132 -50.5 188 -87.5
s104.667 -81 146 -132s74.333 -105.833 99 -164.5c4 -8.66699 5.33301 -16.667 4 -24s-4.33301 -13.833 -9 -19.5s-10.667 -10 -18 -13s-15 -4.5 -23 -4.5h-137c-10.667 0 -19.167 2.83301 -25.5 8.5s-11.5 12.834 -15.5 21.501c-48 84 -109 146.5 -183 187.5
s-157.667 61.5 -251 61.5c-75.333 0 -143.5 -14.833 -204.5 -44.5s-113.333 -69.667 -157 -120s-77.167 -109.166 -100.5 -176.499s-35 -139 -35 -215c0 -80 12.833 -153.833 38.5 -221.5s60.834 -126.167 105.501 -175.5s97.334 -87.833 158.001 -115.5
s126 -41.5 196 -41.5c48 0 94.167 6.16699 138.5 18.5s85.333 29.833 123 52.5s71.5 49.667 101.5 81s54.333 65.666 73 102.999c2.66699 5.33301 4.83398 11.833 6.50098 19.5s2 15 1 22s-3.5 12.833 -7.5 17.5s-10 7 -18 7h-296c-11.333 0 -21.5 3.66699 -30.5 11
s-13.5 17.666 -13.5 30.999v123c0 13.333 4.5 23.833 13.5 31.5s19.167 11.5 30.5 11.5h561c11.333 0 21 -4.33301 29 -13s12 -18 12 -28zM785.995 1543c-48 0 -92.8389 6 -134.506 18s-78.5 30.167 -110.5 54.5s-58.667 55.166 -80 92.499s-35.666 81.333 -42.999 132
c-1.33301 10.667 0.833984 18.334 6.50098 23.001s13.834 7 24.501 7h78c10.667 0 18 -2.33301 22 -7s7.33301 -12.334 10 -23.001c6.66699 -32 17.5 -59.167 32.5 -81.5s32.667 -40.666 53 -54.999s42.666 -24.833 66.999 -31.5s49.5 -10 75.5 -10s51.167 3.33301 75.5 10
s46.5 17.167 66.5 31.5s37.333 32.666 52 54.999s25.667 49.5 33 81.5c2.66699 10.667 6 18.334 10 23.001s11.333 7 22 7h78c10.667 0 18.834 -2.33301 24.501 -7s7.83398 -12.334 6.50098 -23.001c-7.33301 -50.667 -21.666 -94.667 -42.999 -132
s-48.166 -68.166 -80.499 -92.499s-69.333 -42.5 -111 -54.5s-86.5 -18 -134.5 -18z" />
    <glyph glyph-name="gbreve" unicode="&#x11f;" horiz-adv-x="1271" 
d="M618 1145c-48 0 -92.8418 5.5 -134.509 16.5s-78.5 28.333 -110.5 52s-58.667 54.334 -80 92.001s-35.666 83.167 -42.999 136.5c-1.33301 10.667 0.833984 18.334 6.50098 23.001s13.834 7 24.501 7h78c10.667 0 18.334 -2.33301 23.001 -7s7.66699 -12.334 9 -23.001
c4.66699 -32 14.334 -59.167 29.001 -81.5s32.5 -40.666 53.5 -54.999s44 -24.833 69 -31.5s50.5 -10 76.5 -10s51.5 3.33301 76.5 10s47.833 17.167 68.5 31.5s38.167 32.666 52.5 54.999s24.166 49.5 29.499 81.5c1.33301 10.667 4.33301 18.334 9 23.001
s12.334 7 23.001 7h78c10.667 0 18.834 -2.33301 24.501 -7s7.83398 -12.334 6.50098 -23.001c-7.33301 -53.333 -21.666 -98.833 -42.999 -136.5s-48.166 -68.334 -80.499 -92.001s-69.333 -41 -111 -52s-86.5 -16.5 -134.5 -16.5zM1164.99 19
c0.666992 -64.667 -12.667 -126.167 -40 -184.5s-64.666 -109.666 -111.999 -153.999s-102.666 -79.5 -165.999 -105.5s-131 -39 -203 -39c-44.667 0 -88.167 5 -130.5 15s-82.666 25 -120.999 45s-74 45.167 -107 75.5s-62.5 66.166 -88.5 107.499
c-4.66699 7.33301 -6.83398 15.166 -6.50098 23.499s2.5 16 6.5 23s9.33301 12.833 16 17.5s14.667 7 24 7h149c6.66699 0 13 -1.33301 19 -4s10.667 -6.66699 14 -12c29.333 -34 62.666 -59.333 99.999 -76s80.333 -25 129 -25c41.333 0 79.833 7.83301 115.5 23.5
s66.834 36.5 93.501 62.5s47.667 55.833 63 89.5s23.333 68.5 24 104.5l1 67c0 12.667 -5 20.5 -15 23.5s-18.333 -0.166992 -25 -9.5c-17.333 -18.667 -38.333 -35.334 -63 -50.001s-50 -27 -76 -37s-51.5 -17.5 -76.5 -22.5s-46.5 -7.5 -64.5 -7.5
c-80 0 -152.5 14.667 -217.5 44s-120.667 69.166 -167 119.499s-82 108.833 -107 175.5s-37.5 137.334 -37.5 212.001c0 90 14.167 169.667 42.5 239s66.666 127.833 114.999 175.5s104.5 83.667 168.5 108s131.667 36.5 203 36.5c50.667 0 101.167 -11 151.5 -33
s95.5 -56.333 135.5 -103c2.66699 -4 6.5 -6.16699 11.5 -6.5s9.66699 0.333984 14 2.00098s8.16602 4.33398 11.499 8.00098s5 7.5 5 11.5l1 63c0 10 5 19.167 15 27.5s19.667 12.5 29 12.5h112c10.667 0 20.5 -4.16699 29.5 -12.5s13.5 -17.5 13.5 -27.5zM621.99 185
c42 0 82.835 8.5 122.502 25.5s74.667 40.667 105 71s54.666 66.5 72.999 108.5s27.5 88 27.5 138s-7.16699 97.5 -21.5 142.5s-35.5 84.667 -63.5 119s-62.833 61.5 -104.5 81.5s-89.834 30 -144.501 30c-52 0 -96.833 -10 -134.5 -30s-68.667 -46.833 -93 -80.5
s-42.5 -72.167 -54.5 -115.5s-18 -88 -18 -134c0 -54 8.5 -102.833 25.5 -146.5s39.667 -81 68 -112s60.833 -55 97.5 -72s75 -25.5 115 -25.5z" />
    <glyph glyph-name="OE" unicode="&#x152;" horiz-adv-x="2046" 
d="M1976 43c0 -11.333 -4.33008 -21.3311 -12.9971 -29.998s-18.667 -13 -30 -13h-879c-0.666992 -2 -6 -4 -16 -6s-22.667 -3.66699 -38 -5l-52 -4.5c-19.333 -1.66699 -38.833 -2.83398 -58.5 -3.50098l-56.5 -2c-18 -0.666992 -33.667 -1 -47 -1
c-108 0 -206.5 19.833 -295.5 59.5s-165.333 94.167 -229 163.5s-113.167 150.5 -148.5 243.5s-53 193.167 -53 300.5c0 69.333 8.5 136 25.5 200s41.333 123.667 73 179s69.5 105.666 113.5 150.999s93.167 84.166 147.5 116.499s112.833 57.333 175.5 75
s128 26.5 196 26.5c13.333 0 29.166 -0.5 47.499 -1.5s37.666 -2.16699 57.999 -3.5l60.5 -4c20 -1.33301 38.5 -2.83301 55.5 -4.5s31.167 -3.16699 42.5 -4.5s18.666 -2.33301 21.999 -3h835c9.33301 0 17.833 -4 25.5 -12s11.5 -16.667 11.5 -26l3 -129
c0 -11.333 -3.5 -20.5 -10.5 -27.5s-15.833 -10.833 -26.5 -11.5h-662c-10.667 -0.666992 -19.334 -5 -26.001 -13s-10 -16.667 -10 -26l7 -313c0 -9.33301 3.33301 -17.666 10 -24.999s15 -11 25 -11h591c27.333 0 41 -12 41 -36v-132
c0 -10.667 -3.66699 -19.334 -11 -26.001s-15.666 -10 -24.999 -10h-588c-10.667 0 -20 -3.5 -28 -10.5s-11.333 -16.5 -10 -28.5l11 -383c0 -5.33301 3.5 -11.333 10.5 -18s14.5 -10 22.5 -10h654c11.333 0 22 -3.16699 32 -9.5s15 -16.166 15 -29.499zM789.003 1295
c-53.333 -0.666992 -102.829 -9.33203 -148.496 -25.999s-87 -38.667 -124 -66s-69.833 -59.166 -98.5 -95.499s-52.667 -74.666 -72 -114.999s-34 -81.666 -44 -123.999s-15 -83.5 -15 -123.5c0 -42.667 5 -86 15 -130s24.667 -86.833 44 -128.5
s43.166 -80.834 71.499 -117.501s61.166 -68.5 98.499 -95.5s78.666 -48.5 123.999 -64.5s95 -24 149 -24c16.667 0 34.5 1 53.5 3s37.667 4.66699 56 8s35.5 7.16602 51.5 11.499s29.667 9.16602 41 14.499l24 1046c0 1.33301 -7.16699 3.66602 -21.5 6.99902
s-32.5 6.5 -54.5 9.5s-46.333 5.5 -73 7.5s-52.334 3 -77.001 3z" />
    </font>
</defs>
</svg>
