<?xml version="1.0" standalone="no"?>
<!DOCTYPE svg PUBLIC "-//W3C//DTD SVG 1.1//EN" "http://www.w3.org/Graphics/SVG/1.1/DTD/svg11.dtd" >
<svg>
<metadata>
Created by FontForge 20090914 at Fri Jun  5 10:52:55 2015
 By www-data
Copyright (c) 2011 by Vincenzo Vuono. All rights reserved.
</metadata>
<defs>
<font id="Gravity-Book" horiz-adv-x="1044" >
  <font-face 
    font-family="Gravity"
    font-weight="400"
    font-stretch="normal"
    units-per-em="2048"
    panose-1="2 11 6 3 5 5 2 6 8 4"
    ascent="1638"
    descent="-410"
    x-height="1055"
    cap-height="1458"
    bbox="43.6786 -457.001 1942.66 1892"
    underline-thickness="92"
    underline-position="-174"
    unicode-range="U+0020-U+2122"
  />
<missing-glyph horiz-adv-x="1120" 
d="M88 1457h944v-1457h-944v1457zM873 1358h-626l312 -526zM940 203v1050l-313 -525zM873 99l-314 525l-312 -526zM179 203l314 525l-314 525v-1050z" />
    <glyph glyph-name=".notdef" horiz-adv-x="1120" 
d="M88 1457h944v-1457h-944v1457zM873 1358h-626l312 -526zM940 203v1050l-313 -525zM873 99l-314 525l-312 -526zM179 203l314 525l-314 525v-1050z" />
    <glyph glyph-name="space" unicode=" " horiz-adv-x="548" 
 />
    <glyph glyph-name="exclam" unicode="!" horiz-adv-x="406" 
d="M281 432c0 -10 -2.99902 -18.001 -8.99902 -24.001s-13.667 -9 -23 -9h-99c-10 0 -18.167 3 -24.5 9s-9.5 14 -9.5 24l17 991c0 10.667 3 19.167 9 25.5s14.333 9.5 25 9.5h64c9.33301 0 17.166 -3.16699 23.499 -9.5s9.5 -14.166 9.5 -23.499zM296.001 33.999
c0 -9.33301 -2.99902 -17.333 -8.99902 -24s-14 -10 -24 -10h-131c-9.33301 0 -17 3.33301 -23 10s-9 14.667 -9 24l2 135c0 9.33301 3.16699 17.333 9.5 24s14.166 10 23.499 10h125c9.33301 0 17 -3.33301 23 -10s9.33301 -14.667 10 -24z" />
    <glyph glyph-name="quotedbl" unicode="&#x22;" horiz-adv-x="586" 
d="M221 1056c0 -22.667 -11.333 -34 -34 -34h-64c-10.667 0 -19.167 3 -25.5 9s-9.5 14 -9.5 24v367c0 10 2.83301 18.5 8.5 25.5s14.167 10.5 25.5 10.5h68c10 0 17.667 -3.5 23 -10.5s8 -15.833 8 -26.5v-365zM498 1056c0 -22.667 -11.333 -34 -34 -34h-64
c-10.667 0 -19.167 3 -25.5 9s-9.5 14 -9.5 24v367c0 10 2.83301 18.5 8.5 25.5s14.167 10.5 25.5 10.5h68c10 0 17.667 -3.5 23 -10.5s8 -15.833 8 -26.5v-365z" />
    <glyph glyph-name="numbersign" unicode="#" horiz-adv-x="1253" 
d="M1162 944c-1.33301 -7.33301 -4.50195 -13.001 -9.50195 -17.001s-11.167 -6 -18.5 -6h-204c-11.333 0 -18 -5.66699 -20 -17l-40 -245c-1.33301 -7.33301 0 -13.166 4 -17.499s9.33301 -6.5 16 -6.5h186c8.66699 0 16 -2.66699 22 -8s8.33301 -12.333 7 -21l-13 -78
c-1.33301 -7.33301 -4.5 -13 -9.5 -17s-11.167 -6 -18.5 -6h-200c-12.667 0 -20 -6.33301 -22 -19l-78 -461c-1.33301 -8.66699 -4.83301 -15 -10.5 -19s-12.5 -6 -20.5 -6h-73c-8 0 -14.5 2.16699 -19.5 6.5s-6.83301 11.166 -5.5 20.499l77 455
c2 15.333 -5.33301 23 -22 23h-234c-12 -1.33301 -18.667 -7 -20 -17l-78 -465c-1.33301 -8 -4.83301 -13.833 -10.5 -17.5s-12.167 -5.5 -19.5 -5.5h-72c-8.66699 0 -15.667 2.5 -21 7.5s-7.33301 12.167 -6 21.5l76 452c1.33301 8.66699 -0.166992 14.834 -4.5 18.501
s-10.166 5.5 -17.499 5.5h-175c-9.33301 0 -16.833 3.33301 -22.5 10s-7.5 15 -5.5 25l13 71c2.66699 15.333 12.334 23.333 29.001 24h194c10.667 0 17 6.33301 19 19l43 246c1.33301 6 0 11 -4 15s-9.33301 6 -16 6h-180c-8.66699 0 -16 2.66699 -22 8
s-8.33301 12.333 -7 21l13 76c3.33301 16.667 13 25 29 25h191c4.66699 0 9.5 1.83301 14.5 5.5s7.83301 9.16699 8.5 16.5l64 361c1.33301 8 4.83301 14 10.5 18s12.167 6 19.5 6h67c7.33301 0 13.5 -2.16699 18.5 -6.5s6.83301 -10.5 5.5 -18.5l-59 -359
c-1.33301 -6.66699 -0.166016 -12.167 3.50098 -16.5s9.16699 -6.5 16.5 -6.5h241c8.66699 0 15 5.66699 19 17l64 365c3.33301 16.667 13.333 25 30 25h65c7.33301 0 13.666 -2.33301 18.999 -7s7.33301 -11.667 6 -21l-56 -356c0 -6.66699 1.66699 -12.167 5 -16.5
s8.66602 -6.5 15.999 -6.5h191c8 0 14.333 -2.66699 19 -8s6.33398 -12 5.00098 -20zM783.998 901.999c1.33301 5.33301 -0.333984 9.83301 -5.00098 13.5s-9.66699 5.5 -15 5.5h-238c-12.667 0 -19.667 -6 -21 -18l-42 -247c-1.33301 -6 0.333984 -11 5.00098 -15
s9.66699 -6 15 -6h240c11.333 0 18 6.33301 20 19z" />
    <glyph glyph-name="dollar" unicode="$" horiz-adv-x="1270" 
d="M1176 418c2 -66 -10.6689 -124.165 -38.002 -174.498s-63.5 -93 -108.5 -128s-95.667 -62.333 -152 -82s-112.5 -31.167 -168.5 -34.5c-12.667 0 -19 -6.66699 -19 -20v-120c0 -8.66699 -2.33301 -15.834 -7 -21.501s-11.667 -8.5 -21 -8.5h-73
c-9.33301 0 -16.166 2.83301 -20.499 8.5s-6.5 12.834 -6.5 21.501v120c0 5.33301 -1.66699 10.333 -5 15s-7.66602 7 -12.999 7c-54 1.33301 -107.833 13.166 -161.5 35.499s-102.334 52 -146.001 89s-80 80 -109 129s-45.833 101.167 -50.5 156.5c0 10 2.5 18.5 7.5 25.5
s13.5 10.5 25.5 10.5h80c7.33301 0 14.5 -2.5 21.5 -7.5s11.167 -11.167 12.5 -18.5c10 -46.667 28 -88 54 -124s57.167 -66.333 93.5 -91s76 -43.5 119 -56.5s86.5 -19.5 130.5 -19.5c30.667 0 62 2 94 6s63 10.667 93 20s58.167 21.166 84.5 35.499
s49.166 32.166 68.499 53.499s34.5 46 45.5 74s16.167 60 15.5 96c-0.666992 32 -8 59.833 -22 83.5s-32.5 44.334 -55.5 62.001s-49 32.667 -78 45s-58.667 23 -89 32s-60 16.833 -89 23.5l-77.5 18c-38 9.33301 -76.333 19.666 -115 30.999s-75.667 24.333 -111 39
s-68.666 31.667 -99.999 51s-58.333 42 -81 68s-40.667 55.833 -54 89.5s-20 71.834 -20 114.501c0 58 10.333 110 31 156s49.334 85.5 86.001 118.5s80.334 59.333 131.001 79s105.667 31.5 165 35.5c5.33301 0 9.83301 2 13.5 6s5.5 8.66699 5.5 14v117
c0 18.667 9 28 27 28h74c8 0 14.5 -2.5 19.5 -7.5s7.5 -11.833 7.5 -20.5v-122c0 -10.667 5 -17 15 -19c46.667 -10 90.834 -25.667 132.501 -47s79.167 -47.333 112.5 -78s61.666 -65.667 84.999 -105s40.333 -81.333 51 -126c0.666992 -10 -1.83301 -18.167 -7.5 -24.5
s-13.834 -9.5 -24.501 -9.5h-80c-10 0 -17.833 3.16699 -23.5 9.5s-10.5 14.166 -14.5 23.499c-15.333 42 -35.5 77.5 -60.5 106.5s-52.5 52.5 -82.5 70.5s-61.333 31.167 -94 39.5s-65 12.5 -97 12.5c-32.667 0 -67.5 -3.83301 -104.5 -11.5s-71.333 -21 -103 -40
s-58 -44.667 -79 -77s-31.5 -72.833 -31.5 -121.5c0 -42 11.167 -77.167 33.5 -105.5s52 -52.5 89 -72.5s79.333 -36.833 127 -50.5s97.167 -26.5 148.5 -38.5c72.667 -18.667 139 -36.667 199 -54s111.5 -39.666 154.5 -66.999s76.667 -62.333 101 -105
s37.5 -98.667 39.5 -168z" />
    <glyph glyph-name="percent" unicode="%" horiz-adv-x="1618" 
d="M407 1472c38.667 0 75 -7.33301 109 -22s63.833 -34.834 89.5 -60.501s45.834 -55.667 60.501 -90s22 -71.5 22 -111.5c0 -39.333 -7.33301 -76 -22 -110s-34.834 -63.833 -60.501 -89.5s-55.5 -45.834 -89.5 -60.501s-70.333 -22 -109 -22
c-39.333 0 -76.166 7.33301 -110.499 22s-64.333 34.834 -90 60.501s-46 55.5 -61 89.5s-22.5 70.667 -22.5 110c0 40 7.5 77.167 22.5 111.5s35.333 64.333 61 90s55.667 45.834 90 60.501s71.166 22 110.499 22zM407 1022c24 0 46.333 4.16699 67 12.5
s38.334 19.833 53.001 34.5s26.167 32.167 34.5 52.5s12.5 42.5 12.5 66.5c0 24.667 -4.16699 47.334 -12.5 68.001s-19.833 38.5 -34.5 53.5s-32.334 26.5 -53.001 34.5s-43 12 -67 12c-24.667 0 -47.167 -4 -67.5 -12s-38 -19.5 -53 -34.5s-26.667 -32.833 -35 -53.5
s-12.5 -43.334 -12.5 -68.001c0 -24 4.16699 -46.167 12.5 -66.5s20 -37.833 35 -52.5s32.667 -26.167 53 -34.5s42.833 -12.5 67.5 -12.5zM1207 550c38.667 0 75.167 -7.5 109.5 -22.5s64.166 -35.5 89.499 -61.5s45.333 -56.333 60 -91s22 -72 22 -112
c0 -39.333 -7.33301 -75.833 -22 -109.5s-34.667 -63 -60 -88s-55.166 -44.667 -89.499 -59s-70.833 -21.5 -109.5 -21.5c-39.333 0 -76.166 7.16699 -110.499 21.5s-64.333 34 -90 59s-46 54.333 -61 88s-22.5 70.167 -22.5 109.5c0 40 7.5 77.333 22.5 112
s35.333 65 61 91s55.667 46.5 90 61.5s71.166 22.5 110.499 22.5zM1207 101c24 0 46.333 3.83301 67 11.5s38.5 18.5 53.5 32.5s26.667 31 35 51s12.5 42.333 12.5 67c0 25.333 -4.16699 48.5 -12.5 69.5s-20 39 -35 54s-32.833 26.667 -53.5 35s-43 12.5 -67 12.5
c-24.667 0 -47.334 -4.16699 -68.001 -12.5s-38.5 -20 -53.5 -35s-26.667 -33 -35 -54s-12.5 -44.167 -12.5 -69.5c0 -24.667 4.16699 -47 12.5 -67s20 -37 35 -51s32.833 -24.833 53.5 -32.5s43.334 -11.5 68.001 -11.5zM1119 1458c10.667 0 19.1689 -4.83301 25.502 -14.5
s7.16602 -19.167 2.49902 -28.5l-530 -1394c-5.33301 -14 -15.666 -21 -30.999 -21h-118c-12.667 0 -21.334 5.16699 -26.001 15.5s-5.33398 20.5 -2.00098 30.5l574 1393c4.66699 12.667 14 19 28 19h77z" />
    <glyph glyph-name="ampersand" unicode="&#x26;" horiz-adv-x="1279" 
d="M1180 51c4.66699 -6 6.83398 -12.0029 6.50098 -18.0029s-2.16602 -11.5 -5.49902 -16.5s-7.66602 -9 -12.999 -12s-10.666 -4.5 -15.999 -4.5h-132c-12.667 0 -22.334 5 -29.001 15l-46 58c-3.33301 4.66699 -7.66602 7.5 -12.999 8.5s-10 -0.166992 -14 -3.5
c-27.333 -20 -56.833 -36.333 -88.5 -49s-63.334 -22.667 -95.001 -30s-62.167 -12.5 -91.5 -15.5s-55.666 -4.5 -78.999 -4.5c-60 0 -118.167 8.33301 -174.5 25s-106.5 41.667 -150.5 75s-79.5 75.333 -106.5 126s-40.833 110 -41.5 178c0 57.333 8.5 106.833 25.5 148.5
s38.5 77.834 64.5 108.501s54.833 57 86.5 79s62.167 42 91.5 60c9.33301 5.33301 14 10.166 14 14.499s-2 10.166 -6 17.499c-7.33301 13.333 -16.833 28.833 -28.5 46.5s-23 38.5 -34 62.5s-20.667 51.833 -29 83.5s-13.5 68.5 -15.5 110.5
c0 52.667 8.83301 101.334 26.5 146.001s42 83.167 73 115.5s67.5 57.666 109.5 75.999s87.333 27.5 136 27.5c47.333 0 92 -8.5 134 -25.5s78.833 -40.667 110.5 -71s56.667 -66.5 75 -108.5s27.5 -87.667 27.5 -137c0 -47.333 -8.5 -90.833 -25.5 -130.5
s-40.167 -75.5 -69.5 -107.5s-63.666 -59.833 -102.999 -83.5s-81.666 -43.5 -126.999 -59.5c-8.66699 -2 -13.834 -6.5 -15.501 -13.5s0.166016 -13.5 5.49902 -19.5l314 -375c5.33301 -6.66699 11.166 -10 17.499 -10s11.5 2.66699 15.5 8
c3.33301 6.66699 6.16602 11.834 8.49902 15.501s4.33301 7.83398 6 12.501l6 17.5c2.33301 7 5.16602 17.167 8.49902 30.5c1.33301 4 3.83301 9.33301 7.5 16s12.167 10 25.5 10h85c9.33301 0 17.166 -3.16699 23.499 -9.5s9.5 -15.166 9.5 -26.499
c-3.33301 -30.667 -11.833 -63.667 -25.5 -99s-31.167 -67.666 -52.5 -96.999c-5.33301 -10.667 -5 -20 1 -28zM399 1118c0.666992 -28 3.83301 -54.333 9.5 -79s13.667 -48 24 -70s22.666 -43.5 36.999 -64.5s30.5 -42.167 48.5 -63.5
c3.33301 -4.66699 7.16602 -7.16699 11.499 -7.5s8.83301 0.166992 13.5 1.5c34 12 67.333 26.833 100 44.5s62 38.167 88 61.5s46.833 49.666 62.5 78.999s23.5 61.333 23.5 96c0 28 -5.33301 54.833 -16 80.5s-25.167 48.334 -43.5 68.001s-40.166 35.334 -65.499 47.001
s-53 17.5 -83 17.5c-29.333 0 -56.666 -5.66699 -81.999 -17s-47.5 -26.5 -66.5 -45.5s-34 -41.333 -45 -67s-16.5 -52.834 -16.5 -81.501zM809.999 202.997c6 5.33301 10 10.3311 12 14.998s0.333008 10.667 -5 18l-350 445c-8 11.333 -17.667 13.666 -29 6.99902
c-38 -17.333 -71 -40.166 -99 -68.499s-49.833 -59.5 -65.5 -93.5s-24.334 -70 -26.001 -108s4.83301 -75.333 19.5 -112c16 -40.667 38.167 -73.167 66.5 -97.5s59.833 -42.666 94.5 -54.999s71 -19.333 109 -21s74.5 0.333008 109.5 6s66.833 14.334 95.5 26.001
s51.334 24.5 68.001 38.5z" />
    <glyph glyph-name="quotesingle" unicode="'" horiz-adv-x="308" 
d="M221 1056c0 -22.667 -11.333 -34 -34 -34h-64c-10.667 0 -19.167 3 -25.5 9s-9.5 14 -9.5 24v367c0 10 2.83301 18.5 8.5 25.5s14.167 10.5 25.5 10.5h68c10 0 17.667 -3.5 23 -10.5s8 -15.833 8 -26.5v-365z" />
    <glyph glyph-name="parenleft" unicode="(" horiz-adv-x="588" 
d="M485 -368c6.66699 -12 8.49707 -22.834 5.49707 -32.501s-8.5 -17 -16.5 -22s-17.167 -7.16699 -27.5 -6.5s-19.5 5 -27.5 13c-52.667 62.667 -100.167 129.834 -142.5 201.501s-78.5 147 -108.5 226s-53.167 161 -69.5 246s-24.5 172.5 -24.5 262.5
c0 92 8.5 181.333 25.5 268s41.333 170 73 250s69.667 156 114 228s93.5 139 147.5 201c6.66699 8 13.834 12.167 21.501 12.5s14.334 -1.66699 20.001 -6s9.83398 -10 12.501 -17s2 -14.167 -2 -21.5c-76 -134 -135.333 -275.667 -178 -425s-64 -308 -64 -476
c0 -166.667 21.333 -325 64 -475s101.667 -292.333 177 -427z" />
    <glyph glyph-name="parenright" unicode=")" horiz-adv-x="538" 
d="M53.0293 -368c-6.66602 -12 -8.49512 -22.834 -5.49512 -32.501c2.99902 -9.66699 8.49902 -17 16.499 -22c7.99902 -5 17.165 -7.16699 27.498 -6.5s19.499 5 27.498 13c52.6631 62.667 100.16 129.834 142.491 201.501s78.4951 147 108.493 226
c29.999 79 53.1641 161 69.4961 246c16.333 85 24.499 172.5 24.499 262.5c0 92 -8.5 181.333 -25.499 268s-41.3311 170 -72.9961 250s-69.6631 156 -113.994 228s-93.4951 139 -147.492 201c-6.66602 8 -13.832 12.167 -21.499 12.5
c-7.66602 0.333008 -14.332 -1.66699 -19.998 -6c-5.66699 -4.33301 -9.83398 -10 -12.501 -17c-2.66602 -7 -1.99902 -14.167 2 -21.5c75.9951 -134 135.325 -275.667 177.989 -425s63.9961 -308 63.9961 -476c0 -166.667 -21.332 -325 -63.9961 -475
s-101.66 -292.333 -176.989 -427z" />
    <glyph glyph-name="asterisk" unicode="*" horiz-adv-x="714" 
d="M624 1215l-160 -61.9971c-6 -2 -9.66699 -6.16699 -11 -12.5s0 -11.833 4 -16.5l106 -134c4.66699 -4.66699 6.33398 -9.66699 5.00098 -15s-3.66602 -9.33301 -6.99902 -12l-58 -47c-4 -3.33301 -8.66699 -4.33301 -14 -3s-9.33301 3.66602 -12 6.99902l-104 145
c-4.66699 6 -10 9 -16 9s-11 -2.66699 -15 -8l-107 -145c-3.33301 -4 -7.83301 -6.33301 -13.5 -7s-10.5 0.666016 -14.5 3.99902l-55 43c-5.33301 4 -8.16602 8.5 -8.49902 13.5s1.16699 9.83301 4.5 14.5l107 134c5.33301 5.33301 6.83301 11 4.5 17
s-6.16602 10.333 -11.499 13l-158 61c-6 1.33301 -9.83301 3.66602 -11.5 6.99902s-1.83398 7.66602 -0.500977 12.999l28 74c4 10.667 12.667 13.667 26 9l154 -72c5.33301 -2 9.66602 -1.66699 12.999 1s5 6.66699 5 12l-6 179c0 12.667 6.33301 19.667 19 21h75
c6.66699 0 11.5 -2.16699 14.5 -6.5s4.5 -9.16602 4.5 -14.499l-7 -179c0 -5.33301 1.83301 -9.5 5.5 -12.5s7.83398 -3.16699 12.501 -0.5l163 74c5.33301 2 10.166 1.66699 14.499 -1s7.16602 -5.66699 8.49902 -9l27 -70c1.33301 -5.33301 1.16602 -10.333 -0.500977 -15
s-5.16699 -7.66699 -10.5 -9z" />
    <glyph glyph-name="plus" unicode="+" horiz-adv-x="1115" 
d="M1047 479c-1.33301 -17.333 -10.333 -26.667 -27 -28h-376c-5.33301 0 -10 -2 -14 -6s-6 -8.66699 -6 -14v-375c0 -7.33301 -2.83301 -13.833 -8.5 -19.5s-12.167 -8.5 -19.5 -8.5h-77c-7.33301 0 -13.5 2.66699 -18.5 8s-7.83301 11.333 -8.5 18v375
c0 6 -1.83301 11.167 -5.5 15.5s-8.83398 6.5 -15.501 6.5h-374c-7.33301 0 -14 2.66699 -20 8s-9 12 -9 20v75c0 8 2.83301 14.833 8.5 20.5s12.5 8.5 20.5 8.5h374c6 0 11 2 15 6s6 8.66699 6 14v375c0 8 2.33301 14.667 7 20s11.334 8 20.001 8h76
c8.66699 0 15.667 -2.66699 21 -8s8 -12 8 -20v-376c0 -5.33301 2 -9.83301 6 -13.5s8.66699 -5.5 14 -5.5h374c8 0 14.833 -2.5 20.5 -7.5s8.5 -11.5 8.5 -19.5v-77z" />
    <glyph glyph-name="comma" unicode="," horiz-adv-x="360" 
d="M161 -222c-7.33301 -6 -14.665 -8.66992 -21.998 -8.00293s-13.166 3.33398 -17.499 8.00098s-6.83301 10.5 -7.5 17.5s2 13.833 8 20.5c13.333 14.667 22.666 31 27.999 49s7 35.833 5 53.5s-7.83301 33.834 -17.5 48.501s-22.834 26.667 -39.501 36
c-12 8.66699 -18 19.334 -18 32.001l2 136c0 9.33301 3.16699 17.333 9.5 24s14.166 10 23.499 10h129c9.33301 0 17 -3.33301 23 -10s9.33301 -14.667 10 -24l3 -135c-2 -54.667 -13.333 -103.667 -34 -147s-49 -80.333 -85 -111z" />
    <glyph glyph-name="hyphen" unicode="-" horiz-adv-x="773" 
d="M685 533c-1.33301 -17.333 -10.334 -26.668 -27.001 -28.001h-541c-8 0 -14.833 2.66699 -20.5 8s-8.5 12 -8.5 20v73c0 8 2.83301 14.833 8.5 20.5s12.5 8.5 20.5 8.5h539c7.33301 0 13.833 -2.66699 19.5 -8s8.83398 -11.666 9.50098 -18.999v-75z" />
    <glyph glyph-name="period" unicode="." horiz-adv-x="370" 
d="M283 34c0 -9.33301 -2.99902 -17.333 -8.99902 -24s-14 -10 -24 -10h-131c-9.33301 -0 -17 3.33301 -23 10s-9 14.667 -9 24l2 135c0 9.33301 3.16699 17.333 9.5 24s14.166 10 23.499 10h125c9.33301 0 17 -3.33301 23 -10s9.33301 -14.667 10 -24z" />
    <glyph glyph-name="slash" unicode="/" horiz-adv-x="859" 
d="M753 1458c10.667 0 19.1689 -4.83301 25.502 -14.5s7.16602 -19.167 2.49902 -28.5l-530 -1394c-5.33301 -14 -15.666 -21 -30.999 -21h-118c-12.667 0 -21.334 5.16699 -26.001 15.5s-5.33398 20.5 -2.00098 30.5l574 1393c4.66699 12.667 14 19 28 19h77z" />
    <glyph glyph-name="zero" unicode="0" horiz-adv-x="1199" 
d="M595 1458c66 0 124.666 -10.001 175.999 -30.001s96.333 -47.5 135 -82.5s71.334 -76.833 98.001 -125.5s48.334 -101.667 65.001 -159s28.667 -118 36 -182s11 -129 11 -195c0 -56.667 -4.33301 -113.334 -13 -170.001s-22.167 -111 -40.5 -163
s-41.333 -100.667 -69 -146s-60.667 -84.666 -99 -117.999s-82 -59.666 -131 -78.999s-103.5 -29 -163.5 -29c-60.667 0 -115.5 9.5 -164.5 28.5s-92.667 45.333 -131 79s-71.333 73.167 -99 118.5s-50.667 94 -69 146s-31.833 106.5 -40.5 163.5s-13 113.5 -13 169.5
c0 66 4 131 12 195s20.833 124.667 38.5 182s40 110.333 67 159s59.5 90.5 97.5 125.5s81.667 62.5 131 82.5s104.666 30 165.999 30zM599.999 129.999c50 0 93.8311 8.83105 131.498 26.498s70 41.334 97 71.001s49.167 64 66.5 103s31 80.167 41 123.5s17 87.5 21 132.5
s6 87.833 6 128.5c0 50.667 -2.83301 100.834 -8.5 150.501s-14.667 96.667 -27 141s-28.166 85.333 -47.499 123s-42.333 70.167 -69 97.5s-57.334 48.666 -92.001 63.999s-73.667 23 -117 23s-82.166 -7.66699 -116.499 -23s-65 -36.666 -92 -63.999
s-50.167 -59.833 -69.5 -97.5s-35.333 -78.667 -48 -123s-22 -91.333 -28 -141s-9 -99.834 -9 -150.501c0 -41.333 2.66699 -84.333 8 -129s13.666 -88.667 24.999 -132s26.333 -84.666 45 -123.999s41.334 -73.833 68.001 -103.5s57.834 -53.167 93.501 -70.5
s76.167 -26 121.5 -26z" />
    <glyph glyph-name="one" unicode="1" horiz-adv-x="644" 
d="M547 34c0 -9.33301 -3.16699 -17.332 -9.5 -23.999s-14.5 -10 -24.5 -10h-93c-10 0 -18.167 3.33301 -24.5 10s-9.5 14.667 -9.5 24l7 990c0 8.66699 -3 16 -9 22s-13.333 9 -22 9h-271c-9.33301 0 -17.166 3 -23.499 9s-9.5 13.667 -9.5 23l2 66c0 9.33301 3 17 9 23
s14 9 24 9h66c34 0 65.333 5.5 94 16.5s53.5 26.667 74.5 47s37.5 45.333 49.5 75s18.333 63.5 19 101.5c0 9.33301 3.16699 17.166 9.5 23.499s14.166 9.5 23.499 9.5h76c9.33301 0 17 -3.16699 23 -9.5s9 -13.833 9 -22.5z" />
    <glyph glyph-name="two" unicode="2" horiz-adv-x="1216" 
d="M1073 34c0 -9.33301 -2.99121 -17.334 -8.99121 -24.001s-13.667 -10 -23 -10h-907c-8 0 -14.667 2 -20 6s-9 9 -11 15s-2.5 12.333 -1.5 19s3.83301 12.667 8.5 18l656 800c30.667 38 52.667 75.833 66 113.5s19.166 73.334 17.499 107.001
s-9.83398 64.834 -24.501 93.501s-34.167 53.5 -58.5 74.5s-52.833 37.5 -85.5 49.5s-68 18 -106 18c-77.333 0 -141 -18.833 -191 -56.5s-90.333 -91.5 -121 -161.5c-3.33301 -8.66699 -7.5 -15.667 -12.5 -21s-13.167 -8 -24.5 -8h-85
c-11.333 0.666992 -20.666 4.5 -27.999 11.5s-9.33301 15.833 -6 26.5c16.667 56.667 41.167 107 73.5 151s69.666 81 111.999 111s88.666 52.667 138.999 68s102.166 23 155.499 23c57.333 0 110.666 -9.5 159.999 -28.5s92.166 -44.833 128.499 -77.5
s65.166 -71.334 86.499 -116.001s33.166 -92.667 35.499 -144s-6.16699 -105 -25.5 -161s-51.333 -111.667 -96 -167l-460 -572c-4.66699 -5.33301 -6.16699 -11.833 -4.5 -19.5s7.16699 -11.5 16.5 -11.5h604c11.333 0 20.666 -2.66699 27.999 -8s11 -14 11 -26z" />
    <glyph glyph-name="three" unicode="3" horiz-adv-x="1154" 
d="M798 765c36 -12.667 70.333 -30.501 103 -53.501s61.5 -50.333 86.5 -82s45 -67.167 60 -106.5s22.833 -81.666 23.5 -126.999c0 -68 -13.167 -127.833 -39.5 -179.5s-62.333 -94.834 -108 -129.501s-98.667 -61 -159 -79s-124.5 -27.667 -192.5 -29
c-58 -1.33301 -113.833 5.5 -167.5 20.5s-102.167 37.667 -145.5 68s-80.666 68.333 -111.999 114s-53.333 99.167 -66 160.5c-0.666992 10.667 2.5 18.834 9.5 24.501s15.167 8.5 24.5 8.5h100c6.66699 0 12.834 -1.33301 18.501 -4s9.5 -7.33398 11.5 -14.001
c6.66699 -22 17 -46.167 31 -72.5s34 -50.666 60 -72.999s59.333 -41.333 100 -57s90.667 -23.834 150 -24.501c49.333 1.33301 93.833 9.66602 133.5 24.999s73.5 35.666 101.5 60.999s49.667 54.833 65 88.5s23 69.834 23 108.501c0 50 -12 93.333 -36 130
s-54.333 66.834 -91 90.501s-77 41.334 -121 53.001s-85.667 17.5 -125 17.5h-86c-9.33301 0 -17.166 2.83301 -23.499 8.5s-9.5 13.834 -9.5 24.501l1 79c0 9.33301 3.33301 17 10 23s14 9 22 9h95c39.333 0 78.333 5.66699 117 17s73.5 27.833 104.5 49.5s56 48 75 79
s28.5 66.167 28.5 105.5c0 30 -6 58.167 -18 84.5s-30 49.166 -54 68.499s-53.667 34.5 -89 45.5s-76.333 16.5 -123 16.5c-32 0 -63.667 -3.83301 -95 -11.5s-60.5 -20.167 -87.5 -37.5s-51 -39.666 -72 -66.999s-37.5 -61 -49.5 -101c-6 -20 -17.667 -30 -35 -30h-88
c-9.33301 0 -17.333 3.16699 -24 9.5s-9.33398 15.166 -8.00098 26.499c13.333 58 34.5 109.167 63.5 153.5s63.833 81.5 104.5 111.5s86 52.5 136 67.5s103 22.5 159 22.5c67.333 0 127.5 -9 180.5 -27s97.667 -43 134 -75s64.166 -70.333 83.499 -115s29 -93.667 29 -147
c0 -30 -4.83301 -59.667 -14.5 -89s-24 -57 -43 -83s-42.167 -49.667 -69.5 -71s-58.666 -39 -93.999 -53c-8.66699 -3.33301 -12.334 -9 -11.001 -17s5.66602 -13.333 12.999 -16z" />
    <glyph glyph-name="four" unicode="4" horiz-adv-x="1147" 
d="M1070 424c-0.666992 -9.33301 -4 -17.168 -10 -23.501s-13.667 -9.5 -23 -9.5h-147c-15.333 0 -23 -7.33301 -23 -22l2 -335c0 -9.33301 -3.16699 -17.333 -9.5 -24s-14.5 -10 -24.5 -10h-93c-10 0 -18.167 3.33301 -24.5 10s-9.5 14.667 -9.5 24l2 338
c0 5.33301 -2.16699 9.83301 -6.5 13.5s-9.16602 5.5 -14.499 5.5h-588c-9.33301 0 -17.333 2.83301 -24 8.5s-10 14.167 -10 25.5l2 80c0 7.33301 2.33301 14.333 7 21l602 916c8 10.667 18 16 30 16h119c9.33301 0 17 -3.16699 23 -9.5s9 -14.166 9 -23.499l6 -870
c0 -6 1.66699 -11 5 -15s8.33301 -6 15 -6h152c7.33301 0 14.166 -3 20.499 -9s9.83301 -13.333 10.5 -22zM716 1207c0 5.33301 -1.33203 9.83301 -3.99902 13.5s-6 6 -10 7s-8 0.833008 -12 -0.5s-7.33301 -4 -10 -8l-408 -657
c-2.66699 -7.33301 -2.83398 -13.833 -0.500977 -19.5s7.5 -8.5 15.5 -8.5h405c5.33301 0 9.83301 2 13.5 6s5.5 8.66699 5.5 14z" />
    <glyph glyph-name="five" unicode="5" horiz-adv-x="1165" 
d="M612 919c64.667 0 125.663 -11.498 182.996 -34.498s107.5 -55.167 150.5 -96.5s77 -91.333 102 -150s37.5 -123.334 37.5 -194.001c0 -60 -11.667 -118 -35 -174s-56.333 -105.5 -99 -148.5s-94.167 -77.5 -154.5 -103.5s-127.5 -39 -201.5 -39
c-65.333 0 -125.833 8.16699 -181.5 24.5s-105.167 39.833 -148.5 70.5s-80.166 68.334 -110.499 113.001s-52.833 96 -67.5 154c-2.66699 10 -0.166992 18.167 7.5 24.5s16.5 9.5 26.5 9.5h100c7.33301 0 14.166 -2.33301 20.499 -7s10.5 -11 12.5 -19
c14 -40.667 31.667 -74.834 53 -102.501s46.333 -50 75 -67s60.834 -29.167 96.501 -36.5s74.5 -11 116.5 -11c50 0 95 8.66699 135 26s74 40.666 102 69.999s49.667 63 65 101s23 78 23 120c0 52.667 -8.83301 99.667 -26.5 141s-41.167 76.333 -70.5 105
s-63.666 50.334 -102.999 65.001s-80.333 22 -123 22c-40 0 -74.667 -3.33301 -104 -10s-55.333 -15.5 -78 -26.5s-42.834 -23.667 -60.501 -38s-34.5 -29.5 -50.5 -45.5c-4 -4.66699 -8.33301 -8.5 -13 -11.5s-10 -4.83301 -16 -5.5h-89
c-9.33301 0 -17.333 2.83301 -24 8.5s-9.66699 14.167 -9 25.5l76 748c3.33301 20.667 15 31 35 31h712c9.33301 0 17.5 -2.83301 24.5 -8.5s10.5 -13.834 10.5 -24.501v-78c-2 -20 -13 -31 -33 -33h-607c-12 0 -18.667 -6.33301 -20 -19l-34 -429
c0.666992 -8.66699 3.83398 -14.667 9.50098 -18s11.834 -3.33301 18.501 0c42.667 23.333 85.334 41 128.001 53s89 18 139 18z" />
    <glyph glyph-name="six" unicode="6" horiz-adv-x="1228" 
d="M673 917c72 -1.33301 137.172 -14.499 195.505 -39.499s108.166 -58.5 149.499 -100.5s73.166 -90.5 95.499 -145.5s33.5 -113.5 33.5 -175.5c0 -64.667 -12.167 -125.834 -36.5 -183.501s-58 -108 -101 -151s-93.667 -77.333 -152 -103s-121.833 -38.834 -190.5 -39.501
c-75.333 0 -142 9.16699 -200 27.5s-108.5 43.5 -151.5 75.5s-79.333 69.833 -109 113.5s-53.667 91 -72 142s-31.5 104.5 -39.5 160.5s-12 112.333 -12 169c0 58 4.16699 118 12.5 180s21.5 122.333 39.5 181s41.167 114 69.5 166s62.833 97.5 103.5 136.5
s87.667 70 141 93s113.666 34.5 180.999 34.5c69.333 0 130.333 -11.5 183 -34.5s97 -52.167 133 -87.5s64 -74 84 -116s32.333 -82 37 -120c1.33301 -8 0.166016 -15.5 -3.50098 -22.5s-13.167 -10.5 -28.5 -10.5h-90c-12.667 0 -20.834 2.5 -24.501 7.5
s-6.83398 12.167 -9.50098 21.5c-21.333 77.333 -54 133 -98 167s-99.333 51 -166 51c-48.667 0 -91.667 -7.66699 -129 -23s-70.166 -36 -98.499 -62s-52.5 -56 -72.5 -90s-36.667 -69.833 -50 -107.5s-23.666 -76 -30.999 -115s-12.666 -76.167 -15.999 -111.5
c-0.666992 -6 1.16602 -11.667 5.49902 -17s9.16602 -6.33301 14.499 -3l58 39c22.667 15.333 50.167 29.833 82.5 43.5s70 25.334 113 35.001s92.833 14.5 149.5 14.5zM644.005 130.001c50.667 0 97.502 8.16797 140.502 24.501s80.333 39.166 112 68.499
s56.334 64.333 74.001 105s26.5 85 26.5 133s-8.66699 91.5 -26 130.5s-41 72.333 -71 100s-65.5 49.167 -106.5 64.5s-85.167 23 -132.5 23c-42.667 0 -86.834 -6.33301 -132.501 -19s-87.167 -31.5 -124.5 -56.5s-68 -56 -92 -93s-36 -79.5 -36 -127.5
c0 -24 3.5 -49.5 10.5 -76.5s17.167 -53.5 30.5 -79.5s30.166 -51 50.499 -75s44 -45 71 -63s57.667 -32.333 92 -43s72.166 -16 113.499 -16z" />
    <glyph glyph-name="seven" unicode="7" horiz-adv-x="1058" 
d="M984 1299c0 -8.66699 -1.33105 -15.335 -3.99805 -20.002c-28.667 -54.667 -58.5 -115.167 -89.5 -181.5l-94 -209l-94 -224.5l-88.5 -227.5c-28 -75 -53.833 -147.667 -77.5 -218s-43.834 -135.5 -60.501 -195.5c-4.66699 -15.333 -15.334 -23 -32.001 -23h-113
c-16.667 0 -27.167 4.83301 -31.5 14.5s-4.16602 19.834 0.500977 30.501c32.667 96 68 193.167 106 291.5l122 302l139.5 317l159.5 336.5c3.33301 6 3.66602 11.167 0.999023 15.5s-6.66699 6.5 -12 6.5h-713c-7.33301 0 -14.166 2.83301 -20.499 8.5s-9.5 13.5 -9.5 23.5
l2 77c0 9.33301 2.66699 17.5 8 24.5s13.333 10.5 24 10.5h840c9.33301 0 17.166 -3.16699 23.499 -9.5s9.83301 -14.166 10.5 -23.499z" />
    <glyph glyph-name="eight" unicode="8" horiz-adv-x="1178" 
d="M800 761c42.667 -17.333 82.0039 -38.4922 118.004 -63.4922s67.167 -53.333 93.5 -85s47 -65.667 62 -102s22.5 -74.5 22.5 -114.5c0 -62 -13.333 -118.5 -40 -169.5s-63 -94.833 -109 -131.5s-99.5 -65.167 -160.5 -85.5s-125.833 -30.5 -194.5 -30.5
c-63.333 0 -125.5 8.66699 -186.5 26s-115.5 43.333 -163.5 78s-86.667 78.167 -116 130.5s-44 113.833 -44 184.5c0 40 7.66699 78.167 23 114.5s36.166 70.166 62.499 101.499s56.833 59.333 91.5 84s71.334 45 110.001 61c12.667 5.33301 20.167 11.166 22.5 17.499
s-2.83398 12.5 -15.501 18.5c-64 31.333 -115.5 72.166 -154.5 122.499s-58.5 109.5 -58.5 177.5c0 60.667 12.333 113.667 37 159s57 83.166 97 113.499s85.667 53 137 68s103.666 22.5 156.999 22.5c32.667 0 66.167 -3 100.5 -9s67.666 -15.333 99.999 -28
s62.833 -28.834 91.5 -48.501s53.667 -42.834 75 -69.501s38.166 -57.334 50.499 -92.001s18.5 -73.334 18.5 -116.001c0 -33.333 -6 -64.833 -18 -94.5s-28.333 -57.167 -49 -82.5s-45 -48.333 -73 -69s-58 -38.667 -90 -54c-10.667 -5.33301 -15.167 -11.5 -13.5 -18.5
s7.16699 -12.167 16.5 -15.5zM307.004 1092.01c0 -36 7.5 -68.165 22.5 -96.498s35.5 -52.166 61.5 -71.499s56.167 -34 90.5 -44s71.166 -15 110.499 -15c38 0 74.667 5 110 15s66.5 24.667 93.5 44s48.667 43 65 71s24.5 59.667 24.5 95c0 38.667 -7.5 72.167 -22.5 100.5
s-35.667 51.666 -62 69.999s-57.5 31.833 -93.5 40.5s-74.667 13 -116 13c-37.333 0 -73.166 -4.83301 -107.499 -14.5s-64.5 -23.834 -90.5 -42.501s-46.833 -41.834 -62.5 -69.501s-23.5 -59.5 -23.5 -95.5zM592.004 130.01c42.667 0 84.1641 6.16602 124.497 18.499
s76 30.333 107 54s56 52.667 75 87s28.5 73.5 28.5 117.5c0 40.667 -9.83301 78 -29.5 112s-45.5 63.333 -77.5 88s-68 43.834 -108 57.501s-80 20.5 -120 20.5c-41.333 0 -82.166 -6.66699 -122.499 -20s-76.666 -32.333 -108.999 -57s-58.5 -54 -78.5 -88
s-30 -71.667 -30 -113c0 -43.333 9.33301 -82.166 28 -116.499s43.834 -63.333 75.501 -87s68 -41.834 109 -54.501s83.5 -19 127.5 -19z" />
    <glyph glyph-name="nine" unicode="9" horiz-adv-x="1189" 
d="M578 1458c64.667 0 122.332 -9.66309 172.999 -28.9961s95.334 -46.333 134.001 -81s71.334 -75.667 98.001 -123s48.5 -98.833 65.5 -154.5s29.333 -114.5 37 -176.5s11.5 -124.667 11.5 -188c0 -104 -10.667 -200.333 -32 -289s-53.333 -165.5 -96 -230.5
s-96 -115.833 -160 -152.5s-138.667 -55 -224 -55c-55.333 0 -105.166 6.83301 -149.499 20.5s-84 31.5 -119 53.5s-65.333 46.5 -91 73.5s-47.334 53.833 -65.001 80.5s-31.834 51.667 -42.501 75s-18 42.333 -22 57c-3.33301 11.333 -2.16602 20.166 3.50098 26.499
s14.167 9.5 25.5 9.5h103c5.33301 -1.33301 9.5 -2.16602 12.5 -2.49902s5.66699 -1.33301 8 -3s4.5 -4.33398 6.5 -8.00098s4.66699 -8.83398 8 -15.501c10.667 -23.333 24.667 -47.666 42 -72.999s38.5 -48.5 63.5 -69.5s53.833 -38.333 86.5 -52s70 -20.5 112 -20.5
c58 0 107.667 11.333 149 34s76 51.667 104 87s50.333 74.166 67 116.499s29 83.166 37 122.499s12.667 74.5 14 105.5s1 52.833 -1 65.5c-2.66699 15.333 -7.33398 23 -14.001 23s-16.334 -5.66699 -29.001 -17l-61 -51c-22 -18 -46.667 -34.333 -74 -49
s-58 -26.834 -92 -36.501s-72 -14.5 -114 -14.5c-64.667 0 -125.5 11.833 -182.5 35.5s-106.833 56.5 -149.5 98.5s-76.334 91.667 -101.001 149s-37 119.333 -37 186c0 66 12.167 127.667 36.5 185s58.333 107.333 102 150s95.834 76.167 156.501 100.5
s127.334 36.5 200.001 36.5zM917.998 976.004c-1.33301 42 -10.334 83.3291 -27.001 123.996s-40 76.834 -70 108.501s-66.333 57.167 -109 76.5s-90 29 -142 29c-50 0 -95.833 -8.83301 -137.5 -26.5s-77.667 -41.5 -108 -71.5s-54 -65 -71 -105s-25.5 -82.333 -25.5 -127
c0 -43.333 8.16699 -84.166 24.5 -122.499s39 -72 68 -101s63.833 -51.833 104.5 -68.5s85.334 -25 134.001 -25c40 0 81.5 6.16699 124.5 18.5s82 31.333 117 57s63.667 57.834 86 96.501s32.833 84.334 31.5 137.001z" />
    <glyph glyph-name="colon" unicode=":" horiz-adv-x="373" 
d="M286 34c0 -9.33301 -3.16699 -17.333 -9.5 -24s-14.166 -10 -23.499 -10h-134c-9.33301 -0 -17 3.33301 -23 10s-9 14.667 -9 24l2 137c0 9.33301 3.16699 17.333 9.5 24s14.166 10 23.499 10h128c9.33301 0 17 -3.33301 23 -10s9.33301 -14.667 10 -24zM286 882
c0 -9.33301 -3.16699 -17.333 -9.5 -24s-14.166 -10 -23.499 -10h-134c-9.33301 0 -17 3.33301 -23 10s-9 14.667 -9 24l2 137c0 9.33301 3.16699 17.333 9.5 24s14.166 10 23.499 10h128c9.33301 0 17 -3.33301 23 -10s9.33301 -14.667 10 -24z" />
    <glyph glyph-name="semicolon" unicode=";" horiz-adv-x="463" 
d="M160 -222c-7.33301 -6 -14.665 -8.66992 -21.998 -8.00293s-13.166 3.33398 -17.499 8.00098s-6.83301 10.5 -7.5 17.5s2 13.833 8 20.5c13.333 14.667 22.666 31 27.999 49s7 35.833 5 53.5s-7.83301 33.834 -17.5 48.501s-22.834 26.667 -39.501 36
c-12 8.66699 -18 19.334 -18 32.001l2 136c0 9.33301 3.16699 17.333 9.5 24s14.166 10 23.499 10h129c9.33301 0 17 -3.33301 23 -10s9.33301 -14.667 10 -24l3 -135c-2 -54.667 -13.333 -103.667 -34 -147s-49 -80.333 -85 -111zM286.001 881.997
c0 -9.33301 -2.99902 -17.333 -8.99902 -24s-14 -10 -24 -10h-131c-9.33301 0 -17 3.33301 -23 10s-9 14.667 -9 24l2 135c0 9.33301 3.16699 17.333 9.5 24s14.166 10 23.499 10h125c9.33301 0 17 -3.33301 23 -10s9.33301 -14.667 10 -24z" />
    <glyph glyph-name="less" unicode="&#x3c;" horiz-adv-x="1122" 
d="M252 582c-6.66699 -2.66699 -9.83398 -8.16602 -9.50098 -16.499s3.5 -13.833 9.5 -16.5l766 -374c12 -7.33301 18 -17.666 18 -30.999v-75c0 -12 -5.5 -21.333 -16.5 -28s-21.833 -6.66699 -32.5 0l-906 464c-10.667 4.66699 -16 13.667 -16 27v71
c0 13.333 6 22.666 18 27.999l904 393c11.333 5.33301 22 4.66602 32 -2.00098s15 -15.667 15 -27v-76c0 -5.33301 -2.16699 -11.5 -6.5 -18.5s-10.166 -11.833 -17.499 -14.5z" />
    <glyph glyph-name="equal" unicode="=" horiz-adv-x="1147" 
d="M1059 683c-0.666992 -7.33301 -3.49902 -13.5 -8.49902 -18.5s-11.167 -7.83301 -18.5 -8.5h-916c-7.33301 0 -13.833 2.66699 -19.5 8s-8.5 11.666 -8.5 18.999v77c0 7.33301 2.83301 13.833 8.5 19.5s12.167 8.5 19.5 8.5h915c7.33301 0 13.666 -2.66699 18.999 -8
s8.33301 -11.666 9 -18.999v-78zM1059 273c-0.666992 -7.33301 -3.49902 -13.667 -8.49902 -19s-11.167 -8 -18.5 -8h-916c-7.33301 0 -13.833 2.66699 -19.5 8s-8.5 11.666 -8.5 18.999v76c0 8 2.83301 14.833 8.5 20.5s12.167 8.5 19.5 8.5h915
c7.33301 0 13.666 -2.66699 18.999 -8s8.33301 -11.666 9 -18.999v-78z" />
    <glyph glyph-name="greater" unicode="&#x3e;" horiz-adv-x="1122" 
d="M112 886c-7.33301 2.66699 -13.166 7.49902 -17.499 14.499s-6.5 13.167 -6.5 18.5v76c0 11.333 5 20.333 15 27s20.667 7.33398 32 2.00098l904 -393c12 -5.33301 18 -14.666 18 -27.999v-71c0 -13.333 -5.33301 -22.333 -16 -27l-906 -464
c-10.667 -6.66699 -21.5 -6.66699 -32.5 0s-16.5 16 -16.5 28v75c0 13.333 6 23.666 18 30.999l766 374c6 2.66699 9.16699 8.16699 9.5 16.5s-2.83398 13.833 -9.50098 16.5z" />
    <glyph glyph-name="question" unicode="?" horiz-adv-x="1108" 
d="M888 1061c0 44 -8.66699 82.999 -26 116.999s-40.5 62.333 -69.5 85s-62.833 39.834 -101.5 51.501s-79.334 17.5 -122.001 17.5c-37.333 0 -73.666 -5.16699 -108.999 -15.5s-67.833 -25.333 -97.5 -45s-55.167 -44 -76.5 -73s-37 -62.5 -47 -100.5
c-2.66699 -10 -6.83398 -18.333 -12.501 -25s-13.167 -10 -22.5 -10h-90c-5.33301 0 -10.5 0.5 -15.5 1.5s-9.16699 3 -12.5 6s-5.5 7.16699 -6.5 12.5s-0.5 12.666 1.5 21.999c16 64.667 41 120.5 75 167.5s73.667 85.833 119 116.5s94.5 53.334 147.5 68.001
s106.833 22 161.5 22c62.667 0 121.334 -10.167 176.001 -30.5s102.167 -49 142.5 -86s72.166 -81.333 95.499 -133s35 -108.834 35 -171.501c0 -65.333 -12.5 -122.166 -37.5 -170.499s-57.167 -91.5 -96.5 -129.5s-83 -72 -131 -102l-140 -88
c-6.66699 -4 -10 -9.66699 -10 -17l2 -122c0 -10 -3 -18 -9 -24s-13.667 -9.33301 -23 -10h-88c-11.333 0 -20.166 3.16699 -26.499 9.5s-9.5 14.5 -9.5 24.5l2 179c0 13.333 6 23.666 18 30.999l156.5 96.5c49 31.667 91.833 64.334 128.5 98.001s65.667 69 87 106
s32 77.5 32 121.5zM641 33.999c0 -9.33301 -2.99902 -17.333 -8.99902 -24s-14 -10 -24 -10h-131c-9.33301 0 -17 3.33301 -23 10s-9 14.667 -9 24l2 135c0 9.33301 3.16699 17.333 9.5 24s14.166 10 23.499 10h125c9.33301 0 17 -3.33301 23 -10s9.33301 -14.667 10 -24z
" />
    <glyph glyph-name="at" unicode="@" horiz-adv-x="1537" 
d="M1456 787c0 -44 -4.6748 -89.498 -14.0078 -136.498s-24 -90 -44 -129s-46.167 -71 -78.5 -96s-71.5 -37.5 -117.5 -37.5c-35.333 0 -68.333 10 -99 30s-55.667 47.333 -75 82c-4 6.66699 -9.33301 10.5 -16 11.5s-12 -1.16699 -16 -6.5
c-31.333 -38 -64.666 -67.333 -99.999 -88s-78 -31 -128 -31c-48 0 -91.5 9.5 -130.5 28.5s-72.333 44.333 -100 76s-49 67.667 -64 108s-22.5 82.166 -22.5 125.499c0 42.667 7.33301 84.334 22 125.001s35.334 76.667 62.001 108s58.834 56.666 96.501 75.999
s79.834 29 126.501 29c38 0 74 -8 108 -24s66.667 -39 98 -69c6 -5.33301 12.667 -7.33301 20 -6s11 6.66602 11 15.999v37c0 8.66699 2.5 15.834 7.5 21.501s11.833 8.5 20.5 8.5h37c7.33301 0 13.5 -2.66699 18.5 -8s7.83301 -12 8.5 -20l16 -407
c1.33301 -23.333 7.83301 -43.5 19.5 -60.5s25.667 -29.167 42 -36.5s34.166 -9 53.499 -5s37.333 15.667 54 35c25.333 23.333 43 56.666 53 99.999s15.667 94.333 17 153c-1.33301 78 -15.833 150.833 -43.5 218.5s-66.167 126.834 -115.5 177.501
s-108.166 91 -176.499 121s-143.833 46.333 -226.5 49c-84 -0.666992 -161.667 -17.834 -233 -51.501s-132.833 -79.167 -184.5 -136.5s-92 -124.166 -121 -200.499s-43.5 -157.166 -43.5 -242.499c0 -54 6.5 -106.833 19.5 -158.5s31.5 -100.834 55.5 -147.501
s53.167 -89.834 87.5 -129.501s73 -73.834 116 -102.501s90 -51.167 141 -67.5s104.833 -24.5 161.5 -24.5c58 0 114.5 8.16699 169.5 24.5s106.167 42.5 153.5 78.5c7.33301 6 16.333 7.83301 27 5.5s17.667 -7.5 21 -15.5l28 -60c4.66699 -14 2.66699 -25.5 -6 -34.5
s-18 -16.167 -28 -21.5c-48.667 -28.667 -102.5 -51.667 -161.5 -69s-126.833 -26 -203.5 -26c-68.667 0 -133.5 8.83301 -194.5 26.5s-117.167 42.667 -168.5 75s-97.666 71 -138.999 116s-76.333 95.167 -105 150.5s-50.667 114.666 -66 177.999s-23 129.333 -23 198
s8 134.834 24 198.501s38.667 123.334 68 179.001s64.833 106.167 106.5 151.5s88.334 84.333 140.001 117s107.834 58 168.501 76s124.334 27 191.001 27c64 0 125.333 -8.5 184 -25.5s113 -40.667 163 -71s95.167 -66.833 135.5 -109.5s74.833 -89.5 103.5 -140.5
s50.667 -105.5 66 -163.5s23 -118 23 -180zM972.992 726.002c0 33.333 -5.16504 64.166 -15.498 92.499s-24.833 52.666 -43.5 72.999s-40.667 36.333 -66 48s-53 17.5 -83 17.5c-33.333 0 -62.666 -6.33301 -87.999 -19s-46.5 -29.667 -63.5 -51s-30 -45.666 -39 -72.999
s-13.5 -55.666 -13.5 -84.999c0 -32.667 5 -63 15 -91s24.167 -52.5 42.5 -73.5s40.166 -37.5 65.499 -49.5s53.333 -18 84 -18c33.333 0 62.666 6.83301 87.999 20.5s46.666 31.5 63.999 53.5s30.5 46.667 39.5 74s13.5 54.333 13.5 81z" />
    <glyph glyph-name="A" unicode="A" horiz-adv-x="1435" 
d="M1350 42c4.66699 -11.333 3.50195 -20.998 -3.49805 -28.998s-15.167 -12.333 -24.5 -13h-109c-16.667 0 -27.334 8.33301 -32.001 25l-147 402c-6 16.667 -18 25 -36 25h-559c-16.667 0 -28.334 -7.66699 -35.001 -23l-151 -406
c-5.33301 -14.667 -15.333 -22.334 -30 -23.001h-108c-13.333 0 -22.666 4.33301 -27.999 13s-5.33301 19.667 0 33l564 1394c2 5.33301 5.16699 9.66602 9.5 12.999s10.166 5 17.499 5h80c14.667 0 24.667 -7 30 -21zM956.002 639.002l-210.999 573.002
c-2.66699 7.33301 -6.5 12.666 -11.5 15.999s-10.167 5 -15.5 5s-10.333 -1.83301 -15 -5.5s-8 -8.83398 -10 -15.501l-211 -573c-4 -11.333 -3.33301 -20.166 2 -26.499s13.666 -9.5 24.999 -9.5h420c11.333 0 19.5 3.66699 24.5 11s5.83301 15.666 2.5 24.999z" />
    <glyph glyph-name="B" unicode="B" horiz-adv-x="1351" 
d="M1209 444c0 -64.667 -10.667 -124.17 -32 -178.503s-51.5 -101.166 -90.5 -140.499s-86.167 -70 -141.5 -92s-117 -33 -185 -33h-629c-10 0 -18.167 3.33301 -24.5 10s-9.5 14.667 -9.5 24l10 1391c0 9.33301 3 17.166 9 23.499s14 9.5 24 9.5h613
c58.667 0 112.167 -10.333 160.5 -31s90 -48.334 125 -83.001s62.333 -74.5 82 -119.5s29.5 -91.833 29.5 -140.5c0 -27.333 -4 -54.666 -12 -81.999s-19.333 -53.666 -34 -78.999s-32 -49 -52 -71s-41.333 -41.667 -64 -59c32 -16 61.5 -37 88.5 -63s50.333 -54.667 70 -86
s35 -64.166 46 -98.499s16.5 -68.166 16.5 -101.499zM252 876.997c0 -8.66699 2.66895 -15.667 8.00195 -21s12 -8 20 -8h482c31.333 0 61.166 6.33301 89.499 19s53.166 29.667 74.499 51s38.166 46 50.499 74s18.5 57.667 18.5 89c0 34.667 -7 66.167 -21 94.5
s-32.333 52.5 -55 72.5s-48.5 35.5 -77.5 46.5s-58.5 16.5 -88.5 16.5h-474c-9.33301 0 -16.666 -2.5 -21.999 -7.5s-8 -12.167 -8 -21.5zM1054 441.997c0 31.333 -6.83301 62.498 -20.5 93.498s-32.334 58.833 -56.001 83.5s-51.667 44.667 -84 60s-67.5 23.333 -105.5 24
l-506 1c-9.33301 0 -16.333 -3 -21 -9s-7 -13 -7 -21l3 -486c0 -8 2.5 -14.5 7.5 -19.5s11.5 -7.83301 19.5 -8.5h484c44.667 0 84.834 8.16699 120.501 24.5s65.667 37.833 90 64.5s43 56.834 56 90.501s19.5 67.834 19.5 102.501z" />
    <glyph glyph-name="C" unicode="C" horiz-adv-x="1522" 
d="M1434 467c-22.667 -70.667 -54.6709 -135.832 -96.0039 -195.499s-90.166 -111.167 -146.499 -154.5s-119.5 -77.166 -189.5 -101.499s-145 -36.5 -225 -36.5c-72 0 -139 9.5 -201 28.5s-118.833 45.333 -170.5 79s-97.5 73.667 -137.5 120s-73.667 97.166 -101 152.499
s-48.166 113.833 -62.499 175.5s-21.5 124.834 -21.5 189.501c0 105.333 16.333 203.833 49 295.5s79.334 171.5 140.001 239.5s133.667 121.667 219 161s180.666 59 285.999 59c76 0 147.167 -10.5 213.5 -31.5s126.5 -49.833 180.5 -86.5s100.833 -79.834 140.5 -129.501
s71.167 -103.5 94.5 -161.5c6 -13.333 5.66699 -25 -1 -35s-16.667 -15 -30 -15h-88c-9.33301 0 -16.666 2 -21.999 6s-10.333 10.333 -15 19c-24 44 -51.5 83.5 -82.5 118.5s-66 64.667 -105 89s-82.167 43.166 -129.5 56.499s-99.333 20 -156 20
c-76.667 0 -147.834 -14.5 -213.501 -43.5s-122.667 -69.5 -171 -121.5s-86.166 -113.667 -113.499 -185s-41 -149.333 -41 -234c0 -86.667 14 -167.5 42 -242.5s66.167 -140 114.5 -195s105.333 -98.167 171 -129.5s136.167 -47 211.5 -47
c58.667 0 113.334 9.33301 164.001 28s96.834 44.334 138.501 77.001s78.667 71.167 111 115.5s59.166 92.166 80.499 143.499c3.33301 7.33301 7.5 13.666 12.5 18.999s12.5 8 22.5 8h99c8 0 14.333 -1.83301 19 -5.5s8.16699 -8.16699 10.5 -13.5
s3.33301 -11.166 3 -17.499s-1.5 -12.5 -3.5 -18.5z" />
    <glyph glyph-name="D" unicode="D" horiz-adv-x="1369" 
d="M634 1458c106 0 199.168 -19.668 279.501 -59.001s147.833 -92.666 202.5 -159.999s95.834 -145.5 123.501 -234.5s41.5 -183.5 41.5 -283.5c0 -92 -12.167 -181.167 -36.5 -267.5s-61.5 -163.166 -111.5 -230.499s-112.833 -121.333 -188.5 -162
s-164.834 -61 -267.501 -61h-550c-10 0 -18.167 3.33301 -24.5 10s-9.5 14.667 -9.5 24l10 1391c0 9.33301 3.16699 17.166 9.5 23.499s14.166 9.5 23.499 9.5h498zM666.001 159.999c70 0 133.332 15.833 189.999 47.5s105 73.5 145 125.5s70.833 111.667 92.5 179
s32.5 136.666 32.5 207.999c0 75.333 -10.5 148.5 -31.5 219.5s-51.667 134 -92 189s-89.666 99.167 -147.999 132.5s-124.5 50 -198.5 50h-383c-18.667 -1.33301 -28 -11.666 -28 -30.999l8 -1092c0 -9.33301 2.83301 -16.333 8.5 -21s12.5 -7 20.5 -7h384z" />
    <glyph glyph-name="E" unicode="E" horiz-adv-x="1134" 
d="M1059 34c0 -10 -3.33496 -18.165 -10.002 -24.498s-14.667 -9.5 -24 -9.5h-898c-10 0 -18.167 3.33301 -24.5 10s-9.5 14.667 -9.5 24l10 1391c0 9.33301 3 17.166 9 23.499s13.667 9.5 23 9.5h868c8.66699 0 15.667 -2.83301 21 -8.5s8 -12.5 8 -20.5l1 -85
c0 -8 -2.16699 -15 -6.5 -21s-11.166 -9 -20.499 -9h-733c-9.33301 -0.666992 -16.333 -3.83398 -21 -9.50098s-7 -12.5 -7 -20.5l3 -407c0 -8.66699 2.66699 -15.667 8 -21s12 -8 20 -8h666c8 0 14.833 -2.66699 20.5 -8s8.5 -12.333 8.5 -21l1 -85
c0 -8.66699 -2.83301 -15.834 -8.5 -21.501s-12.5 -8.5 -20.5 -8.5h-665c-9.33301 0 -16.5 -2.66699 -21.5 -8s-7.5 -12.333 -7.5 -21l4 -488c0 -7.33301 2.66699 -13.666 8 -18.999s12 -8 20 -8h740c10 0 18.333 -2.5 25 -7.5s10.334 -12.167 11.001 -21.5z" />
    <glyph glyph-name="F" unicode="F" horiz-adv-x="1095" 
d="M1033 1343c0 -8 -2.50098 -14.665 -7.50098 -19.998s-11.833 -8.33301 -20.5 -9h-732c-9.33301 -0.666992 -16.333 -3.83398 -21 -9.50098s-7 -12.5 -7 -20.5l4 -407c0 -8.66699 2.66699 -15.667 8 -21s12 -8 20 -8h665c8 0 14.667 -2.66699 20 -8s8.33301 -12 9 -20
l1 -87c0 -8 -2.66699 -14.833 -8 -20.5s-12 -8.5 -20 -8.5h-665c-9.33301 0 -16.666 -2.66699 -21.999 -8s-8 -12.333 -8 -21l5 -641c0 -9.33301 -3.16699 -17.333 -9.5 -24s-14.5 -10 -24.5 -10h-93c-10 0 -18.167 3.33301 -24.5 10s-9.5 14.667 -9.5 24l10 1391
c0 9.33301 3.16699 17.166 9.5 23.499s14.166 9.5 23.499 9.5h866c8.66699 0 15.834 -2.83301 21.501 -8.5s8.5 -12.5 8.5 -20.5z" />
    <glyph glyph-name="G" unicode="G" horiz-adv-x="1554" 
d="M1469 649c-6 -91.333 -27.166 -177.499 -63.499 -258.499s-84.833 -152 -145.5 -213s-131.834 -109.333 -213.501 -145s-170.834 -53.5 -267.501 -53.5c-102 0 -195.667 19.667 -281 59s-158.666 93.5 -219.999 162.5s-109.166 150.167 -143.499 243.5
s-51.5 194.333 -51.5 303c0 102.667 17.167 198.5 51.5 287.5s82.166 166.5 143.499 232.5s134.666 117.833 219.999 155.5s179 56.5 281 56.5c72.667 0 141.834 -10.333 207.501 -31s125.5 -49.5 179.5 -86.5s101.667 -80.667 143 -131s74.333 -104.833 99 -163.5
c3.33301 -7.33301 4.5 -13.833 3.5 -19.5s-3.16699 -10.5 -6.5 -14.5s-7.66602 -7.16699 -12.999 -9.5s-10.333 -3.5 -15 -3.5h-89c-14 0 -24.333 7.66699 -31 23c-24 46.667 -53 87.834 -87 123.501s-71.5 65.5 -112.5 89.5s-85 42.167 -132 54.5s-95.833 18.5 -146.5 18.5
c-76 0 -147 -14.5 -213 -43.5s-123.333 -69.333 -172 -121s-86.834 -113 -114.501 -184s-41.5 -148.833 -41.5 -233.5c0 -87.333 13.667 -168.5 41 -243.5s65.166 -140.167 113.499 -195.5s105.5 -98.666 171.5 -129.999s137.667 -47 215 -47c58 0 113 9.83301 165 29.5
s99.333 46 142 79s79.834 70.833 111.501 113.5s56.5 87 74.5 133c4.66699 11.333 5.66699 22.666 3 33.999s-12 17 -28 17h-335c-10 0 -18.167 3.16699 -24.5 9.5s-9.5 14.166 -9.5 23.499v80c0 9.33301 3.16699 17.166 9.5 23.499s14.5 9.5 24.5 9.5h523
c9.33301 0 17.333 -3.16699 24 -9.5s10 -14.5 10 -24.5z" />
    <glyph glyph-name="H" unicode="H" horiz-adv-x="1338" 
d="M1247 34c0 -9.33301 -3.16504 -17.334 -9.49805 -24.001s-14.5 -10 -24.5 -10h-93c-10 0 -18.167 3.33301 -24.5 10s-9.5 14.667 -9.5 24l5 641c0 19.333 -10 29 -30 29h-783c-19.333 0 -29 -9.66699 -29 -29l4 -641c0 -9.33301 -3.16699 -17.333 -9.5 -24
s-14.5 -10 -24.5 -10h-93c-10 0 -18.167 3.33301 -24.5 10s-9.5 14.667 -9.5 24l10 1391c0 9.33301 3.16699 17.166 9.5 23.499s14.166 9.5 23.499 9.5h76c9.33301 0 17 -3.16699 23 -9.5s9 -14.166 9 -23.499l4 -549c0 -7.33301 2.5 -13.666 7.5 -18.999s12.167 -8 21.5 -8
h788c7.33301 0 13.833 2.5 19.5 7.5s8.5 11.833 8.5 20.5l4 548c0 9.33301 3.16699 17.166 9.5 23.499s14.166 9.5 23.499 9.5h76c10 0 17.833 -3.16699 23.5 -9.5s8.5 -14.166 8.5 -23.499z" />
    <glyph glyph-name="I" unicode="I" horiz-adv-x="461" 
d="M145 34l10.001 1391c0 9.33301 3.16699 17.166 9.5 23.499s14.166 9.5 23.499 9.5h76c9.33301 0 17 -3.16699 23 -9.5s9 -14.166 9 -23.499l10 -1391c0 -9.33301 -3.16699 -17.333 -9.5 -24s-14.5 -10 -24.5 -10h-93c-10 -0 -18.167 3.33301 -24.5 10
s-9.5 14.667 -9.5 24z" />
    <glyph glyph-name="J" unicode="J" horiz-adv-x="993" 
d="M905 406c0.666992 -59.333 -9.49805 -114.999 -30.498 -166.999s-50.167 -97.333 -87.5 -136s-81.5 -69 -132.5 -91s-106.167 -33 -165.5 -33c-58.667 0 -113.5 10.667 -164.5 32s-95.5 51.333 -133.5 90s-67.833 85 -89.5 139s-32.5 113.667 -32.5 179
c0 12 3.83301 21 11.5 27s17.5 9 29.5 9h80c9.33301 0 17.5 -3.16699 24.5 -9.5s10.5 -15.166 10.5 -26.499c0 -44 6.5 -83.833 19.5 -119.5s31.167 -66 54.5 -91s51.166 -44.167 83.499 -57.5s67.833 -20 106.5 -20c36 0 69.833 7.33301 101.5 22s59 34.5 82 59.5
s41.333 54.167 55 87.5s20.5 68.666 20.5 105.999l8 1020c0 8.66699 3.16699 16.167 9.5 22.5s14.166 9.5 23.499 9.5h76c9.33301 0 17 -3.33301 23 -10s9 -14.334 9 -23.001z" />
    <glyph glyph-name="K" unicode="K" horiz-adv-x="1371" 
d="M1256 52c5.33301 -5.33301 8.00098 -11.1641 8.00098 -17.4971s-1.66699 -12 -5 -17s-7.83301 -9.16699 -13.5 -12.5s-11.5 -5 -17.5 -5h-122c-7.33301 0 -13.5 1.66699 -18.5 5s-9.5 7.66602 -13.5 12.999l-541 682c-6.66699 7.33301 -14 11.166 -22 11.499
s-15.333 -3.16699 -22 -10.5l-231 -212c-5.33301 -5.33301 -8 -12.333 -8 -21l3 -434c0 -9.33301 -3.16699 -17.333 -9.5 -24s-14.5 -10 -24.5 -10h-93c-10 0 -18.167 3.33301 -24.5 10s-9.5 14.667 -9.5 24l10 1391c0 9.33301 3.16699 17.166 9.5 23.499
s14.166 9.5 23.499 9.5h76c9.33301 0 17 -3.16699 23 -9.5s9 -14.166 9 -23.499l5 -676c0 -12.667 5 -21.5 15 -26.5s20 -3.5 30 4.5l791 723c7.33301 5.33301 15 8 23 8h84c6.66699 0 12.5 -1.5 17.5 -4.5s8.5 -6.83301 10.5 -11.5s2.83301 -9.33398 2.5 -14.001
s-2.5 -9 -6.5 -13l-580 -572c-6 -6 -9 -12.667 -9 -20s2.66699 -14.333 8 -21z" />
    <glyph glyph-name="L" unicode="L" horiz-adv-x="1129" 
d="M1058 33c0 -9.33301 -3.16602 -17.165 -9.49902 -23.498s-14.5 -9.5 -24.5 -9.5h-895c-9.33301 0 -17.333 3.33301 -24 10s-10 14.667 -10 24l10 1391c0 9.33301 3.16699 17.166 9.5 23.499s14.166 9.5 23.499 9.5h76c9.33301 0 17 -3.16699 23 -9.5s9 -14.166 9 -23.499
l9 -1235c0 -8.66699 2.5 -15.834 7.5 -21.501s11.833 -8.5 20.5 -8.5h744c8 0 15 -2.33301 21 -7s9 -11.334 9 -20.001z" />
    <glyph glyph-name="M" unicode="M" horiz-adv-x="1624" 
d="M1531 35c0 -9.33301 -3.16504 -17.499 -9.49805 -24.499s-14.5 -10.5 -24.5 -10.5h-93c-10 0 -18.167 3.33301 -24.5 10s-9.5 14.667 -9.5 24l8 1152c0 5.33301 -1.5 9.66602 -4.5 12.999s-6.5 5.33301 -10.5 6s-7.83301 0 -11.5 -2s-6.5 -5.33301 -8.5 -10l-449 -1170
c-3.33301 -6.66699 -7.83301 -12.167 -13.5 -16.5s-12.167 -6.5 -19.5 -6.5h-97c-16 0 -27 7.66699 -33 23l-448 1171c-2 4.66699 -5 7.83398 -9 9.50098s-8 2 -12 1s-7.5 -3.16699 -10.5 -6.5s-4.5 -7.33301 -4.5 -12l8 -1152c0 -9.33301 -3.16699 -17.333 -9.5 -24
s-14.5 -10 -24.5 -10h-93c-10 0 -18.167 3.33301 -24.5 10s-9.5 14.667 -9.5 24l10 1391c0 9.33301 3.16699 17.166 9.5 23.499s14.166 9.5 23.499 9.5h153c8 0 14.833 -2.33301 20.5 -7s9.83398 -10.334 12.501 -17.001l461 -1140c4.66699 -12 13.167 -18.167 25.5 -18.5
s21.166 5.5 26.499 17.5l469 1144c2.66699 6 6.66699 11 12 15s11.666 6 18.999 6h153c9.33301 0 17 -3.16699 23 -9.5s9 -14.166 9 -23.499z" />
    <glyph glyph-name="N" unicode="N" horiz-adv-x="1337" 
d="M1244 34c0 -9.33301 -3.16602 -17.332 -9.49902 -23.999s-14.5 -10 -24.5 -10h-141c-8.66699 0 -15.167 1.83301 -19.5 5.5s-8.5 8.83398 -12.5 15.501l-757 1173c-4.66699 7.33301 -11.5 10.5 -20.5 9.5s-13.5 -6.83301 -13.5 -17.5l8 -1152
c0 -9.33301 -3.16699 -17.333 -9.5 -24s-14.5 -10 -24.5 -10h-93c-10 0 -18.167 3.33301 -24.5 10s-9.5 14.667 -9.5 24l10 1391c0 9.33301 3.16699 17.166 9.5 23.499s14.166 9.5 23.499 9.5h119c10.667 0 19.334 -4.33301 26.001 -13l769 -1161
c4.66699 -8.66699 11.5 -11.834 20.5 -9.50098s13.5 8.5 13.5 18.5l9 1132c0 9.33301 3.16699 17.166 9.5 23.499s14.166 9.5 23.499 9.5h76c9.33301 0 17 -3.16699 23 -9.5s9 -14.166 9 -23.499z" />
    <glyph glyph-name="O" unicode="O" horiz-adv-x="1564" 
d="M785 1479c100.667 0 193.665 -18.833 278.998 -56.5s158.833 -89.334 220.5 -155.001s109.834 -143.167 144.501 -232.5s52 -185.333 52 -288c0 -72 -7.5 -140.833 -22.5 -206.5s-36.833 -127 -65.5 -184s-63.5 -108.667 -104.5 -155s-87.5 -86 -139.5 -119
s-109 -58.5 -171 -76.5s-128 -27 -198 -27c-103.333 0 -197.666 19.833 -282.999 59.5s-158.5 94 -219.5 163s-108.5 150 -142.5 243s-51 193.167 -51 300.5c0 104 17.333 200.833 52 290.5s83 167.334 145 233.001s136 117.167 222 154.5s180 56 282 56zM782.998 131
c80 0 153.168 16.502 219.501 49.502s123.5 77.667 171.5 134s85.333 121.666 112 195.999s40 152.5 40 234.5c0 80 -13.5 155.333 -40.5 226s-64.5 132.5 -112.5 185.5s-105.333 95 -172 126s-139.334 46.5 -218.001 46.5s-151.334 -15.333 -218.001 -46
s-124.167 -72.334 -172.5 -125.001s-86 -114.5 -113 -185.5s-40.5 -146.833 -40.5 -227.5c0 -82.667 13.167 -161.167 39.5 -235.5s63.5 -139.5 111.5 -195.5s105.333 -100.5 172 -133.5s140.334 -49.5 221.001 -49.5z" />
    <glyph glyph-name="P" unicode="P" horiz-adv-x="1209" 
d="M719 1458c59.333 0 115 -10.832 167 -32.499s97.5 -51.5 136.5 -89.5s69.833 -82.667 92.5 -134s34 -106.666 34 -165.999c0 -57.333 -10.5 -111.333 -31.5 -162s-50 -95.334 -87 -134.001s-81 -69.167 -132 -91.5s-106.833 -33.5 -167.5 -33.5h-454
c-7.33301 0 -13.666 -2.66699 -18.999 -8s-8 -12 -8 -20l4 -553c0 -9.33301 -3.16699 -17.333 -9.5 -24s-14.5 -10 -24.5 -10h-93c-10 0 -18.167 3.33301 -24.5 10s-9.5 14.667 -9.5 24l10 1391c0 9.33301 3.16699 17.166 9.5 23.499s14.166 9.5 23.499 9.5h583z
M714 760.001c43.333 0 82.333 7.33203 117 21.999s64 34.5 88 59.5s42.5 54.167 55.5 87.5s19.5 68.333 19.5 105s-6.66699 71.834 -20 105.501s-32 63.5 -56 89.5s-52.833 46.667 -86.5 62s-70.834 23 -111.501 23h-448c-7.33301 0 -13.666 -2.66699 -18.999 -8
s-8 -12 -8 -20l3 -500c0 -7.33301 2.5 -13.5 7.5 -18.5s11.167 -7.5 18.5 -7.5h440z" />
    <glyph glyph-name="Q" unicode="Q" horiz-adv-x="1562" 
d="M1219 140c-7.33301 -3.33301 -10.3301 -9.50293 -8.99707 -18.5029s4 -15.5 8 -19.5l81 -90c6 -6 9.16699 -13 9.5 -21s-2.83398 -14.333 -9.50098 -19l-79 -70c-7.33301 -7.33301 -15.333 -10 -24 -8s-15.667 6.66699 -21 14l-99 122
c-3.33301 4.66699 -7 7.33398 -11 8.00098s-8.66699 0.333984 -14 -0.999023c-40 -16 -82.667 -29.667 -128 -41s-92 -17 -140 -17c-74 0 -142.833 9.66699 -206.5 29s-121.334 46.166 -173.001 80.499s-97.5 75.5 -137.5 123.5s-73.667 100.333 -101 157
s-48 116.834 -62 180.501s-21 128.834 -21 195.501c0 101.333 17 196.666 51 285.999s81.667 167.166 143 233.499s134.666 118.666 219.999 156.999s179.333 57.5 282 57.5c70 0 135.833 -8.66699 197.5 -26s118.5 -42 170.5 -74s98.5 -70.167 139.5 -114.5
s75.833 -93.666 104.5 -147.999s50.667 -112.666 66 -174.999s23 -127.166 23 -194.499c0 -126 -21.667 -240.5 -65 -343.5s-108.333 -190.833 -195 -263.5zM1120 270.997c64.667 56.667 114.833 126 150.5 208s53.5 170.667 53.5 266c0 86.667 -14.667 165.834 -44 237.501
s-68.666 133.167 -117.999 184.5s-107 91.166 -173 119.499s-135.333 42.5 -208 42.5c-74 0 -144 -14.333 -210 -43s-123.833 -68.667 -173.5 -120s-88.834 -112.833 -117.501 -184.5s-43 -150.5 -43 -236.5c0 -87.333 14.333 -168.5 43 -243.5s67.834 -140 117.501 -195
s107.334 -98 173.001 -129s135.5 -46.5 209.5 -46.5c6.66699 0 18.5 0.5 35.5 1.5s34.833 3.16699 53.5 6.5s35.667 7.83301 51 13.5s24.666 13.167 27.999 22.5c2.66699 6.66699 1.66699 13 -3 19l-73 92c-6 6.66699 -8.83301 14 -8.5 22s3.5 15 9.5 21l60 50
c6.66699 6.66699 14 9.5 22 8.5s14.667 -4.5 20 -10.5l101 -115c2.66699 -5.33301 6.16699 -8 10.5 -8s8.66602 1 12.999 3s8.5 4.5 12.5 7.5s6.66699 5.16699 8 6.5z" />
    <glyph glyph-name="R" unicode="R" horiz-adv-x="1368" 
d="M1238 53c5.33301 -5.33301 7.99902 -11.165 7.99902 -17.498s-1.5 -12.166 -4.5 -17.499s-7.33301 -9.66602 -13 -12.999s-11.5 -5 -17.5 -5h-122c-13.333 0 -24 5.66699 -32 17l-446 586c-7.33301 8 -15.333 12 -24 12h-308c-8 0 -14.5 -2.83301 -19.5 -8.5
s-7.5 -12.834 -7.5 -21.501l4 -551c0 -9.33301 -3.16699 -17.333 -9.5 -24s-14.5 -10 -24.5 -10h-93c-10 0 -18.167 3.5 -24.5 10.5s-9.5 14.833 -9.5 23.5l10 1391c0 9.33301 3.16699 17.166 9.5 23.499s14.166 9.5 23.499 9.5h571c58 0 113.5 -10.5 166.5 -31.5
s100 -50.167 141 -87.5s73.667 -81.833 98 -133.5s36.5 -108.167 36.5 -169.5c0 -49.333 -8.66699 -96.333 -26 -141s-41 -84.834 -71 -120.501s-65 -65.834 -105 -90.501s-82.333 -42 -127 -52c-7.33301 -2 -12.166 -6.33301 -14.499 -13s-1.16602 -12.667 3.50098 -18z
M714.999 760.001c39.333 0 75.998 7.16602 109.998 21.499s63.667 34 89 59s45.333 54 60 87s22 68.5 22 106.5s-7.16699 73.833 -21.5 107.5s-34.166 63.334 -59.499 89.001s-55.166 46 -89.499 61s-71.5 22.5 -111.5 22.5h-439c-7.33301 0 -13.833 -2.66699 -19.5 -8
s-8.5 -12 -8.5 -20l4 -497c0 -8 2.66699 -14.833 8 -20.5s12 -8.5 20 -8.5h436z" />
    <glyph glyph-name="S" unicode="S" horiz-adv-x="1312" 
d="M1208 415c-0.666992 -78.667 -15.666 -145.503 -44.999 -200.503s-68.5 -100 -117.5 -135s-106 -60.5 -171 -76.5s-133.5 -24 -205.5 -24c-37.333 0 -76.333 3.33301 -117 10s-81.167 17.334 -121.5 32.001s-79.5 33.334 -117.5 56.001s-72.333 49.834 -103 81.501
s-56.834 68.167 -78.501 109.5s-36.834 88 -45.501 140c-0.666992 12 1.5 21.833 6.5 29.5s14.167 11.5 27.5 11.5h92c7.33301 0 14.166 -2.5 20.499 -7.5s10.5 -11.167 12.5 -18.5c10.667 -45.333 29.334 -86.166 56.001 -122.499s58.667 -67.166 96 -92.499
s79 -44.666 125 -57.999s93.667 -20 143 -20c48.667 0 96.334 5.16699 143.001 15.5s88.167 26.333 124.5 48s65.5 49.167 87.5 82.5s33 73.333 33 120c0 48 -11.333 87.833 -34 119.5s-52.667 58 -90 79s-79.833 38.167 -127.5 51.5s-96.167 25.666 -145.5 36.999
c-64.667 14 -127.167 31 -187.5 51s-113.666 45.833 -159.999 77.5s-83.5 70.5 -111.5 116.5s-42 101.667 -42 167c0 62 13 116.833 39 164.5s60.833 87.667 104.5 120s94 57 151 74s116.833 25.5 179.5 25.5c61.333 0 121.666 -7.33301 180.999 -22
s113.833 -37.334 163.5 -68.001s92.167 -69.834 127.5 -117.501s59.666 -104.167 72.999 -169.5c2 -10 -0.333008 -18.333 -7 -25s-15.667 -10 -27 -10h-87c-9.33301 0 -16.833 3.16699 -22.5 9.5s-10.167 14.5 -13.5 24.5c-15.333 42 -37 77.5 -65 106.5
s-59.167 52.5 -93.5 70.5s-70.333 31 -108 39s-73.5 12 -107.5 12c-34.667 0 -71.5 -3.66699 -110.5 -11s-75 -19.833 -108 -37.5s-60.333 -40.667 -82 -69s-32.5 -63.5 -32.5 -105.5c0 -34 6.83301 -64 20.5 -90s31.834 -49 54.501 -69s48.667 -37.167 78 -51.5
s59.5 -26.666 90.5 -36.999s61.5 -18.833 91.5 -25.5s57 -12.334 81 -17.001c63.333 -12 124 -27.167 182 -45.5s109.167 -42.5 153.5 -72.5s79.833 -67.833 106.5 -113.5s40 -102.167 40 -169.5z" />
    <glyph glyph-name="T" unicode="T" horiz-adv-x="1238" 
d="M1166 1344c0 -8 -2.16797 -14.999 -6.50098 -20.999s-11.166 -9 -20.499 -9h-424c-7.33301 0 -13.833 -2.33301 -19.5 -7s-8.5 -11.667 -8.5 -21l9 -1252c0 -9.33301 -3.16699 -17.333 -9.5 -24s-14.5 -10 -24.5 -10h-93c-10 0 -18.167 3.33301 -24.5 10
s-9.5 14.667 -9.5 24l9 1251c0 8 -2.83301 14.833 -8.5 20.5s-12.167 8.5 -19.5 8.5h-415c-8.66699 0 -15.5 2.66699 -20.5 8s-7.5 12.666 -7.5 21.999l2 87c0 8 2.83301 14.5 8.5 19.5s12.5 7.5 20.5 7.5h1032c8.66699 0 15.667 -2.5 21 -7.5s8 -11.5 8 -19.5z" />
    <glyph glyph-name="U" unicode="U" horiz-adv-x="1319" 
d="M242 574c0.666992 -63.333 12.332 -122.167 34.999 -176.5s53.167 -101.166 91.5 -140.499s82.5 -70.166 132.5 -92.499s103 -33.5 159 -33.5c55.333 0 108 11.333 158 34s94 54 132 94s68.333 87 91 141s34.334 112.333 35.001 175l6 850
c0 9.33301 3.16699 17.166 9.5 23.499s14.166 9.5 23.499 9.5h76c9.33301 0 17 -3.16699 23 -9.5s9 -14.166 9 -23.499l6 -853c0.666992 -82.667 -13.166 -160 -41.499 -232s-68 -134.833 -119 -188.5s-111.333 -95.834 -181 -126.501s-145.5 -46 -227.5 -46
c-54 0 -105.667 6.83301 -155 20.5s-95.333 33 -138 58s-81.167 55.167 -115.5 90.5s-63.666 74.666 -87.999 117.999s-43 90 -56 140s-19.167 102.333 -18.5 157l6 862c0 9.33301 3.16699 17.166 9.5 23.499s14.166 9.5 23.499 9.5h76c9.33301 0 17 -3.16699 23 -9.5
s9 -14.166 9 -23.499z" />
    <glyph glyph-name="V" unicode="V" horiz-adv-x="1416" 
d="M818 25c-5.33301 -16.667 -16.333 -25 -33 -25h-134c-18 0 -29.333 7 -34 21l-529 1401c-4.66699 11.333 -3.66699 20.166 3 26.499s16.334 9.5 29.001 9.5h82c15.333 0 25.666 -7 30.999 -21l465 -1186c3.33301 -9.33301 9.5 -13.666 18.5 -12.999s15.167 5 18.5 13
l450 1185c5.33301 14.667 16.333 22 33 22h80c9.33301 0 17.5 -3.5 24.5 -10.5s8.83301 -15.5 5.5 -25.5z" />
    <glyph glyph-name="W" unicode="W" horiz-adv-x="2034" 
d="M1526 26c-2.66699 -7.33301 -6.99512 -13.501 -12.9951 -18.501s-13 -7.5 -21 -7.5h-133c-8 0 -15.167 2.33301 -21.5 7s-10.5 10.667 -12.5 18l-295 1077c-2.66699 10 -8.83398 14.833 -18.501 14.5s-15.834 -5.16602 -18.501 -14.499l-323 -1076
c-2 -7.33301 -6.16699 -13.5 -12.5 -18.5s-13.833 -7.5 -22.5 -7.5h-131c-18.667 -0 -30.334 8.33301 -35.001 25l-378 1390c-3.33301 10.667 -2 20.5 4 29.5s15 13.5 27 13.5h81c16 0 26.333 -7.33301 31 -22l315 -1183c2.66699 -10 8.83398 -15.5 18.501 -16.5
s16.167 3.83301 19.5 14.5l356 1180c2 7.33301 6 13.666 12 18.999s13.333 8 22 8h78c8 0 15 -2.66699 21 -8s10 -11.666 12 -18.999l318 -1178c3.33301 -10 9.66602 -15.5 18.999 -16.5s15.666 3.83301 18.999 14.5l353 1184c2.66699 6.66699 6.66699 12.167 12 16.5
s11.666 6.5 18.999 6.5h81c12.667 0 22.167 -5 28.5 -15s6.83301 -20.333 1.5 -31z" />
    <glyph glyph-name="X" unicode="X" horiz-adv-x="1345" 
d="M772 757c-8 -12.667 -7.66699 -24.3301 1 -34.9971l445 -671c7.33301 -10 8.33301 -21 3 -33s-14.666 -18 -27.999 -18h-111c-12.667 0 -22.334 5 -29.001 15l-357 558c-7.33301 9.33301 -15.833 13.666 -25.5 12.999s-17.167 -5 -22.5 -13l-355 -557
c-3.33301 -4.66699 -7.5 -8.5 -12.5 -11.5s-10.167 -4.5 -15.5 -4.5h-112c-12.667 0 -22.167 5.66699 -28.5 17s-5.83301 22.666 1.5 33.999l447 671c3.33301 5.33301 5.16602 11.166 5.49902 17.499s-1.16699 12.166 -4.5 17.499l-410 653c-7.33301 10 -7.5 20.5 -0.5 31.5
s16.833 16.5 29.5 16.5h80c12 0 21.667 -5.33301 29 -16l346 -543c5.33301 -8 13.333 -11.833 24 -11.5s18.334 4.83301 23.001 13.5l347 540c7.33301 10.667 17.333 16.334 30 17.001h81c14.667 0 24.667 -5.83301 30 -17.5s4.33301 -23.167 -3 -34.5z" />
    <glyph glyph-name="Y" unicode="Y" horiz-adv-x="1222" 
d="M1113 1458c14 0 22.5049 -4.99805 25.5049 -14.998s0.833008 -20.667 -6.5 -32l-439 -677c-4 -6 -6 -12.333 -6 -19l5 -681c0 -9.33301 -3.16699 -17.333 -9.5 -24s-14.5 -10 -24.5 -10h-93c-10 0 -18.167 3.33301 -24.5 10s-9.5 14.667 -9.5 24l5 681
c0 7.33301 -1.66699 13.666 -5 18.999l-439 677c-6.66699 10 -8.33398 20.333 -5.00098 31s11.666 16 24.999 16h90c11.333 0 20.666 -5.33301 27.999 -16l357 -542c5.33301 -8.66699 13.166 -12.834 23.499 -12.501s18.166 4.83301 23.499 13.5l358 539
c7.33301 12 17.333 18 30 18h91z" />
    <glyph glyph-name="Z" unicode="Z" horiz-adv-x="1328" 
d="M1237 33c0 -9.33301 -3.16699 -17.167 -9.5 -23.5s-14.5 -9.5 -24.5 -9.5h-1069c-10 0 -18.5 3.5 -25.5 10.5s-10.5 16.167 -10.5 27.5l3 110c0 8 2.66699 15.667 8 23l882 1111c5.33301 7.33301 6.16602 14.5 2.49902 21.5s-10.167 10.5 -19.5 10.5h-824
c-10 0 -18 3.16699 -24 9.5s-9 15.166 -9 26.499l1 76c0 8.66699 3.33301 16.167 10 22.5s15 9.5 25 9.5h1026c10 0 18 -3.16699 24 -9.5s9.33301 -14.166 10 -23.499l2 -78c0 -12 -3.33301 -21.333 -10 -28l-865 -1127c-5.33301 -6.66699 -6.16602 -13.5 -2.49902 -20.5
s9.16699 -10.5 16.5 -10.5h847c10 0 18.333 -2.5 25 -7.5s10 -12.5 10 -22.5z" />
    <glyph glyph-name="bracketleft" unicode="[" horiz-adv-x="551" 
d="M238 1329c-11.333 0 -17 -6.66699 -17 -20v-1600c0 -13.333 5.66699 -20 17 -20h213c8.66699 0 16 -2.66699 22 -8s9 -12.333 9 -21v-71c0 -8.66699 -2.83301 -15.667 -8.5 -21s-13.167 -8 -22.5 -8h-331c-9.33301 0 -17 2.5 -23 7.5s-9 12.167 -9 21.5v1840
c0 9.33301 3 16.5 9 21.5s13.667 7.5 23 7.5h331c8.66699 0 16 -2.5 22 -7.5s9 -11.833 9 -20.5v-72c0 -8.66699 -3 -15.667 -9 -21s-13.333 -8 -22 -8h-213z" />
    <glyph glyph-name="backslash" unicode="\" horiz-adv-x="856" 
d="M180 1458c14 0 23.332 -6.33301 27.999 -19l575 -1393c3.33301 -10 2.66602 -20.167 -2.00098 -30.5s-13.667 -15.5 -27 -15.5h-115c-16.667 0 -27 7 -31 21l-530 1394c-2.66699 4.66699 -3.66699 9.5 -3 14.5s2.33398 9.66699 5.00098 14s6.33398 7.83301 11.001 10.5
s9.66699 4 15 4h74z" />
    <glyph glyph-name="bracketright" unicode="]" horiz-adv-x="552" 
d="M101 1329c-8.66699 0 -16 2.66699 -22 8s-9 12.333 -9 21v72c0 8.66699 3 15.5 9 20.5s13.333 7.5 22 7.5h331c9.33301 0 17 -2.5 23 -7.5s9 -12.167 9 -21.5v-1840c0 -9.33301 -3 -16.5 -9 -21.5s-13.667 -7.5 -23 -7.5h-331c-9.33301 0 -16.833 2.66699 -22.5 8
s-8.5 12.333 -8.5 21v71c0 8.66699 3 15.667 9 21s13.333 8 22 8h213c11.333 0 17 6.66699 17 20v1600c0 13.333 -5.66699 20 -17 20h-213z" />
    <glyph glyph-name="asciicircum" unicode="^" horiz-adv-x="1191" 
d="M227 513c-2.66699 -7.33301 -7.49902 -13.166 -14.499 -17.499s-13.167 -6.83301 -18.5 -7.5h-76c-11.333 0 -20.5 5 -27.5 15s-7.5 20.667 -1.5 32l422 905c4.66699 12 13.667 18 27 18h71c13.333 0 22.666 -5.33301 27.999 -16l465 -906
c6.66699 -10.667 6.5 -21.5 -0.5 -32.5s-16.5 -16.5 -28.5 -16.5h-75c-14 0 -24.333 6 -31 18l-374 766c-3.33301 6 -9 9.16699 -17 9.5s-13.333 -2.83398 -16 -9.50098z" />
    <glyph glyph-name="underscore" unicode="_" horiz-adv-x="1146" 
d="M1058 -262c-1.33301 -16.667 -10.333 -25.667 -27 -27h-915c-7.33301 0 -13.833 2.66699 -19.5 8s-8.5 11.666 -8.5 18.999v76c0 7.33301 2.66699 14 8 20s12 9 20 9h913c8.66699 0 15.5 -2.66699 20.5 -8s7.83301 -11.666 8.5 -18.999v-78z" />
    <glyph glyph-name="grave" unicode="`" horiz-adv-x="430" 
d="M85 1407c-4.66699 4.66699 -7.16699 9.83301 -7.5 15.5s0.666992 11.167 3 16.5s6 9.83301 11 13.5s10.5 5.5 16.5 5.5h75c14.667 -2 24.667 -7.66699 30 -17l124 -208c4.66699 -8.66699 6 -16.667 4 -24s-5.83301 -13 -11.5 -17s-12.167 -6 -19.5 -6s-14 3.33301 -20 10
z" />
    <glyph glyph-name="a" unicode="a" 
d="M794 778c0 30 -7 55.3271 -21 75.9941s-32.333 37.334 -55 50.001s-48.5 21.834 -77.5 27.501s-58.5 8.5 -88.5 8.5c-29.333 0 -57.5 -2.66699 -84.5 -8s-52.5 -14.166 -76.5 -26.499s-45.833 -28.833 -65.5 -49.5s-36.5 -46.334 -50.5 -77.001
c-5.33301 -12.667 -9.83301 -22.167 -13.5 -28.5s-11.167 -10.166 -22.5 -11.499h-79c-12.667 0 -21.334 3.66699 -26.001 11s-5.66699 16.333 -3 27c10.667 54 30.834 100 60.501 138s64.5 68.833 104.5 92.5s83.333 40.834 130 51.501s92.667 16 138 16
c46.667 0 92.167 -5.66699 136.5 -17s83.833 -29.5 118.5 -54.5s62.5 -57.333 83.5 -97s31.833 -87.834 32.5 -144.501l5 -729c0 -9.33301 -3 -17.166 -9 -23.499s-13.667 -9.5 -23 -9.5h-90c-8.66699 0 -16.334 3.16699 -23.001 9.5s-10 14.5 -10 24.5l1 82
c0 9.33301 -4 15 -12 17s-15.333 -0.666992 -22 -8c-26 -27.333 -53.833 -50.166 -83.5 -68.499s-59.834 -33.333 -90.501 -45s-61 -20 -91 -25s-58 -7.5 -84 -7.5c-51.333 0 -97 8.5 -137 25.5s-73.667 39.5 -101 67.5s-48.333 60 -63 96s-22 73 -22 111
c0 32.667 5 64.334 15 95.001s24 58.667 42 84s39.833 47 65.5 65s53.834 31 84.501 39c36 8.66699 75.167 17.167 117.5 25.5l125 25.5c41 8.66699 79.333 18.167 115 28.5s64.834 21.833 87.501 34.5c20.667 11.333 36.167 24.833 46.5 40.5s15.5 36.167 15.5 61.5z
M232 291.994c0 -40 10.168 -71.998 30.501 -95.998s46.333 -41.167 78 -51.5s67 -14.833 106 -13.5s77.167 7.5 114.5 18.5s71.666 26 102.999 45s55.333 40.5 72 64.5c12 17.333 21.667 38.166 29 62.499s13 49.666 17 75.999s6.83301 52.5 8.5 78.5s2.5 49 2.5 69
c0 9.33301 -4.66699 13.666 -14 12.999c-32.667 -12 -64.5 -22.5 -95.5 -31.5s-62.667 -17.5 -95 -25.5s-66.333 -15.667 -102 -23l-115.5 -24c-42.667 -9.33301 -76.5 -27.666 -101.5 -54.999s-37.5 -63 -37.5 -107z" />
    <glyph glyph-name="b" unicode="b" horiz-adv-x="1191" 
d="M625 1075c70.667 1.33301 135.668 -11.8389 195.001 -39.5059s110.666 -66.167 153.999 -115.5s77.166 -107.5 101.499 -174.5s36.5 -139.5 36.5 -217.5c0 -74.667 -11.833 -145.334 -35.5 -212.001s-57.167 -125 -100.5 -175s-95.5 -89.5 -156.5 -118.5
s-128.5 -43.5 -202.5 -43.5c-29.333 0 -59.333 3.5 -90 10.5s-60.667 17.333 -90 31s-57 30.167 -83 49.5s-48.667 41 -68 65c-7.33301 9.33301 -14.833 12.833 -22.5 10.5s-11.5 -9.16602 -11.5 -20.499v-92c0 -9.33301 -3 -17.166 -9 -23.499s-13.667 -9.5 -23 -9.5h-90
c-9.33301 0 -17.166 3.16699 -23.499 9.5s-9.5 14.5 -9.5 24.5l10 1392c0 9.33301 3.16699 17 9.5 23s14.166 9 23.499 9h70c9.33301 0 17 -3.33301 23 -10s9 -14.334 9 -23.001l4 -515c0 -5.33301 1.33301 -9.66602 4 -12.999s5.83398 -5.66602 9.50098 -6.99902
s7.5 -1.5 11.5 -0.5s7.33301 3.16699 10 6.5c16 18.667 35.333 38.334 58 59.001s48.5 39.834 77.5 57.501s61 32.334 96 44.001s72.5 17.834 112.5 18.501zM620.001 128.995c50.667 0 96.8311 11.165 138.498 33.498s77.5 52.333 107.5 90s53.167 80.834 69.5 129.501
s24.5 99 24.5 151c0 53.333 -7.66699 104.5 -23 153.5s-37.5 92.333 -66.5 130s-64 67.667 -105 90s-87.5 33.5 -139.5 33.5c-53.333 0 -103 -10.667 -149 -32s-86 -50.5 -120 -87.5s-60.667 -80.5 -80 -130.5s-29 -104 -29 -162c0 -67.333 10.667 -125.833 32 -175.5
s49.333 -91.167 84 -124.5s74.334 -58.166 119.001 -74.499s90.334 -24.5 137.001 -24.5z" />
    <glyph glyph-name="c" unicode="c" horiz-adv-x="1150" 
d="M1065 330c-15.333 -49.333 -37.501 -95.333 -66.501 -138s-63.833 -79.834 -104.5 -111.501s-86.5 -56.5 -137.5 -74.5s-105.833 -27 -164.5 -27c-76.667 0 -146.334 14.167 -209.001 42.5s-116.5 67.333 -161.5 117s-79.833 107.834 -104.5 174.501
s-37 138.334 -37 215.001c0 81.333 12.833 155.666 38.5 222.999s61.334 125 107.001 173s99.5 85.167 161.5 111.5s129.667 39.5 203 39.5c50 0 97.667 -6.66699 143 -20s87.166 -32.166 125.499 -56.499s72.833 -54 103.5 -89s56 -74.167 76 -117.5
c6 -11.333 5.66699 -22 -1 -32s-16 -15 -28 -15h-94c-14 0 -24.333 6 -31 18c-30.667 55.333 -70.5 98.666 -119.5 129.999s-107.167 47 -174.5 47c-53.333 0 -102 -11 -146 -33s-81.667 -51.5 -113 -88.5s-55.666 -79.833 -72.999 -128.5s-26 -99.667 -26 -153
c0 -60.667 8.66699 -116 26 -166s41.666 -93 72.999 -129s69 -63.833 113 -83.5s92.667 -29.5 146 -29.5c37.333 0 72.333 5.33301 105 16s62.834 25.834 90.501 45.501s52.334 43.167 74.001 70.5s39.834 57.666 54.501 90.999c5.33301 13.333 15.666 20.333 30.999 21h89
c14 -1.33301 23.333 -6.5 28 -15.5s5.66699 -18.167 3 -27.5z" />
    <glyph glyph-name="d" unicode="d" horiz-adv-x="1181" 
d="M79 528c0 78.667 12.1689 151.331 36.502 217.998s58.166 124.334 101.499 173.001s94.833 86.834 154.5 114.501s124.834 41.5 195.501 41.5c34.667 0 68.334 -4.83301 101.001 -14.5s63.167 -22.667 91.5 -39s54.5 -35 78.5 -56s45 -42.833 63 -65.5
c6.66699 -7.33301 14 -9.5 22 -6.5s12 9.5 12 19.5l4 513c0 9.33301 3.16699 17 9.5 23s14.166 9 23.499 9h70c9.33301 0 17 -3.33301 23 -10s9 -14.334 9 -23.001l10 -1392c0 -9.33301 -3 -17.166 -9 -23.499s-13.667 -9.5 -23 -9.5h-90
c-8.66699 0 -16.334 3.16699 -23.001 9.5s-10 14.5 -10 24.5v92c0 11.333 -4.33301 17.5 -13 18.5s-16 -2.16699 -22 -9.5c-16.667 -19.333 -36.667 -38 -60 -56s-49 -34 -77 -48s-57.5 -25.333 -88.5 -34s-61.833 -13 -92.5 -13c-74.667 0 -142.5 14.333 -203.5 43
s-113.333 67.667 -157 117s-77.334 107 -101.001 173s-35.5 136.333 -35.5 211zM231.002 534.997c0 -50 7.83105 -99.332 23.498 -147.999s38.334 -92.167 68.001 -130.5s65.834 -69.166 108.501 -92.499s91 -35 145 -35s102.833 11.333 146.5 34s81.167 53 112.5 91
s55.5 81.833 72.5 131.5s25.5 101.167 25.5 154.5c0 56 -9.5 108.333 -28.5 157s-45 91 -78 127s-71.667 64.333 -116 85s-91.833 31 -142.5 31c-52 0 -98.833 -11.167 -140.5 -33.5s-77 -52.333 -106 -90s-51.333 -80.834 -67 -129.501s-23.5 -99.334 -23.5 -152.001z" />
    <glyph glyph-name="e" unicode="e" horiz-adv-x="1173" 
d="M1093 558c0 -11.333 -3.3291 -20.167 -9.99609 -26.5s-14.334 -9.5 -23.001 -9.5h-808c-12.667 -0.666992 -19 -8 -19 -22c2.66699 -53.333 13 -102.666 31 -147.999s42.333 -84.5 73 -117.5s67.334 -58.833 110.001 -77.5s90.334 -28 143.001 -28
c66 0 124 15.5 174 46.5s91 71.5 123 121.5c8 11.333 17.667 17 29 17h94c13.333 0 22.666 -5.66699 27.999 -17s5.33301 -22 0 -32c-21.333 -43.333 -47 -82.5 -77 -117.5s-64 -65 -102 -90s-79.5 -44.333 -124.5 -58s-92.833 -20.5 -143.5 -20.5
c-76.667 0 -146.334 14.167 -209.001 42.5s-116.334 67.166 -161.001 116.499s-79.167 107.5 -103.5 174.5s-36.5 139.5 -36.5 217.5c0 80 12.667 153.333 38 220s60.666 124.167 105.999 172.5s99.166 85.833 161.499 112.5s130.166 40 203.499 40
c74.667 0 142.334 -14.333 203.001 -43s112.667 -66.834 156 -114.501s77.333 -102.667 102 -165s38.667 -127.166 42 -194.499zM904.004 644.999c7.33301 0 12.8301 2.49902 16.4971 7.49902s4.16699 11.167 1.5 18.5c-12 36 -28.333 70.167 -49 102.5
s-45.167 60.833 -73.5 85.5s-60.166 44.334 -95.499 59.001s-73.333 22 -114 22s-79.167 -7 -115.5 -21s-69.166 -33.167 -98.499 -57.5s-54.666 -52.833 -75.999 -85.5s-37.333 -68 -48 -106c-2.66699 -7.33301 -2.16699 -13.333 1.5 -18s9.5 -7 17.5 -7h633z" />
    <glyph glyph-name="f" unicode="f" horiz-adv-x="641" 
d="M566 960c0 -17.333 -8.33008 -25.999 -24.9971 -25.999h-140c-5.33301 0 -10 -2 -14 -6s-6 -8.66699 -6 -14l6 -881c0 -9.33301 -3 -17.166 -9 -23.499s-13.667 -9.5 -23 -9.5h-90c-8.66699 0 -16.334 3.16699 -23.001 9.5s-10 14.5 -10 24.5l6 880
c0 5.33301 -2 10 -6 14s-8.66699 6 -14 6h-120c-18 0 -27 9 -27 27l2 68c0 17.333 8.33301 26 25 26h121c5.33301 0 10 2.16699 14 6.5s6 9.5 6 15.5l1 139c0 38.667 6.5 73.167 19.5 103.5s30.167 55.666 51.5 75.999s46.166 35.833 74.499 46.5s58.166 16 89.499 16h51
c20 0 30 -9 30 -27l1 -66c0 -19.333 -11 -29 -33 -29h-52c-12.667 0 -24.667 -2.83301 -36 -8.5s-21.333 -13.334 -30 -23.001s-15.5 -21 -20.5 -34s-7.5 -27.167 -7.5 -42.5l2 -151c0 -6 2 -11.167 6 -15.5s9 -6.5 15 -6.5h137c18 0 27 -8.33301 27 -25z" />
    <glyph glyph-name="g" unicode="g" horiz-adv-x="1181" 
d="M1091 19c0 -67.333 -13.001 -130.001 -39.001 -188.001s-61 -108.333 -105 -151s-95 -76.167 -153 -100.5s-119 -36.5 -183 -36.5c-58 0 -111 9 -159 27s-89.833 39.333 -125.5 64s-64.5 50 -86.5 76s-36 47 -42 63c-4 10 -5.16699 18.167 -3.5 24.5
s4.33398 11.333 8.00098 15s7.66699 6.16699 12 7.5s7.83301 2 10.5 2h103c12.667 0 22.334 -5.33301 29.001 -16c30 -37.333 66.833 -66.666 110.5 -87.999s91.167 -32 142.5 -32c44 0 85.5 8.33301 124.5 25s73.167 39.5 102.5 68.5s52.666 63.5 69.999 103.5
s26.666 83.333 27.999 130l2 103c0 12 -4.33301 19 -13 21s-16.334 -1.33301 -23.001 -10c-16 -18 -35 -35.833 -57 -53.5s-46.833 -33.5 -74.5 -47.5s-58 -25.333 -91 -34s-68.833 -13 -107.5 -13c-70 0 -134.667 14.667 -194 44s-110.5 69 -153.5 119
s-76.667 108.5 -101 175.5s-36.5 138.167 -36.5 213.5c0 76.667 12.5 148.167 37.5 214.5s59.167 124 102.5 173s94.333 87.333 153 115s121.667 41.5 189 41.5c40.667 0 77.834 -5 111.501 -15s64.334 -23 92.001 -39s52.667 -34.167 75 -54.5s42.5 -40.833 60.5 -61.5
c7.33301 -7.33301 15 -9.5 23 -6.5s12 9.16699 12 18.5l1 105c0 10 3.33301 18 10 24s14.667 9 24 9h73c10.667 0 19 -3 25 -9s9 -14 9 -24zM588.999 128.999c54.667 0 103.833 11.498 147.5 34.498s80.5 53.333 110.5 91s53 80.834 69 129.501s24 98.667 24 150
c0 57.333 -9.5 110.666 -28.5 159.999s-44.833 92.333 -77.5 129s-71 65.334 -115 86.001s-91 31 -141 31c-52.667 0 -100 -11.167 -142 -33.5s-77.667 -52 -107 -89s-51.833 -79.5 -67.5 -127.5s-23.5 -98 -23.5 -150c0 -51.333 7.83301 -101.666 23.5 -150.999
s38.5 -93.333 68.5 -132s66.667 -69.667 110 -93s93 -35 149 -35z" />
    <glyph glyph-name="h" unicode="h" horiz-adv-x="1030" 
d="M944 33c0 -9.33301 -2.99512 -17.167 -8.99512 -23.5s-13.667 -9.5 -23 -9.5h-90c-8.66699 0 -16.334 3.16699 -23.001 9.5s-10 14.5 -10 24.5l5 693c0 30 -5 58 -15 84s-24.167 48.5 -42.5 67.5s-40.333 34 -66 45s-53.834 16.5 -84.501 16.5
c-26.667 0 -53.5 -4.33301 -80.5 -13s-53 -20.334 -78 -35.001s-48.5 -31.834 -70.5 -51.501s-41 -40.667 -57 -63s-28.667 -45.5 -38 -69.5s-14 -47.333 -14 -70l4 -605c0 -9.33301 -3 -17.166 -9 -23.499s-13.667 -9.5 -23 -9.5h-90
c-8.66699 0 -16.334 3.16699 -23.001 9.5s-10 14.5 -10 24.5l10 1392c0 9.33301 3.16699 17 9.5 23s14.166 9 23.499 9h70c9.33301 0 17 -3.33301 23 -10s9 -14.334 9 -23.001l4 -510c0 -8 4 -13.5 12 -16.5s14.667 -1.83301 20 3.5c43.333 52 95.166 93.833 155.499 125.5
s128.833 47.5 205.5 47.5c40 0 78.167 -7.16699 114.5 -21.5s68.333 -34.666 96 -60.999s49.5 -57.666 65.5 -93.999s24 -76.5 24 -120.5z" />
    <glyph glyph-name="i" unicode="i" horiz-adv-x="366" 
d="M256 33c0 -9.33301 -2.99805 -17.167 -8.99805 -23.5s-13.667 -9.5 -23 -9.5h-90c-8.66699 0 -16.334 3.16699 -23.001 9.5s-10 14.5 -10 24.5l7 989c0 9.33301 3 17 9 23s13.667 9 23 9h76c9.33301 0 17.166 -3 23.499 -9s9.5 -14 9.5 -24zM146.002 1259
c-9.33301 0 -17.168 3 -23.501 9s-9.5 13.667 -9.5 23l2 136c0 9.33301 3 16.833 9 22.5s13.333 8.5 22 8.5h65c8.66699 0 16 -3 22 -9s9 -13.667 9 -23l3 -135c0 -9.33301 -3.16699 -17 -9.5 -23s-14.166 -9 -23.499 -9h-66z" />
    <glyph glyph-name="j" unicode="j" horiz-adv-x="474" 
d="M378 -248c0 -29.333 -4.16699 -55.668 -12.5 -79.001s-20.166 -43.5 -35.499 -60.5s-33.833 -30 -55.5 -39s-45.834 -13.5 -72.501 -13.5h-103c-10 0 -18.167 3.16699 -24.5 9.5s-9.5 14.5 -9.5 24.5v77c0 10 3.16699 18.167 9.5 24.5s14.5 9.5 24.5 9.5
c38 0 67.333 6.5 88 19.5s31.334 30.833 32.001 53.5l9 1245c0 8.66699 3 16.167 9 22.5s13.667 9.5 23 9.5h76c9.33301 0 17.166 -3.16699 23.499 -9.5s9.5 -14.166 9.5 -23.499zM267 1259c-9.33301 0 -17.168 3 -23.501 9s-9.5 13.667 -9.5 23l2 136
c0 9.33301 3 16.833 9 22.5s13.333 8.5 22 8.5h65c8.66699 0 16 -3 22 -9s9 -13.667 9 -23l3 -135c0 -9.33301 -3.16699 -17 -9.5 -23s-14.166 -9 -23.499 -9h-66z" />
    <glyph glyph-name="k" unicode="k" horiz-adv-x="1048" 
d="M959 53c4.66699 -6 7.33594 -12.001 8.00293 -18.001s-0.333008 -11.667 -3 -17s-6.66699 -9.66602 -12 -12.999s-11.333 -5 -18 -5h-106c-12 0 -21.333 5 -28 15l-378 491c-4 5.33301 -8.83301 8 -14.5 8s-10.834 -2.33301 -15.501 -7l-132 -126c-4 -4 -6 -9 -6 -15
l2 -333c0 -9.33301 -3 -17.166 -9 -23.499s-13.667 -9.5 -23 -9.5h-90c-8.66699 0 -16.334 3.16699 -23.001 9.5s-10 14.5 -10 24.5l10 1392c0 9.33301 3.16699 17 9.5 23s14.166 9 23.499 9h70c9.33301 0 17 -3.33301 23 -10s9 -14.334 9 -23.001l6 -801
c0 -10 4 -15.833 12 -17.5s15 -0.166992 21 4.5l491 435c6 6 13.667 9 23 9h82c8 0 14.5 -2 19.5 -6s8.5 -8.83301 10.5 -14.5s2.33301 -11.667 1 -18s-4.33301 -11.833 -9 -16.5l-387 -373c-6.66699 -8.66699 -7 -18 -1 -28z" />
    <glyph glyph-name="l" unicode="l" horiz-adv-x="425" 
d="M286 33c0 -9.33301 -2.99805 -17.166 -8.99805 -23.499s-13.667 -9.5 -23 -9.5h-90c-8.66699 0 -16.334 3.16699 -23.001 9.5s-10 14.5 -10 24.5l10 1392c0 9.33301 3.16699 17 9.5 23s14.166 9 23.499 9h70c9.33301 0 17 -3.33301 23 -10s9 -14.334 9 -23.001z" />
    <glyph glyph-name="m" unicode="m" horiz-adv-x="1697" 
d="M945 33c0 -9.33301 -2.99609 -17.1729 -8.99609 -23.5059s-13.667 -9.5 -23 -9.5h-90c-8.66699 0 -16.334 3.16699 -23.001 9.5s-10 14.5 -10 24.5l5 662c0 33.333 -5 64.833 -15 94.5s-24.167 55.5 -42.5 77.5s-40.5 39.5 -66.5 52.5s-54.667 19.5 -86 19.5
c-39.333 0 -79 -10.167 -119 -30.5s-76 -47.666 -108 -81.999s-58 -74 -78 -119s-30 -91.833 -30 -140.5l4 -535c0 -9.33301 -3 -17.166 -9 -23.499s-13.667 -9.5 -23 -9.5h-90c-8.66699 0 -16.334 3.16699 -23.001 9.5s-10 14.5 -10 24.5l7 988c0 10 3.16699 18 9.5 24
s14.166 9 23.499 9h75c9.33301 0 17.166 -3.16699 23.499 -9.5s9.5 -14.166 9.5 -23.499l1 -107c0 -8 4 -13.5 12 -16.5s14.667 -1.83301 20 3.5c43.333 52 94.833 93.833 154.5 125.5s126.834 47.5 201.501 47.5c30.667 0 59.834 -4.16699 87.501 -12.5
s53.167 -19.833 76.5 -34.5s44.166 -32.167 62.499 -52.5s33.166 -42.5 44.499 -66.5c3.33301 -6 8 -9.66699 14 -11s12.667 1 20 7c40.667 51.333 90.667 92.5 150 123.5s127.333 46.5 204 46.5c40 0 78 -7.16699 114 -21.5s67.5 -34.666 94.5 -60.999
s48.667 -57.666 65 -93.999s24.5 -76.5 24.5 -120.5l5 -745c0 -9.33301 -3 -17.166 -9 -23.499s-13.667 -9.5 -23 -9.5h-90c-8.66699 0 -16.334 3.16699 -23.001 9.5s-10 14.5 -10 24.5l5 663c0 38 -4.83301 72 -14.5 102s-23.667 55.5 -42 76.5s-40.166 37 -65.499 48
s-53.333 16.5 -84 16.5c-18.667 0 -39 -4.5 -61 -13.5s-44.167 -21.667 -66.5 -38s-44 -35.833 -65 -58.5s-39.5 -47.834 -55.5 -75.501s-28.833 -57.167 -38.5 -88.5s-14.5 -63.666 -14.5 -96.999z" />
    <glyph glyph-name="n" unicode="n" horiz-adv-x="1041" 
d="M944 33c0 -9.33301 -2.99316 -17.1709 -8.99316 -23.5039s-13.667 -9.5 -23 -9.5h-90c-8.66699 0 -16.334 3.16699 -23.001 9.5s-10 14.5 -10 24.5l4 663c0 38 -4.83301 72 -14.5 102s-23.667 55.5 -42 76.5s-40.333 37 -66 48s-53.834 16.5 -84.501 16.5
c-38.667 0 -78 -10.167 -118 -30.5s-76.333 -47.5 -109 -81.5s-59.167 -73.5 -79.5 -118.5s-30.5 -92.167 -30.5 -141.5l4 -535c0 -9.33301 -3 -17.166 -9 -23.499s-13.667 -9.5 -23 -9.5h-90c-8.66699 0 -16.334 3.16699 -23.001 9.5s-10 14.5 -10 24.5l7 988
c0 10 3.16699 18 9.5 24s14.166 9 23.499 9h75c9.33301 0 17.166 -3.16699 23.499 -9.5s9.5 -14.166 9.5 -23.499l1 -107c0 -8 4 -13.5 12 -16.5s14.667 -1.83301 20 3.5c43.333 52 95 93.833 155 125.5s128.333 47.5 205 47.5c40 0 78.167 -7.16699 114.5 -21.5
s68.166 -34.666 95.499 -60.999s49.166 -57.666 65.499 -93.999s24.5 -76.5 24.5 -120.5z" />
    <glyph glyph-name="o" unicode="o" horiz-adv-x="1180" 
d="M591 -21c-75.333 0 -144.335 14.5 -207.002 43.5s-116.667 68.5 -162 118.5s-80.5 108.333 -105.5 175s-37.5 137.334 -37.5 212.001c0 73.333 12.5 143 37.5 209s60 124 105 174s99 89.833 162 119.5s132.167 44.5 207.5 44.5c74.667 0 143.167 -14.833 205.5 -44.5
s116 -69.5 161 -119.5s80.167 -108 105.5 -174s38 -135.667 38 -209c0 -74.667 -12.667 -145.334 -38 -212.001s-60.666 -125 -105.999 -175s-99.166 -89.5 -161.499 -118.5s-130.5 -43.5 -204.5 -43.5zM948.998 528c0 51.333 -8.67188 101.667 -26.0049 151
s-41.666 93.333 -72.999 132s-69 69.834 -113 93.501s-92.667 35.5 -146 35.5c-55.333 0 -105.166 -11.333 -149.499 -34s-82.166 -52.834 -113.499 -90.501s-55.333 -80.667 -72 -129s-25 -98.166 -25 -149.499c0 -61.333 9.33301 -117.166 28 -167.499
s44.334 -93.333 77.001 -129s70.834 -63.167 114.501 -82.5s90.5 -29 140.5 -29c48 0 93.333 9.33301 136 28s80.334 45.167 113.001 79.5s58.667 76.166 78 125.499s29.666 104.666 30.999 165.999z" />
    <glyph glyph-name="p" unicode="p" horiz-adv-x="1192" 
d="M104 1022c0 9.33301 3.16699 17.1641 9.5 23.4971s14.833 9.5 25.5 9.5h72c10 0 18.167 -3.16699 24.5 -9.5s9.5 -14.166 9.5 -23.499l1 -105c0 -7.33301 3.5 -13.333 10.5 -18s15.167 -3 24.5 5c6.66699 6 18.667 18.333 36 37s40.166 37.834 68.499 57.501
s63 37.334 104 53.001s88.5 23.5 142.5 23.5c68.667 0 132.5 -13.833 191.5 -41.5s110 -65.834 153 -114.501s76.667 -106 101 -172s36.5 -137 36.5 -213s-12.167 -147.667 -36.5 -215s-58 -126.166 -101 -176.499s-94.167 -90.166 -153.5 -119.499s-124 -44 -194 -44
c-38 0 -74 4.16699 -108 12.5s-65.667 19.5 -95 33.5s-55.666 29.833 -78.999 47.5s-43.333 35.834 -60 54.501c-7.33301 9.33301 -15.166 12.666 -23.499 9.99902s-12.5 -9.66699 -12.5 -21l3 -523c0 -8.66699 -3 -16.334 -9 -23.001s-13.667 -10 -23 -10h-95
c-8.66699 0 -16.334 3.16699 -23.001 9.5s-10 14.5 -10 24.5zM248 533.998c0 -56 8.50293 -108.668 25.5029 -158.001s41.167 -92.166 72.5 -128.499s68.833 -65.166 112.5 -86.499s92.5 -32 146.5 -32c56.667 0 107.167 11.833 151.5 35.5s81.833 54.834 112.5 93.501
s53.834 82.834 69.501 132.501s23.5 100.5 23.5 152.5c0 51.333 -7.66699 101 -23 149s-37.833 90.333 -67.5 127s-65.834 66 -108.501 88s-91.334 33 -146.001 33c-50.667 0 -98.334 -9.83301 -143.001 -29.5s-83.834 -47.334 -117.501 -83.001
s-60.167 -78.334 -79.5 -128.001s-29 -104.834 -29 -165.501z" />
    <glyph glyph-name="q" unicode="q" horiz-adv-x="1181" 
d="M1086 -405c0 -10 -3.00098 -18.333 -9.00098 -25s-13.667 -10 -23 -10h-98c-10 0 -18.167 3.33301 -24.5 10s-9.5 15 -9.5 25l7 521c0 11.333 -4.16699 18.333 -12.5 21s-16.166 -0.666016 -23.499 -9.99902c-16.667 -19.333 -36.667 -37.833 -60 -55.5
s-48.833 -33.334 -76.5 -47.001s-56.834 -24.667 -87.501 -33s-61.667 -12.5 -93 -12.5c-74.667 0 -142.5 14.5 -203.5 43.5s-113.333 68.5 -157 118.5s-77.5 108.333 -101.5 175s-36 137.334 -36 212.001c0 78 12 150.333 36 217s57.667 124.5 101 173.5s95 87.333 155 115
s126 41.5 198 41.5c34.667 0 67.834 -4.5 99.501 -13.5s61.5 -21.333 89.5 -37s53.833 -33.834 77.5 -54.501s45.167 -42.667 64.5 -66c5.33301 -6.66699 12.5 -8.66699 21.5 -6s13.5 9 13.5 19l1 105c0 9.33301 3.16699 17.166 9.5 23.499s14.5 9.5 24.5 9.5h72
c10.667 0 19.167 -3.16699 25.5 -9.5s9.5 -14.166 9.5 -23.499zM931.999 541c0 58.667 -9.33203 112.498 -27.999 161.498s-44.334 91 -77.001 126s-71.334 62.333 -116.001 82s-92.667 29.5 -144 29.5c-52 0 -98.667 -11.167 -140 -33.5s-76.666 -52.166 -105.999 -89.499
s-51.833 -80.333 -67.5 -129s-23.5 -99.667 -23.5 -153c0 -50 8.33301 -99.333 25 -148s40.167 -92.167 70.5 -130.5s66.833 -69.166 109.5 -92.499s90 -35 142 -35c56 0 106 10.667 150 32s81.167 50.5 111.5 87.5s53.5 80.5 69.5 130.5s24 104 24 162z" />
    <glyph glyph-name="r" unicode="r" horiz-adv-x="697" 
d="M628 948c0 -8.66699 -2.99902 -16.3359 -8.99902 -23.0029s-13.667 -10 -23 -10c-44.667 0 -88 -6.83301 -130 -20.5s-79 -32.834 -111 -57.501s-57.667 -54.167 -77 -88.5s-29 -72.166 -29 -113.499l4 -602c0 -9.33301 -3 -17.166 -9 -23.499s-13.667 -9.5 -23 -9.5h-90
c-8.66699 0 -16.334 3.16699 -23.001 9.5s-10 14.5 -10 24.5l7 988c0 10 3 18 9 24s13.667 9 23 9h76c9.33301 0 17 -3.16699 23 -9.5s9.33301 -14.166 10 -23.499l1 -107c0 -8.66699 3.66699 -14.5 11 -17.5s13.666 -1.83301 18.999 3.5c19.333 24 40.666 46.5 63.999 67.5
s48.333 39.333 75 55s54.834 28.167 84.501 37.5s60.167 14 91.5 14c10.667 0 19.334 -2.66699 26.001 -8s10 -13.666 10 -24.999v-94z" />
    <glyph glyph-name="s" unicode="s" horiz-adv-x="1035" 
d="M148 783c0 48 9.83398 90.168 29.501 126.501s46 66.666 79 90.999s71.5 42.666 115.5 54.999s90 18.833 138 19.5c46 0.666992 87.667 -3.83301 125 -13.5s70.333 -22.334 99 -38.001s53.334 -33.334 74.001 -53.001s37.834 -39.167 51.501 -58.5
s24.167 -37.5 31.5 -54.5s11.666 -30.5 12.999 -40.5c2 -14.667 -0.166992 -24.167 -6.5 -28.5s-14.833 -6.5 -25.5 -6.5h-84c-8.66699 0 -15 1.5 -19 4.5s-7.66699 7.5 -11 13.5c-8.66699 14.667 -18.667 30.334 -30 47.001s-26 31.834 -44 45.501s-40.333 25 -67 34
s-59.334 13.5 -98.001 13.5c-32.667 0 -62.334 -3.33301 -89.001 -10s-49.667 -16.5 -69 -29.5s-34.333 -28.667 -45 -47s-16 -38.833 -16 -61.5c0 -30.667 9.16699 -56 27.5 -76s42.5 -36.667 72.5 -50s64.167 -24.833 102.5 -34.5l117.5 -31
c40 -11 79.167 -23.5 117.5 -37.5s72.5 -32.5 102.5 -55.5s54.167 -51.167 72.5 -84.5s27.5 -74.666 27.5 -123.999c0 -51.333 -10.333 -97 -31 -137s-48.667 -73.5 -84 -100.5s-77 -47.5 -125 -61.5s-99.333 -21 -154 -21c-61.333 0 -117.333 8.33301 -168 25
s-95.334 38.834 -134.001 66.501s-70.667 59.5 -96 95.5s-43.666 73 -54.999 111c-4 14 -4.83301 23.667 -2.5 29s11.166 8 26.499 8h98c8 0 14.333 -2.16699 19 -6.5s8.66699 -9.5 12 -15.5c8 -13.333 18.667 -29.333 32 -48s31 -36.5 53 -53.5s49.167 -31.5 81.5 -43.5
s71.5 -18 117.5 -18c34.667 0 67.667 3.83301 99 11.5s58.833 18.667 82.5 33s42.334 31.833 56.001 52.5s20.5 44 20.5 70c0 30 -9.16699 55 -27.5 75s-42.5 36.833 -72.5 50.5s-64.167 25.667 -102.5 36l-117.5 32c-40 11 -79.167 23.667 -117.5 38
s-72.5 32.666 -102.5 54.999s-54.167 49.5 -72.5 81.5s-27.5 71.667 -27.5 119z" />
    <glyph glyph-name="t" unicode="t" horiz-adv-x="635" 
d="M566 966c0 -8.66699 -2.99805 -16.166 -8.99805 -22.499s-13.333 -9.5 -22 -9.5h-135c-5.33301 0 -10 -2 -14 -6s-6 -8.66699 -6 -14l6 -881c0 -9.33301 -3 -17.166 -9 -23.499s-13.667 -9.5 -23 -9.5h-90c-8.66699 0 -16.334 3.16699 -23.001 9.5s-10 14.5 -10 24.5
l6 880c0 5.33301 -2 10 -6 14s-8.66699 6 -14 6h-113c-9.33301 0 -17.166 3.16699 -23.499 9.5s-9.5 14.166 -9.5 23.499l1 57c0 9.33301 3.16699 16.833 9.5 22.5s13.833 8.5 22.5 8.5h114c5.33301 0 10 2.16699 14 6.5s6 9.5 6 15.5l3 349c0 9.33301 3.16699 17 9.5 23
s14.166 9 23.499 9h70c9.33301 0 17 -3.33301 23 -10s9 -14.334 9 -23.001l3 -348c0 -6 2 -11.167 6 -15.5s9 -6.5 15 -6.5h132c9.33301 0 17.166 -3 23.499 -9s9.5 -13.333 9.5 -22z" />
    <glyph glyph-name="u" unicode="u" horiz-adv-x="1040" 
d="M936 33c0 -9.33301 -2.99512 -17.167 -8.99512 -23.5s-13.667 -9.5 -23 -9.5h-90c-8.66699 0 -16.334 3.16699 -23.001 9.5s-10 14.5 -10 24.5v81c0 11.333 -4 18 -12 20s-14.667 -0.666992 -20 -8c-34.667 -42.667 -77.334 -78 -128.001 -106s-106.334 -42 -167.001 -42
c-59.333 0 -111.333 10.667 -156 32s-81.834 50 -111.501 86s-52 77.667 -67 125s-22.167 97 -21.5 149l5 652c0 9.33301 3 17 9 23s13.333 9 22 9h77c9.33301 0 17.166 -3 23.499 -9s9.5 -14 9.5 -24l5 -648c0 -39.333 5.66699 -74.166 17 -104.499s27 -55.833 47 -76.5
s43.5 -36.5 70.5 -47.5s56.5 -16.5 88.5 -16.5c35.333 0 71.5 6.33301 108.5 19s70.5 31.5 100.5 56.5s54.667 56.167 74 93.5s29 80.333 29 129l4 595c0 9.33301 3 17.166 9 23.499s13.667 9.5 23 9.5h77c9.33301 0 17 -3.16699 23 -9.5s9 -14.5 9 -24.5z" />
    <glyph glyph-name="v" unicode="v" horiz-adv-x="1081" 
d="M968 1055c11.333 0 20.002 -4.5 26.002 -13.5s7.33301 -18.5 4 -28.5l-366 -992c-5.33301 -14 -15.333 -21 -30 -21h-133c-16.667 0 -27.334 7 -32.001 21l-354 991c-3.33301 11.333 -2 21.333 4 30s14.667 13 26 13h76c7.33301 0 14 -2.16699 20 -6.5s10 -9.5 12 -15.5
l296 -818c4 -9.33301 10.167 -13.5 18.5 -12.5s14.166 5.16699 17.499 12.5l307 818c4.66699 14.667 15 22 31 22h77z" />
    <glyph glyph-name="w" unicode="w" horiz-adv-x="1587" 
d="M1475 1055c12 0 20.6689 -4.50098 26.002 -13.501s7 -18.5 5 -28.5l-286 -990c-4 -15.333 -14.333 -23 -31 -23h-130c-16.667 0 -28 7.66699 -34 23l-208 753c-3.33301 10.667 -9.66602 15.667 -18.999 15s-15.333 -5.66699 -18 -15l-201 -753
c-5.33301 -15.333 -15.666 -23 -30.999 -23h-130c-16.667 0 -28 7.66699 -34 23l-297 989c-2.66699 11.333 -1.33398 21.333 3.99902 30s14 13 26 13h76c16.667 0 27.334 -7.33301 32.001 -22l237 -818c3.33301 -7.33301 9.16602 -11.166 17.499 -11.499
s14.166 3.5 17.499 11.5l228 813c2 8 6.33301 14.5 13 19.5s14 7.5 22 7.5h74c17.333 0 28.666 -8.66699 33.999 -26l235 -814c4 -7.33301 10.167 -11.333 18.5 -12s14.166 3.33301 17.499 12l229 818c4.66699 14.667 15 22 31 22h76z" />
    <glyph glyph-name="x" unicode="x" horiz-adv-x="1015" 
d="M958 52c4 -5.33301 6.16797 -10.9971 6.50098 -16.9971s-0.666992 -11.667 -3 -17s-5.83301 -9.66602 -10.5 -12.999s-10.334 -5 -17.001 -5h-112c-11.333 0 -20.333 5 -27 15l-269 375c-5.33301 6 -10.833 8.83301 -16.5 8.5s-10.5 -3.16602 -14.5 -8.49902l-269 -376
c-7.33301 -9.33301 -16.666 -14 -27.999 -14h-111c-7.33301 0 -13.5 1.83301 -18.5 5.5s-8.5 8.16699 -10.5 13.5s-2.5 11.166 -1.5 17.499s3.5 12.166 7.5 17.499l350 465c3.33301 3.33301 4.83301 7.16602 4.5 11.499s-1.5 8.16602 -3.5 11.499l-311 463
c-3.33301 4.66699 -5.16602 10 -5.49902 16s0.666992 11.5 3 16.5s6 9.16699 11 12.5s10.833 5 17.5 5h77c11.333 0 20.666 -5 27.999 -15l260 -392c10.667 -12 21 -12 31 0l263 393c6.66699 9.33301 16 14 28 14h78c13.333 0 22.5 -5.83301 27.5 -17.5
s3.83301 -22.834 -3.5 -33.501l-310 -461c-3.33301 -3.33301 -4.83301 -7.33301 -4.5 -12s2.16602 -8.66699 5.49902 -12z" />
    <glyph glyph-name="y" unicode="y" horiz-adv-x="1079" 
d="M970 1055c11.333 0 20.002 -4.5 26.002 -13.5s7.33301 -18.5 4 -28.5l-514 -1430c-2.66699 -7.33301 -6.83398 -13 -12.501 -17s-12.167 -6 -19.5 -6h-112c-12 0 -20.667 5 -26 15s-5.66602 20.333 -0.999023 31l142 348c2 5.33301 2.33301 10.666 1 15.999l-373 1042
c-4 10.667 -2.83301 20.5 3.5 29.5s15.166 13.5 26.499 13.5h77c16 0 26.667 -7.33301 32 -22l295 -818c4 -9.33301 10.167 -13.666 18.5 -12.999s14.166 5 17.499 13l306 818c6 14.667 16.333 22 31 22h78z" />
    <glyph glyph-name="z" unicode="z" horiz-adv-x="1000" 
d="M917 31c0 -8.66699 -2.99707 -16.001 -8.99707 -22.001s-13.667 -9 -23 -9h-760c-9.33301 0 -17.333 3.33301 -24 10s-10 14.667 -10 24l2 83c0 8.66699 3 16.667 9 24l595 760c5.33301 7.33301 6 14.333 2 21s-9.66699 10 -17 10h-547
c-9.33301 0 -17.166 3.16699 -23.499 9.5s-9.5 14.166 -9.5 23.499l1 58c0 9.33301 3.16699 17 9.5 23s14.166 9 23.499 9h724c9.33301 0 17 -3.16699 23 -9.5s9 -14.166 9 -23.499l2 -60c0 -7.33301 -2.66699 -14.666 -8 -21.999l-568 -777
c-4.66699 -7.33301 -4.83398 -14.333 -0.500977 -21s10.166 -10 17.499 -10h548c9.33301 0 17.166 -3 23.499 -9s9.5 -13.667 9.5 -23z" />
    <glyph glyph-name="braceleft" unicode="{" horiz-adv-x="685" 
d="M610 -410c0 -20 -11.0029 -30 -33.0029 -30h-110c-39.333 0 -75 7.16699 -107 21.5s-59.167 34 -81.5 59s-39.666 54 -51.999 87s-18.5 68.5 -18.5 106.5l-2 524c0 20.667 -3.33301 38.834 -10 54.501s-15.5 29.167 -26.5 40.5s-23.333 20.5 -37 27.5
s-27.167 12.5 -40.5 16.5c-4.66699 1.33301 -8.66699 3.83301 -12 7.5s-5 8.16699 -5 13.5v83c0 12 7 19.667 21 23c14.667 2.66699 28.667 8.16699 42 16.5s25 18.333 35 30s18 25 24 40s9 30.833 9 47.5v438c0 37.333 7 72 21 104s32.833 59.667 56.5 83
s51.334 41.666 83.001 54.999s65.167 20 100.5 20h110c9.33301 0 17.166 -2.66699 23.499 -8s9.5 -12.666 9.5 -21.999v-68c-2 -20 -13 -30.333 -33 -31h-98c-22 -2 -41.667 -7.5 -59 -16.5s-32.166 -20.833 -44.499 -35.5s-21.666 -31.167 -27.999 -49.5
s-9.5 -37.833 -9.5 -58.5v-449c0 -32.667 -8.16699 -61.334 -24.5 -86.001s-37.166 -43.667 -62.499 -57c-9.33301 -4 -13.5 -9.83301 -12.5 -17.5s5.16699 -13.5 12.5 -17.5c26.667 -12.667 47.834 -32.167 63.501 -58.5s23.5 -55.166 23.5 -86.499v-548
c0 -20 3.16699 -39.333 9.5 -58s15.666 -35.334 27.999 -50.001s27.166 -26.5 44.499 -35.5s37 -14.5 59 -16.5h100c8.66699 0 16 -2.66699 22 -8s9 -13 9 -23v-68z" />
    <glyph glyph-name="bar" unicode="|" horiz-adv-x="305" 
d="M218 -409c0 -8.66699 -3 -16 -9 -22s-13.667 -9 -23 -9h-66c-8.66699 0 -16.167 2.83301 -22.5 8.5s-9.5 13.167 -9.5 22.5v1968c0 9.33301 3 17 9 23s13.667 9 23 9h66c9.33301 0 17 -3 23 -9s9 -13.667 9 -23v-1968z" />
    <glyph glyph-name="braceright" unicode="}" horiz-adv-x="695" 
d="M85.0371 -410c0 -20 11.001 -30 33 -30h109.993c39.3311 0 74.9951 7.16699 106.992 21.5c31.999 14.333 59.1641 34 81.4951 59c22.332 25 39.6641 54 51.9971 87s18.499 68.5 18.499 106.5l2 524c0 20.667 3.33301 38.834 9.99902 54.501
c6.66699 15.667 15.5 29.167 26.499 40.5s23.3311 20.5 36.9961 27.5c13.666 7 27.165 12.5 40.498 16.5c4.66602 1.33301 8.66602 3.83301 11.999 7.5s5 8.16699 5 13.5v83c0 12 -7 19.667 -20.999 23c-14.666 2.66699 -28.665 8.16699 -41.9971 16.5
c-13.333 8.33301 -24.999 18.333 -34.998 30s-17.999 25 -23.999 40c-5.99902 15 -8.99902 30.833 -8.99902 47.5v438c0 37.333 -7 72 -20.999 104s-32.8311 59.667 -56.4961 83s-51.3301 41.666 -82.9951 54.999s-65.1631 20 -100.494 20h-109.993
c-9.33301 0 -17.166 -2.66699 -23.499 -8s-9.5 -12.666 -9.5 -21.999v-68c2 -20 12.999 -30.333 32.998 -31h97.9941c21.999 -2 41.6641 -7.5 58.9961 -16.5c17.333 -9 32.165 -20.833 44.4971 -35.5c12.333 -14.667 21.666 -31.167 27.999 -49.5
s9.49902 -37.833 9.49902 -58.5v-449c0 -32.667 8.16602 -61.334 24.499 -86.001c16.332 -24.667 37.1641 -43.667 62.4961 -57c9.33301 -4 13.499 -9.83301 12.499 -17.5s-5.16602 -13.5 -12.499 -17.5c-26.665 -12.667 -47.8301 -32.167 -63.4951 -58.5
c-15.666 -26.333 -23.499 -55.166 -23.499 -86.499v-548c0 -20 -3.16602 -39.333 -9.49902 -58s-15.666 -35.334 -27.999 -50.001c-12.332 -14.667 -27.1641 -26.5 -44.4971 -35.5c-17.332 -9 -36.9971 -14.5 -58.9961 -16.5h-99.9941
c-8.66602 0 -15.999 -2.66699 -21.998 -8c-6 -5.33301 -9 -13 -9 -23v-68z" />
    <glyph glyph-name="exclamdown" unicode="&#xa1;" horiz-adv-x="406" 
d="M261 -407c0 -9.33301 -3.16797 -17.167 -9.50098 -23.5s-14.166 -9.5 -23.499 -9.5h-64c-10.667 0 -19 3.16699 -25 9.5s-9 14.833 -9 25.5l-17 1028c0 10 3.16699 18 9.5 24s14.5 9 24.5 9h99c9.33301 0 17 -3 23 -9s9 -14 9 -24zM292.999 885.999
c-0.666992 -9.33301 -4.00098 -17.333 -10.001 -24s-13.667 -10 -23 -10h-125c-9.33301 0 -17.166 3.33301 -23.499 10s-9.5 14.667 -9.5 24l-2 135c0 9.33301 3 17.333 9 24s13.667 10 23 10h131c10 0 18 -3.33301 24 -10s9 -14.667 9 -24z" />
    <glyph glyph-name="sterling" unicode="&#xa3;" horiz-adv-x="1127" 
d="M1049 34c0 -9.33301 -3.00391 -17.3359 -9.00391 -24.0029s-14.333 -10 -25 -10h-897c-8.66699 0 -16.334 2.83301 -23.001 8.5s-10 13.167 -10 22.5l4 158c0 10.667 2.5 18.834 7.5 24.501s10.167 10.167 15.5 13.5c30.667 18 58.834 41.5 84.501 70.5
s46.834 61 63.501 96s27.667 72 33 111s3 77.5 -7 115.5c-2 10 -8.66699 15 -20 15h-140c-8.66699 0 -15.667 2.83301 -21 8.5s-8 13.167 -8 22.5v73c0 8 2.66699 14.5 8 19.5s12.666 7.5 21.999 7.5h56c8 0 13.833 3.83301 17.5 11.5s2.83398 14.167 -2.49902 19.5
c-11.333 16.667 -22.666 35.334 -33.999 56.001s-21.333 42.834 -30 66.501s-15.667 49 -21 76s-7.33301 55.5 -6 85.5c2 64 16.333 119.667 43 167s61.5 86.666 104.5 117.999s91.667 54.666 146 69.999s110.166 23 167.499 23c54 0 106 -7.5 156 -22.5s95 -37.5 135 -67.5
s73.833 -67.5 101.5 -112.5s46.834 -97.5 57.501 -157.5c2.66699 -9.33301 0.166992 -17 -7.5 -23s-16.5 -9 -26.5 -9h-84c-11.333 0 -19.5 3.5 -24.5 10.5s-8.16699 13.833 -9.5 20.5c-7.33301 35.333 -19.333 67.333 -36 96s-38.334 53 -65.001 73s-58.5 35.333 -95.5 46
s-79.5 16 -127.5 16c-31.333 0 -63.666 -5.33301 -96.999 -16s-63.666 -26.5 -90.999 -47.5s-49.666 -47.5 -66.999 -79.5s-26 -69.333 -26 -112c0 -28.667 3.16699 -56.167 9.5 -82.5s14.833 -51.833 25.5 -76.5s22.834 -48.667 36.501 -72l41.5 -68
c4 -4.66699 9.66699 -7.66699 17 -9h270c7.33301 0 14 -2.16699 20 -6.5s9 -11.166 9 -20.499l1 -77c0 -8 -2.5 -14.5 -7.5 -19.5s-11.167 -7.5 -18.5 -7.5h-197c-6 0 -11.167 -2.33301 -15.5 -7s-5.83301 -11 -4.5 -19c5.33301 -42 5.33301 -83.667 0 -125
s-14.833 -80.166 -28.5 -116.499s-31 -69.5 -52 -99.5s-44.5 -55 -70.5 -75c-6.66699 -5.33301 -8.33398 -12 -5.00098 -20s9.33301 -12 18 -12h703c9.33301 0 17.333 -2.83301 24 -8.5s10 -13.5 10 -23.5z" />
    <glyph glyph-name="yen" unicode="&#xa5;" horiz-adv-x="1222" 
d="M909 617c-1.33301 -17.333 -10.332 -26.6689 -26.999 -28.002h-190l1 -98h187c8 0 14.667 -2.66699 20 -8s8.33301 -11.666 9 -18.999v-60c-0.666992 -7.33301 -3.33398 -13.666 -8.00098 -18.999s-11 -8.33301 -19 -9h-186l6 -342c0 -9.33301 -3.16699 -17.333 -9.5 -24
s-14.5 -10 -24.5 -10h-112c-10 -0 -18.167 3.33301 -24.5 10s-9.5 14.667 -9.5 24l5 342h-186c-8 0 -14.833 2.83301 -20.5 8.5s-8.5 12.167 -8.5 19.5v58c0 8 2.83301 14.833 8.5 20.5s12.5 8.5 20.5 8.5h189l1 98h-190c-8 0 -14.833 2.66699 -20.5 8s-8.5 12 -8.5 20v57
c0 8 2.83301 14.833 8.5 20.5s12.5 8.5 20.5 8.5h192v12c0 7.33301 -1.66699 13.666 -5 18.999l-438 676c-4 4.66699 -5.83301 9.83398 -5.5 15.501s2 11 5 16s7 9.16699 12 12.5s10.833 4.66602 17.5 3.99902h81c11.333 0 20.666 -5.33301 27.999 -16l359 -542
c6 -8.66699 13.667 -13 23 -13c12 0 20 4.66699 24 14l360 539c7.33301 11.333 17.333 17.333 30 18h82c14 0 23.667 -5.83301 29 -17.5s4.33301 -23.167 -3 -34.5l-436 -672c-1.33301 -3.33301 -2.66602 -6.5 -3.99902 -9.5s-2 -6.16699 -2 -9.5v-12h190
c8 0 14.667 -2.66699 20 -8s8.33301 -11.666 9 -18.999v-59z" />
    <glyph glyph-name="dieresis" unicode="&#xa8;" horiz-adv-x="520" 
d="M113 1259c-9.33301 0 -17.168 3 -23.501 9s-9.5 13.667 -9.5 23l2 136c0 9.33301 3 16.833 9 22.5s13.333 8.5 22 8.5h65c8.66699 0 16 -3 22 -9s9 -13.667 9 -23l3 -135c0 -9.33301 -3.16699 -17 -9.5 -23s-14.166 -9 -23.499 -9h-66zM394.998 1259
c-9.33301 0 -17.168 3 -23.501 9s-9.5 13.667 -9.5 23l2 136c0 9.33301 3 16.833 9 22.5s13.333 8.5 22 8.5h65c8.66699 0 16 -3 22 -9s9 -13.667 9 -23l3 -135c0 -9.33301 -3.16699 -17 -9.5 -23s-14.166 -9 -23.499 -9h-66z" />
    <glyph glyph-name="copyright" unicode="&#xa9;" horiz-adv-x="1661" 
d="M831 1480c68.667 0 134.834 -8.83301 198.501 -26.5s123.334 -42.834 179.001 -75.501s106.167 -71.667 151.5 -117s84.333 -95.833 117 -151.5s57.834 -115.334 75.501 -179.001s26.5 -129.834 26.5 -198.501c0 -69.333 -8.83301 -135.833 -26.5 -199.5
s-42.834 -123.167 -75.501 -178.5s-71.667 -105.666 -117 -150.999s-95.833 -84.333 -151.5 -117s-115.334 -57.834 -179.001 -75.501s-129.834 -26.5 -198.501 -26.5c-69.333 0 -135.833 8.83301 -199.5 26.5s-123.167 42.834 -178.5 75.501s-105.666 71.667 -150.999 117
s-84.333 95.666 -117 150.999s-57.834 114.833 -75.501 178.5s-26.5 130.167 -26.5 199.5c0 68.667 8.83301 134.834 26.5 198.501s42.834 123.334 75.501 179.001s71.667 106.167 117 151.5s95.666 84.333 150.999 117s114.833 57.834 178.5 75.501
s130.167 26.5 199.5 26.5zM831 107c57.333 0 112.665 7.5 165.998 22.5s103.166 36 149.499 63s88.5 59.5 126.5 97.5s70.5 80.167 97.5 126.5s48 96.166 63 149.499s22.5 108.666 22.5 165.999s-7.5 112.666 -22.5 165.999s-36 103.166 -63 149.499s-59.5 88.5 -97.5 126.5
s-80.167 70.5 -126.5 97.5s-96.166 48 -149.499 63s-108.666 22.5 -165.999 22.5c-58 0 -113.667 -7.5 -167 -22.5s-103.166 -36 -149.499 -63s-88.5 -59.5 -126.5 -97.5s-70.5 -80.167 -97.5 -126.5s-48 -96.166 -63 -149.499s-22.5 -108.666 -22.5 -165.999
s7.5 -112.666 22.5 -165.999s36 -103.166 63 -149.499s59.5 -88.5 97.5 -126.5s80.167 -70.5 126.5 -97.5s96.333 -48 150 -63s109.167 -22.5 166.5 -22.5zM1224 568c-12 -38 -29.8311 -73.832 -53.498 -107.499s-51.834 -62.834 -84.501 -87.501
s-69.5 -44.167 -110.5 -58.5s-85.167 -21.5 -132.5 -21.5c-60 0 -115.167 11 -165.5 33s-93.5 52.5 -129.5 91.5s-64.167 85.167 -84.5 138.5s-30.5 111.666 -30.5 174.999s10.167 121.833 30.5 175.5s48.833 100 85.5 139s80 69.5 130 91.5s104.667 33 164 33
c38 0 74.667 -5 110 -15s68.5 -24.667 99.5 -44s59.333 -43 85 -71s47.167 -59.667 64.5 -95c5.33301 -10 4.83301 -19 -1.5 -27s-14.166 -12 -23.499 -12h-76c-10.667 0 -19 5 -25 15c-22.667 44 -54.667 78.667 -96 104s-87 38 -137 38c-44 0 -83.833 -9 -119.5 -27
s-66 -42 -91 -72s-44.333 -64.5 -58 -103.5s-20.5 -79.833 -20.5 -122.5c0 -49.333 7.16699 -94 21.5 -134s34.333 -74.167 60 -102.5s56.167 -50.166 91.5 -65.499s74 -23 116 -23c56 0 106.5 15.167 151.5 45.5s79.833 73.5 104.5 129.5c5.33301 12 14.333 18 27 18h72
c11.333 0 19.166 -4 23.499 -12s5.16602 -16.667 2.49902 -26z" />
    <glyph glyph-name="guillemotleft" unicode="&#xab;" horiz-adv-x="863" 
d="M225 582c-6 -4.66699 -9.16797 -10.332 -9.50098 -16.999s2.83398 -12 9.50098 -16l184 -124c12.667 -8 19 -19 19 -33v-55c0 -11.333 -5 -19.833 -15 -25.5s-19.667 -5.83398 -29 -0.500977l-285 191c-6 3.33301 -11 7 -15 11s-6 10.667 -6 20v69
c0 6.66699 2 12.667 6 18s9 9.66602 15 12.999l285 167c10.667 6.66699 20.667 6.33398 30 -0.999023s14 -16.333 14 -27v-50c0 -13.333 -6.33301 -23.333 -19 -30zM574.999 582.002c-6 -4.66699 -9.16797 -10.333 -9.50098 -17s2.83398 -12 9.50098 -16l183 -124
c12.667 -8 19 -19 19 -33v-55c0 -11.333 -4.83301 -19.833 -14.5 -25.5s-19.167 -5.83398 -28.5 -0.500977l-286 191c-6 3.33301 -10.833 7 -14.5 11s-5.5 10.667 -5.5 20v69c0 12.667 6.66699 23 20 31l286 167c10.667 6.66699 20.5 6.33398 29.5 -0.999023
s13.5 -16.333 13.5 -27v-50c0 -13.333 -6.33301 -23.333 -19 -30z" />
    <glyph glyph-name="registered" unicode="&#xae;" horiz-adv-x="724" 
d="M363 1458c38.667 0 74.834 -7.16699 108.501 -21.5s63 -34.166 88 -59.499s44.833 -55 59.5 -89s22 -70.667 22 -110c0 -38.667 -7.33301 -74.834 -22 -108.501s-34.5 -63 -59.5 -88s-54.333 -44.667 -88 -59s-69.834 -21.5 -108.501 -21.5s-75 7.16699 -109 21.5
s-63.667 34 -89 59s-45.333 54.333 -60 88s-22 69.834 -22 108.501c0 39.333 7.33301 76 22 110s34.667 63.667 60 89s55 45.166 89 59.499s70.333 21.5 109 21.5zM363 981c26.667 0 52 5.16699 76 15.5s45 24.5 63 42.5s32.333 38.833 43 62.5s16 49.167 16 76.5
c0 28 -5.33301 54 -16 78s-25 45 -43 63s-39 32.167 -63 42.5s-49.333 15.5 -76 15.5c-27.333 0 -53 -5.16699 -77 -15.5s-45 -24.5 -63 -42.5s-32.167 -39 -42.5 -63s-15.5 -50 -15.5 -78c0 -27.333 5.16699 -52.833 15.5 -76.5s24.5 -44.5 42.5 -62.5s39 -32.167 63 -42.5
s49.667 -15.5 77 -15.5zM479 1067c2 -1.33301 2.33398 -3.1709 1.00098 -5.50391s-3.33301 -3.5 -6 -3.5h-39c-2.66699 0 -4.33398 0.333008 -5.00098 1l-76 93c-0.666992 1.33301 -2.33398 2 -5.00098 2h-35c-2.66699 0 -4 -1.66699 -4 -5l1 -85c0 -4 -2 -6 -6 -6h-36
c-0.666992 0 -1.66699 0.333008 -3 1s-2 2.33398 -2 5.00098l4 240c0 4.66699 2.33301 7 7 7h107c10 0 19.667 -2.16699 29 -6.5s17.833 -10.166 25.5 -17.499s13.667 -15.666 18 -24.999s6.5 -19.333 6.5 -30c0 -16 -5.66699 -30.667 -17 -44s-24.333 -21.666 -39 -24.999
c-1.33301 0 -2.16602 -0.5 -2.49902 -1.5s0.166992 -2.16699 1.5 -3.5zM371.001 1193c13.333 0 24.333 3.33105 33 9.99805s13 16.334 13 29.001s-4.5 22.834 -13.5 30.501s-20.167 11.5 -33.5 11.5h-58c-3.33301 0 -5 -1.66699 -5 -5l1 -71c0 -3.33301 1.66699 -5 5 -5h58z
" />
    <glyph glyph-name="degree" unicode="&#xb0;" horiz-adv-x="724" 
d="M363 1458c38.667 0 74.834 -7.16699 108.501 -21.5s63 -34.166 88 -59.499s44.833 -55 59.5 -89s22 -70.667 22 -110c0 -38.667 -7.33301 -74.834 -22 -108.501s-34.5 -63 -59.5 -88s-54.333 -44.667 -88 -59s-69.834 -21.5 -108.501 -21.5s-75 7.16699 -109 21.5
s-63.667 34 -89 59s-45.333 54.333 -60 88s-22 69.834 -22 108.501c0 39.333 7.33301 76 22 110s34.667 63.667 60 89s55 45.166 89 59.499s70.333 21.5 109 21.5zM363 1006c24 0 46.5 4.5 67.5 13.5s39.333 21.333 55 37s28 33.834 37 54.501s13.5 43 13.5 67
c0 24.667 -4.5 47.5 -13.5 68.5s-21.333 39.333 -37 55s-34 28 -55 37s-43.5 13.5 -67.5 13.5s-46.5 -4.5 -67.5 -13.5s-39.333 -21.333 -55 -37s-28 -34 -37 -55s-13.5 -43.833 -13.5 -68.5c0 -24 4.5 -46.333 13.5 -67s21.333 -38.834 37 -54.501s34 -28 55 -37
s43.5 -13.5 67.5 -13.5z" />
    <glyph glyph-name="acute" unicode="&#xb4;" horiz-adv-x="428" 
d="M139 1196c-6 -7.33301 -12.667 -11.001 -20 -11.001s-13.833 2 -19.5 6s-9.5 9.83301 -11.5 17.5s-0.666992 15.834 4 24.501l124 208c5.33301 9.33301 15.333 15 30 17h76c7.33301 0 13.333 -1.83301 18 -5.5s8 -8.16699 10 -13.5s2.5 -11 1.5 -17s-3.5 -11 -7.5 -15z
" />
    <glyph glyph-name="paragraph" unicode="&#xb6;" horiz-adv-x="1094" 
d="M568 -440l0.000976562 898c-58 0 -116.333 10.833 -175 32.5s-111.834 52.167 -159.501 91.5s-86.334 86.833 -116.001 142.5s-44.5 117.5 -44.5 185.5c0 44.667 4 89 12 133s21.333 86.333 40 127s43.834 78.5 75.501 113.5s71.167 65.5 118.5 91.5
s103.5 46.333 168.5 61s140.167 22 225.5 22h293v-1898h-137v1740h-170v-1740h-131z" />
    <glyph glyph-name="cedilla" unicode="&#xb8;" horiz-adv-x="479" 
d="M310 -13c-7.33301 -0.666992 -13.668 -2.5 -19.001 -5.5s-8 -8.5 -8 -16.5l1 -54c0 -8.66699 4.66699 -15 14 -19c28 -11.333 51.833 -30.666 71.5 -57.999s29.5 -59.666 29.5 -96.999c0 -26 -3.83301 -49.833 -11.5 -71.5s-18.667 -40.334 -33 -56.001
s-31.666 -27.834 -51.999 -36.501s-42.833 -13 -67.5 -13c-19.333 0 -37.833 3.16699 -55.5 9.5s-33.667 15.333 -48 27s-26.333 25.667 -36 42s-15.834 34.5 -18.501 54.5c0 14.667 6.66699 22 20 22h46c10.667 0 17.667 -4.66699 21 -14
c4.66699 -17.333 13.5 -31 26.5 -41s27.833 -15 44.5 -15c14.667 0 26.834 2.83301 36.501 8.5s17.5 12.834 23.5 21.501s10.167 18.5 12.5 29.5s3.5 21.833 3.5 32.5c0 22.667 -5.83301 42.834 -17.5 60.501s-30.167 26.5 -55.5 26.5c-10 0.666992 -17.667 -1 -23 -5
s-11.333 -6 -18 -6c-5.33301 0 -9.83301 2.16699 -13.5 6.5s-5.5 9.16602 -5.5 14.499l4 137c0.666992 8 -2.33301 13.167 -9 15.5s-12.667 4.16602 -18 5.49902l14 29h127z" />
    <glyph glyph-name="guillemotright" unicode="&#xbb;" horiz-adv-x="924" 
d="M694.014 582c6 -4.66699 9.16699 -10.332 9.5 -16.999s-2.83398 -12 -9.5 -16l-183.988 -124c-12.666 -8 -18.999 -19 -18.999 -33v-55c0 -11.333 5 -19.833 14.999 -25.5s19.665 -5.83398 28.998 -0.500977l284.982 191c6 3.33301 11 7 14.999 11c4 4 6 10.667 6 20v69
c0 6.66699 -2 12.667 -6 18c-3.99902 5.33301 -8.99902 9.66602 -14.999 12.999l-284.982 167c-10.666 6.66699 -20.665 6.33398 -29.998 -0.999023s-13.999 -16.333 -13.999 -27v-50c0 -13.333 6.33301 -23.333 18.999 -30zM344.035 582.002
c5.99902 -4.66699 9.16602 -10.333 9.49902 -17s-2.83301 -12 -9.49902 -16l-182.989 -124c-12.665 -8 -18.998 -19 -18.998 -33v-55c0 -11.333 4.83301 -19.833 14.499 -25.5s19.165 -5.83398 28.498 -0.500977l285.982 191c5.99902 3.33301 10.832 7 14.499 11
s5.5 10.667 5.5 20v69c0 12.667 -6.66602 23 -19.999 31l-285.982 167c-10.666 6.66699 -20.499 6.33398 -29.498 -0.999023s-13.499 -16.333 -13.499 -27v-50c0 -13.333 6.33301 -23.333 18.998 -30z" />
    <glyph glyph-name="questiondown" unicode="&#xbf;" horiz-adv-x="1107" 
d="M220 -6c0 -44 8.49902 -83.333 25.499 -118s40.167 -64 69.5 -88s63.166 -42.167 101.499 -54.5s79.166 -18.5 122.499 -18.5c36.667 0 72.667 5.5 108 16.5s67.833 27 97.5 48s55.334 46.333 77.001 76s37.167 63.5 46.5 101.5c2.66699 10 6.83398 18.333 12.501 25
s13.167 10 22.5 10h91c4.66699 0 9.5 -0.5 14.5 -1.5s9.16699 -3 12.5 -6s5.5 -7.16699 6.5 -12.5s0.5 -12.666 -1.5 -21.999c-16 -64.667 -41 -120.334 -75 -167.001s-73.5 -85.167 -118.5 -115.5s-94 -52.833 -147 -67.5s-106.833 -22 -161.5 -22
c-63.333 0 -122.166 10.167 -176.499 30.5s-101.833 48.833 -142.5 85.5s-72.5 80.667 -95.5 132s-34.5 108.333 -34.5 171c0 43.333 5.66699 83 17 119s26.833 69 46.5 99s42.5 57.5 68.5 82.5s53.833 48.333 83.5 70s60.334 42.167 92.001 61.5l92.5 58
c6.66699 4 10 9.66699 10 17l-2 120c0 10 3 18 9 24s13.667 9.33301 23 10h97c11.333 0 20.166 -3.16699 26.499 -9.5s9.5 -14.5 9.5 -24.5l-3 -177c0 -14 -6 -24.333 -18 -31l-157 -97c-49.333 -31.333 -92.5 -63.833 -129.5 -97.5s-66.333 -69 -88 -106
s-32.5 -77.5 -32.5 -121.5zM660.999 886c-0.666992 -9.33301 -4.00098 -17.333 -10.001 -24s-13.667 -10 -23 -10h-125c-9.33301 0 -17.166 3.33301 -23.499 10s-9.5 14.667 -9.5 24l-2 135c0 9.33301 3 17.333 9 24s13.667 10 23 10h131c10 0 18 -3.33301 24 -10
s9 -14.667 9 -24z" />
    <glyph glyph-name="Agrave" unicode="&#xc0;" horiz-adv-x="1396" 
d="M1350 42c4.66699 -11.333 3.50195 -20.998 -3.49805 -28.998s-15.167 -12.333 -24.5 -13h-109c-16.667 0 -27.334 8.33301 -32.001 25l-147 402c-6 16.667 -18 25 -36 25h-559c-16.667 0 -28.334 -7.66699 -35.001 -23l-151 -406
c-5.33301 -14.667 -15.333 -22.334 -30 -23.001h-108c-13.333 0 -22.666 4.33301 -27.999 13s-5.33301 19.667 0 33l564 1394c2 5.33301 5.16699 9.66602 9.5 12.999s10.166 5 17.499 5h80c14.667 0 24.667 -7 30 -21zM956.002 639.002l-210.999 573.002
c-2.66699 7.33301 -6.5 12.666 -11.5 15.999s-10.167 5 -15.5 5s-10.333 -1.83301 -15 -5.5s-8 -8.83398 -10 -15.501l-211 -573c-4 -11.333 -3.33301 -20.166 2 -26.499s13.666 -9.5 24.999 -9.5h420c11.333 0 19.5 3.66699 24.5 11s5.83301 15.666 2.5 24.999z
M516.003 1793c-4.66699 4.66699 -7.16699 9.83301 -7.5 15.5s0.666992 11.167 3 16.5s6 9.83301 11 13.5s10.5 5.5 16.5 5.5h75c14.667 -2 24.667 -7.66699 30 -17l124 -208c4.66699 -8.66699 6 -16.667 4 -24s-5.83301 -13 -11.5 -17s-12.167 -6 -19.5 -6
s-14 3.33301 -20 10z" />
    <glyph glyph-name="Aacute" unicode="&#xc1;" horiz-adv-x="1396" 
d="M1350 42c4.66699 -11.333 3.50195 -20.998 -3.49805 -28.998s-15.167 -12.333 -24.5 -13h-109c-16.667 0 -27.334 8.33301 -32.001 25l-147 402c-6 16.667 -18 25 -36 25h-559c-16.667 0 -28.334 -7.66699 -35.001 -23l-151 -406
c-5.33301 -14.667 -15.333 -22.334 -30 -23.001h-108c-13.333 0 -22.666 4.33301 -27.999 13s-5.33301 19.667 0 33l564 1394c2 5.33301 5.16699 9.66602 9.5 12.999s10.166 5 17.499 5h80c14.667 0 24.667 -7 30 -21zM956.002 639.002l-210.999 573.002
c-2.66699 7.33301 -6.5 12.666 -11.5 15.999s-10.167 5 -15.5 5s-10.333 -1.83301 -15 -5.5s-8 -8.83398 -10 -15.501l-211 -573c-4 -11.333 -3.33301 -20.166 2 -26.499s13.666 -9.5 24.999 -9.5h420c11.333 0 19.5 3.66699 24.5 11s5.83301 15.666 2.5 24.999z
M723.003 1583c-6 -7.33301 -12.667 -11.001 -20 -11.001s-13.833 2 -19.5 6s-9.5 9.83301 -11.5 17.5s-0.666992 15.834 4 24.501l124 208c5.33301 9.33301 15.333 15 30 17h76c7.33301 0 13.333 -1.83301 18 -5.5s8 -8.16699 10 -13.5s2.5 -11 1.5 -17s-3.5 -11 -7.5 -15z
" />
    <glyph glyph-name="Acircumflex" unicode="&#xc2;" horiz-adv-x="1396" 
d="M1350 42c4.66699 -11.333 3.50195 -20.998 -3.49805 -28.998s-15.167 -12.333 -24.5 -13h-109c-16.667 0 -27.334 8.33301 -32.001 25l-147 402c-6 16.667 -18 25 -36 25h-559c-16.667 0 -28.334 -7.66699 -35.001 -23l-151 -406
c-5.33301 -14.667 -15.333 -22.334 -30 -23.001h-108c-13.333 0 -22.666 4.33301 -27.999 13s-5.33301 19.667 0 33l564 1394c2 5.33301 5.16699 9.66602 9.5 12.999s10.166 5 17.499 5h80c14.667 0 24.667 -7 30 -21zM956.002 639.002l-210.999 573.002
c-2.66699 7.33301 -6.5 12.666 -11.5 15.999s-10.167 5 -15.5 5s-10.333 -1.83301 -15 -5.5s-8 -8.83398 -10 -15.501l-211 -573c-4 -11.333 -3.33301 -20.166 2 -26.499s13.666 -9.5 24.999 -9.5h420c11.333 0 19.5 3.66699 24.5 11s5.83301 15.666 2.5 24.999z
M949.003 1623c10.667 -10.667 13.5039 -21.833 8.50391 -33.5s-14.5 -17.5 -28.5 -17.5h-75c-12.667 0 -22.334 5.33301 -29.001 16l-120 196c-2.66699 5.33301 -6.5 7.83301 -11.5 7.5s-8.5 -2.83301 -10.5 -7.5l-120 -196c-6.66699 -10.667 -17 -16 -31 -16h-74
c-15.333 0 -24.833 6 -28.5 18s-0.833984 23 8.49902 33l199 208c7.33301 8.66699 16.666 13 27.999 13h58c9.33301 0 17.666 -4.33301 24.999 -13z" />
    <glyph glyph-name="Atilde" unicode="&#xc3;" horiz-adv-x="1396" 
d="M1350 42c4.66699 -11.333 3.50195 -20.998 -3.49805 -28.998s-15.167 -12.333 -24.5 -13h-109c-16.667 0 -27.334 8.33301 -32.001 25l-147 402c-6 16.667 -18 25 -36 25h-559c-16.667 0 -28.334 -7.66699 -35.001 -23l-151 -406
c-5.33301 -14.667 -15.333 -22.334 -30 -23.001h-108c-13.333 0 -22.666 4.33301 -27.999 13s-5.33301 19.667 0 33l564 1394c2 5.33301 5.16699 9.66602 9.5 12.999s10.166 5 17.499 5h80c14.667 0 24.667 -7 30 -21zM956.002 639.002l-210.999 573.002
c-2.66699 7.33301 -6.5 12.666 -11.5 15.999s-10.167 5 -15.5 5s-10.333 -1.83301 -15 -5.5s-8 -8.83398 -10 -15.501l-211 -573c-4 -11.333 -3.33301 -20.166 2 -26.499s13.666 -9.5 24.999 -9.5h420c11.333 0 19.5 3.66699 24.5 11s5.83301 15.666 2.5 24.999z
M946.003 1712c-0.666992 -22 -5 -42.668 -13 -62.001s-18.833 -36.166 -32.5 -50.499s-29.834 -25.5 -48.501 -33.5s-38.334 -12 -59.001 -12c-26 0 -48.333 4.83301 -67 14.5s-36 20.5 -52 32.5s-32.5 22.833 -49.5 32.5s-37.167 14.5 -60.5 14.5
c-27.333 0 -51.666 -7.16699 -72.999 -21.5s-40 -32.166 -56 -53.499c-5.33301 -5.33301 -12.166 -7.16602 -20.499 -5.49902s-12.5 6.5 -12.5 14.5c0 22 3.83301 43 11.5 63s18.5 37.833 32.5 53.5s30.833 28 50.5 37s41.5 13.5 65.5 13.5c26 0 47.167 -4.83301 63.5 -14.5
s32 -20.167 47 -31.5s31.5 -21.833 49.5 -31.5s41.667 -14.5 71 -14.5c27.333 0 50.833 6.83301 70.5 20.5s36.834 28.167 51.501 43.5c2 3.33301 4.83301 5.66602 8.5 6.99902s7.16699 1.5 10.5 0.5s6.16602 -2.83301 8.49902 -5.5s3.5 -6.33398 3.5 -11.001z" />
    <glyph glyph-name="Adieresis" unicode="&#xc4;" horiz-adv-x="1396" 
d="M1350 42c4.66699 -11.333 3.50195 -20.998 -3.49805 -28.998s-15.167 -12.333 -24.5 -13h-109c-16.667 0 -27.334 8.33301 -32.001 25l-147 402c-6 16.667 -18 25 -36 25h-559c-16.667 0 -28.334 -7.66699 -35.001 -23l-151 -406
c-5.33301 -14.667 -15.333 -22.334 -30 -23.001h-108c-13.333 0 -22.666 4.33301 -27.999 13s-5.33301 19.667 0 33l564 1394c2 5.33301 5.16699 9.66602 9.5 12.999s10.166 5 17.499 5h80c14.667 0 24.667 -7 30 -21zM956.002 639.002l-210.999 573.002
c-2.66699 7.33301 -6.5 12.666 -11.5 15.999s-10.167 5 -15.5 5s-10.333 -1.83301 -15 -5.5s-8 -8.83398 -10 -15.501l-211 -573c-4 -11.333 -3.33301 -20.166 2 -26.499s13.666 -9.5 24.999 -9.5h420c11.333 0 19.5 3.66699 24.5 11s5.83301 15.666 2.5 24.999z
M555.003 1573c-9.33301 0 -17.168 3 -23.501 9s-9.5 13.667 -9.5 23l2 136c0 9.33301 3 16.833 9 22.5s13.333 8.5 22 8.5h65c8.66699 0 16 -3 22 -9s9 -13.667 9 -23l3 -135c0 -9.33301 -3.16699 -17 -9.5 -23s-14.166 -9 -23.499 -9h-66zM838.001 1573
c-9.33301 0 -17.168 3 -23.501 9s-9.5 13.667 -9.5 23l2 136c0 9.33301 3 16.833 9 22.5s13.333 8.5 22 8.5h65c8.66699 0 16 -3 22 -9s9 -13.667 9 -23l3 -135c0 -9.33301 -3.16699 -17 -9.5 -23s-14.166 -9 -23.499 -9h-66z" />
    <glyph glyph-name="Aring" unicode="&#xc5;" horiz-adv-x="1396" 
d="M1350 42c4.66699 -11.333 3.50195 -20.998 -3.49805 -28.998s-15.167 -12.333 -24.5 -13h-109c-16.667 0 -27.334 8.33301 -32.001 25l-147 402c-6 16.667 -18 25 -36 25h-559c-16.667 0 -28.334 -7.66699 -35.001 -23l-151 -406
c-5.33301 -14.667 -15.333 -22.334 -30 -23.001h-108c-13.333 0 -22.666 4.33301 -27.999 13s-5.33301 19.667 0 33l564 1394c2 5.33301 5.16699 9.66602 9.5 12.999s10.166 5 17.499 5h80c14.667 0 24.667 -7 30 -21zM956.002 639.002l-210.999 573.002
c-2.66699 7.33301 -6.5 12.666 -11.5 15.999s-10.167 5 -15.5 5s-10.333 -1.83301 -15 -5.5s-8 -8.83398 -10 -15.501l-211 -573c-4 -11.333 -3.33301 -20.166 2 -26.499s13.666 -9.5 24.999 -9.5h420c11.333 0 19.5 3.66699 24.5 11s5.83301 15.666 2.5 24.999z
M731.003 1892c26 0 50 -4.83301 72 -14.5s41.167 -22.667 57.5 -39s29.166 -35.666 38.499 -57.999s14 -45.833 14 -70.5c0 -25.333 -4.66699 -48.833 -14 -70.5s-22.166 -40.667 -38.499 -57s-35.5 -29.166 -57.5 -38.499s-46 -14 -72 -14c-24.667 0 -48 4.66699 -70 14
s-41.167 22.166 -57.5 38.499s-29.333 35.333 -39 57s-14.5 45.167 -14.5 70.5c0 24.667 4.83301 48.167 14.5 70.5s22.667 41.666 39 57.999s35.5 29.333 57.5 39s45.333 14.5 70 14.5zM731.003 1612c31.333 0 55.833 8.83301 73.5 26.5s26.5 41.5 26.5 71.5
c0 31.333 -8.83301 55.666 -26.5 72.999s-42.167 26 -73.5 26c-30 0 -53.833 -8.66699 -71.5 -26s-26.5 -41.666 -26.5 -72.999c0 -30 8.83301 -53.833 26.5 -71.5s41.5 -26.5 71.5 -26.5z" />
    <glyph glyph-name="AE" unicode="&#xc6;" horiz-adv-x="1682" 
d="M1601 33c0 -10 -3.16602 -17.999 -9.49902 -23.999s-14.166 -9 -23.499 -9h-639c-17.333 0 -27.666 8.33301 -30.999 25l-77 405c-2.66699 14.667 -13.334 22 -32.001 22h-350c-7.33301 0 -13.833 -1.83301 -19.5 -5.5s-9.83398 -9.16699 -12.501 -16.5l-153 -408
c-1.33301 -6.66699 -5 -12 -11 -16s-12 -6 -18 -6h-108c-13.333 0 -22.833 4 -28.5 12s-5.83398 18.667 -0.500977 32l568 1396c2 5.33301 5.16699 9.66602 9.5 12.999s10.166 5 17.499 5h842c9.33301 0 16.333 -2.66699 21 -8s7 -12.333 7 -21l2 -85
c0.666992 -20 -8.66602 -30 -27.999 -30h-672c-12 -0.666992 -19.833 -3.5 -23.5 -8.5s-5.16699 -11.167 -4.5 -18.5l80 -416c1.33301 -5.33301 3.83301 -10 7.5 -14s11.167 -6 22.5 -6l529 -2c8 0 14.667 -2.66699 20 -8s8 -12.333 8 -21l1 -87
c0 -8.66699 -2.5 -15.667 -7.5 -21s-11.5 -8 -19.5 -8h-494c-8 0 -15.333 -2 -22 -6s-9 -10.333 -7 -19l95 -495c2.66699 -16 12 -24 28 -24h495c11.333 0 20.333 -2.5 27 -7.5s10 -12.167 10 -21.5zM775.001 599.001c10.667 0 16.333 3.5 17 10.5s0.666992 15.167 0 24.5
l-78 549c-1.33301 6.66699 -3.83301 11.667 -7.5 15s-8 5 -13 5s-9.83301 -1.66699 -14.5 -5s-8 -8.33301 -10 -15l-185 -550c-8 -22.667 -1.66699 -34 19 -34h272z" />
    <glyph glyph-name="Ccedilla" unicode="&#xc7;" horiz-adv-x="1514" 
d="M822 -12c-5.33301 0 -10.5088 -0.995117 -15.5088 -2.99512s-7.83301 -6.33301 -8.5 -13c-0.666992 -6 -1.16699 -13.833 -1.5 -23.5s-0.5 -20.5 -0.5 -32.5c0 -6.66699 1 -11.667 3 -15s6 -6.33301 12 -9c14 -5.33301 27 -12.833 39 -22.5s22.667 -21.334 32 -35.001
s16.666 -28.667 21.999 -45s8 -33.833 8 -52.5c0 -26 -3.83301 -49.833 -11.5 -71.5s-18.667 -40.334 -33 -56.001s-31.666 -27.834 -51.999 -36.501s-42.833 -13 -67.5 -13c-19.333 0 -37.833 3.16699 -55.5 9.5s-33.667 15.333 -48 27s-26.333 25.667 -36 42
s-15.834 34.5 -18.501 54.5c-1.33301 14.667 5.33398 22 20.001 22h46c10.667 0 17.667 -4.66699 21 -14c4 -17.333 12.667 -31 26 -41s28.333 -15 45 -15c14.667 0 26.834 2.83301 36.501 8.5s17.334 12.834 23.001 21.501s9.66699 18.5 12 29.5s3.5 21.833 3.5 32.5
c0 22.667 -5.66699 42.834 -17 60.501s-29.666 26.5 -54.999 26.5c-10.667 0.666992 -18.5 -1 -23.5 -5s-10.833 -6 -17.5 -6c-5.33301 0 -9.83301 2.16699 -13.5 6.5s-5.5 9.16602 -5.5 14.499l4 130c0.666992 10 -1.66602 17 -6.99902 21s-11.666 6.66699 -18.999 8
c-92 12 -174.5 40.333 -247.5 85s-134.833 100 -185.5 166s-89.5 140.333 -116.5 223s-40.5 168.334 -40.5 257.001c0 105.333 16.333 203.833 49 295.5s79.334 171.5 140.001 239.5s133.667 121.667 219 161s180.666 59 285.999 59c76 0 147.167 -10.5 213.5 -31.5
s126.333 -49.833 180 -86.5s100.5 -79.834 140.5 -129.501s71.667 -103.5 95 -161.5c5.33301 -13.333 4.83301 -25 -1.5 -35s-16.166 -15 -29.499 -15h-88c-9.33301 0 -16.666 2 -21.999 6s-10.333 10.333 -15 19c-24 44 -51.5 84 -82.5 120s-66 67 -105 93
s-82.167 46.167 -129.5 60.5s-99.333 21.5 -156 21.5c-76.667 0 -147.667 -15.167 -213 -45.5s-121.833 -72 -169.5 -125s-85 -115.833 -112 -188.5s-40.5 -151.334 -40.5 -236.001c0 -86.667 13.833 -167.334 41.5 -242.001s65.5 -139.5 113.5 -194.5
s104.5 -98.167 169.5 -129.5s135.167 -47 210.5 -47c58.667 0 113.334 9.33301 164.001 28s96.834 44.167 138.501 76.5s78.667 70.666 111 114.999s59.166 92.166 80.499 143.499c3.33301 7.33301 7.5 13.666 12.5 18.999s12.5 8 22.5 8h99c8 0 14.333 -1.83301 19 -5.5
s8.16699 -8.16699 10.5 -13.5s3.33301 -11.166 3 -17.499s-1.5 -12.5 -3.5 -18.5c-31.333 -88.667 -70.666 -163.167 -117.999 -223.5s-98.5 -109.166 -153.5 -146.499s-111.667 -64.5 -170 -81.5s-113.833 -26.167 -166.5 -27.5z" />
    <glyph glyph-name="Egrave" unicode="&#xc8;" horiz-adv-x="1162" 
d="M1059 34c0 -10 -3.33496 -18.165 -10.002 -24.498s-14.667 -9.5 -24 -9.5h-898c-10 0 -18.167 3.33301 -24.5 10s-9.5 14.667 -9.5 24l10 1391c0 9.33301 3 17.166 9 23.499s13.667 9.5 23 9.5h868c8.66699 0 15.667 -2.83301 21 -8.5s8 -12.5 8 -20.5l1 -85
c0 -8 -2.16699 -15 -6.5 -21s-11.166 -9 -20.499 -9h-733c-9.33301 -0.666992 -16.333 -3.83398 -21 -9.50098s-7 -12.5 -7 -20.5l3 -407c0 -8.66699 2.66699 -15.667 8 -21s12 -8 20 -8h666c8 0 14.833 -2.66699 20.5 -8s8.5 -12.333 8.5 -21l1 -85
c0 -8.66699 -2.83301 -15.834 -8.5 -21.501s-12.5 -8.5 -20.5 -8.5h-665c-9.33301 0 -16.5 -2.66699 -21.5 -8s-7.5 -12.333 -7.5 -21l4 -488c0 -7.33301 2.66699 -13.666 8 -18.999s12 -8 20 -8h740c10 0 18.333 -2.5 25 -7.5s10.334 -12.167 11.001 -21.5zM412.998 1793
c-4.66699 4.66699 -7.16699 9.83301 -7.5 15.5s0.666992 11.167 3 16.5s6 9.83301 11 13.5s10.5 5.5 16.5 5.5h75c14.667 -2 24.667 -7.66699 30 -17l124 -208c4.66699 -8.66699 6 -16.667 4 -24s-5.83301 -13 -11.5 -17s-12.167 -6 -19.5 -6s-14 3.33301 -20 10z" />
    <glyph glyph-name="Eacute" unicode="&#xc9;" horiz-adv-x="1162" 
d="M1059 34c0 -10 -3.33496 -18.165 -10.002 -24.498s-14.667 -9.5 -24 -9.5h-898c-10 0 -18.167 3.33301 -24.5 10s-9.5 14.667 -9.5 24l10 1391c0 9.33301 3 17.166 9 23.499s13.667 9.5 23 9.5h868c8.66699 0 15.667 -2.83301 21 -8.5s8 -12.5 8 -20.5l1 -85
c0 -8 -2.16699 -15 -6.5 -21s-11.166 -9 -20.499 -9h-733c-9.33301 -0.666992 -16.333 -3.83398 -21 -9.50098s-7 -12.5 -7 -20.5l3 -407c0 -8.66699 2.66699 -15.667 8 -21s12 -8 20 -8h666c8 0 14.833 -2.66699 20.5 -8s8.5 -12.333 8.5 -21l1 -85
c0 -8.66699 -2.83301 -15.834 -8.5 -21.501s-12.5 -8.5 -20.5 -8.5h-665c-9.33301 0 -16.5 -2.66699 -21.5 -8s-7.5 -12.333 -7.5 -21l4 -488c0 -7.33301 2.66699 -13.666 8 -18.999s12 -8 20 -8h740c10 0 18.333 -2.5 25 -7.5s10.334 -12.167 11.001 -21.5zM633.998 1583
c-6 -7.33301 -12.667 -11.001 -20 -11.001s-13.833 2 -19.5 6s-9.5 9.83301 -11.5 17.5s-0.666992 15.834 4 24.501l124 208c5.33301 9.33301 15.333 15 30 17h76c7.33301 0 13.333 -1.83301 18 -5.5s8 -8.16699 10 -13.5s2.5 -11 1.5 -17s-3.5 -11 -7.5 -15z" />
    <glyph glyph-name="Ecircumflex" unicode="&#xca;" horiz-adv-x="1162" 
d="M1059 34c0 -10 -3.33496 -18.165 -10.002 -24.498s-14.667 -9.5 -24 -9.5h-898c-10 0 -18.167 3.33301 -24.5 10s-9.5 14.667 -9.5 24l10 1391c0 9.33301 3 17.166 9 23.499s13.667 9.5 23 9.5h868c8.66699 0 15.667 -2.83301 21 -8.5s8 -12.5 8 -20.5l1 -85
c0 -8 -2.16699 -15 -6.5 -21s-11.166 -9 -20.499 -9h-733c-9.33301 -0.666992 -16.333 -3.83398 -21 -9.50098s-7 -12.5 -7 -20.5l3 -407c0 -8.66699 2.66699 -15.667 8 -21s12 -8 20 -8h666c8 0 14.833 -2.66699 20.5 -8s8.5 -12.333 8.5 -21l1 -85
c0 -8.66699 -2.83301 -15.834 -8.5 -21.501s-12.5 -8.5 -20.5 -8.5h-665c-9.33301 0 -16.5 -2.66699 -21.5 -8s-7.5 -12.333 -7.5 -21l4 -488c0 -7.33301 2.66699 -13.666 8 -18.999s12 -8 20 -8h740c10 0 18.333 -2.5 25 -7.5s10.334 -12.167 11.001 -21.5zM844.998 1623
c10.667 -10.667 13.5039 -21.833 8.50391 -33.5s-14.5 -17.5 -28.5 -17.5h-75c-12.667 0 -22.334 5.33301 -29.001 16l-120 196c-2.66699 5.33301 -6.5 7.83301 -11.5 7.5s-8.5 -2.83301 -10.5 -7.5l-120 -196c-6.66699 -10.667 -17 -16 -31 -16h-74
c-15.333 0 -24.833 6 -28.5 18s-0.833984 23 8.49902 33l199 208c7.33301 8.66699 16.666 13 27.999 13h58c9.33301 0 17.666 -4.33301 24.999 -13z" />
    <glyph glyph-name="Edieresis" unicode="&#xcb;" horiz-adv-x="1162" 
d="M1059 34c0 -10 -3.33496 -18.165 -10.002 -24.498s-14.667 -9.5 -24 -9.5h-898c-10 0 -18.167 3.33301 -24.5 10s-9.5 14.667 -9.5 24l10 1391c0 9.33301 3 17.166 9 23.499s13.667 9.5 23 9.5h868c8.66699 0 15.667 -2.83301 21 -8.5s8 -12.5 8 -20.5l1 -85
c0 -8 -2.16699 -15 -6.5 -21s-11.166 -9 -20.499 -9h-733c-9.33301 -0.666992 -16.333 -3.83398 -21 -9.50098s-7 -12.5 -7 -20.5l3 -407c0 -8.66699 2.66699 -15.667 8 -21s12 -8 20 -8h666c8 0 14.833 -2.66699 20.5 -8s8.5 -12.333 8.5 -21l1 -85
c0 -8.66699 -2.83301 -15.834 -8.5 -21.501s-12.5 -8.5 -20.5 -8.5h-665c-9.33301 0 -16.5 -2.66699 -21.5 -8s-7.5 -12.333 -7.5 -21l4 -488c0 -7.33301 2.66699 -13.666 8 -18.999s12 -8 20 -8h740c10 0 18.333 -2.5 25 -7.5s10.334 -12.167 11.001 -21.5zM434.998 1573
c-9.33301 0 -17.168 3 -23.501 9s-9.5 13.667 -9.5 23l2 136c0 9.33301 3 16.833 9 22.5s13.333 8.5 22 8.5h65c8.66699 0 16 -3 22 -9s9 -13.667 9 -23l3 -135c0 -9.33301 -3.16699 -17 -9.5 -23s-14.166 -9 -23.499 -9h-66zM717.996 1573c-9.33301 0 -17.168 3 -23.501 9
s-9.5 13.667 -9.5 23l2 136c0 9.33301 3 16.833 9 22.5s13.333 8.5 22 8.5h65c8.66699 0 16 -3 22 -9s9 -13.667 9 -23l3 -135c0 -9.33301 -3.16699 -17 -9.5 -23s-14.166 -9 -23.499 -9h-66z" />
    <glyph glyph-name="Igrave" unicode="&#xcc;" horiz-adv-x="502" 
d="M179 34l10.001 1391c0 9.33301 3.16699 17.166 9.5 23.499s14.166 9.5 23.499 9.5h76c9.33301 0 17 -3.16699 23 -9.5s9 -14.166 9 -23.499l10 -1391c0 -9.33301 -3.16699 -17.333 -9.5 -24s-14.5 -10 -24.5 -10h-93c-10 -0 -18.167 3.33301 -24.5 10
s-9.5 14.667 -9.5 24zM69.001 1793c-4.66699 4.66699 -7.16699 9.83301 -7.5 15.5s0.666992 11.167 3 16.5s6 9.83301 11 13.5s10.5 5.5 16.5 5.5h75c14.667 -2 24.667 -7.66699 30 -17l124 -208c4.66699 -8.66699 6 -16.667 4 -24s-5.83301 -13 -11.5 -17
s-12.167 -6 -19.5 -6s-14 3.33301 -20 10z" />
    <glyph glyph-name="Iacute" unicode="&#xcd;" horiz-adv-x="498" 
d="M157 34l10.001 1391c0 9.33301 3.16699 17.166 9.5 23.499s14.166 9.5 23.499 9.5h76c9.33301 0 17 -3.16699 23 -9.5s9 -14.166 9 -23.499l10 -1391c0 -9.33301 -3.16699 -17.333 -9.5 -24s-14.5 -10 -24.5 -10h-93c-10 -0 -18.167 3.33301 -24.5 10
s-9.5 14.667 -9.5 24zM224.001 1583c-6 -7.33301 -12.667 -11.001 -20 -11.001s-13.833 2 -19.5 6s-9.5 9.83301 -11.5 17.5s-0.666992 15.834 4 24.501l124 208c5.33301 9.33301 15.333 15 30 17h76c7.33301 0 13.333 -1.83301 18 -5.5s8 -8.16699 10 -13.5
s2.5 -11 1.5 -17s-3.5 -11 -7.5 -15z" />
    <glyph glyph-name="Icircumflex" unicode="&#xce;" horiz-adv-x="662" 
d="M582 1623c10.667 -10.667 13.5039 -21.833 8.50391 -33.5s-14.5 -17.5 -28.5 -17.5h-75c-12.667 0 -22.334 5.33301 -29.001 16l-120 196c-2.66699 5.33301 -6.5 7.83301 -11.5 7.5s-8.5 -2.83301 -10.5 -7.5l-120 -196c-6.66699 -10.667 -17 -16 -31 -16h-74
c-15.333 0 -24.833 6 -28.5 18s-0.833984 23 8.49902 33l199 208c7.33301 8.66699 16.666 13 27.999 13h58c9.33301 0 17.666 -4.33301 24.999 -13zM243.004 34.001l10.001 1391c0 9.33301 3.16699 17.166 9.5 23.499s14.166 9.5 23.499 9.5h76
c9.33301 0 17 -3.16699 23 -9.5s9 -14.166 9 -23.499l10 -1391c0 -9.33301 -3.16699 -17.333 -9.5 -24s-14.5 -10 -24.5 -10h-93c-10 0 -18.167 3.33301 -24.5 10s-9.5 14.667 -9.5 24z" />
    <glyph glyph-name="Idieresis" unicode="&#xcf;" horiz-adv-x="545" 
d="M185 34l10.001 1391c0 9.33301 3.16699 17.166 9.5 23.499s14.166 9.5 23.499 9.5h76c9.33301 0 17 -3.16699 23 -9.5s9 -14.166 9 -23.499l10 -1391c0 -9.33301 -3.16699 -17.333 -9.5 -24s-14.5 -10 -24.5 -10h-93c-10 -0 -18.167 3.33301 -24.5 10
s-9.5 14.667 -9.5 24zM94.001 1573c-9.33301 0 -17.168 3 -23.501 9s-9.5 13.667 -9.5 23l2 136c0 9.33301 3 16.833 9 22.5s13.333 8.5 22 8.5h65c8.66699 0 16 -3 22 -9s9 -13.667 9 -23l3 -135c0 -9.33301 -3.16699 -17 -9.5 -23s-14.166 -9 -23.499 -9h-66z
M375.999 1573c-9.33301 0 -17.168 3 -23.501 9s-9.5 13.667 -9.5 23l2 136c0 9.33301 3 16.833 9 22.5s13.333 8.5 22 8.5h65c8.66699 0 16 -3 22 -9s9 -13.667 9 -23l3 -135c0 -9.33301 -3.16699 -17 -9.5 -23s-14.166 -9 -23.499 -9h-66z" />
    <glyph glyph-name="Ntilde" unicode="&#xd1;" horiz-adv-x="1368" 
d="M1244 34c0 -9.33301 -3.16602 -17.332 -9.49902 -23.999s-14.5 -10 -24.5 -10h-141c-8.66699 0 -15.167 1.83301 -19.5 5.5s-8.5 8.83398 -12.5 15.501l-757 1173c-4.66699 7.33301 -11.5 10.5 -20.5 9.5s-13.5 -6.83301 -13.5 -17.5l8 -1152
c0 -9.33301 -3.16699 -17.333 -9.5 -24s-14.5 -10 -24.5 -10h-93c-10 0 -18.167 3.33301 -24.5 10s-9.5 14.667 -9.5 24l10 1391c0 9.33301 3.16699 17.166 9.5 23.499s14.166 9.5 23.499 9.5h119c10.667 0 19.334 -4.33301 26.001 -13l769 -1161
c4.66699 -8.66699 11.5 -11.834 20.5 -9.50098s13.5 8.5 13.5 18.5l9 1132c0 9.33301 3.16699 17.166 9.5 23.499s14.166 9.5 23.499 9.5h76c9.33301 0 17 -3.16699 23 -9.5s9 -14.166 9 -23.499zM962.001 1711c-0.666992 -22 -5 -42.668 -13 -62.001
s-18.833 -36.166 -32.5 -50.499s-29.834 -25.5 -48.501 -33.5s-38.334 -12 -59.001 -12c-26 0 -48.333 4.83301 -67 14.5s-36 20.5 -52 32.5s-32.5 22.833 -49.5 32.5s-37.167 14.5 -60.5 14.5c-27.333 0 -51.666 -7.16699 -72.999 -21.5s-40 -32.166 -56 -53.499
c-5.33301 -5.33301 -12.166 -7.16602 -20.499 -5.49902s-12.5 6.5 -12.5 14.5c0 22 3.83301 43 11.5 63s18.5 37.833 32.5 53.5s30.833 28 50.5 37s41.5 13.5 65.5 13.5c26 0 47.167 -4.83301 63.5 -14.5s32 -20.167 47 -31.5s31.5 -21.833 49.5 -31.5
s41.667 -14.5 71 -14.5c27.333 0 50.833 6.83301 70.5 20.5s36.834 28.167 51.501 43.5c2 3.33301 4.83301 5.66602 8.5 6.99902s7.16699 1.5 10.5 0.5s6.16602 -2.83301 8.49902 -5.5s3.5 -6.33398 3.5 -11.001z" />
    <glyph glyph-name="Ograve" unicode="&#xd2;" horiz-adv-x="1538" 
d="M785 1479c100.667 0 193.665 -18.833 278.998 -56.5s158.833 -89.334 220.5 -155.001s109.834 -143.167 144.501 -232.5s52 -185.333 52 -288c0 -72 -7.5 -140.833 -22.5 -206.5s-36.833 -127 -65.5 -184s-63.5 -108.667 -104.5 -155s-87.5 -86 -139.5 -119
s-109 -58.5 -171 -76.5s-128 -27 -198 -27c-103.333 0 -197.666 19.833 -282.999 59.5s-158.5 94 -219.5 163s-108.5 150 -142.5 243s-51 193.167 -51 300.5c0 104 17.333 200.833 52 290.5s83 167.334 145 233.001s136 117.167 222 154.5s180 56 282 56zM782.998 131
c80 0 153.168 16.502 219.501 49.502s123.5 77.667 171.5 134s85.333 121.666 112 195.999s40 152.5 40 234.5c0 80 -13.5 155.333 -40.5 226s-64.5 132.5 -112.5 185.5s-105.333 95 -172 126s-139.334 46.5 -218.001 46.5s-151.334 -15.333 -218.001 -46
s-124.167 -72.334 -172.5 -125.001s-86 -114.5 -113 -185.5s-40.5 -146.833 -40.5 -227.5c0 -82.667 13.167 -161.167 39.5 -235.5s63.5 -139.5 111.5 -195.5s105.333 -100.5 172 -133.5s140.334 -49.5 221.001 -49.5zM668.999 1793
c-4.66699 4.66699 -7.16699 9.83301 -7.5 15.5s0.666992 11.167 3 16.5s6 9.83301 11 13.5s10.5 5.5 16.5 5.5h75c14.667 -2 24.667 -7.66699 30 -17l124 -208c4.66699 -8.66699 6 -16.667 4 -24s-5.83301 -13 -11.5 -17s-12.167 -6 -19.5 -6s-14 3.33301 -20 10z" />
    <glyph glyph-name="Oacute" unicode="&#xd3;" horiz-adv-x="1538" 
d="M785 1479c100.667 0 193.665 -18.833 278.998 -56.5s158.833 -89.334 220.5 -155.001s109.834 -143.167 144.501 -232.5s52 -185.333 52 -288c0 -72 -7.5 -140.833 -22.5 -206.5s-36.833 -127 -65.5 -184s-63.5 -108.667 -104.5 -155s-87.5 -86 -139.5 -119
s-109 -58.5 -171 -76.5s-128 -27 -198 -27c-103.333 0 -197.666 19.833 -282.999 59.5s-158.5 94 -219.5 163s-108.5 150 -142.5 243s-51 193.167 -51 300.5c0 104 17.333 200.833 52 290.5s83 167.334 145 233.001s136 117.167 222 154.5s180 56 282 56zM782.998 131
c80 0 153.168 16.502 219.501 49.502s123.5 77.667 171.5 134s85.333 121.666 112 195.999s40 152.5 40 234.5c0 80 -13.5 155.333 -40.5 226s-64.5 132.5 -112.5 185.5s-105.333 95 -172 126s-139.334 46.5 -218.001 46.5s-151.334 -15.333 -218.001 -46
s-124.167 -72.334 -172.5 -125.001s-86 -114.5 -113 -185.5s-40.5 -146.833 -40.5 -227.5c0 -82.667 13.167 -161.167 39.5 -235.5s63.5 -139.5 111.5 -195.5s105.333 -100.5 172 -133.5s140.334 -49.5 221.001 -49.5zM725.999 1583
c-6 -7.33301 -12.667 -11.001 -20 -11.001s-13.833 2 -19.5 6s-9.5 9.83301 -11.5 17.5s-0.666992 15.834 4 24.501l124 208c5.33301 9.33301 15.333 15 30 17h76c7.33301 0 13.333 -1.83301 18 -5.5s8 -8.16699 10 -13.5s2.5 -11 1.5 -17s-3.5 -11 -7.5 -15z" />
    <glyph glyph-name="Ocircumflex" unicode="&#xd4;" horiz-adv-x="1538" 
d="M785 1479c100.667 0 193.665 -18.833 278.998 -56.5s158.833 -89.334 220.5 -155.001s109.834 -143.167 144.501 -232.5s52 -185.333 52 -288c0 -72 -7.5 -140.833 -22.5 -206.5s-36.833 -127 -65.5 -184s-63.5 -108.667 -104.5 -155s-87.5 -86 -139.5 -119
s-109 -58.5 -171 -76.5s-128 -27 -198 -27c-103.333 0 -197.666 19.833 -282.999 59.5s-158.5 94 -219.5 163s-108.5 150 -142.5 243s-51 193.167 -51 300.5c0 104 17.333 200.833 52 290.5s83 167.334 145 233.001s136 117.167 222 154.5s180 56 282 56zM782.998 131
c80 0 153.168 16.502 219.501 49.502s123.5 77.667 171.5 134s85.333 121.666 112 195.999s40 152.5 40 234.5c0 80 -13.5 155.333 -40.5 226s-64.5 132.5 -112.5 185.5s-105.333 95 -172 126s-139.334 46.5 -218.001 46.5s-151.334 -15.333 -218.001 -46
s-124.167 -72.334 -172.5 -125.001s-86 -114.5 -113 -185.5s-40.5 -146.833 -40.5 -227.5c0 -82.667 13.167 -161.167 39.5 -235.5s63.5 -139.5 111.5 -195.5s105.333 -100.5 172 -133.5s140.334 -49.5 221.001 -49.5zM1010 1623
c10.667 -10.667 13.5039 -21.833 8.50391 -33.5s-14.5 -17.5 -28.5 -17.5h-75c-12.667 0 -22.334 5.33301 -29.001 16l-120 196c-2.66699 5.33301 -6.5 7.83301 -11.5 7.5s-8.5 -2.83301 -10.5 -7.5l-120 -196c-6.66699 -10.667 -17 -16 -31 -16h-74
c-15.333 0 -24.833 6 -28.5 18s-0.833984 23 8.49902 33l199 208c7.33301 8.66699 16.666 13 27.999 13h58c9.33301 0 17.666 -4.33301 24.999 -13z" />
    <glyph glyph-name="Otilde" unicode="&#xd5;" horiz-adv-x="1538" 
d="M785 1479c100.667 0 193.665 -18.833 278.998 -56.5s158.833 -89.334 220.5 -155.001s109.834 -143.167 144.501 -232.5s52 -185.333 52 -288c0 -72 -7.5 -140.833 -22.5 -206.5s-36.833 -127 -65.5 -184s-63.5 -108.667 -104.5 -155s-87.5 -86 -139.5 -119
s-109 -58.5 -171 -76.5s-128 -27 -198 -27c-103.333 0 -197.666 19.833 -282.999 59.5s-158.5 94 -219.5 163s-108.5 150 -142.5 243s-51 193.167 -51 300.5c0 104 17.333 200.833 52 290.5s83 167.334 145 233.001s136 117.167 222 154.5s180 56 282 56zM782.998 131
c80 0 153.168 16.502 219.501 49.502s123.5 77.667 171.5 134s85.333 121.666 112 195.999s40 152.5 40 234.5c0 80 -13.5 155.333 -40.5 226s-64.5 132.5 -112.5 185.5s-105.333 95 -172 126s-139.334 46.5 -218.001 46.5s-151.334 -15.333 -218.001 -46
s-124.167 -72.334 -172.5 -125.001s-86 -114.5 -113 -185.5s-40.5 -146.833 -40.5 -227.5c0 -82.667 13.167 -161.167 39.5 -235.5s63.5 -139.5 111.5 -195.5s105.333 -100.5 172 -133.5s140.334 -49.5 221.001 -49.5zM1017 1712c-0.666992 -22 -5 -42.668 -13 -62.001
s-18.833 -36.166 -32.5 -50.499s-29.834 -25.5 -48.501 -33.5s-38.334 -12 -59.001 -12c-26 0 -48.333 4.83301 -67 14.5s-36 20.5 -52 32.5s-32.5 22.833 -49.5 32.5s-37.167 14.5 -60.5 14.5c-27.333 0 -51.666 -7.16699 -72.999 -21.5s-40 -32.166 -56 -53.499
c-5.33301 -5.33301 -12.166 -7.16602 -20.499 -5.49902s-12.5 6.5 -12.5 14.5c0 22 3.83301 43 11.5 63s18.5 37.833 32.5 53.5s30.833 28 50.5 37s41.5 13.5 65.5 13.5c26 0 47.167 -4.83301 63.5 -14.5s32 -20.167 47 -31.5s31.5 -21.833 49.5 -31.5
s41.667 -14.5 71 -14.5c27.333 0 50.833 6.83301 70.5 20.5s36.834 28.167 51.501 43.5c2 3.33301 4.83301 5.66602 8.5 6.99902s7.16699 1.5 10.5 0.5s6.16602 -2.83301 8.49902 -5.5s3.5 -6.33398 3.5 -11.001z" />
    <glyph glyph-name="Odieresis" unicode="&#xd6;" horiz-adv-x="1538" 
d="M785 1479c100.667 0 193.665 -18.833 278.998 -56.5s158.833 -89.334 220.5 -155.001s109.834 -143.167 144.501 -232.5s52 -185.333 52 -288c0 -72 -7.5 -140.833 -22.5 -206.5s-36.833 -127 -65.5 -184s-63.5 -108.667 -104.5 -155s-87.5 -86 -139.5 -119
s-109 -58.5 -171 -76.5s-128 -27 -198 -27c-103.333 0 -197.666 19.833 -282.999 59.5s-158.5 94 -219.5 163s-108.5 150 -142.5 243s-51 193.167 -51 300.5c0 104 17.333 200.833 52 290.5s83 167.334 145 233.001s136 117.167 222 154.5s180 56 282 56zM782.998 131
c80 0 153.168 16.502 219.501 49.502s123.5 77.667 171.5 134s85.333 121.666 112 195.999s40 152.5 40 234.5c0 80 -13.5 155.333 -40.5 226s-64.5 132.5 -112.5 185.5s-105.333 95 -172 126s-139.334 46.5 -218.001 46.5s-151.334 -15.333 -218.001 -46
s-124.167 -72.334 -172.5 -125.001s-86 -114.5 -113 -185.5s-40.5 -146.833 -40.5 -227.5c0 -82.667 13.167 -161.167 39.5 -235.5s63.5 -139.5 111.5 -195.5s105.333 -100.5 172 -133.5s140.334 -49.5 221.001 -49.5zM616.999 1573c-9.33301 0 -17.168 3 -23.501 9
s-9.5 13.667 -9.5 23l2 136c0 9.33301 3 16.833 9 22.5s13.333 8.5 22 8.5h65c8.66699 0 16 -3 22 -9s9 -13.667 9 -23l3 -135c0 -9.33301 -3.16699 -17 -9.5 -23s-14.166 -9 -23.499 -9h-66zM899.997 1573c-9.33301 0 -17.168 3 -23.501 9s-9.5 13.667 -9.5 23l2 136
c0 9.33301 3 16.833 9 22.5s13.333 8.5 22 8.5h65c8.66699 0 16 -3 22 -9s9 -13.667 9 -23l3 -135c0 -9.33301 -3.16699 -17 -9.5 -23s-14.166 -9 -23.499 -9h-66z" />
    <glyph glyph-name="Oslash" unicode="&#xd8;" horiz-adv-x="1566" 
d="M786 1479c77.333 0 149.835 -11.168 217.502 -33.501s129.5 -53.833 185.5 -94.5l87 104c5.33301 6.66699 12 10 20 10s15.667 -3 23 -9l53 -44c7.33301 -5.33301 11.5 -12 12.5 -20s-1.16699 -15.333 -6.5 -22l-89 -106c60.667 -66 108 -143 142 -231
s51 -183.333 51 -286c0 -107.333 -16.833 -207.5 -50.5 -300.5s-81.167 -173.833 -142.5 -242.5s-135 -122.5 -221 -161.5s-181.667 -58.5 -287 -58.5c-86 0 -165.5 13.667 -238.5 41s-138.833 65.333 -197.5 114l-109 -130c-5.33301 -6 -11.833 -9 -19.5 -9
s-14.834 3 -21.501 9l-54 45c-6 5.33301 -9.83301 11.833 -11.5 19.5s0.166016 14.5 5.49902 20.5l117 140c-54 67.333 -95.5 144.333 -124.5 231s-43.5 180 -43.5 280c0 104 17.333 200.833 52 290.5s83.167 167.334 145.5 233.001s136.5 117.167 222.5 154.5
s180 56 282 56zM784.002 131.999c52.667 1.33301 102.668 9.83301 150.001 25.5s91 37.167 131 64.5s76 59.5 108 96.5s59 78 81 123s39 93.167 51 144.5s18 104.333 18 159c0 76 -11.833 148 -35.5 216s-56.834 128.667 -99.501 182l-740 -882
c44.667 -39.333 95.167 -70.333 151.5 -93s117.833 -34.667 184.5 -36zM784.003 1340c-78.667 0 -150.999 -15.833 -216.999 -47.5s-123 -74.667 -171 -129s-85.333 -117.5 -112 -189.5s-40 -148.333 -40 -229c0 -72.667 9.83301 -141.5 29.5 -206.5
s48.167 -124.167 85.5 -177.5l733 875c-42.667 33.333 -89.834 59 -141.501 77s-107.167 27 -166.5 27z" />
    <glyph glyph-name="Ugrave" unicode="&#xd9;" horiz-adv-x="1352" 
d="M242 574c0.666992 -63.333 12.332 -122.167 34.999 -176.5s53.167 -101.166 91.5 -140.499s82.5 -70.166 132.5 -92.499s103 -33.5 159 -33.5c55.333 0 108 11.333 158 34s94 54 132 94s68.333 87 91 141s34.334 112.333 35.001 175l6 850
c0 9.33301 3.16699 17.166 9.5 23.499s14.166 9.5 23.499 9.5h76c9.33301 0 17 -3.16699 23 -9.5s9 -14.166 9 -23.499l6 -853c0.666992 -82.667 -13.166 -160 -41.499 -232s-68 -134.833 -119 -188.5s-111.333 -95.834 -181 -126.501s-145.5 -46 -227.5 -46
c-54 0 -105.667 6.83301 -155 20.5s-95.333 33 -138 58s-81.167 55.167 -115.5 90.5s-63.666 74.666 -87.999 117.999s-43 90 -56 140s-19.167 102.333 -18.5 157l6 862c0 9.33301 3.16699 17.166 9.5 23.499s14.166 9.5 23.499 9.5h76c9.33301 0 17 -3.16699 23 -9.5
s9 -14.166 9 -23.499zM549.998 1793c-4.66699 4.66699 -7.16699 9.83301 -7.5 15.5s0.666992 11.167 3 16.5s6 9.83301 11 13.5s10.5 5.5 16.5 5.5h75c14.667 -2 24.667 -7.66699 30 -17l124 -208c4.66699 -8.66699 6 -16.667 4 -24s-5.83301 -13 -11.5 -17
s-12.167 -6 -19.5 -6s-14 3.33301 -20 10z" />
    <glyph glyph-name="Uacute" unicode="&#xda;" horiz-adv-x="1352" 
d="M242 574c0.666992 -63.333 12.332 -122.167 34.999 -176.5s53.167 -101.166 91.5 -140.499s82.5 -70.166 132.5 -92.499s103 -33.5 159 -33.5c55.333 0 108 11.333 158 34s94 54 132 94s68.333 87 91 141s34.334 112.333 35.001 175l6 850
c0 9.33301 3.16699 17.166 9.5 23.499s14.166 9.5 23.499 9.5h76c9.33301 0 17 -3.16699 23 -9.5s9 -14.166 9 -23.499l6 -853c0.666992 -82.667 -13.166 -160 -41.499 -232s-68 -134.833 -119 -188.5s-111.333 -95.834 -181 -126.501s-145.5 -46 -227.5 -46
c-54 0 -105.667 6.83301 -155 20.5s-95.333 33 -138 58s-81.167 55.167 -115.5 90.5s-63.666 74.666 -87.999 117.999s-43 90 -56 140s-19.167 102.333 -18.5 157l6 862c0 9.33301 3.16699 17.166 9.5 23.499s14.166 9.5 23.499 9.5h76c9.33301 0 17 -3.16699 23 -9.5
s9 -14.166 9 -23.499zM637.998 1583c-6 -7.33301 -12.667 -11.001 -20 -11.001s-13.833 2 -19.5 6s-9.5 9.83301 -11.5 17.5s-0.666992 15.834 4 24.501l124 208c5.33301 9.33301 15.333 15 30 17h76c7.33301 0 13.333 -1.83301 18 -5.5s8 -8.16699 10 -13.5
s2.5 -11 1.5 -17s-3.5 -11 -7.5 -15z" />
    <glyph glyph-name="Ucircumflex" unicode="&#xdb;" horiz-adv-x="1352" 
d="M242 574c0.666992 -63.333 12.332 -122.167 34.999 -176.5s53.167 -101.166 91.5 -140.499s82.5 -70.166 132.5 -92.499s103 -33.5 159 -33.5c55.333 0 108 11.333 158 34s94 54 132 94s68.333 87 91 141s34.334 112.333 35.001 175l6 850
c0 9.33301 3.16699 17.166 9.5 23.499s14.166 9.5 23.499 9.5h76c9.33301 0 17 -3.16699 23 -9.5s9 -14.166 9 -23.499l6 -853c0.666992 -82.667 -13.166 -160 -41.499 -232s-68 -134.833 -119 -188.5s-111.333 -95.834 -181 -126.501s-145.5 -46 -227.5 -46
c-54 0 -105.667 6.83301 -155 20.5s-95.333 33 -138 58s-81.167 55.167 -115.5 90.5s-63.666 74.666 -87.999 117.999s-43 90 -56 140s-19.167 102.333 -18.5 157l6 862c0 9.33301 3.16699 17.166 9.5 23.499s14.166 9.5 23.499 9.5h76c9.33301 0 17 -3.16699 23 -9.5
s9 -14.166 9 -23.499zM922.998 1623c10.667 -10.667 13.5039 -21.833 8.50391 -33.5s-14.5 -17.5 -28.5 -17.5h-75c-12.667 0 -22.334 5.33301 -29.001 16l-120 196c-2.66699 5.33301 -6.5 7.83301 -11.5 7.5s-8.5 -2.83301 -10.5 -7.5l-120 -196
c-6.66699 -10.667 -17 -16 -31 -16h-74c-15.333 0 -24.833 6 -28.5 18s-0.833984 23 8.49902 33l199 208c7.33301 8.66699 16.666 13 27.999 13h58c9.33301 0 17.666 -4.33301 24.999 -13z" />
    <glyph glyph-name="Udieresis" unicode="&#xdc;" horiz-adv-x="1352" 
d="M242 574c0.666992 -63.333 12.332 -122.167 34.999 -176.5s53.167 -101.166 91.5 -140.499s82.5 -70.166 132.5 -92.499s103 -33.5 159 -33.5c55.333 0 108 11.333 158 34s94 54 132 94s68.333 87 91 141s34.334 112.333 35.001 175l6 850
c0 9.33301 3.16699 17.166 9.5 23.499s14.166 9.5 23.499 9.5h76c9.33301 0 17 -3.16699 23 -9.5s9 -14.166 9 -23.499l6 -853c0.666992 -82.667 -13.166 -160 -41.499 -232s-68 -134.833 -119 -188.5s-111.333 -95.834 -181 -126.501s-145.5 -46 -227.5 -46
c-54 0 -105.667 6.83301 -155 20.5s-95.333 33 -138 58s-81.167 55.167 -115.5 90.5s-63.666 74.666 -87.999 117.999s-43 90 -56 140s-19.167 102.333 -18.5 157l6 862c0 9.33301 3.16699 17.166 9.5 23.499s14.166 9.5 23.499 9.5h76c9.33301 0 17 -3.16699 23 -9.5
s9 -14.166 9 -23.499zM526.998 1573c-9.33301 0 -17.168 3 -23.501 9s-9.5 13.667 -9.5 23l2 136c0 9.33301 3 16.833 9 22.5s13.333 8.5 22 8.5h65c8.66699 0 16 -3 22 -9s9 -13.667 9 -23l3 -135c0 -9.33301 -3.16699 -17 -9.5 -23s-14.166 -9 -23.499 -9h-66z
M809.996 1573c-9.33301 0 -17.168 3 -23.501 9s-9.5 13.667 -9.5 23l2 136c0 9.33301 3 16.833 9 22.5s13.333 8.5 22 8.5h65c8.66699 0 16 -3 22 -9s9 -13.667 9 -23l3 -135c0 -9.33301 -3.16699 -17 -9.5 -23s-14.166 -9 -23.499 -9h-66z" />
    <glyph glyph-name="Yacute" unicode="&#xdd;" horiz-adv-x="1170" 
d="M1113 1458c14 0 22.5049 -4.99805 25.5049 -14.998s0.833008 -20.667 -6.5 -32l-439 -677c-4 -6 -6 -12.333 -6 -19l5 -681c0 -9.33301 -3.16699 -17.333 -9.5 -24s-14.5 -10 -24.5 -10h-93c-10 0 -18.167 3.33301 -24.5 10s-9.5 14.667 -9.5 24l5 681
c0 7.33301 -1.66699 13.666 -5 18.999l-439 677c-6.66699 10 -8.33398 20.333 -5.00098 31s11.666 16 24.999 16h90c11.333 0 20.666 -5.33301 27.999 -16l357 -542c5.33301 -8.66699 13.166 -12.834 23.499 -12.501s18.166 4.83301 23.499 13.5l358 539
c7.33301 12 17.333 18 30 18h91zM619.005 1580c-6 -7.33301 -12.667 -11.001 -20 -11.001s-13.833 2 -19.5 6s-9.5 9.83301 -11.5 17.5s-0.666992 15.834 4 24.501l124 208c5.33301 9.33301 15.333 15 30 17h76c7.33301 0 13.333 -1.83301 18 -5.5s8 -8.16699 10 -13.5
s2.5 -11 1.5 -17s-3.5 -11 -7.5 -15z" />
    <glyph glyph-name="germandbls" unicode="&#xdf;" horiz-adv-x="1054" 
d="M105 1054c0 24 2.00488 50.6729 6.00488 80.0059s11.167 59 21.5 89s24.333 59.167 42 87.5s40.667 53.333 69 75s62.333 39.167 102 52.5s86.5 20 140.5 20c61.333 0 118.166 -8 170.499 -24s97.666 -39 135.999 -69s68.333 -66.167 90 -108.5s32.5 -89.5 32.5 -141.5
c0 -38.667 -6.66699 -73.834 -20 -105.501s-31.333 -60.167 -54 -85.5s-49 -47.333 -79 -66s-61.667 -34 -95 -46c-11.333 -4 -16 -9.83301 -14 -17.5s7.66699 -13.167 17 -16.5c42.667 -16 81.667 -37.333 117 -64s65.666 -56.834 90.999 -90.501s45 -70 59 -109
s21 -78.5 21 -118.5c0 -74.667 -12.333 -138 -37 -190s-58.5 -94.5 -101.5 -127.5s-93.833 -57 -152.5 -72s-122.334 -22.5 -191.001 -22.5c-8.66699 0 -14.667 2.5 -18 7.5s-5 11.5 -5 19.5v95c0 16 7 24 21 24c42.667 0 83.834 4.83301 123.501 14.5
s74.667 25.334 105 47.001s54.666 50.167 72.999 85.5s27.5 78.666 27.5 129.999c0 40 -9.5 78.667 -28.5 116s-43.833 70.166 -74.5 98.499s-65.667 51 -105 68s-79 25.5 -119 25.5c-8.66699 0 -14.667 2.16699 -18 6.5s-5 9.83301 -5 16.5v111
c0 7.33301 1.66699 13.5 5 18.5s9.33301 7.5 18 7.5c38 0 74.333 4.83301 109 14.5s65 24.167 91 43.5s46.667 43.666 62 72.999s23 63.666 23 102.999c0 33.333 -6.33301 63.666 -19 90.999s-31 50.5 -55 69.5s-53.333 33.667 -88 44s-74 15.5 -118 15.5
c-47.333 0 -86.333 -8.66699 -117 -26s-54.667 -38.833 -72 -64.5s-29.333 -53.167 -36 -82.5s-10 -56 -10 -80l7 -1042c0 -9.33301 -3 -17.333 -9 -24s-13.667 -10 -23 -10h-90c-8.66699 0 -16.334 3.16699 -23.001 9.5s-10 14.5 -10 24.5z" />
    <glyph glyph-name="agrave" unicode="&#xe0;" 
d="M794 778c0 30 -7 55.3271 -21 75.9941s-32.333 37.334 -55 50.001s-48.5 21.834 -77.5 27.501s-58.5 8.5 -88.5 8.5c-29.333 0 -57.5 -2.66699 -84.5 -8s-52.5 -14.166 -76.5 -26.499s-45.833 -28.833 -65.5 -49.5s-36.5 -46.334 -50.5 -77.001
c-5.33301 -12.667 -9.83301 -22.167 -13.5 -28.5s-11.167 -10.166 -22.5 -11.499h-79c-12.667 0 -21.334 3.66699 -26.001 11s-5.66699 16.333 -3 27c10.667 54 30.834 100 60.501 138s64.5 68.833 104.5 92.5s83.333 40.834 130 51.501s92.667 16 138 16
c46.667 0 92.167 -5.66699 136.5 -17s83.833 -29.5 118.5 -54.5s62.5 -57.333 83.5 -97s31.833 -87.834 32.5 -144.501l5 -729c0 -9.33301 -3 -17.166 -9 -23.499s-13.667 -9.5 -23 -9.5h-90c-8.66699 0 -16.334 3.16699 -23.001 9.5s-10 14.5 -10 24.5l1 82
c0 9.33301 -4 15 -12 17s-15.333 -0.666992 -22 -8c-26 -27.333 -53.833 -50.166 -83.5 -68.499s-59.834 -33.333 -90.501 -45s-61 -20 -91 -25s-58 -7.5 -84 -7.5c-51.333 0 -97 8.5 -137 25.5s-73.667 39.5 -101 67.5s-48.333 60 -63 96s-22 73 -22 111
c0 32.667 5 64.334 15 95.001s24 58.667 42 84s39.833 47 65.5 65s53.834 31 84.501 39c36 8.66699 75.167 17.167 117.5 25.5l125 25.5c41 8.66699 79.333 18.167 115 28.5s64.834 21.833 87.501 34.5c20.667 11.333 36.167 24.833 46.5 40.5s15.5 36.167 15.5 61.5z
M232 291.994c0 -40 10.168 -71.998 30.501 -95.998s46.333 -41.167 78 -51.5s67 -14.833 106 -13.5s77.167 7.5 114.5 18.5s71.666 26 102.999 45s55.333 40.5 72 64.5c12 17.333 21.667 38.166 29 62.499s13 49.666 17 75.999s6.83301 52.5 8.5 78.5s2.5 49 2.5 69
c0 9.33301 -4.66699 13.666 -14 12.999c-32.667 -12 -64.5 -22.5 -95.5 -31.5s-62.667 -17.5 -95 -25.5s-66.333 -15.667 -102 -23l-115.5 -24c-42.667 -9.33301 -76.5 -27.666 -101.5 -54.999s-37.5 -63 -37.5 -107zM434.001 1407
c-4.66699 4.66699 -7.16699 9.83301 -7.5 15.5s0.666992 11.167 3 16.5s6 9.83301 11 13.5s10.5 5.5 16.5 5.5h75c14.667 -2 24.667 -7.66699 30 -17l124 -208c4.66699 -8.66699 6 -16.667 4 -24s-5.83301 -13 -11.5 -17s-12.167 -6 -19.5 -6s-14 3.33301 -20 10z" />
    <glyph glyph-name="aacute" unicode="&#xe1;" 
d="M794 778c0 30 -7 55.3271 -21 75.9941s-32.333 37.334 -55 50.001s-48.5 21.834 -77.5 27.501s-58.5 8.5 -88.5 8.5c-29.333 0 -57.5 -2.66699 -84.5 -8s-52.5 -14.166 -76.5 -26.499s-45.833 -28.833 -65.5 -49.5s-36.5 -46.334 -50.5 -77.001
c-5.33301 -12.667 -9.83301 -22.167 -13.5 -28.5s-11.167 -10.166 -22.5 -11.499h-79c-12.667 0 -21.334 3.66699 -26.001 11s-5.66699 16.333 -3 27c10.667 54 30.834 100 60.501 138s64.5 68.833 104.5 92.5s83.333 40.834 130 51.501s92.667 16 138 16
c46.667 0 92.167 -5.66699 136.5 -17s83.833 -29.5 118.5 -54.5s62.5 -57.333 83.5 -97s31.833 -87.834 32.5 -144.501l5 -729c0 -9.33301 -3 -17.166 -9 -23.499s-13.667 -9.5 -23 -9.5h-90c-8.66699 0 -16.334 3.16699 -23.001 9.5s-10 14.5 -10 24.5l1 82
c0 9.33301 -4 15 -12 17s-15.333 -0.666992 -22 -8c-26 -27.333 -53.833 -50.166 -83.5 -68.499s-59.834 -33.333 -90.501 -45s-61 -20 -91 -25s-58 -7.5 -84 -7.5c-51.333 0 -97 8.5 -137 25.5s-73.667 39.5 -101 67.5s-48.333 60 -63 96s-22 73 -22 111
c0 32.667 5 64.334 15 95.001s24 58.667 42 84s39.833 47 65.5 65s53.834 31 84.501 39c36 8.66699 75.167 17.167 117.5 25.5l125 25.5c41 8.66699 79.333 18.167 115 28.5s64.834 21.833 87.501 34.5c20.667 11.333 36.167 24.833 46.5 40.5s15.5 36.167 15.5 61.5z
M232 291.994c0 -40 10.168 -71.998 30.501 -95.998s46.333 -41.167 78 -51.5s67 -14.833 106 -13.5s77.167 7.5 114.5 18.5s71.666 26 102.999 45s55.333 40.5 72 64.5c12 17.333 21.667 38.166 29 62.499s13 49.666 17 75.999s6.83301 52.5 8.5 78.5s2.5 49 2.5 69
c0 9.33301 -4.66699 13.666 -14 12.999c-32.667 -12 -64.5 -22.5 -95.5 -31.5s-62.667 -17.5 -95 -25.5s-66.333 -15.667 -102 -23l-115.5 -24c-42.667 -9.33301 -76.5 -27.666 -101.5 -54.999s-37.5 -63 -37.5 -107zM546.001 1196c-6 -7.33301 -12.667 -11.001 -20 -11.001
s-13.833 2 -19.5 6s-9.5 9.83301 -11.5 17.5s-0.666992 15.834 4 24.501l124 208c5.33301 9.33301 15.333 15 30 17h76c7.33301 0 13.333 -1.83301 18 -5.5s8 -8.16699 10 -13.5s2.5 -11 1.5 -17s-3.5 -11 -7.5 -15z" />
    <glyph glyph-name="acircumflex" unicode="&#xe2;" 
d="M794 778c0 30 -7 55.3271 -21 75.9941s-32.333 37.334 -55 50.001s-48.5 21.834 -77.5 27.501s-58.5 8.5 -88.5 8.5c-29.333 0 -57.5 -2.66699 -84.5 -8s-52.5 -14.166 -76.5 -26.499s-45.833 -28.833 -65.5 -49.5s-36.5 -46.334 -50.5 -77.001
c-5.33301 -12.667 -9.83301 -22.167 -13.5 -28.5s-11.167 -10.166 -22.5 -11.499h-79c-12.667 0 -21.334 3.66699 -26.001 11s-5.66699 16.333 -3 27c10.667 54 30.834 100 60.501 138s64.5 68.833 104.5 92.5s83.333 40.834 130 51.501s92.667 16 138 16
c46.667 0 92.167 -5.66699 136.5 -17s83.833 -29.5 118.5 -54.5s62.5 -57.333 83.5 -97s31.833 -87.834 32.5 -144.501l5 -729c0 -9.33301 -3 -17.166 -9 -23.499s-13.667 -9.5 -23 -9.5h-90c-8.66699 0 -16.334 3.16699 -23.001 9.5s-10 14.5 -10 24.5l1 82
c0 9.33301 -4 15 -12 17s-15.333 -0.666992 -22 -8c-26 -27.333 -53.833 -50.166 -83.5 -68.499s-59.834 -33.333 -90.501 -45s-61 -20 -91 -25s-58 -7.5 -84 -7.5c-51.333 0 -97 8.5 -137 25.5s-73.667 39.5 -101 67.5s-48.333 60 -63 96s-22 73 -22 111
c0 32.667 5 64.334 15 95.001s24 58.667 42 84s39.833 47 65.5 65s53.834 31 84.501 39c36 8.66699 75.167 17.167 117.5 25.5l125 25.5c41 8.66699 79.333 18.167 115 28.5s64.834 21.833 87.501 34.5c20.667 11.333 36.167 24.833 46.5 40.5s15.5 36.167 15.5 61.5z
M232 291.994c0 -40 10.168 -71.998 30.501 -95.998s46.333 -41.167 78 -51.5s67 -14.833 106 -13.5s77.167 7.5 114.5 18.5s71.666 26 102.999 45s55.333 40.5 72 64.5c12 17.333 21.667 38.166 29 62.499s13 49.666 17 75.999s6.83301 52.5 8.5 78.5s2.5 49 2.5 69
c0 9.33301 -4.66699 13.666 -14 12.999c-32.667 -12 -64.5 -22.5 -95.5 -31.5s-62.667 -17.5 -95 -25.5s-66.333 -15.667 -102 -23l-115.5 -24c-42.667 -9.33301 -76.5 -27.666 -101.5 -54.999s-37.5 -63 -37.5 -107zM799.001 1238
c10.667 -10.667 13.5039 -21.833 8.50391 -33.5s-14.5 -17.5 -28.5 -17.5h-75c-12.667 0 -22.334 5.33301 -29.001 16l-120 196c-2.66699 5.33301 -6.5 7.83301 -11.5 7.5s-8.5 -2.83301 -10.5 -7.5l-120 -196c-6.66699 -10.667 -17 -16 -31 -16h-74
c-15.333 0 -24.833 6 -28.5 18s-0.833984 23 8.49902 33l199 208c7.33301 8.66699 16.666 13 27.999 13h58c9.33301 0 17.666 -4.33301 24.999 -13z" />
    <glyph glyph-name="atilde" unicode="&#xe3;" 
d="M794 778c0 30 -7 55.3271 -21 75.9941s-32.333 37.334 -55 50.001s-48.5 21.834 -77.5 27.501s-58.5 8.5 -88.5 8.5c-29.333 0 -57.5 -2.66699 -84.5 -8s-52.5 -14.166 -76.5 -26.499s-45.833 -28.833 -65.5 -49.5s-36.5 -46.334 -50.5 -77.001
c-5.33301 -12.667 -9.83301 -22.167 -13.5 -28.5s-11.167 -10.166 -22.5 -11.499h-79c-12.667 0 -21.334 3.66699 -26.001 11s-5.66699 16.333 -3 27c10.667 54 30.834 100 60.501 138s64.5 68.833 104.5 92.5s83.333 40.834 130 51.501s92.667 16 138 16
c46.667 0 92.167 -5.66699 136.5 -17s83.833 -29.5 118.5 -54.5s62.5 -57.333 83.5 -97s31.833 -87.834 32.5 -144.501l5 -729c0 -9.33301 -3 -17.166 -9 -23.499s-13.667 -9.5 -23 -9.5h-90c-8.66699 0 -16.334 3.16699 -23.001 9.5s-10 14.5 -10 24.5l1 82
c0 9.33301 -4 15 -12 17s-15.333 -0.666992 -22 -8c-26 -27.333 -53.833 -50.166 -83.5 -68.499s-59.834 -33.333 -90.501 -45s-61 -20 -91 -25s-58 -7.5 -84 -7.5c-51.333 0 -97 8.5 -137 25.5s-73.667 39.5 -101 67.5s-48.333 60 -63 96s-22 73 -22 111
c0 32.667 5 64.334 15 95.001s24 58.667 42 84s39.833 47 65.5 65s53.834 31 84.501 39c36 8.66699 75.167 17.167 117.5 25.5l125 25.5c41 8.66699 79.333 18.167 115 28.5s64.834 21.833 87.501 34.5c20.667 11.333 36.167 24.833 46.5 40.5s15.5 36.167 15.5 61.5z
M232 291.994c0 -40 10.168 -71.998 30.501 -95.998s46.333 -41.167 78 -51.5s67 -14.833 106 -13.5s77.167 7.5 114.5 18.5s71.666 26 102.999 45s55.333 40.5 72 64.5c12 17.333 21.667 38.166 29 62.499s13 49.666 17 75.999s6.83301 52.5 8.5 78.5s2.5 49 2.5 69
c0 9.33301 -4.66699 13.666 -14 12.999c-32.667 -12 -64.5 -22.5 -95.5 -31.5s-62.667 -17.5 -95 -25.5s-66.333 -15.667 -102 -23l-115.5 -24c-42.667 -9.33301 -76.5 -27.666 -101.5 -54.999s-37.5 -63 -37.5 -107zM834.001 1441c-0.666992 -22 -5 -42.668 -13 -62.001
s-18.833 -36.166 -32.5 -50.499s-29.834 -25.5 -48.501 -33.5s-38.334 -12 -59.001 -12c-26 0 -48.333 4.83301 -67 14.5s-36 20.5 -52 32.5s-32.5 22.833 -49.5 32.5s-37.167 14.5 -60.5 14.5c-27.333 0 -51.666 -7.16699 -72.999 -21.5s-40 -32.166 -56 -53.499
c-5.33301 -5.33301 -12.166 -7.16602 -20.499 -5.49902s-12.5 6.5 -12.5 14.5c0 22 3.83301 43 11.5 63s18.5 37.833 32.5 53.5s30.833 28 50.5 37s41.5 13.5 65.5 13.5c26 0 47.167 -4.83301 63.5 -14.5s32 -20.167 47 -31.5s31.5 -21.833 49.5 -31.5
s41.667 -14.5 71 -14.5c27.333 0 50.833 6.83301 70.5 20.5s36.834 28.167 51.501 43.5c2 3.33301 4.83301 5.66602 8.5 6.99902s7.16699 1.5 10.5 0.5s6.16602 -2.83301 8.49902 -5.5s3.5 -6.33398 3.5 -11.001z" />
    <glyph glyph-name="adieresis" unicode="&#xe4;" 
d="M794 778c0 30 -7 55.3271 -21 75.9941s-32.333 37.334 -55 50.001s-48.5 21.834 -77.5 27.501s-58.5 8.5 -88.5 8.5c-29.333 0 -57.5 -2.66699 -84.5 -8s-52.5 -14.166 -76.5 -26.499s-45.833 -28.833 -65.5 -49.5s-36.5 -46.334 -50.5 -77.001
c-5.33301 -12.667 -9.83301 -22.167 -13.5 -28.5s-11.167 -10.166 -22.5 -11.499h-79c-12.667 0 -21.334 3.66699 -26.001 11s-5.66699 16.333 -3 27c10.667 54 30.834 100 60.501 138s64.5 68.833 104.5 92.5s83.333 40.834 130 51.501s92.667 16 138 16
c46.667 0 92.167 -5.66699 136.5 -17s83.833 -29.5 118.5 -54.5s62.5 -57.333 83.5 -97s31.833 -87.834 32.5 -144.501l5 -729c0 -9.33301 -3 -17.166 -9 -23.499s-13.667 -9.5 -23 -9.5h-90c-8.66699 0 -16.334 3.16699 -23.001 9.5s-10 14.5 -10 24.5l1 82
c0 9.33301 -4 15 -12 17s-15.333 -0.666992 -22 -8c-26 -27.333 -53.833 -50.166 -83.5 -68.499s-59.834 -33.333 -90.501 -45s-61 -20 -91 -25s-58 -7.5 -84 -7.5c-51.333 0 -97 8.5 -137 25.5s-73.667 39.5 -101 67.5s-48.333 60 -63 96s-22 73 -22 111
c0 32.667 5 64.334 15 95.001s24 58.667 42 84s39.833 47 65.5 65s53.834 31 84.501 39c36 8.66699 75.167 17.167 117.5 25.5l125 25.5c41 8.66699 79.333 18.167 115 28.5s64.834 21.833 87.501 34.5c20.667 11.333 36.167 24.833 46.5 40.5s15.5 36.167 15.5 61.5z
M232 291.994c0 -40 10.168 -71.998 30.501 -95.998s46.333 -41.167 78 -51.5s67 -14.833 106 -13.5s77.167 7.5 114.5 18.5s71.666 26 102.999 45s55.333 40.5 72 64.5c12 17.333 21.667 38.166 29 62.499s13 49.666 17 75.999s6.83301 52.5 8.5 78.5s2.5 49 2.5 69
c0 9.33301 -4.66699 13.666 -14 12.999c-32.667 -12 -64.5 -22.5 -95.5 -31.5s-62.667 -17.5 -95 -25.5s-66.333 -15.667 -102 -23l-115.5 -24c-42.667 -9.33301 -76.5 -27.666 -101.5 -54.999s-37.5 -63 -37.5 -107zM689.001 1259c-9.33301 0 -17.168 3 -23.501 9
s-9.5 13.667 -9.5 23l2 136c0 9.33301 3 16.833 9 22.5s13.333 8.5 22 8.5h65c8.66699 0 16 -3 22 -9s9 -13.667 9 -23l3 -135c0 -9.33301 -3.16699 -17 -9.5 -23s-14.166 -9 -23.499 -9h-66zM405.999 1259c-9.33301 0 -17.168 3 -23.501 9s-9.5 13.667 -9.5 23l2 136
c0 9.33301 3 16.833 9 22.5s13.333 8.5 22 8.5h65c8.66699 0 16 -3 22 -9s9 -13.667 9 -23l3 -135c0 -9.33301 -3.16699 -17 -9.5 -23s-14.166 -9 -23.499 -9h-66z" />
    <glyph glyph-name="agrave.001" unicode="&#xe5;" 
d="M794 778c0 30 -7 55.3271 -21 75.9941s-32.333 37.334 -55 50.001s-48.5 21.834 -77.5 27.501s-58.5 8.5 -88.5 8.5c-29.333 0 -57.5 -2.66699 -84.5 -8s-52.5 -14.166 -76.5 -26.499s-45.833 -28.833 -65.5 -49.5s-36.5 -46.334 -50.5 -77.001
c-5.33301 -12.667 -9.83301 -22.167 -13.5 -28.5s-11.167 -10.166 -22.5 -11.499h-79c-12.667 0 -21.334 3.66699 -26.001 11s-5.66699 16.333 -3 27c10.667 54 30.834 100 60.501 138s64.5 68.833 104.5 92.5s83.333 40.834 130 51.501s92.667 16 138 16
c46.667 0 92.167 -5.66699 136.5 -17s83.833 -29.5 118.5 -54.5s62.5 -57.333 83.5 -97s31.833 -87.834 32.5 -144.501l5 -729c0 -9.33301 -3 -17.166 -9 -23.499s-13.667 -9.5 -23 -9.5h-90c-8.66699 0 -16.334 3.16699 -23.001 9.5s-10 14.5 -10 24.5l1 82
c0 9.33301 -4 15 -12 17s-15.333 -0.666992 -22 -8c-26 -27.333 -53.833 -50.166 -83.5 -68.499s-59.834 -33.333 -90.501 -45s-61 -20 -91 -25s-58 -7.5 -84 -7.5c-51.333 0 -97 8.5 -137 25.5s-73.667 39.5 -101 67.5s-48.333 60 -63 96s-22 73 -22 111
c0 32.667 5 64.334 15 95.001s24 58.667 42 84s39.833 47 65.5 65s53.834 31 84.501 39c36 8.66699 75.167 17.167 117.5 25.5l125 25.5c41 8.66699 79.333 18.167 115 28.5s64.834 21.833 87.501 34.5c20.667 11.333 36.167 24.833 46.5 40.5s15.5 36.167 15.5 61.5z
M232 291.994c0 -40 10.168 -71.998 30.501 -95.998s46.333 -41.167 78 -51.5s67 -14.833 106 -13.5s77.167 7.5 114.5 18.5s71.666 26 102.999 45s55.333 40.5 72 64.5c12 17.333 21.667 38.166 29 62.499s13 49.666 17 75.999s6.83301 52.5 8.5 78.5s2.5 49 2.5 69
c0 9.33301 -4.66699 13.666 -14 12.999c-32.667 -12 -64.5 -22.5 -95.5 -31.5s-62.667 -17.5 -95 -25.5s-66.333 -15.667 -102 -23l-115.5 -24c-42.667 -9.33301 -76.5 -27.666 -101.5 -54.999s-37.5 -63 -37.5 -107zM563.001 1533c26 0 50 -4.83301 72 -14.5
s41.167 -22.667 57.5 -39s29.166 -35.666 38.499 -57.999s14 -45.833 14 -70.5c0 -25.333 -4.66699 -48.833 -14 -70.5s-22.166 -40.667 -38.499 -57s-35.5 -29.166 -57.5 -38.499s-46 -14 -72 -14c-24.667 0 -48 4.66699 -70 14s-41.167 22.166 -57.5 38.499
s-29.333 35.333 -39 57s-14.5 45.167 -14.5 70.5c0 24.667 4.83301 48.167 14.5 70.5s22.667 41.666 39 57.999s35.5 29.333 57.5 39s45.333 14.5 70 14.5zM563.001 1253c31.333 0 55.833 8.83301 73.5 26.5s26.5 41.5 26.5 71.5c0 31.333 -8.83301 55.666 -26.5 72.999
s-42.167 26 -73.5 26c-30 0 -53.833 -8.66699 -71.5 -26s-26.5 -41.666 -26.5 -72.999c0 -30 8.83301 -53.833 26.5 -71.5s41.5 -26.5 71.5 -26.5z" />
    <glyph glyph-name="ae" unicode="&#xe6;" horiz-adv-x="1893" 
d="M1309 1080c74.667 0 142.174 -14.1748 202.507 -42.5078s112 -66.333 155 -114s76.667 -102.5 101 -164.5s38.5 -126.667 42.5 -194c0 -11.333 -3.16699 -20.166 -9.5 -26.499s-14.166 -9.5 -23.499 -9.5h-804c-12.667 -0.666992 -19 -8 -19 -22
c2.66699 -53.333 12.834 -102.5 30.501 -147.5s41.667 -83.833 72 -116.5s66.666 -58.167 108.999 -76.5s89.833 -27.5 142.5 -27.5c66 0 123.833 15.333 173.5 46s90.167 70.667 121.5 120c7.33301 10.667 17 16 29 16h95c13.333 0 22.666 -5.5 27.999 -16.5
s5 -21.833 -1 -32.5c-21.333 -43.333 -46.833 -82.166 -76.5 -116.499s-63.334 -63.666 -101.001 -87.999s-78.834 -43 -123.501 -56s-92.334 -19.5 -143.001 -19.5c-45.333 0 -88.333 6.5 -129 19.5s-78.334 30.833 -113.001 53.5s-66.334 48.834 -95.001 78.501
s-54 61.5 -76 95.5c-2 4.66699 -5.5 7.16699 -10.5 7.5s-8.83301 -2.16699 -11.5 -7.5c-17.333 -28 -38.5 -56.5 -63.5 -85.5s-55.5 -55.333 -91.5 -79s-77.833 -43 -125.5 -58s-102.5 -22.5 -164.5 -22.5c-55.333 0 -104.166 8.16699 -146.499 24.5s-78 38 -107 65
s-51.167 58.333 -66.5 94s-23.333 72.834 -24 111.501c0 32.667 5 64.167 15 94.5s24 57.833 42 82.5s39.667 46.167 65 64.5s53.333 32.166 84 41.499c49.333 12 95.333 20 138 24s82.5 7.5 119.5 10.5s71.5 7.33301 103.5 13s62 16.5 90 32.5
c42 22.667 63 58.334 63 107.001c-0.666992 29.333 -8 56 -22 80s-32.667 44.5 -56 61.5s-50.166 30.333 -80.499 40s-61.833 14.5 -94.5 14.5c-26.667 0 -53.5 -2.83301 -80.5 -8.5s-52.333 -15 -76 -28s-45 -30.167 -64 -51.5s-33.833 -47.333 -44.5 -78
c-4.66699 -12.667 -9 -22.167 -13 -28.5s-11.667 -10.166 -23 -11.499h-85c-12.667 0 -21.5 5.66699 -26.5 17s-5.83301 23 -2.5 35c9.33301 48.667 28.666 90.834 57.999 126.501s64 65 104 88s83.167 40.167 129.5 51.5s91.166 17 134.499 17
c37.333 0 73.666 -4.66699 108.999 -14s68.166 -22.666 98.499 -39.999s57.333 -38.5 81 -63.5s42.834 -53.167 57.501 -84.5c2 -4 5.16699 -6.16699 9.5 -6.5s8.16602 1.5 11.499 5.5c22 27.333 46.833 53 74.5 77s57.5 45 89.5 63s66 32.333 102 43s73.333 16 112 16z
M737.007 268.992c13.333 17.333 24.001 36.665 32.001 57.998s14 43.333 18 66s6.66699 45 8 67s2 42.333 2 61c0 8.66699 -4.33301 13 -13 13c-32.667 -12 -65 -20.833 -97 -26.5s-64.667 -10.5 -98 -14.5s-67.5 -7.83301 -102.5 -11.5s-71.833 -9.5 -110.5 -17.5
c-21.333 -4.66699 -40.666 -11.667 -57.999 -21s-32 -20.666 -44 -33.999s-21.167 -28.5 -27.5 -45.5s-9.5 -34.833 -9.5 -53.5c0 -42 10 -75.667 30 -101s45.667 -43.666 77 -54.999s66.166 -16.333 104.499 -15s76 7.5 113 18.5s71.167 26.167 102.5 45.5
s55.666 41.333 72.999 66zM1621.01 652.991c17.333 0 23.333 8.66602 18 25.999c-12 36 -28.333 70.333 -49 103s-45 61.5 -73 86.5s-59.5 44.833 -94.5 59.5s-72.833 22 -113.5 22s-79 -7.16699 -115 -21.5s-68.5 -33.666 -97.5 -57.999s-54.167 -53 -75.5 -86
s-37.333 -68.5 -48 -106.5c-4.66699 -16.667 2 -25 20 -25h628z" />
    <glyph glyph-name="ccedilla" unicode="&#xe7;" horiz-adv-x="1142" 
d="M645 -14c-7.33301 -0.666992 -13.333 -2.49805 -18 -5.49805s-7 -7.83301 -7 -14.5c0 -20 0.166992 -36.167 0.5 -48.5s4.83301 -20.833 13.5 -25.5c14 -5.33301 27.167 -12.833 39.5 -22.5s23.166 -21.334 32.499 -35.001s16.666 -28.667 21.999 -45s8 -33.833 8 -52.5
c0 -26 -3.83301 -49.833 -11.5 -71.5s-18.667 -40.334 -33 -56.001s-31.666 -27.834 -51.999 -36.501s-42.833 -13 -67.5 -13c-19.333 0 -37.833 3.16699 -55.5 9.5s-33.667 15.333 -48 27s-26.333 25.667 -36 42s-15.834 34.5 -18.501 54.5
c-1.33301 14.667 5.33398 22 20.001 22h46c10.667 0 17.667 -4.66699 21 -14c4 -17.333 12.667 -31 26 -41s28.333 -15 45 -15c14.667 0 26.834 2.83301 36.501 8.5s17.334 12.834 23.001 21.501s9.66699 18.5 12 29.5s3.5 21.833 3.5 32.5
c0 22.667 -5.66699 42.834 -17 60.501s-29.666 26.5 -54.999 26.5c-10 0.666992 -17.667 -1 -23 -5s-11.333 -6 -18 -6c-5.33301 0 -9.83301 2.16699 -13.5 6.5s-5.5 9.16602 -5.5 14.499l4 137c0 7.33301 -3 12.5 -9 15.5s-11.667 5.16699 -17 6.5
c-63.333 10 -120.666 30.667 -171.999 62s-95 70.5 -131 117.5s-63.667 100.833 -83 161.5s-29 125.334 -29 194.001c0 81.333 12.667 155.666 38 222.999s60.666 125 105.999 173s98.833 85.167 160.5 111.5s129.167 39.5 202.5 39.5c50 0 97.667 -6.66699 143 -20
s87.166 -32.166 125.499 -56.499s72.833 -54 103.5 -89s56 -74.167 76 -117.5c6 -11.333 5.66699 -22 -1 -32s-16 -15 -28 -15h-94c-8 0 -14.333 1.33301 -19 4s-8.66699 7.33398 -12 14.001c-30 55.333 -69.833 99.5 -119.5 132.5s-107.834 49.5 -174.501 49.5
c-53.333 0 -102 -11.333 -146 -34s-81.667 -52.834 -113 -90.501s-55.666 -81 -72.999 -130s-26 -100.167 -26 -153.5c0 -60.667 8.66699 -115.834 26 -165.501s41.666 -92.334 72.999 -128.001s69 -63.167 113 -82.5s92.667 -29 146 -29c74.667 0 139.834 20 195.501 60
s98.5 93.333 128.5 160c3.33301 6 7.16602 11 11.499 15s10.833 6 19.5 6h89c14 -1.33301 23.333 -6.5 28 -15.5s5.66699 -18.167 3 -27.5c-14 -47.333 -34.333 -90.666 -61 -129.999s-58.167 -74 -94.5 -104s-76.5 -54.5 -120.5 -73.5s-90.333 -31.167 -139 -36.5z" />
    <glyph glyph-name="egrave" unicode="&#xe8;" horiz-adv-x="1125" 
d="M1093 558c0 -11.333 -3.3291 -20.167 -9.99609 -26.5s-14.334 -9.5 -23.001 -9.5h-808c-12.667 -0.666992 -19 -8 -19 -22c2.66699 -53.333 13 -102.666 31 -147.999s42.333 -84.5 73 -117.5s67.334 -58.833 110.001 -77.5s90.334 -28 143.001 -28
c66 0 124 15.5 174 46.5s91 71.5 123 121.5c8 11.333 17.667 17 29 17h94c13.333 0 22.666 -5.66699 27.999 -17s5.33301 -22 0 -32c-21.333 -43.333 -47 -82.5 -77 -117.5s-64 -65 -102 -90s-79.5 -44.333 -124.5 -58s-92.833 -20.5 -143.5 -20.5
c-76.667 0 -146.334 14.167 -209.001 42.5s-116.334 67.166 -161.001 116.499s-79.167 107.5 -103.5 174.5s-36.5 139.5 -36.5 217.5c0 80 12.667 153.333 38 220s60.666 124.167 105.999 172.5s99.166 85.833 161.499 112.5s130.166 40 203.499 40
c74.667 0 142.334 -14.333 203.001 -43s112.667 -66.834 156 -114.501s77.333 -102.667 102 -165s38.667 -127.166 42 -194.499zM904.004 644.999c7.33301 0 12.8301 2.49902 16.4971 7.49902s4.16699 11.167 1.5 18.5c-12 36 -28.333 70.167 -49 102.5
s-45.167 60.833 -73.5 85.5s-60.166 44.334 -95.499 59.001s-73.333 22 -114 22s-79.167 -7 -115.5 -21s-69.166 -33.167 -98.499 -57.5s-54.666 -52.833 -75.999 -85.5s-37.333 -68 -48 -106c-2.66699 -7.33301 -2.16699 -13.333 1.5 -18s9.5 -7 17.5 -7h633zM428.001 1407
c-4.66699 4.66699 -7.16699 9.83301 -7.5 15.5s0.666992 11.167 3 16.5s6 9.83301 11 13.5s10.5 5.5 16.5 5.5h75c14.667 -2 24.667 -7.66699 30 -17l124 -208c4.66699 -8.66699 6 -16.667 4 -24s-5.83301 -13 -11.5 -17s-12.167 -6 -19.5 -6s-14 3.33301 -20 10z" />
    <glyph glyph-name="eacute" unicode="&#xe9;" horiz-adv-x="1125" 
d="M1093 558c0 -11.333 -3.3291 -20.167 -9.99609 -26.5s-14.334 -9.5 -23.001 -9.5h-808c-12.667 -0.666992 -19 -8 -19 -22c2.66699 -53.333 13 -102.666 31 -147.999s42.333 -84.5 73 -117.5s67.334 -58.833 110.001 -77.5s90.334 -28 143.001 -28
c66 0 124 15.5 174 46.5s91 71.5 123 121.5c8 11.333 17.667 17 29 17h94c13.333 0 22.666 -5.66699 27.999 -17s5.33301 -22 0 -32c-21.333 -43.333 -47 -82.5 -77 -117.5s-64 -65 -102 -90s-79.5 -44.333 -124.5 -58s-92.833 -20.5 -143.5 -20.5
c-76.667 0 -146.334 14.167 -209.001 42.5s-116.334 67.166 -161.001 116.499s-79.167 107.5 -103.5 174.5s-36.5 139.5 -36.5 217.5c0 80 12.667 153.333 38 220s60.666 124.167 105.999 172.5s99.166 85.833 161.499 112.5s130.166 40 203.499 40
c74.667 0 142.334 -14.333 203.001 -43s112.667 -66.834 156 -114.501s77.333 -102.667 102 -165s38.667 -127.166 42 -194.499zM904.004 644.999c7.33301 0 12.8301 2.49902 16.4971 7.49902s4.16699 11.167 1.5 18.5c-12 36 -28.333 70.167 -49 102.5
s-45.167 60.833 -73.5 85.5s-60.166 44.334 -95.499 59.001s-73.333 22 -114 22s-79.167 -7 -115.5 -21s-69.166 -33.167 -98.499 -57.5s-54.666 -52.833 -75.999 -85.5s-37.333 -68 -48 -106c-2.66699 -7.33301 -2.16699 -13.333 1.5 -18s9.5 -7 17.5 -7h633zM540.001 1196
c-6 -7.33301 -12.667 -11.001 -20 -11.001s-13.833 2 -19.5 6s-9.5 9.83301 -11.5 17.5s-0.666992 15.834 4 24.501l124 208c5.33301 9.33301 15.333 15 30 17h76c7.33301 0 13.333 -1.83301 18 -5.5s8 -8.16699 10 -13.5s2.5 -11 1.5 -17s-3.5 -11 -7.5 -15z" />
    <glyph glyph-name="ecircumflex" unicode="&#xea;" horiz-adv-x="1125" 
d="M1093 558c0 -11.333 -3.3291 -20.167 -9.99609 -26.5s-14.334 -9.5 -23.001 -9.5h-808c-12.667 -0.666992 -19 -8 -19 -22c2.66699 -53.333 13 -102.666 31 -147.999s42.333 -84.5 73 -117.5s67.334 -58.833 110.001 -77.5s90.334 -28 143.001 -28
c66 0 124 15.5 174 46.5s91 71.5 123 121.5c8 11.333 17.667 17 29 17h94c13.333 0 22.666 -5.66699 27.999 -17s5.33301 -22 0 -32c-21.333 -43.333 -47 -82.5 -77 -117.5s-64 -65 -102 -90s-79.5 -44.333 -124.5 -58s-92.833 -20.5 -143.5 -20.5
c-76.667 0 -146.334 14.167 -209.001 42.5s-116.334 67.166 -161.001 116.499s-79.167 107.5 -103.5 174.5s-36.5 139.5 -36.5 217.5c0 80 12.667 153.333 38 220s60.666 124.167 105.999 172.5s99.166 85.833 161.499 112.5s130.166 40 203.499 40
c74.667 0 142.334 -14.333 203.001 -43s112.667 -66.834 156 -114.501s77.333 -102.667 102 -165s38.667 -127.166 42 -194.499zM904.004 644.999c7.33301 0 12.8301 2.49902 16.4971 7.49902s4.16699 11.167 1.5 18.5c-12 36 -28.333 70.167 -49 102.5
s-45.167 60.833 -73.5 85.5s-60.166 44.334 -95.499 59.001s-73.333 22 -114 22s-79.167 -7 -115.5 -21s-69.166 -33.167 -98.499 -57.5s-54.666 -52.833 -75.999 -85.5s-37.333 -68 -48 -106c-2.66699 -7.33301 -2.16699 -13.333 1.5 -18s9.5 -7 17.5 -7h633zM838.001 1238
c10.667 -10.667 13.5039 -21.833 8.50391 -33.5s-14.5 -17.5 -28.5 -17.5h-75c-12.667 0 -22.334 5.33301 -29.001 16l-120 196c-2.66699 5.33301 -6.5 7.83301 -11.5 7.5s-8.5 -2.83301 -10.5 -7.5l-120 -196c-6.66699 -10.667 -17 -16 -31 -16h-74
c-15.333 0 -24.833 6 -28.5 18s-0.833984 23 8.49902 33l199 208c7.33301 8.66699 16.666 13 27.999 13h58c9.33301 0 17.666 -4.33301 24.999 -13z" />
    <glyph glyph-name="edieresis" unicode="&#xeb;" horiz-adv-x="1125" 
d="M1093 558c0 -11.333 -3.3291 -20.167 -9.99609 -26.5s-14.334 -9.5 -23.001 -9.5h-808c-12.667 -0.666992 -19 -8 -19 -22c2.66699 -53.333 13 -102.666 31 -147.999s42.333 -84.5 73 -117.5s67.334 -58.833 110.001 -77.5s90.334 -28 143.001 -28
c66 0 124 15.5 174 46.5s91 71.5 123 121.5c8 11.333 17.667 17 29 17h94c13.333 0 22.666 -5.66699 27.999 -17s5.33301 -22 0 -32c-21.333 -43.333 -47 -82.5 -77 -117.5s-64 -65 -102 -90s-79.5 -44.333 -124.5 -58s-92.833 -20.5 -143.5 -20.5
c-76.667 0 -146.334 14.167 -209.001 42.5s-116.334 67.166 -161.001 116.499s-79.167 107.5 -103.5 174.5s-36.5 139.5 -36.5 217.5c0 80 12.667 153.333 38 220s60.666 124.167 105.999 172.5s99.166 85.833 161.499 112.5s130.166 40 203.499 40
c74.667 0 142.334 -14.333 203.001 -43s112.667 -66.834 156 -114.501s77.333 -102.667 102 -165s38.667 -127.166 42 -194.499zM904.004 644.999c7.33301 0 12.8301 2.49902 16.4971 7.49902s4.16699 11.167 1.5 18.5c-12 36 -28.333 70.167 -49 102.5
s-45.167 60.833 -73.5 85.5s-60.166 44.334 -95.499 59.001s-73.333 22 -114 22s-79.167 -7 -115.5 -21s-69.166 -33.167 -98.499 -57.5s-54.666 -52.833 -75.999 -85.5s-37.333 -68 -48 -106c-2.66699 -7.33301 -2.16699 -13.333 1.5 -18s9.5 -7 17.5 -7h633zM707.001 1259
c-9.33301 0 -17.168 3 -23.501 9s-9.5 13.667 -9.5 23l2 136c0 9.33301 3 16.833 9 22.5s13.333 8.5 22 8.5h65c8.66699 0 16 -3 22 -9s9 -13.667 9 -23l3 -135c0 -9.33301 -3.16699 -17 -9.5 -23s-14.166 -9 -23.499 -9h-66zM423.999 1259c-9.33301 0 -17.168 3 -23.501 9
s-9.5 13.667 -9.5 23l2 136c0 9.33301 3 16.833 9 22.5s13.333 8.5 22 8.5h65c8.66699 0 16 -3 22 -9s9 -13.667 9 -23l3 -135c0 -9.33301 -3.16699 -17 -9.5 -23s-14.166 -9 -23.499 -9h-66z" />
    <glyph glyph-name="igrave" unicode="&#xec;" horiz-adv-x="426" 
d="M309 33c0 -9.33301 -3 -16.833 -9 -22.5s-13.667 -9.16699 -23 -10.5h-110c-9.33301 0 -17.333 3.16699 -24 9.5s-10 14.5 -10 24.5l18 989c0 9.33301 3 17 9 23s13.667 9 23 9h77c8.66699 0 16 -3 22 -9s9.33301 -14 10 -24zM68 1407
c-4.66699 4.66699 -7.16699 9.83301 -7.5 15.5s0.666992 11.167 3 16.5s6 9.83301 11 13.5s10.5 5.5 16.5 5.5h75c14.667 -2 24.667 -7.66699 30 -17l124 -208c4.66699 -8.66699 6 -16.667 4 -24s-5.83301 -13 -11.5 -17s-12.167 -6 -19.5 -6s-14 3.33301 -20 10z" />
    <glyph glyph-name="iacute" unicode="&#xed;" horiz-adv-x="447" 
d="M276 33c0 -9.33301 -2.99902 -16.833 -8.99902 -22.5s-13.667 -9.16699 -23 -10.5h-111c-8.66699 0 -16.334 3.16699 -23.001 9.5s-10 14.5 -10 24.5l18 989c0 9.33301 3 17 9 23s13.667 9 23 9h76c9.33301 0 17 -3 23 -9s9.33301 -14 10 -24zM183.001 1196
c-6 -7.33301 -12.667 -11.001 -20 -11.001s-13.833 2 -19.5 6s-9.5 9.83301 -11.5 17.5s-0.666992 15.834 4 24.501l124 208c5.33301 9.33301 15.333 15 30 17h76c7.33301 0 13.333 -1.83301 18 -5.5s8 -8.16699 10 -13.5s2.5 -11 1.5 -17s-3.5 -11 -7.5 -15z" />
    <glyph glyph-name="icircumflex" unicode="&#xee;" horiz-adv-x="642" 
d="M405 33c0 -9.33301 -3 -16.833 -9 -22.5s-13.667 -9.16699 -23 -10.5h-110c-9.33301 0 -17.333 3.16699 -24 9.5s-10 14.5 -10 24.5l18 989c0 9.33301 3 17 9 23s13.667 9 23 9h77c8.66699 0 16 -3 22 -9s9.33301 -14 10 -24zM571 1237
c10.667 -10.667 13.5039 -21.833 8.50391 -33.5s-14.5 -17.5 -28.5 -17.5h-75c-12.667 0 -22.334 5.33301 -29.001 16l-120 196c-2.66699 5.33301 -6.5 7.83301 -11.5 7.5s-8.5 -2.83301 -10.5 -7.5l-120 -196c-6.66699 -10.667 -17 -16 -31 -16h-74
c-15.333 0 -24.833 6 -28.5 18s-0.833984 23 8.49902 33l199 208c7.33301 8.66699 16.666 13 27.999 13h58c9.33301 0 17.666 -4.33301 24.999 -13z" />
    <glyph glyph-name="idieresis" unicode="&#xef;" horiz-adv-x="533" 
d="M348 33c0 -9.33301 -2.99902 -16.833 -8.99902 -22.5s-13.667 -9.16699 -23 -10.5h-111c-8.66699 0 -16.334 3.16699 -23.001 9.5s-10 14.5 -10 24.5l18 989c0 9.33301 3 17 9 23s13.667 9 23 9h76c9.33301 0 17 -3 23 -9s9.33301 -14 10 -24zM83.001 1259
c-9.33301 0 -17.168 3 -23.501 9s-9.5 13.667 -9.5 23l2 136c0 9.33301 3 16.833 9 22.5s13.333 8.5 22 8.5h65c8.66699 0 16 -3 22 -9s9 -13.667 9 -23l3 -135c0 -9.33301 -3.16699 -17 -9.5 -23s-14.166 -9 -23.499 -9h-66zM373.999 1259c-9.33301 0 -17.168 3 -23.501 9
s-9.5 13.667 -9.5 23l2 136c0 9.33301 3 16.833 9 22.5s13.333 8.5 22 8.5h65c8.66699 0 16 -3 22 -9s9 -13.667 9 -23l3 -135c0 -9.33301 -3.16699 -17 -9.5 -23s-14.166 -9 -23.499 -9h-66z" />
    <glyph glyph-name="ntilde" unicode="&#xf1;" horiz-adv-x="1070" 
d="M953 33c0 -9.33301 -2.99316 -17.1709 -8.99316 -23.5039s-13.667 -9.5 -23 -9.5h-90c-8.66699 0 -16.334 3.16699 -23.001 9.5s-10 14.5 -10 24.5l4 663c0 38 -4.83301 72 -14.5 102s-23.667 55.5 -42 76.5s-40.333 37 -66 48s-53.834 16.5 -84.501 16.5
c-38.667 0 -78 -10.167 -118 -30.5s-76.333 -47.5 -109 -81.5s-59.167 -73.5 -79.5 -118.5s-30.5 -92.167 -30.5 -141.5l4 -535c0 -9.33301 -3 -17.166 -9 -23.499s-13.667 -9.5 -23 -9.5h-90c-8.66699 0 -16.334 3.16699 -23.001 9.5s-10 14.5 -10 24.5l7 988
c0 10 3.16699 18 9.5 24s14.166 9 23.499 9h75c9.33301 0 17.166 -3.16699 23.499 -9.5s9.5 -14.166 9.5 -23.499l1 -107c0 -8 4 -13.5 12 -16.5s14.667 -1.83301 20 3.5c43.333 52 95 93.833 155 125.5s128.333 47.5 205 47.5c40 0 78.167 -7.16699 114.5 -21.5
s68.166 -34.666 95.499 -60.999s49.166 -57.666 65.499 -93.999s24.5 -76.5 24.5 -120.5zM775.007 1441c-0.666992 -22 -5 -42.668 -13 -62.001s-18.833 -36.166 -32.5 -50.499s-29.834 -25.5 -48.501 -33.5s-38.334 -12 -59.001 -12c-26 0 -48.333 4.83301 -67 14.5
s-36 20.5 -52 32.5s-32.5 22.833 -49.5 32.5s-37.167 14.5 -60.5 14.5c-27.333 0 -51.666 -7.16699 -72.999 -21.5s-40 -32.166 -56 -53.499c-5.33301 -5.33301 -12.166 -7.16602 -20.499 -5.49902s-12.5 6.5 -12.5 14.5c0 22 3.83301 43 11.5 63s18.5 37.833 32.5 53.5
s30.833 28 50.5 37s41.5 13.5 65.5 13.5c26 0 47.167 -4.83301 63.5 -14.5s32 -20.167 47 -31.5s31.5 -21.833 49.5 -31.5s41.667 -14.5 71 -14.5c27.333 0 50.833 6.83301 70.5 20.5s36.834 28.167 51.501 43.5c2 3.33301 4.83301 5.66602 8.5 6.99902
s7.16699 1.5 10.5 0.5s6.16602 -2.83301 8.49902 -5.5s3.5 -6.33398 3.5 -11.001z" />
    <glyph glyph-name="ograve" unicode="&#xf2;" horiz-adv-x="1154" 
d="M591 -21c-75.333 0 -144.335 14.5 -207.002 43.5s-116.667 68.5 -162 118.5s-80.5 108.333 -105.5 175s-37.5 137.334 -37.5 212.001c0 73.333 12.5 143 37.5 209s60 124 105 174s99 89.833 162 119.5s132.167 44.5 207.5 44.5c74.667 0 143.167 -14.833 205.5 -44.5
s116 -69.5 161 -119.5s80.167 -108 105.5 -174s38 -135.667 38 -209c0 -74.667 -12.667 -145.334 -38 -212.001s-60.666 -125 -105.999 -175s-99.166 -89.5 -161.499 -118.5s-130.5 -43.5 -204.5 -43.5zM948.998 528c0 51.333 -8.67188 101.667 -26.0049 151
s-41.666 93.333 -72.999 132s-69 69.834 -113 93.501s-92.667 35.5 -146 35.5c-55.333 0 -105.166 -11.333 -149.499 -34s-82.166 -52.834 -113.499 -90.501s-55.333 -80.667 -72 -129s-25 -98.166 -25 -149.499c0 -61.333 9.33301 -117.166 28 -167.499
s44.334 -93.333 77.001 -129s70.834 -63.167 114.501 -82.5s90.5 -29 140.5 -29c48 0 93.333 9.33301 136 28s80.334 45.167 113.001 79.5s58.667 76.166 78 125.499s29.666 104.666 30.999 165.999zM449.993 1407c-4.66699 4.66699 -7.16699 9.83301 -7.5 15.5
s0.666992 11.167 3 16.5s6 9.83301 11 13.5s10.5 5.5 16.5 5.5h75c14.667 -2 24.667 -7.66699 30 -17l124 -208c4.66699 -8.66699 6 -16.667 4 -24s-5.83301 -13 -11.5 -17s-12.167 -6 -19.5 -6s-14 3.33301 -20 10z" />
    <glyph glyph-name="oacute" unicode="&#xf3;" horiz-adv-x="1154" 
d="M591 -21c-75.333 0 -144.335 14.5 -207.002 43.5s-116.667 68.5 -162 118.5s-80.5 108.333 -105.5 175s-37.5 137.334 -37.5 212.001c0 73.333 12.5 143 37.5 209s60 124 105 174s99 89.833 162 119.5s132.167 44.5 207.5 44.5c74.667 0 143.167 -14.833 205.5 -44.5
s116 -69.5 161 -119.5s80.167 -108 105.5 -174s38 -135.667 38 -209c0 -74.667 -12.667 -145.334 -38 -212.001s-60.666 -125 -105.999 -175s-99.166 -89.5 -161.499 -118.5s-130.5 -43.5 -204.5 -43.5zM948.998 528c0 51.333 -8.67188 101.667 -26.0049 151
s-41.666 93.333 -72.999 132s-69 69.834 -113 93.501s-92.667 35.5 -146 35.5c-55.333 0 -105.166 -11.333 -149.499 -34s-82.166 -52.834 -113.499 -90.501s-55.333 -80.667 -72 -129s-25 -98.166 -25 -149.499c0 -61.333 9.33301 -117.166 28 -167.499
s44.334 -93.333 77.001 -129s70.834 -63.167 114.501 -82.5s90.5 -29 140.5 -29c48 0 93.333 9.33301 136 28s80.334 45.167 113.001 79.5s58.667 76.166 78 125.499s29.666 104.666 30.999 165.999zM537.993 1196c-6 -7.33301 -12.667 -11.001 -20 -11.001
s-13.833 2 -19.5 6s-9.5 9.83301 -11.5 17.5s-0.666992 15.834 4 24.501l124 208c5.33301 9.33301 15.333 15 30 17h76c7.33301 0 13.333 -1.83301 18 -5.5s8 -8.16699 10 -13.5s2.5 -11 1.5 -17s-3.5 -11 -7.5 -15z" />
    <glyph glyph-name="ocircumflex" unicode="&#xf4;" horiz-adv-x="1154" 
d="M591 -21c-75.333 0 -144.335 14.5 -207.002 43.5s-116.667 68.5 -162 118.5s-80.5 108.333 -105.5 175s-37.5 137.334 -37.5 212.001c0 73.333 12.5 143 37.5 209s60 124 105 174s99 89.833 162 119.5s132.167 44.5 207.5 44.5c74.667 0 143.167 -14.833 205.5 -44.5
s116 -69.5 161 -119.5s80.167 -108 105.5 -174s38 -135.667 38 -209c0 -74.667 -12.667 -145.334 -38 -212.001s-60.666 -125 -105.999 -175s-99.166 -89.5 -161.499 -118.5s-130.5 -43.5 -204.5 -43.5zM948.998 528c0 51.333 -8.67188 101.667 -26.0049 151
s-41.666 93.333 -72.999 132s-69 69.834 -113 93.501s-92.667 35.5 -146 35.5c-55.333 0 -105.166 -11.333 -149.499 -34s-82.166 -52.834 -113.499 -90.501s-55.333 -80.667 -72 -129s-25 -98.166 -25 -149.499c0 -61.333 9.33301 -117.166 28 -167.499
s44.334 -93.333 77.001 -129s70.834 -63.167 114.501 -82.5s90.5 -29 140.5 -29c48 0 93.333 9.33301 136 28s80.334 45.167 113.001 79.5s58.667 76.166 78 125.499s29.666 104.666 30.999 165.999zM852.993 1238c10.667 -10.667 13.5039 -21.833 8.50391 -33.5
s-14.5 -17.5 -28.5 -17.5h-75c-12.667 0 -22.334 5.33301 -29.001 16l-120 196c-2.66699 5.33301 -6.5 7.83301 -11.5 7.5s-8.5 -2.83301 -10.5 -7.5l-120 -196c-6.66699 -10.667 -17 -16 -31 -16h-74c-15.333 0 -24.833 6 -28.5 18s-0.833984 23 8.49902 33l199 208
c7.33301 8.66699 16.666 13 27.999 13h58c9.33301 0 17.666 -4.33301 24.999 -13z" />
    <glyph glyph-name="otilde" unicode="&#xf5;" horiz-adv-x="1154" 
d="M591 -21c-75.333 0 -144.335 14.5 -207.002 43.5s-116.667 68.5 -162 118.5s-80.5 108.333 -105.5 175s-37.5 137.334 -37.5 212.001c0 73.333 12.5 143 37.5 209s60 124 105 174s99 89.833 162 119.5s132.167 44.5 207.5 44.5c74.667 0 143.167 -14.833 205.5 -44.5
s116 -69.5 161 -119.5s80.167 -108 105.5 -174s38 -135.667 38 -209c0 -74.667 -12.667 -145.334 -38 -212.001s-60.666 -125 -105.999 -175s-99.166 -89.5 -161.499 -118.5s-130.5 -43.5 -204.5 -43.5zM948.998 528c0 51.333 -8.67188 101.667 -26.0049 151
s-41.666 93.333 -72.999 132s-69 69.834 -113 93.501s-92.667 35.5 -146 35.5c-55.333 0 -105.166 -11.333 -149.499 -34s-82.166 -52.834 -113.499 -90.501s-55.333 -80.667 -72 -129s-25 -98.166 -25 -149.499c0 -61.333 9.33301 -117.166 28 -167.499
s44.334 -93.333 77.001 -129s70.834 -63.167 114.501 -82.5s90.5 -29 140.5 -29c48 0 93.333 9.33301 136 28s80.334 45.167 113.001 79.5s58.667 76.166 78 125.499s29.666 104.666 30.999 165.999zM867.993 1441c-0.666992 -22 -5 -42.668 -13 -62.001
s-18.833 -36.166 -32.5 -50.499s-29.834 -25.5 -48.501 -33.5s-38.334 -12 -59.001 -12c-26 0 -48.333 4.83301 -67 14.5s-36 20.5 -52 32.5s-32.5 22.833 -49.5 32.5s-37.167 14.5 -60.5 14.5c-27.333 0 -51.666 -7.16699 -72.999 -21.5s-40 -32.166 -56 -53.499
c-5.33301 -5.33301 -12.166 -7.16602 -20.499 -5.49902s-12.5 6.5 -12.5 14.5c0 22 3.83301 43 11.5 63s18.5 37.833 32.5 53.5s30.833 28 50.5 37s41.5 13.5 65.5 13.5c26 0 47.167 -4.83301 63.5 -14.5s32 -20.167 47 -31.5s31.5 -21.833 49.5 -31.5
s41.667 -14.5 71 -14.5c27.333 0 50.833 6.83301 70.5 20.5s36.834 28.167 51.501 43.5c2 3.33301 4.83301 5.66602 8.5 6.99902s7.16699 1.5 10.5 0.5s6.16602 -2.83301 8.49902 -5.5s3.5 -6.33398 3.5 -11.001z" />
    <glyph glyph-name="odieresis" unicode="&#xf6;" horiz-adv-x="1154" 
d="M591 -21c-75.333 0 -144.335 14.5 -207.002 43.5s-116.667 68.5 -162 118.5s-80.5 108.333 -105.5 175s-37.5 137.334 -37.5 212.001c0 73.333 12.5 143 37.5 209s60 124 105 174s99 89.833 162 119.5s132.167 44.5 207.5 44.5c74.667 0 143.167 -14.833 205.5 -44.5
s116 -69.5 161 -119.5s80.167 -108 105.5 -174s38 -135.667 38 -209c0 -74.667 -12.667 -145.334 -38 -212.001s-60.666 -125 -105.999 -175s-99.166 -89.5 -161.499 -118.5s-130.5 -43.5 -204.5 -43.5zM948.998 528c0 51.333 -8.67188 101.667 -26.0049 151
s-41.666 93.333 -72.999 132s-69 69.834 -113 93.501s-92.667 35.5 -146 35.5c-55.333 0 -105.166 -11.333 -149.499 -34s-82.166 -52.834 -113.499 -90.501s-55.333 -80.667 -72 -129s-25 -98.166 -25 -149.499c0 -61.333 9.33301 -117.166 28 -167.499
s44.334 -93.333 77.001 -129s70.834 -63.167 114.501 -82.5s90.5 -29 140.5 -29c48 0 93.333 9.33301 136 28s80.334 45.167 113.001 79.5s58.667 76.166 78 125.499s29.666 104.666 30.999 165.999zM708.993 1259c-9.33301 0 -17.168 3 -23.501 9s-9.5 13.667 -9.5 23
l2 136c0 9.33301 3 16.833 9 22.5s13.333 8.5 22 8.5h65c8.66699 0 16 -3 22 -9s9 -13.667 9 -23l3 -135c0 -9.33301 -3.16699 -17 -9.5 -23s-14.166 -9 -23.499 -9h-66zM425.991 1259c-9.33301 0 -17.168 3 -23.501 9s-9.5 13.667 -9.5 23l2 136c0 9.33301 3 16.833 9 22.5
s13.333 8.5 22 8.5h65c8.66699 0 16 -3 22 -9s9 -13.667 9 -23l3 -135c0 -9.33301 -3.16699 -17 -9.5 -23s-14.166 -9 -23.499 -9h-66z" />
    <glyph glyph-name="oslash" unicode="&#xf8;" horiz-adv-x="1182" 
d="M592 -21c-57.333 0 -110.665 9.00195 -159.998 27.002s-94 42 -134 72l-59 -69c-5.33301 -6 -11.833 -9 -19.5 -9s-14.834 3 -21.501 9l-54 45c-6 5.33301 -9.83301 11.833 -11.5 19.5s0.166016 14.5 5.49902 20.5l65 76c-38 48 -67.333 102.5 -88 163.5
s-31 125.833 -31 194.5c0 73.333 12.333 143 37 209s59.334 124 104.001 174s98.167 89.833 160.5 119.5s131.166 44.5 206.499 44.5c58.667 0 113.334 -9.5 164.001 -28.5s96.667 -44.833 138 -77.5l67 77c5.33301 6 12 9.16699 20 9.5s15.667 -2.5 23 -8.5l53 -45
c6.66699 -5.33301 10.667 -12 12 -20s-0.666992 -15 -6 -21l-76 -88c35.333 -48 62.666 -101.333 81.999 -160s29 -120.334 29 -185.001c0 -74.667 -12.5 -145.334 -37.5 -212.001s-59.833 -125 -104.5 -175s-98 -89.5 -160 -118.5s-130 -43.5 -204 -43.5zM592.001 940.002
c-55.333 0 -105.168 -11.335 -149.501 -34.002s-82.166 -52.834 -113.499 -90.501s-55.333 -80.667 -72 -129s-25 -98.166 -25 -149.499c0 -50 6.33301 -96.167 19 -138.5s30 -80.166 52 -113.499l499 577c-28.667 24.667 -60.5 43.834 -95.5 57.501
s-73.167 20.5 -114.5 20.5zM949.999 528c0 40 -5.33398 79.833 -16.001 119.5s-26 76.5 -46 110.5l-491 -567c28 -19.333 58.333 -34.333 91 -45s67.334 -16 104.001 -16c48 0 93.333 9.16699 136 27.5s80.334 44.833 113.001 79.5s58.667 76.5 78 125.5
s29.666 104.167 30.999 165.5z" />
    <glyph glyph-name="ugrave" unicode="&#xf9;" horiz-adv-x="1074" 
d="M936 33c0 -9.33301 -2.99512 -17.167 -8.99512 -23.5s-13.667 -9.5 -23 -9.5h-90c-8.66699 0 -16.334 3.16699 -23.001 9.5s-10 14.5 -10 24.5v81c0 11.333 -4 18 -12 20s-14.667 -0.666992 -20 -8c-34.667 -42.667 -77.334 -78 -128.001 -106s-106.334 -42 -167.001 -42
c-59.333 0 -111.333 10.667 -156 32s-81.834 50 -111.501 86s-52 77.667 -67 125s-22.167 97 -21.5 149l5 652c0 9.33301 3 17 9 23s13.333 9 22 9h77c9.33301 0 17.166 -3 23.499 -9s9.5 -14 9.5 -24l5 -648c0 -39.333 5.66699 -74.166 17 -104.499s27 -55.833 47 -76.5
s43.5 -36.5 70.5 -47.5s56.5 -16.5 88.5 -16.5c35.333 0 71.5 6.33301 108.5 19s70.5 31.5 100.5 56.5s54.667 56.167 74 93.5s29 80.333 29 129l4 595c0 9.33301 3 17.166 9 23.499s13.667 9.5 23 9.5h77c9.33301 0 17 -3.16699 23 -9.5s9 -14.5 9 -24.5zM427.005 1407
c-4.66699 4.66699 -7.16699 9.83301 -7.5 15.5s0.666992 11.167 3 16.5s6 9.83301 11 13.5s10.5 5.5 16.5 5.5h75c14.667 -2 24.667 -7.66699 30 -17l124 -208c4.66699 -8.66699 6 -16.667 4 -24s-5.83301 -13 -11.5 -17s-12.167 -6 -19.5 -6s-14 3.33301 -20 10z" />
    <glyph glyph-name="uacute" unicode="&#xfa;" horiz-adv-x="1074" 
d="M936 33c0 -9.33301 -2.99512 -17.167 -8.99512 -23.5s-13.667 -9.5 -23 -9.5h-90c-8.66699 0 -16.334 3.16699 -23.001 9.5s-10 14.5 -10 24.5v81c0 11.333 -4 18 -12 20s-14.667 -0.666992 -20 -8c-34.667 -42.667 -77.334 -78 -128.001 -106s-106.334 -42 -167.001 -42
c-59.333 0 -111.333 10.667 -156 32s-81.834 50 -111.501 86s-52 77.667 -67 125s-22.167 97 -21.5 149l5 652c0 9.33301 3 17 9 23s13.333 9 22 9h77c9.33301 0 17.166 -3 23.499 -9s9.5 -14 9.5 -24l5 -648c0 -39.333 5.66699 -74.166 17 -104.499s27 -55.833 47 -76.5
s43.5 -36.5 70.5 -47.5s56.5 -16.5 88.5 -16.5c35.333 0 71.5 6.33301 108.5 19s70.5 31.5 100.5 56.5s54.667 56.167 74 93.5s29 80.333 29 129l4 595c0 9.33301 3 17.166 9 23.499s13.667 9.5 23 9.5h77c9.33301 0 17 -3.16699 23 -9.5s9 -14.5 9 -24.5zM534.005 1196
c-6 -7.33301 -12.667 -11.001 -20 -11.001s-13.833 2 -19.5 6s-9.5 9.83301 -11.5 17.5s-0.666992 15.834 4 24.501l124 208c5.33301 9.33301 15.333 15 30 17h76c7.33301 0 13.333 -1.83301 18 -5.5s8 -8.16699 10 -13.5s2.5 -11 1.5 -17s-3.5 -11 -7.5 -15z" />
    <glyph glyph-name="ucircumflex" unicode="&#xfb;" horiz-adv-x="1074" 
d="M936 33c0 -9.33301 -2.99512 -17.167 -8.99512 -23.5s-13.667 -9.5 -23 -9.5h-90c-8.66699 0 -16.334 3.16699 -23.001 9.5s-10 14.5 -10 24.5v81c0 11.333 -4 18 -12 20s-14.667 -0.666992 -20 -8c-34.667 -42.667 -77.334 -78 -128.001 -106s-106.334 -42 -167.001 -42
c-59.333 0 -111.333 10.667 -156 32s-81.834 50 -111.501 86s-52 77.667 -67 125s-22.167 97 -21.5 149l5 652c0 9.33301 3 17 9 23s13.333 9 22 9h77c9.33301 0 17.166 -3 23.499 -9s9.5 -14 9.5 -24l5 -648c0 -39.333 5.66699 -74.166 17 -104.499s27 -55.833 47 -76.5
s43.5 -36.5 70.5 -47.5s56.5 -16.5 88.5 -16.5c35.333 0 71.5 6.33301 108.5 19s70.5 31.5 100.5 56.5s54.667 56.167 74 93.5s29 80.333 29 129l4 595c0 9.33301 3 17.166 9 23.499s13.667 9.5 23 9.5h77c9.33301 0 17 -3.16699 23 -9.5s9 -14.5 9 -24.5zM780.005 1238
c10.667 -10.667 13.5039 -21.833 8.50391 -33.5s-14.5 -17.5 -28.5 -17.5h-75c-12.667 0 -22.334 5.33301 -29.001 16l-120 196c-2.66699 5.33301 -6.5 7.83301 -11.5 7.5s-8.5 -2.83301 -10.5 -7.5l-120 -196c-6.66699 -10.667 -17 -16 -31 -16h-74
c-15.333 0 -24.833 6 -28.5 18s-0.833984 23 8.49902 33l199 208c7.33301 8.66699 16.666 13 27.999 13h58c9.33301 0 17.666 -4.33301 24.999 -13z" />
    <glyph glyph-name="udieresis" unicode="&#xfc;" horiz-adv-x="1074" 
d="M936 33c0 -9.33301 -2.99512 -17.167 -8.99512 -23.5s-13.667 -9.5 -23 -9.5h-90c-8.66699 0 -16.334 3.16699 -23.001 9.5s-10 14.5 -10 24.5v81c0 11.333 -4 18 -12 20s-14.667 -0.666992 -20 -8c-34.667 -42.667 -77.334 -78 -128.001 -106s-106.334 -42 -167.001 -42
c-59.333 0 -111.333 10.667 -156 32s-81.834 50 -111.501 86s-52 77.667 -67 125s-22.167 97 -21.5 149l5 652c0 9.33301 3 17 9 23s13.333 9 22 9h77c9.33301 0 17.166 -3 23.499 -9s9.5 -14 9.5 -24l5 -648c0 -39.333 5.66699 -74.166 17 -104.499s27 -55.833 47 -76.5
s43.5 -36.5 70.5 -47.5s56.5 -16.5 88.5 -16.5c35.333 0 71.5 6.33301 108.5 19s70.5 31.5 100.5 56.5s54.667 56.167 74 93.5s29 80.333 29 129l4 595c0 9.33301 3 17.166 9 23.499s13.667 9.5 23 9.5h77c9.33301 0 17 -3.16699 23 -9.5s9 -14.5 9 -24.5zM347.005 1259
c-9.33301 0 -17.168 3 -23.501 9s-9.5 13.667 -9.5 23l2 136c0 9.33301 3 16.833 9 22.5s13.333 8.5 22 8.5h65c8.66699 0 16 -3 22 -9s9 -13.667 9 -23l3 -135c0 -9.33301 -3.16699 -17 -9.5 -23s-14.166 -9 -23.499 -9h-66zM630.003 1259c-9.33301 0 -17.168 3 -23.501 9
s-9.5 13.667 -9.5 23l2 136c0 9.33301 3 16.833 9 22.5s13.333 8.5 22 8.5h65c8.66699 0 16 -3 22 -9s9 -13.667 9 -23l3 -135c0 -9.33301 -3.16699 -17 -9.5 -23s-14.166 -9 -23.499 -9h-66z" />
    <glyph glyph-name="yacute" unicode="&#xfd;" horiz-adv-x="1024" 
d="M543 1196c-6 -7.33301 -12.667 -11.001 -20 -11.001s-13.833 2 -19.5 6s-9.5 9.83301 -11.5 17.5s-0.666992 15.834 4 24.501l124 208c5.33301 9.33301 15.333 15 30 17h76c7.33301 0 13.333 -1.83301 18 -5.5s8 -8.16699 10 -13.5s2.5 -11 1.5 -17s-3.5 -11 -7.5 -15z
M970 1055c11.333 0 20.002 -4.5 26.002 -13.5s7.33301 -18.5 4 -28.5l-514 -1430c-2.66699 -7.33301 -6.83398 -13 -12.501 -17s-12.167 -6 -19.5 -6h-112c-12 0 -20.667 5 -26 15s-5.66602 20.333 -0.999023 31l142 348c2 5.33301 2.33301 10.666 1 15.999l-373 1042
c-4 10.667 -2.83301 20.5 3.5 29.5s15.166 13.5 26.499 13.5h77c16 0 26.667 -7.33301 32 -22l295 -818c4 -9.33301 10.167 -13.666 18.5 -12.999s14.166 5 17.499 13l306 818c6 14.667 16.333 22 31 22h78z" />
    <glyph glyph-name="ydieresis" unicode="&#xff;" horiz-adv-x="1024" 
d="M970 1055c11.333 0 20.002 -4.5 26.002 -13.5s7.33301 -18.5 4 -28.5l-514 -1430c-2.66699 -7.33301 -6.83398 -13 -12.501 -17s-12.167 -6 -19.5 -6h-112c-12 0 -20.667 5 -26 15s-5.66602 20.333 -0.999023 31l142 348c2 5.33301 2.33301 10.666 1 15.999l-373 1042
c-4 10.667 -2.83301 20.5 3.5 29.5s15.166 13.5 26.499 13.5h77c16 0 26.667 -7.33301 32 -22l295 -818c4 -9.33301 10.167 -13.666 18.5 -12.999s14.166 5 17.499 13l306 818c6 14.667 16.333 22 31 22h78zM376.002 1259c-9.33301 0 -17.168 3 -23.501 9
s-9.5 13.667 -9.5 23l2 136c0 9.33301 3 16.833 9 22.5s13.333 8.5 22 8.5h65c8.66699 0 16 -3 22 -9s9 -13.667 9 -23l3 -135c0 -9.33301 -3.16699 -17 -9.5 -23s-14.166 -9 -23.499 -9h-66zM659 1259c-9.33301 0 -17.168 3 -23.501 9s-9.5 13.667 -9.5 23l2 136
c0 9.33301 3 16.833 9 22.5s13.333 8.5 22 8.5h65c8.66699 0 16 -3 22 -9s9 -13.667 9 -23l3 -135c0 -9.33301 -3.16699 -17 -9.5 -23s-14.166 -9 -23.499 -9h-66z" />
    <glyph glyph-name="Gbreve" unicode="&#x11e;" horiz-adv-x="1554" 
d="M1469 649c-6 -91.333 -27.166 -177.499 -63.499 -258.499s-84.833 -152 -145.5 -213s-131.834 -109.333 -213.501 -145s-170.834 -53.5 -267.501 -53.5c-102 0 -195.667 19.667 -281 59s-158.666 93.5 -219.999 162.5s-109.166 150.167 -143.499 243.5
s-51.5 194.333 -51.5 303c0 102.667 17.167 198.5 51.5 287.5s82.166 166.5 143.499 232.5s134.666 117.833 219.999 155.5s179 56.5 281 56.5c72.667 0 141.834 -10.333 207.501 -31s125.5 -49.5 179.5 -86.5s101.667 -80.667 143 -131s74.333 -104.833 99 -163.5
c3.33301 -7.33301 4.5 -13.833 3.5 -19.5s-3.16699 -10.5 -6.5 -14.5s-7.66602 -7.16699 -12.999 -9.5s-10.333 -3.5 -15 -3.5h-89c-14 0 -24.333 7.66699 -31 23c-24 46.667 -53 87.834 -87 123.501s-71.5 65.5 -112.5 89.5s-85 42.167 -132 54.5s-95.833 18.5 -146.5 18.5
c-76 0 -147 -14.5 -213 -43.5s-123.333 -69.333 -172 -121s-86.834 -113 -114.501 -184s-41.5 -148.833 -41.5 -233.5c0 -87.333 13.667 -168.5 41 -243.5s65.166 -140.167 113.499 -195.5s105.5 -98.666 171.5 -129.999s137.667 -47 215 -47c58 0 113 9.83301 165 29.5
s99.333 46 142 79s79.834 70.833 111.501 113.5s56.5 87 74.5 133c4.66699 11.333 5.66699 22.666 3 33.999s-12 17 -28 17h-335c-10 0 -18.167 3.16699 -24.5 9.5s-9.5 14.166 -9.5 23.499v80c0 9.33301 3.16699 17.166 9.5 23.499s14.5 9.5 24.5 9.5h523
c9.33301 0 17.333 -3.16699 24 -9.5s10 -14.5 10 -24.5zM779.001 1572c-68.667 0 -125.167 16.667 -169.5 50s-71.833 82.333 -82.5 147c-2 14 5.33301 21 22 21h54c7.33301 0 12.5 -1.66699 15.5 -5s5.83301 -8.66602 8.5 -15.999c10 -41.333 28.667 -70.5 56 -87.5
s59.666 -25.5 96.999 -25.5c36.667 0 68.5 8.33301 95.5 25s45.833 46 56.5 88c2 7.33301 4.5 12.666 7.5 15.999s8.16699 5 15.5 5h55c16.667 0 24 -7 22 -21c-11.333 -64.667 -39.166 -113.667 -83.499 -147s-100.833 -50 -169.5 -50z" />
    <glyph glyph-name="gbreve" unicode="&#x11f;" horiz-adv-x="1181" 
d="M1091 19c0 -67.333 -13.001 -130.001 -39.001 -188.001s-61 -108.333 -105 -151s-95 -76.167 -153 -100.5s-119 -36.5 -183 -36.5c-58 0 -111 9 -159 27s-89.833 39.333 -125.5 64s-64.5 50 -86.5 76s-36 47 -42 63c-4 10 -5.16699 18.167 -3.5 24.5
s4.33398 11.333 8.00098 15s7.66699 6.16699 12 7.5s7.83301 2 10.5 2h103c12.667 0 22.334 -5.33301 29.001 -16c30 -37.333 66.833 -66.666 110.5 -87.999s91.167 -32 142.5 -32c44 0 85.5 8.33301 124.5 25s73.167 39.5 102.5 68.5s52.666 63.5 69.999 103.5
s26.666 83.333 27.999 130l2 103c0 12 -4.33301 19 -13 21s-16.334 -1.33301 -23.001 -10c-16 -18 -35 -35.833 -57 -53.5s-46.833 -33.5 -74.5 -47.5s-58 -25.333 -91 -34s-68.833 -13 -107.5 -13c-70 0 -134.667 14.667 -194 44s-110.5 69 -153.5 119
s-76.667 108.5 -101 175.5s-36.5 138.167 -36.5 213.5c0 76.667 12.5 148.167 37.5 214.5s59.167 124 102.5 173s94.333 87.333 153 115s121.667 41.5 189 41.5c40.667 0 77.834 -5 111.501 -15s64.334 -23 92.001 -39s52.667 -34.167 75 -54.5s42.5 -40.833 60.5 -61.5
c7.33301 -7.33301 15 -9.5 23 -6.5s12 9.16699 12 18.5l1 105c0 10 3.33301 18 10 24s14.667 9 24 9h73c10.667 0 19 -3 25 -9s9 -14 9 -24zM588.999 128.999c54.667 0 103.833 11.498 147.5 34.498s80.5 53.333 110.5 91s53 80.834 69 129.501s24 98.667 24 150
c0 57.333 -9.5 110.666 -28.5 159.999s-44.833 92.333 -77.5 129s-71 65.334 -115 86.001s-91 31 -141 31c-52.667 0 -100 -11.167 -142 -33.5s-77.667 -52 -107 -89s-51.833 -79.5 -67.5 -127.5s-23.5 -98 -23.5 -150c0 -51.333 7.83301 -101.666 23.5 -150.999
s38.5 -93.333 68.5 -132s66.667 -69.667 110 -93s93 -35 149 -35zM592.998 1241c-68.667 0 -125.167 16.667 -169.5 50s-71.833 82.333 -82.5 147c-2 14 5.33301 21 22 21h54c7.33301 0 12.5 -1.66699 15.5 -5s5.83301 -8.66602 8.5 -15.999
c10 -41.333 28.667 -70.5 56 -87.5s59.666 -25.5 96.999 -25.5c36.667 0 68.5 8.33301 95.5 25s45.833 46 56.5 88c2 7.33301 4.5 12.666 7.5 15.999s8.16699 5 15.5 5h55c16.667 0 24 -7 22 -21c-11.333 -64.667 -39.166 -113.667 -83.499 -147s-100.833 -50 -169.5 -50z
" />
    <glyph glyph-name="OE" unicode="&#x152;" horiz-adv-x="2019" 
d="M1938 33c0 -9.33301 -3.1709 -17.167 -9.50391 -23.5s-14.166 -9.5 -23.499 -9.5h-864c-6.66699 -1.33301 -19.167 -3 -37.5 -5s-39.833 -3.83301 -64.5 -5.5s-50.834 -3 -78.501 -4s-54.167 -1.5 -79.5 -1.5c-103.333 0.666992 -197.666 20.667 -282.999 60
s-158.666 93.166 -219.999 161.499s-109 148.5 -143 240.5s-51 191.667 -51 299c0 104 17.333 200.833 52 290.5s83.167 167.334 145.5 233.001s136.5 117.167 222.5 154.5s180 56 282 56c25.333 0 52.666 -0.833008 81.999 -2.5s57 -3.83398 83 -6.50098
s48.5 -5.16699 67.5 -7.5l36.5 -4.5h828c8 0 14.667 -2.66699 20 -8s8 -12 8 -20l2 -86c0 -9.33301 -2.16699 -16.666 -6.5 -21.999s-11.166 -8 -20.499 -8h-705c-9.33301 -0.666992 -16.333 -3.83398 -21 -9.50098s-7 -12.5 -7 -20.5l7 -406
c0 -8.66699 2.66699 -15.667 8 -21s12 -8 20 -8h634c20 0 30 -9.33301 30 -28v-88c0 -9.33301 -2.83301 -16.5 -8.5 -21.5s-12.5 -7.5 -20.5 -7.5h-630c-9.33301 0 -16.666 -2.66699 -21.999 -8s-7.66602 -12.333 -6.99902 -21l8 -485c0 -9.33301 2.5 -16.666 7.5 -21.999
s11.833 -8 20.5 -8h702c9.33301 0 17.333 -2.5 24 -7.5s10 -12.167 10 -21.5zM783.996 1329c-78.667 -0.666992 -150.998 -16.3281 -216.998 -46.9951s-123 -72.334 -171 -125.001s-85.333 -114.334 -112 -185.001s-40 -146.334 -40 -227.001
c0 -82.667 13.167 -160.834 39.5 -234.501s63.333 -138.334 111 -194.001s104.667 -100.167 171 -133.5s139.166 -51 218.499 -53c18 0 36.667 0.833008 56 2.5s38.5 3.66699 57.5 6s37 5 54 8s31.5 6.16699 43.5 9.5l20 1159c-10.667 3.33301 -24.334 6 -41.001 8
s-35.167 3.5 -55.5 4.5s-42 1.5 -65 1.5h-69.5z" />
    <glyph glyph-name="oe" unicode="&#x153;" horiz-adv-x="2002" 
d="M593 -21c-75.333 0 -144.168 14.5 -206.501 43.5s-115.833 68.5 -160.5 118.5s-79.334 108.333 -104.001 175s-37 137.334 -37 212.001c0 73.333 12.333 143 37 209s59.334 124 104.001 174s98.167 89.833 160.5 119.5s131.166 44.5 206.499 44.5
c44.667 0 86.5 -6.33301 125.5 -19s75.167 -30.334 108.5 -53.001s63.666 -49.167 90.999 -79.5s51 -63.166 71 -98.499c10 -14 19 -13.667 27 1c19.333 36 42.5 69.167 69.5 99.5s57.5 56.666 91.5 78.999s70.833 39.666 110.5 51.999s82.167 18.5 127.5 18.5
c74.667 0 142.334 -14.333 203.001 -43s112.667 -66.834 156 -114.501s77.333 -102.667 102 -165s38.667 -127.166 42 -194.499c0 -11.333 -3.33301 -20.166 -10 -26.499s-14.334 -9.5 -23.001 -9.5h-788c-12.667 -0.666992 -19 -7.66699 -19 -21
c0 -4 0.166992 -7.83301 0.5 -11.5s0.833008 -7.5 1.5 -11.5c4.66699 -52.667 15.334 -100.334 32.001 -143.001s39 -79.167 67 -109.5s61.833 -53.833 101.5 -70.5s84.5 -25 134.5 -25c66 0 124 15.5 174 46.5s91 71.167 123 120.5c7.33301 11.333 17 17 29 17h94
c13.333 0 22.666 -5.66699 27.999 -17s5.33301 -22 0 -32c-21.333 -43.333 -47 -82.5 -77 -117.5s-64 -65 -102 -90s-79.5 -44.333 -124.5 -58s-92.833 -20.5 -143.5 -20.5c-47.333 0 -91.333 6.5 -132 19.5s-77.667 31 -111 54s-63.333 50.333 -90 82
s-50 65.834 -70 102.501c-2.66699 5.33301 -6.16699 8.16602 -10.5 8.49902s-8.16602 -2.16699 -11.499 -7.5c-20.667 -36 -44.5 -69.833 -71.5 -101.5s-57.167 -59.167 -90.5 -82.5s-69.666 -41.666 -108.999 -54.999s-81.666 -20 -126.999 -20zM930.998 528
c0 52 -7.50391 102.665 -22.5039 151.998s-37 93.166 -66 131.499s-64.5 69.333 -106.5 93s-89.667 35.5 -143 35.5c-55.333 0 -105.166 -11.333 -149.499 -34s-82.166 -52.834 -113.499 -90.501s-55.333 -80.667 -72 -129s-25 -98.166 -25 -149.499
c0 -61.333 9.33301 -117.166 28 -167.499s44.334 -93.166 77.001 -128.499s70.834 -62.666 114.501 -81.999s90.5 -29 140.5 -29c47.333 0 91.333 9.16699 132 27.5s76 44.833 106 79.5s53.833 76.5 71.5 125.5s27.167 104.167 28.5 165.5zM1728.99 644.998
c7.33301 0 12.832 2.5 16.499 7.5s4.16699 11.167 1.5 18.5c-12 36 -28.333 70.167 -49 102.5s-45.167 60.833 -73.5 85.5s-60.166 44.334 -95.499 59.001s-73.333 22 -114 22s-78 -7 -112 -21s-64.5 -33.333 -91.5 -58s-50.167 -53.334 -69.5 -86.001
s-34.333 -67.667 -45 -105c-2.66699 -7.33301 -2.16699 -13.333 1.5 -18s9.5 -7 17.5 -7h613z" />
    <glyph glyph-name="Ydieresis" unicode="&#x178;" horiz-adv-x="1170" 
d="M1113 1458c14 0 22.5049 -4.99805 25.5049 -14.998s0.833008 -20.667 -6.5 -32l-439 -677c-4 -6 -6 -12.333 -6 -19l5 -681c0 -9.33301 -3.16699 -17.333 -9.5 -24s-14.5 -10 -24.5 -10h-93c-10 0 -18.167 3.33301 -24.5 10s-9.5 14.667 -9.5 24l5 681
c0 7.33301 -1.66699 13.666 -5 18.999l-439 677c-6.66699 10 -8.33398 20.333 -5.00098 31s11.666 16 24.999 16h90c11.333 0 20.666 -5.33301 27.999 -16l357 -542c5.33301 -8.66699 13.166 -12.834 23.499 -12.501s18.166 4.83301 23.499 13.5l358 539
c7.33301 12 17.333 18 30 18h91zM436.005 1573c-9.33301 0 -17.168 3 -23.501 9s-9.5 13.667 -9.5 23l2 136c0 9.33301 3 16.833 9 22.5s13.333 8.5 22 8.5h65c8.66699 0 16 -3 22 -9s9 -13.667 9 -23l3 -135c0 -9.33301 -3.16699 -17 -9.5 -23s-14.166 -9 -23.499 -9h-66z
M719.003 1573c-9.33301 0 -17.168 3 -23.501 9s-9.5 13.667 -9.5 23l2 136c0 9.33301 3 16.833 9 22.5s13.333 8.5 22 8.5h65c8.66699 0 16 -3 22 -9s9 -13.667 9 -23l3 -135c0 -9.33301 -3.16699 -17 -9.5 -23s-14.166 -9 -23.499 -9h-66z" />
    <glyph glyph-name="Gcaron" unicode="&#x1e6;" horiz-adv-x="1554" 
d="M1469 649c-6 -91.333 -27.166 -177.499 -63.499 -258.499s-84.833 -152 -145.5 -213s-131.834 -109.333 -213.501 -145s-170.834 -53.5 -267.501 -53.5c-102 0 -195.667 19.667 -281 59s-158.666 93.5 -219.999 162.5s-109.166 150.167 -143.499 243.5
s-51.5 194.333 -51.5 303c0 102.667 17.167 198.5 51.5 287.5s82.166 166.5 143.499 232.5s134.666 117.833 219.999 155.5s179 56.5 281 56.5c72.667 0 141.834 -10.333 207.501 -31s125.5 -49.5 179.5 -86.5s101.667 -80.667 143 -131s74.333 -104.833 99 -163.5
c3.33301 -7.33301 4.5 -13.833 3.5 -19.5s-3.16699 -10.5 -6.5 -14.5s-7.66602 -7.16699 -12.999 -9.5s-10.333 -3.5 -15 -3.5h-89c-14 0 -24.333 7.66699 -31 23c-24 46.667 -53 87.834 -87 123.501s-71.5 65.5 -112.5 89.5s-85 42.167 -132 54.5s-95.833 18.5 -146.5 18.5
c-76 0 -147 -14.5 -213 -43.5s-123.333 -69.333 -172 -121s-86.834 -113 -114.501 -184s-41.5 -148.833 -41.5 -233.5c0 -87.333 13.667 -168.5 41 -243.5s65.166 -140.167 113.499 -195.5s105.5 -98.666 171.5 -129.999s137.667 -47 215 -47c58 0 113 9.83301 165 29.5
s99.333 46 142 79s79.834 70.833 111.501 113.5s56.5 87 74.5 133c4.66699 11.333 5.66699 22.666 3 33.999s-12 17 -28 17h-335c-10 0 -18.167 3.16699 -24.5 9.5s-9.5 14.166 -9.5 23.499v80c0 9.33301 3.16699 17.166 9.5 23.499s14.5 9.5 24.5 9.5h523
c9.33301 0 17.333 -3.16699 24 -9.5s10 -14.5 10 -24.5zM844.001 1585c-7.33301 -8.66699 -15.6699 -12.999 -25.0029 -12.999h-58c-11.333 0 -20.666 4.33301 -27.999 13l-199 208c-9.33301 10 -12.166 21 -8.49902 33s13.167 18 28.5 18h74c14 0 24.333 -5.33301 31 -16
l120 -196c2 -4.66699 5.5 -7.16699 10.5 -7.5s8.83301 2.16699 11.5 7.5l120 196c6.66699 10.667 16.334 16 29.001 16h75c14 0 23.5 -5.83301 28.5 -17.5s2.16699 -22.834 -8.5 -33.501z" />
    <glyph glyph-name="gcaron" unicode="&#x1e7;" horiz-adv-x="1181" 
d="M1091 19c0 -67.333 -13.001 -130.001 -39.001 -188.001s-61 -108.333 -105 -151s-95 -76.167 -153 -100.5s-119 -36.5 -183 -36.5c-58 0 -111 9 -159 27s-89.833 39.333 -125.5 64s-64.5 50 -86.5 76s-36 47 -42 63c-4 10 -5.16699 18.167 -3.5 24.5
s4.33398 11.333 8.00098 15s7.66699 6.16699 12 7.5s7.83301 2 10.5 2h103c12.667 0 22.334 -5.33301 29.001 -16c30 -37.333 66.833 -66.666 110.5 -87.999s91.167 -32 142.5 -32c44 0 85.5 8.33301 124.5 25s73.167 39.5 102.5 68.5s52.666 63.5 69.999 103.5
s26.666 83.333 27.999 130l2 103c0 12 -4.33301 19 -13 21s-16.334 -1.33301 -23.001 -10c-16 -18 -35 -35.833 -57 -53.5s-46.833 -33.5 -74.5 -47.5s-58 -25.333 -91 -34s-68.833 -13 -107.5 -13c-70 0 -134.667 14.667 -194 44s-110.5 69 -153.5 119
s-76.667 108.5 -101 175.5s-36.5 138.167 -36.5 213.5c0 76.667 12.5 148.167 37.5 214.5s59.167 124 102.5 173s94.333 87.333 153 115s121.667 41.5 189 41.5c40.667 0 77.834 -5 111.501 -15s64.334 -23 92.001 -39s52.667 -34.167 75 -54.5s42.5 -40.833 60.5 -61.5
c7.33301 -7.33301 15 -9.5 23 -6.5s12 9.16699 12 18.5l1 105c0 10 3.33301 18 10 24s14.667 9 24 9h73c10.667 0 19 -3 25 -9s9 -14 9 -24zM588.999 128.999c54.667 0 103.833 11.498 147.5 34.498s80.5 53.333 110.5 91s53 80.834 69 129.501s24 98.667 24 150
c0 57.333 -9.5 110.666 -28.5 159.999s-44.833 92.333 -77.5 129s-71 65.334 -115 86.001s-91 31 -141 31c-52.667 0 -100 -11.167 -142 -33.5s-77.667 -52 -107 -89s-51.833 -79.5 -67.5 -127.5s-23.5 -98 -23.5 -150c0 -51.333 7.83301 -101.666 23.5 -150.999
s38.5 -93.333 68.5 -132s66.667 -69.667 110 -93s93 -35 149 -35zM651.998 1200c-7.33301 -8.66699 -15.6699 -12.999 -25.0029 -12.999h-58c-11.333 0 -20.666 4.33301 -27.999 13l-199 208c-9.33301 10 -12.166 21 -8.49902 33s13.167 18 28.5 18h74
c14 0 24.333 -5.33301 31 -16l120 -196c2 -4.66699 5.5 -7.16699 10.5 -7.5s8.83301 2.16699 11.5 7.5l120 196c6.66699 10.667 16.334 16 29.001 16h75c14 0 23.5 -5.83301 28.5 -17.5s2.16699 -22.834 -8.5 -33.501z" />
    <glyph glyph-name="circumflex" unicode="&#x2c6;" horiz-adv-x="707" 
d="M608 1623c10.667 -10.667 13.5039 -21.833 8.50391 -33.5s-14.5 -17.5 -28.5 -17.5h-75c-12.667 0 -22.334 5.33301 -29.001 16l-120 196c-2.66699 5.33301 -6.5 7.83301 -11.5 7.5s-8.5 -2.83301 -10.5 -7.5l-120 -196c-6.66699 -10.667 -17 -16 -31 -16h-74
c-15.333 0 -24.833 6 -28.5 18s-0.833984 23 8.49902 33l199 208c7.33301 8.66699 16.666 13 27.999 13h58c9.33301 0 17.666 -4.33301 24.999 -13z" />
    <glyph glyph-name="caron" unicode="&#x2c7;" horiz-adv-x="648" 
d="M389 1585c-7.33301 -8.66699 -15.6699 -12.999 -25.0029 -12.999h-58c-11.333 0 -20.666 4.33301 -27.999 13l-199 208c-9.33301 10 -12.166 21 -8.49902 33s13.167 18 28.5 18h74c14 0 24.333 -5.33301 31 -16l120 -196c2 -4.66699 5.5 -7.16699 10.5 -7.5
s8.83301 2.16699 11.5 7.5l120 196c6.66699 10.667 16.334 16 29.001 16h75c14 0 23.5 -5.83301 28.5 -17.5s2.16699 -22.834 -8.5 -33.501z" />
    <glyph glyph-name="breve" unicode="&#x2d8;" horiz-adv-x="597" 
d="M296 1572c-68.667 0 -125.167 16.667 -169.5 50s-71.833 82.333 -82.5 147c-2 14 5.33301 21 22 21h54c7.33301 0 12.5 -1.66699 15.5 -5s5.83301 -8.66602 8.5 -15.999c10 -41.333 28.667 -70.5 56 -87.5s59.666 -25.5 96.999 -25.5c36.667 0 68.5 8.33301 95.5 25
s45.833 46 56.5 88c2 7.33301 4.5 12.666 7.5 15.999s8.16699 5 15.5 5h55c16.667 0 24 -7 22 -21c-11.333 -64.667 -39.166 -113.667 -83.499 -147s-100.833 -50 -169.5 -50z" />
    <glyph glyph-name="dotaccent" unicode="&#x2d9;" horiz-adv-x="305" 
d="M120 1259c-9.33301 0 -17.168 3 -23.501 9s-9.5 13.667 -9.5 23l2 136c0 9.33301 3 16.833 9 22.5s13.333 8.5 22 8.5h65c8.66699 0 16 -3 22 -9s9 -13.667 9 -23l3 -135c0 -9.33301 -3.16699 -17 -9.5 -23s-14.166 -9 -23.499 -9h-66z" />
    <glyph glyph-name="ring" unicode="&#x2da;" horiz-adv-x="529" 
d="M264 1892c26 0 50 -4.83301 72 -14.5s41.167 -22.667 57.5 -39s29.166 -35.666 38.499 -57.999s14 -45.833 14 -70.5c0 -25.333 -4.66699 -48.833 -14 -70.5s-22.166 -40.667 -38.499 -57s-35.5 -29.166 -57.5 -38.499s-46 -14 -72 -14c-24.667 0 -48 4.66699 -70 14
s-41.167 22.166 -57.5 38.499s-29.333 35.333 -39 57s-14.5 45.167 -14.5 70.5c0 24.667 4.83301 48.167 14.5 70.5s22.667 41.666 39 57.999s35.5 29.333 57.5 39s45.333 14.5 70 14.5zM264 1612c31.333 0 55.833 8.83301 73.5 26.5s26.5 41.5 26.5 71.5
c0 31.333 -8.83301 55.666 -26.5 72.999s-42.167 26 -73.5 26c-30 0 -53.833 -8.66699 -71.5 -26s-26.5 -41.666 -26.5 -72.999c0 -30 8.83301 -53.833 26.5 -71.5s41.5 -26.5 71.5 -26.5z" />
    <glyph glyph-name="tilde" unicode="&#x2dc;" horiz-adv-x="712" 
d="M628 1441c-0.666992 -22 -5 -42.668 -13 -62.001s-18.833 -36.166 -32.5 -50.499s-29.834 -25.5 -48.501 -33.5s-38.334 -12 -59.001 -12c-26 0 -48.333 4.83301 -67 14.5s-36 20.5 -52 32.5s-32.5 22.833 -49.5 32.5s-37.167 14.5 -60.5 14.5
c-27.333 0 -51.666 -7.16699 -72.999 -21.5s-40 -32.166 -56 -53.499c-5.33301 -5.33301 -12.166 -7.16602 -20.499 -5.49902s-12.5 6.5 -12.5 14.5c0 22 3.83301 43 11.5 63s18.5 37.833 32.5 53.5s30.833 28 50.5 37s41.5 13.5 65.5 13.5c26 0 47.167 -4.83301 63.5 -14.5
s32 -20.167 47 -31.5s31.5 -21.833 49.5 -31.5s41.667 -14.5 71 -14.5c27.333 0 50.833 6.83301 70.5 20.5s36.834 28.167 51.501 43.5c2 3.33301 4.83301 5.66602 8.5 6.99902s7.16699 1.5 10.5 0.5s6.16602 -2.83301 8.49902 -5.5s3.5 -6.33398 3.5 -11.001z" />
    <glyph glyph-name="endash" unicode="&#x2013;" horiz-adv-x="1012" 
d="M924 527c-0.666992 -7.33301 -3.49902 -13.5 -8.49902 -18.5s-11.167 -7.83301 -18.5 -8.5h-781c-7.33301 0 -13.833 2.66699 -19.5 8s-8.5 11.666 -8.5 18.999v77c0 7.33301 2.83301 13.833 8.5 19.5s12.167 8.5 19.5 8.5h780c7.33301 0 13.666 -2.66699 18.999 -8
s8.33301 -11.666 9 -18.999v-78z" />
    <glyph glyph-name="emdash" unicode="&#x2014;" horiz-adv-x="1389" 
d="M1301 527c-0.666992 -7.33301 -3.49902 -13.5 -8.49902 -18.5s-11.167 -7.83301 -18.5 -8.5h-1158c-7.33301 0 -13.833 2.66699 -19.5 8s-8.5 11.666 -8.5 18.999v77c0 7.33301 2.83301 13.833 8.5 19.5s12.167 8.5 19.5 8.5h1157c7.33301 0 13.666 -2.66699 18.999 -8
s8.33301 -11.666 9 -18.999v-78z" />
    <glyph glyph-name="quoteleft" unicode="&#x2018;" horiz-adv-x="360" 
d="M200 1453c7.33301 6 14.498 8.66797 21.498 8.00098s12.667 -3.33398 17 -8.00098s6.83301 -10.667 7.5 -18s-2 -14.333 -8 -21c-13.333 -15.333 -22.666 -31.833 -27.999 -49.5s-6.83301 -35.167 -4.5 -52.5s8.16602 -33.5 17.499 -48.5s22.333 -27.167 39 -36.5
c12 -7.33301 18 -18 18 -32l-2 -135c0 -9.33301 -3.16699 -17.333 -9.5 -24s-14.166 -10 -23.499 -10h-129c-9.33301 0 -17 3.33301 -23 10s-9.33301 14.667 -10 24l-3 135c2 54.667 13.333 103.667 34 147s49.334 80.333 86.001 111z" />
    <glyph glyph-name="quoteright" unicode="&#x2019;" horiz-adv-x="360" 
d="M161 1031c-7.33301 -6 -14.666 -8.66895 -21.999 -8.00195s-13.166 3.33398 -17.499 8.00098s-6.83301 10.667 -7.5 18s2 14.333 8 21c13.333 14.667 22.666 31 27.999 49s7 35.833 5 53.5s-7.83301 33.834 -17.5 48.501s-22.834 26.667 -39.501 36
c-5.33301 4 -9.66602 8.5 -12.999 13.5s-5 11.167 -5 18.5l2 135c0 9.33301 3.16699 17.333 9.5 24s14.166 10 23.499 10h129c9.33301 0 17 -3.33301 23 -10s9.33301 -14.667 10 -24l3 -135c-2 -54.667 -13.333 -103.667 -34 -147s-49 -80.333 -85 -111z" />
    <glyph glyph-name="quotedblleft" unicode="&#x201c;" horiz-adv-x="823" 
d="M200 1453c7.33301 6 14.498 8.66797 21.498 8.00098s12.667 -3.33398 17 -8.00098s6.83301 -10.667 7.5 -18s-2 -14.333 -8 -21c-13.333 -15.333 -22.666 -31.833 -27.999 -49.5s-6.83301 -35.167 -4.5 -52.5s8.16602 -33.5 17.499 -48.5s22.333 -27.167 39 -36.5
c12 -7.33301 18 -18 18 -32l-2 -135c0 -9.33301 -3.16699 -17.333 -9.5 -24s-14.166 -10 -23.499 -10h-129c-9.33301 0 -17 3.33301 -23 10s-9.33301 14.667 -10 24l-3 135c2 54.667 13.333 103.667 34 147s49.334 80.333 86.001 111zM556.998 1453
c7.33301 6 14.498 8.66797 21.498 8.00098s12.667 -3.33398 17 -8.00098s6.83301 -10.667 7.5 -18s-2 -14.333 -8 -21c-13.333 -15.333 -22.666 -31.833 -27.999 -49.5s-6.83301 -35.167 -4.5 -52.5s8.16602 -33.5 17.499 -48.5s22.333 -27.167 39 -36.5
c12 -7.33301 18 -18 18 -32l-2 -135c0 -9.33301 -3.16699 -17.333 -9.5 -24s-14.166 -10 -23.499 -10h-129c-9.33301 0 -17 3.33301 -23 10s-9.33301 14.667 -10 24l-3 135c2 54.667 13.333 103.667 34 147s49.334 80.333 86.001 111z" />
    <glyph glyph-name="quotedblright" unicode="&#x201d;" horiz-adv-x="823" 
d="M161 1031c-7.33301 -6 -14.666 -8.66895 -21.999 -8.00195s-13.166 3.33398 -17.499 8.00098s-6.83301 10.667 -7.5 18s2 14.333 8 21c13.333 14.667 22.666 31 27.999 49s7 35.833 5 53.5s-7.83301 33.834 -17.5 48.501s-22.834 26.667 -39.501 36
c-5.33301 4 -9.66602 8.5 -12.999 13.5s-5 11.167 -5 18.5l2 135c0 9.33301 3.16699 17.333 9.5 24s14.166 10 23.499 10h129c9.33301 0 17 -3.33301 23 -10s9.33301 -14.667 10 -24l3 -135c-2 -54.667 -13.333 -103.667 -34 -147s-49 -80.333 -85 -111zM518 1031
c-7.33301 -6 -14.666 -8.66895 -21.999 -8.00195s-13.166 3.33398 -17.499 8.00098s-6.83301 10.667 -7.5 18s2 14.333 8 21c13.333 14.667 22.666 31 27.999 49s7 35.833 5 53.5s-7.83301 33.834 -17.5 48.501s-22.834 26.667 -39.501 36
c-5.33301 4 -9.66602 8.5 -12.999 13.5s-5 11.167 -5 18.5l2 135c0 9.33301 3.16699 17.333 9.5 24s14.166 10 23.499 10h129c9.33301 0 17 -3.33301 23 -10s9.33301 -14.667 10 -24l3 -135c-2 -54.667 -13.333 -103.667 -34 -147s-49 -80.333 -85 -111z" />
    <glyph glyph-name="bullet" unicode="&#x2022;" horiz-adv-x="854" 
d="M771 728c0 -47.333 -9 -91.833 -27 -133.5s-42.5 -78 -73.5 -109s-67.333 -55.5 -109 -73.5s-86.167 -27 -133.5 -27c-48 0 -93 9 -135 27s-78.5 42.5 -109.5 73.5s-55.5 67.333 -73.5 109s-27 86.167 -27 133.5c0 48 9 93 27 135s42.5 78.5 73.5 109.5
s67.5 55.5 109.5 73.5s87 27 135 27c47.333 0 91.833 -9 133.5 -27s78 -42.5 109 -73.5s55.5 -67.5 73.5 -109.5s27 -87 27 -135z" />
    <glyph glyph-name="ellipsis" unicode="&#x2026;" horiz-adv-x="1729" 
d="M1544 34c0 -9.33301 -2.99902 -17.333 -8.99902 -24s-14 -10 -24 -10h-131c-9.33301 -0 -17 3.33301 -23 10s-9 14.667 -9 24l2 135c0 9.33301 3.16699 17.333 9.5 24s14.166 10 23.499 10h125c9.33301 0 17 -3.33301 23 -10s9.33301 -14.667 10 -24zM894.001 34
c0 -9.33301 -2.99902 -17.333 -8.99902 -24s-14 -10 -24 -10h-131c-9.33301 -0 -17 3.33301 -23 10s-9 14.667 -9 24l2 135c0 9.33301 3.16699 17.333 9.5 24s14.166 10 23.499 10h125c9.33301 0 17 -3.33301 23 -10s9.33301 -14.667 10 -24zM307.002 34
c0 -9.33301 -2.99902 -17.333 -8.99902 -24s-14 -10 -24 -10h-131c-9.33301 -0 -17 3.33301 -23 10s-9 14.667 -9 24l2 135c0 9.33301 3.16699 17.333 9.5 24s14.166 10 23.499 10h125c9.33301 0 17 -3.33301 23 -10s9.33301 -14.667 10 -24z" />
    </font>
</defs>
</svg>
